M48
; DRILL file {KiCad 8.0.2} date 2024-07-30T13:24:03-0600
; FORMAT={-:-/ absolute / inch / decimal}
; #@! TF.CreationDate,2024-07-30T13:24:03-06:00
; #@! TF.GenerationSoftware,Kicad,Pcbnew,8.0.2
; #@! TF.FileFunction,Plated,1,2,PTH
FMAT,2
INCH
; #@! TA.AperFunction,Plated,PTH,ComponentDrill
T1C0.0197
; #@! TA.AperFunction,Plated,PTH,ComponentDrill
T2C0.0315
; #@! TA.AperFunction,Plated,PTH,ComponentDrill
T3C0.0433
; #@! TA.AperFunction,Plated,PTH,ComponentDrill
T4C0.0472
; #@! TA.AperFunction,Plated,PTH,ComponentDrill
T5C0.1457
%
G90
G05
T1
X4.4407Y-2.6
X4.4407Y-5.35
X4.4727Y-2.5227
X4.4727Y-2.6773
X4.4727Y-5.2727
X4.4727Y-5.4273
X4.55Y-2.4907
X4.55Y-2.7093
X4.55Y-5.2407
X4.55Y-5.4593
X4.6273Y-2.5227
X4.6273Y-2.6773
X4.6273Y-5.2727
X4.6273Y-5.4273
X4.6593Y-2.6
X4.6593Y-5.35
X6.1907Y-2.6
X6.1907Y-5.35
X6.2227Y-2.5227
X6.2227Y-2.6773
X6.2227Y-5.2727
X6.2227Y-5.4273
X6.3Y-2.4907
X6.3Y-2.7093
X6.3Y-5.2407
X6.3Y-5.4593
X6.3773Y-2.5227
X6.3773Y-2.6773
X6.3773Y-5.2727
X6.3773Y-5.4273
X6.4093Y-2.6
X6.4093Y-5.35
T2
X5.0292Y-3.0319
X5.0292Y-3.1319
X5.0292Y-3.2319
X5.0292Y-3.3319
X5.0292Y-3.4319
X5.0292Y-3.5319
X5.0292Y-3.6319
X5.0292Y-3.7319
X5.0292Y-3.8319
X5.0292Y-3.9319
X5.0292Y-4.0319
X5.0292Y-4.1319
X5.0292Y-4.2319
X5.0292Y-4.3319
X5.0292Y-4.4319
X5.0292Y-4.5319
X5.8292Y-3.4319
X5.8292Y-3.5319
X5.8292Y-3.6319
X5.8292Y-3.7319
X5.8292Y-3.8319
X5.8292Y-3.9319
X5.8292Y-4.0319
X5.8292Y-4.1319
X5.8292Y-4.2319
X5.8292Y-4.3319
X5.8292Y-4.4319
X5.8292Y-4.5319
T3
X4.85Y-4.875
X4.85Y-4.975
X4.85Y-5.075
X4.85Y-5.175
X4.85Y-5.275
X5.125Y-5.125
X5.225Y-5.125
X5.325Y-5.125
X5.525Y-5.125
X5.625Y-5.125
X5.725Y-5.125
X6.0Y-4.875
X6.0Y-4.975
X6.0Y-5.075
X6.0Y-5.175
X6.0Y-5.275
X6.075Y-2.9
X6.075Y-3.0
X6.075Y-3.1
X6.075Y-3.2
X6.075Y-3.4304
X6.075Y-3.5304
X6.075Y-3.6304
X6.075Y-3.7304
X6.075Y-3.8304
X6.075Y-3.9304
X6.075Y-4.0304
X6.075Y-4.1304
X6.075Y-4.2304
X6.075Y-4.3304
X6.075Y-4.4304
X6.075Y-4.5304
T4
X4.775Y-3.0317
X4.775Y-3.1317
X4.775Y-3.2317
X4.775Y-3.3317
X4.775Y-3.4317
X4.775Y-3.5317
X4.775Y-3.6317
X4.775Y-3.7317
X4.775Y-3.8317
X4.775Y-3.9317
X4.775Y-4.0317
X4.775Y-4.1317
X4.775Y-4.2317
X4.775Y-4.3317
X4.775Y-4.4317
X4.775Y-4.5317
T5
X4.55Y-2.6
X4.55Y-5.35
X6.3Y-2.6
X6.3Y-5.35
M30
