<?xml version="1.0" standalone="no"?>
 <!DOCTYPE svg PUBLIC "-//W3C//DTD SVG 1.1//EN" 
 "http://www.w3.org/Graphics/SVG/1.1/DTD/svg11.dtd"> 
<svg
  xmlns:svg="http://www.w3.org/2000/svg"
  xmlns="http://www.w3.org/2000/svg"
  xmlns:xlink="http://www.w3.org/1999/xlink"
  version="1.1"
  width="297.0022mm" height="210.0072mm" viewBox="0.0000 0.0000 297.0022 210.0072">
<title>SVG Image created as PhotonBreakout-Edge_Cuts.svg date 2024/09/20 09:26:51 </title>
  <desc>Image generated by PCBNEW </desc>
<g style="fill:#000000; fill-opacity:1.0000;stroke:#000000; stroke-opacity:1.0000;
stroke-linecap:round; stroke-linejoin:round;"
 transform="translate(0 0) scale(1 1)">
</g>
<g style="fill:none; 
stroke:#000000; stroke-width:0.1500; stroke-opacity:1; 
stroke-linecap:round; stroke-linejoin:round;">
<path d="M177.0022 166.0072
L285.0022 166.0072
L285.0022 198.0072
L177.0022 198.0072
L177.0022 166.0072
" />
</g>
<g style="fill:none; 
stroke:#000000; stroke-width:0.1500; stroke-opacity:1; 
stroke-linecap:round; stroke-linejoin:round;">
<path d="M10.0000 10.0000
L287.0022 10.0000
L287.0022 200.0072
L10.0000 200.0072
L10.0000 10.0000
" />
</g>
<g style="fill:none; 
stroke:#000000; stroke-width:0.1500; stroke-opacity:1; 
stroke-linecap:round; stroke-linejoin:round;">
<path d="M12.0000 12.0000
L285.0022 12.0000
L285.0022 198.0072
L12.0000 198.0072
L12.0000 12.0000
" />
</g>
<g style="fill:none; 
stroke:#000000; stroke-width:0.1500; stroke-opacity:1; 
stroke-linecap:round; stroke-linejoin:round;">
<path d="M60.0000 12.0000
L60.0000 10.0000
" />
</g>
<g style="fill:none; 
stroke:#000000; stroke-width:0.1500; stroke-opacity:1; 
stroke-linecap:round; stroke-linejoin:round;">
<path d="M110.0000 12.0000
L110.0000 10.0000
" />
</g>
<g style="fill:none; 
stroke:#000000; stroke-width:0.1500; stroke-opacity:1; 
stroke-linecap:round; stroke-linejoin:round;">
<path d="M160.0000 12.0000
L160.0000 10.0000
" />
</g>
<g style="fill:none; 
stroke:#000000; stroke-width:0.1500; stroke-opacity:1; 
stroke-linecap:round; stroke-linejoin:round;">
<path d="M210.0000 12.0000
L210.0000 10.0000
" />
</g>
<g style="fill:none; 
stroke:#000000; stroke-width:0.1500; stroke-opacity:1; 
stroke-linecap:round; stroke-linejoin:round;">
<path d="M260.0000 12.0000
L260.0000 10.0000
" />
</g>
<g style="fill:none; 
stroke:#000000; stroke-width:0.1500; stroke-opacity:1; 
stroke-linecap:round; stroke-linejoin:round;">
<text x="35.0000" y="11.6500"
textLength="1.4281" font-size="1.7333" lengthAdjust="spacingAndGlyphs"
text-anchor="start" opacity="0">1</text>
<g class="stroked-text"><desc>1</desc>
<path d="M36.0892 11.5936
L35.3463 11.5936
" />
<path d="M35.7177 11.5936
L35.7177 10.2936
" />
<path d="M35.7177 10.2936
L35.5939 10.4793
" />
<path d="M35.5939 10.4793
L35.4701 10.6031
" />
<path d="M35.4701 10.6031
L35.3463 10.6650
" />
</g></g>
<g style="fill:none; 
stroke:#000000; stroke-width:0.1500; stroke-opacity:1; 
stroke-linecap:round; stroke-linejoin:round;">
<text x="85.0000" y="11.6500"
textLength="1.4281" font-size="1.7333" lengthAdjust="spacingAndGlyphs"
text-anchor="start" opacity="0">2</text>
<g class="stroked-text"><desc>2</desc>
<path d="M85.3463 10.4174
L85.4082 10.3555
" />
<path d="M85.4082 10.3555
L85.5320 10.2936
" />
<path d="M85.5320 10.2936
L85.8415 10.2936
" />
<path d="M85.8415 10.2936
L85.9654 10.3555
" />
<path d="M85.9654 10.3555
L86.0273 10.4174
" />
<path d="M86.0273 10.4174
L86.0892 10.5412
" />
<path d="M86.0892 10.5412
L86.0892 10.6650
" />
<path d="M86.0892 10.6650
L86.0273 10.8507
" />
<path d="M86.0273 10.8507
L85.2844 11.5936
" />
<path d="M85.2844 11.5936
L86.0892 11.5936
" />
</g></g>
<g style="fill:none; 
stroke:#000000; stroke-width:0.1500; stroke-opacity:1; 
stroke-linecap:round; stroke-linejoin:round;">
<text x="135.0000" y="11.6500"
textLength="1.4281" font-size="1.7333" lengthAdjust="spacingAndGlyphs"
text-anchor="start" opacity="0">3</text>
<g class="stroked-text"><desc>3</desc>
<path d="M135.2844 10.2936
L136.0892 10.2936
" />
<path d="M136.0892 10.2936
L135.6558 10.7888
" />
<path d="M135.6558 10.7888
L135.8415 10.7888
" />
<path d="M135.8415 10.7888
L135.9654 10.8507
" />
<path d="M135.9654 10.8507
L136.0273 10.9127
" />
<path d="M136.0273 10.9127
L136.0892 11.0365
" />
<path d="M136.0892 11.0365
L136.0892 11.3460
" />
<path d="M136.0892 11.3460
L136.0273 11.4698
" />
<path d="M136.0273 11.4698
L135.9654 11.5317
" />
<path d="M135.9654 11.5317
L135.8415 11.5936
" />
<path d="M135.8415 11.5936
L135.4701 11.5936
" />
<path d="M135.4701 11.5936
L135.3463 11.5317
" />
<path d="M135.3463 11.5317
L135.2844 11.4698
" />
</g></g>
<g style="fill:none; 
stroke:#000000; stroke-width:0.1500; stroke-opacity:1; 
stroke-linecap:round; stroke-linejoin:round;">
<text x="185.0000" y="11.6500"
textLength="1.4281" font-size="1.7333" lengthAdjust="spacingAndGlyphs"
text-anchor="start" opacity="0">4</text>
<g class="stroked-text"><desc>4</desc>
<path d="M185.9654 10.7269
L185.9654 11.5936
" />
<path d="M185.6558 10.2317
L185.3463 11.1603
" />
<path d="M185.3463 11.1603
L186.1511 11.1603
" />
</g></g>
<g style="fill:none; 
stroke:#000000; stroke-width:0.1500; stroke-opacity:1; 
stroke-linecap:round; stroke-linejoin:round;">
<text x="235.0000" y="11.6500"
textLength="1.4281" font-size="1.7333" lengthAdjust="spacingAndGlyphs"
text-anchor="start" opacity="0">5</text>
<g class="stroked-text"><desc>5</desc>
<path d="M236.0273 10.2936
L235.4082 10.2936
" />
<path d="M235.4082 10.2936
L235.3463 10.9127
" />
<path d="M235.3463 10.9127
L235.4082 10.8507
" />
<path d="M235.4082 10.8507
L235.5320 10.7888
" />
<path d="M235.5320 10.7888
L235.8415 10.7888
" />
<path d="M235.8415 10.7888
L235.9654 10.8507
" />
<path d="M235.9654 10.8507
L236.0273 10.9127
" />
<path d="M236.0273 10.9127
L236.0892 11.0365
" />
<path d="M236.0892 11.0365
L236.0892 11.3460
" />
<path d="M236.0892 11.3460
L236.0273 11.4698
" />
<path d="M236.0273 11.4698
L235.9654 11.5317
" />
<path d="M235.9654 11.5317
L235.8415 11.5936
" />
<path d="M235.8415 11.5936
L235.5320 11.5936
" />
<path d="M235.5320 11.5936
L235.4082 11.5317
" />
<path d="M235.4082 11.5317
L235.3463 11.4698
" />
</g></g>
<g style="fill:none; 
stroke:#000000; stroke-width:0.1500; stroke-opacity:1; 
stroke-linecap:round; stroke-linejoin:round;">
<text x="285.0000" y="11.6500"
textLength="1.4281" font-size="1.7333" lengthAdjust="spacingAndGlyphs"
text-anchor="start" opacity="0">6</text>
<g class="stroked-text"><desc>6</desc>
<path d="M285.9654 10.2936
L285.7177 10.2936
" />
<path d="M285.7177 10.2936
L285.5939 10.3555
" />
<path d="M285.5939 10.3555
L285.5320 10.4174
" />
<path d="M285.5320 10.4174
L285.4082 10.6031
" />
<path d="M285.4082 10.6031
L285.3463 10.8507
" />
<path d="M285.3463 10.8507
L285.3463 11.3460
" />
<path d="M285.3463 11.3460
L285.4082 11.4698
" />
<path d="M285.4082 11.4698
L285.4701 11.5317
" />
<path d="M285.4701 11.5317
L285.5939 11.5936
" />
<path d="M285.5939 11.5936
L285.8415 11.5936
" />
<path d="M285.8415 11.5936
L285.9654 11.5317
" />
<path d="M285.9654 11.5317
L286.0273 11.4698
" />
<path d="M286.0273 11.4698
L286.0892 11.3460
" />
<path d="M286.0892 11.3460
L286.0892 11.0365
" />
<path d="M286.0892 11.0365
L286.0273 10.9127
" />
<path d="M286.0273 10.9127
L285.9654 10.8507
" />
<path d="M285.9654 10.8507
L285.8415 10.7888
" />
<path d="M285.8415 10.7888
L285.5939 10.7888
" />
<path d="M285.5939 10.7888
L285.4701 10.8507
" />
<path d="M285.4701 10.8507
L285.4082 10.9127
" />
<path d="M285.4082 10.9127
L285.3463 11.0365
" />
</g></g>
<g style="fill:none; 
stroke:#000000; stroke-width:0.1500; stroke-opacity:1; 
stroke-linecap:round; stroke-linejoin:round;">
<path d="M60.0000 198.0072
L60.0000 200.0072
" />
</g>
<g style="fill:none; 
stroke:#000000; stroke-width:0.1500; stroke-opacity:1; 
stroke-linecap:round; stroke-linejoin:round;">
<path d="M110.0000 198.0072
L110.0000 200.0072
" />
</g>
<g style="fill:none; 
stroke:#000000; stroke-width:0.1500; stroke-opacity:1; 
stroke-linecap:round; stroke-linejoin:round;">
<path d="M160.0000 198.0072
L160.0000 200.0072
" />
</g>
<g style="fill:none; 
stroke:#000000; stroke-width:0.1500; stroke-opacity:1; 
stroke-linecap:round; stroke-linejoin:round;">
<path d="M210.0000 198.0072
L210.0000 200.0072
" />
</g>
<g style="fill:none; 
stroke:#000000; stroke-width:0.1500; stroke-opacity:1; 
stroke-linecap:round; stroke-linejoin:round;">
<path d="M260.0000 198.0072
L260.0000 200.0072
" />
</g>
<g style="fill:none; 
stroke:#000000; stroke-width:0.1500; stroke-opacity:1; 
stroke-linecap:round; stroke-linejoin:round;">
<text x="35.0000" y="199.6572"
textLength="1.4281" font-size="1.7333" lengthAdjust="spacingAndGlyphs"
text-anchor="start" opacity="0">1</text>
<g class="stroked-text"><desc>1</desc>
<path d="M36.0892 199.6008
L35.3463 199.6008
" />
<path d="M35.7177 199.6008
L35.7177 198.3008
" />
<path d="M35.7177 198.3008
L35.5939 198.4865
" />
<path d="M35.5939 198.4865
L35.4701 198.6103
" />
<path d="M35.4701 198.6103
L35.3463 198.6722
" />
</g></g>
<g style="fill:none; 
stroke:#000000; stroke-width:0.1500; stroke-opacity:1; 
stroke-linecap:round; stroke-linejoin:round;">
<text x="85.0000" y="199.6572"
textLength="1.4281" font-size="1.7333" lengthAdjust="spacingAndGlyphs"
text-anchor="start" opacity="0">2</text>
<g class="stroked-text"><desc>2</desc>
<path d="M85.3463 198.4246
L85.4082 198.3627
" />
<path d="M85.4082 198.3627
L85.5320 198.3008
" />
<path d="M85.5320 198.3008
L85.8415 198.3008
" />
<path d="M85.8415 198.3008
L85.9654 198.3627
" />
<path d="M85.9654 198.3627
L86.0273 198.4246
" />
<path d="M86.0273 198.4246
L86.0892 198.5484
" />
<path d="M86.0892 198.5484
L86.0892 198.6722
" />
<path d="M86.0892 198.6722
L86.0273 198.8579
" />
<path d="M86.0273 198.8579
L85.2844 199.6008
" />
<path d="M85.2844 199.6008
L86.0892 199.6008
" />
</g></g>
<g style="fill:none; 
stroke:#000000; stroke-width:0.1500; stroke-opacity:1; 
stroke-linecap:round; stroke-linejoin:round;">
<text x="135.0000" y="199.6572"
textLength="1.4281" font-size="1.7333" lengthAdjust="spacingAndGlyphs"
text-anchor="start" opacity="0">3</text>
<g class="stroked-text"><desc>3</desc>
<path d="M135.2844 198.3008
L136.0892 198.3008
" />
<path d="M136.0892 198.3008
L135.6558 198.7960
" />
<path d="M135.6558 198.7960
L135.8415 198.7960
" />
<path d="M135.8415 198.7960
L135.9654 198.8579
" />
<path d="M135.9654 198.8579
L136.0273 198.9199
" />
<path d="M136.0273 198.9199
L136.0892 199.0437
" />
<path d="M136.0892 199.0437
L136.0892 199.3532
" />
<path d="M136.0892 199.3532
L136.0273 199.4770
" />
<path d="M136.0273 199.4770
L135.9654 199.5389
" />
<path d="M135.9654 199.5389
L135.8415 199.6008
" />
<path d="M135.8415 199.6008
L135.4701 199.6008
" />
<path d="M135.4701 199.6008
L135.3463 199.5389
" />
<path d="M135.3463 199.5389
L135.2844 199.4770
" />
</g></g>
<g style="fill:none; 
stroke:#000000; stroke-width:0.1500; stroke-opacity:1; 
stroke-linecap:round; stroke-linejoin:round;">
<text x="185.0000" y="199.6572"
textLength="1.4281" font-size="1.7333" lengthAdjust="spacingAndGlyphs"
text-anchor="start" opacity="0">4</text>
<g class="stroked-text"><desc>4</desc>
<path d="M185.9654 198.7341
L185.9654 199.6008
" />
<path d="M185.6558 198.2389
L185.3463 199.1675
" />
<path d="M185.3463 199.1675
L186.1511 199.1675
" />
</g></g>
<g style="fill:none; 
stroke:#000000; stroke-width:0.1500; stroke-opacity:1; 
stroke-linecap:round; stroke-linejoin:round;">
<text x="235.0000" y="199.6572"
textLength="1.4281" font-size="1.7333" lengthAdjust="spacingAndGlyphs"
text-anchor="start" opacity="0">5</text>
<g class="stroked-text"><desc>5</desc>
<path d="M236.0273 198.3008
L235.4082 198.3008
" />
<path d="M235.4082 198.3008
L235.3463 198.9199
" />
<path d="M235.3463 198.9199
L235.4082 198.8579
" />
<path d="M235.4082 198.8579
L235.5320 198.7960
" />
<path d="M235.5320 198.7960
L235.8415 198.7960
" />
<path d="M235.8415 198.7960
L235.9654 198.8579
" />
<path d="M235.9654 198.8579
L236.0273 198.9199
" />
<path d="M236.0273 198.9199
L236.0892 199.0437
" />
<path d="M236.0892 199.0437
L236.0892 199.3532
" />
<path d="M236.0892 199.3532
L236.0273 199.4770
" />
<path d="M236.0273 199.4770
L235.9654 199.5389
" />
<path d="M235.9654 199.5389
L235.8415 199.6008
" />
<path d="M235.8415 199.6008
L235.5320 199.6008
" />
<path d="M235.5320 199.6008
L235.4082 199.5389
" />
<path d="M235.4082 199.5389
L235.3463 199.4770
" />
</g></g>
<g style="fill:none; 
stroke:#000000; stroke-width:0.1500; stroke-opacity:1; 
stroke-linecap:round; stroke-linejoin:round;">
<text x="285.0000" y="199.6572"
textLength="1.4281" font-size="1.7333" lengthAdjust="spacingAndGlyphs"
text-anchor="start" opacity="0">6</text>
<g class="stroked-text"><desc>6</desc>
<path d="M285.9654 198.3008
L285.7177 198.3008
" />
<path d="M285.7177 198.3008
L285.5939 198.3627
" />
<path d="M285.5939 198.3627
L285.5320 198.4246
" />
<path d="M285.5320 198.4246
L285.4082 198.6103
" />
<path d="M285.4082 198.6103
L285.3463 198.8579
" />
<path d="M285.3463 198.8579
L285.3463 199.3532
" />
<path d="M285.3463 199.3532
L285.4082 199.4770
" />
<path d="M285.4082 199.4770
L285.4701 199.5389
" />
<path d="M285.4701 199.5389
L285.5939 199.6008
" />
<path d="M285.5939 199.6008
L285.8415 199.6008
" />
<path d="M285.8415 199.6008
L285.9654 199.5389
" />
<path d="M285.9654 199.5389
L286.0273 199.4770
" />
<path d="M286.0273 199.4770
L286.0892 199.3532
" />
<path d="M286.0892 199.3532
L286.0892 199.0437
" />
<path d="M286.0892 199.0437
L286.0273 198.9199
" />
<path d="M286.0273 198.9199
L285.9654 198.8579
" />
<path d="M285.9654 198.8579
L285.8415 198.7960
" />
<path d="M285.8415 198.7960
L285.5939 198.7960
" />
<path d="M285.5939 198.7960
L285.4701 198.8579
" />
<path d="M285.4701 198.8579
L285.4082 198.9199
" />
<path d="M285.4082 198.9199
L285.3463 199.0437
" />
</g></g>
<g style="fill:none; 
stroke:#000000; stroke-width:0.1500; stroke-opacity:1; 
stroke-linecap:round; stroke-linejoin:round;">
<path d="M10.0000 60.0000
L12.0000 60.0000
" />
</g>
<g style="fill:none; 
stroke:#000000; stroke-width:0.1500; stroke-opacity:1; 
stroke-linecap:round; stroke-linejoin:round;">
<path d="M10.0000 110.0000
L12.0000 110.0000
" />
</g>
<g style="fill:none; 
stroke:#000000; stroke-width:0.1500; stroke-opacity:1; 
stroke-linecap:round; stroke-linejoin:round;">
<path d="M10.0000 160.0000
L12.0000 160.0000
" />
</g>
<g style="fill:none; 
stroke:#000000; stroke-width:0.1500; stroke-opacity:1; 
stroke-linecap:round; stroke-linejoin:round;">
<text x="11.0000" y="35.6500"
textLength="1.3043" font-size="1.7333" lengthAdjust="spacingAndGlyphs"
text-anchor="middle" opacity="0">A</text>
<g class="stroked-text"><desc>A</desc>
<path d="M10.6905 35.2222
L11.3095 35.2222
" />
<path d="M10.5667 35.5936
L11.0000 34.2936
" />
<path d="M11.0000 34.2936
L11.4333 35.5936
" />
</g></g>
<g style="fill:none; 
stroke:#000000; stroke-width:0.1500; stroke-opacity:1; 
stroke-linecap:round; stroke-linejoin:round;">
<text x="11.0000" y="85.6500"
textLength="1.4900" font-size="1.7333" lengthAdjust="spacingAndGlyphs"
text-anchor="middle" opacity="0">B</text>
<g class="stroked-text"><desc>B</desc>
<path d="M11.0929 84.9127
L11.2786 84.9746
" />
<path d="M11.2786 84.9746
L11.3405 85.0365
" />
<path d="M11.3405 85.0365
L11.4024 85.1603
" />
<path d="M11.4024 85.1603
L11.4024 85.3460
" />
<path d="M11.4024 85.3460
L11.3405 85.4698
" />
<path d="M11.3405 85.4698
L11.2786 85.5317
" />
<path d="M11.2786 85.5317
L11.1548 85.5936
" />
<path d="M11.1548 85.5936
L10.6595 85.5936
" />
<path d="M10.6595 85.5936
L10.6595 84.2936
" />
<path d="M10.6595 84.2936
L11.0929 84.2936
" />
<path d="M11.0929 84.2936
L11.2167 84.3555
" />
<path d="M11.2167 84.3555
L11.2786 84.4174
" />
<path d="M11.2786 84.4174
L11.3405 84.5412
" />
<path d="M11.3405 84.5412
L11.3405 84.6650
" />
<path d="M11.3405 84.6650
L11.2786 84.7888
" />
<path d="M11.2786 84.7888
L11.2167 84.8507
" />
<path d="M11.2167 84.8507
L11.0929 84.9127
" />
<path d="M11.0929 84.9127
L10.6595 84.9127
" />
</g></g>
<g style="fill:none; 
stroke:#000000; stroke-width:0.1500; stroke-opacity:1; 
stroke-linecap:round; stroke-linejoin:round;">
<text x="11.0000" y="135.6500"
textLength="1.4900" font-size="1.7333" lengthAdjust="spacingAndGlyphs"
text-anchor="middle" opacity="0">C</text>
<g class="stroked-text"><desc>C</desc>
<path d="M11.4024 135.4698
L11.3405 135.5317
" />
<path d="M11.3405 135.5317
L11.1548 135.5936
" />
<path d="M11.1548 135.5936
L11.0310 135.5936
" />
<path d="M11.0310 135.5936
L10.8452 135.5317
" />
<path d="M10.8452 135.5317
L10.7214 135.4079
" />
<path d="M10.7214 135.4079
L10.6595 135.2841
" />
<path d="M10.6595 135.2841
L10.5976 135.0365
" />
<path d="M10.5976 135.0365
L10.5976 134.8507
" />
<path d="M10.5976 134.8507
L10.6595 134.6031
" />
<path d="M10.6595 134.6031
L10.7214 134.4793
" />
<path d="M10.7214 134.4793
L10.8452 134.3555
" />
<path d="M10.8452 134.3555
L11.0310 134.2936
" />
<path d="M11.0310 134.2936
L11.1548 134.2936
" />
<path d="M11.1548 134.2936
L11.3405 134.3555
" />
<path d="M11.3405 134.3555
L11.4024 134.4174
" />
</g></g>
<g style="fill:none; 
stroke:#000000; stroke-width:0.1500; stroke-opacity:1; 
stroke-linecap:round; stroke-linejoin:round;">
<text x="11.0000" y="185.6500"
textLength="1.4900" font-size="1.7333" lengthAdjust="spacingAndGlyphs"
text-anchor="middle" opacity="0">D</text>
<g class="stroked-text"><desc>D</desc>
<path d="M10.6595 185.5936
L10.6595 184.2936
" />
<path d="M10.6595 184.2936
L10.9690 184.2936
" />
<path d="M10.9690 184.2936
L11.1548 184.3555
" />
<path d="M11.1548 184.3555
L11.2786 184.4793
" />
<path d="M11.2786 184.4793
L11.3405 184.6031
" />
<path d="M11.3405 184.6031
L11.4024 184.8507
" />
<path d="M11.4024 184.8507
L11.4024 185.0365
" />
<path d="M11.4024 185.0365
L11.3405 185.2841
" />
<path d="M11.3405 185.2841
L11.2786 185.4079
" />
<path d="M11.2786 185.4079
L11.1548 185.5317
" />
<path d="M11.1548 185.5317
L10.9690 185.5936
" />
<path d="M10.9690 185.5936
L10.6595 185.5936
" />
</g></g>
<g style="fill:none; 
stroke:#000000; stroke-width:0.1500; stroke-opacity:1; 
stroke-linecap:round; stroke-linejoin:round;">
<path d="M287.0022 60.0000
L285.0022 60.0000
" />
</g>
<g style="fill:none; 
stroke:#000000; stroke-width:0.1500; stroke-opacity:1; 
stroke-linecap:round; stroke-linejoin:round;">
<path d="M287.0022 110.0000
L285.0022 110.0000
" />
</g>
<g style="fill:none; 
stroke:#000000; stroke-width:0.1500; stroke-opacity:1; 
stroke-linecap:round; stroke-linejoin:round;">
<path d="M287.0022 160.0000
L285.0022 160.0000
" />
</g>
<g style="fill:none; 
stroke:#000000; stroke-width:0.1500; stroke-opacity:1; 
stroke-linecap:round; stroke-linejoin:round;">
<text x="286.0022" y="35.6500"
textLength="1.3043" font-size="1.7333" lengthAdjust="spacingAndGlyphs"
text-anchor="middle" opacity="0">A</text>
<g class="stroked-text"><desc>A</desc>
<path d="M285.6927 35.2222
L286.3117 35.2222
" />
<path d="M285.5689 35.5936
L286.0022 34.2936
" />
<path d="M286.0022 34.2936
L286.4355 35.5936
" />
</g></g>
<g style="fill:none; 
stroke:#000000; stroke-width:0.1500; stroke-opacity:1; 
stroke-linecap:round; stroke-linejoin:round;">
<text x="286.0022" y="85.6500"
textLength="1.4900" font-size="1.7333" lengthAdjust="spacingAndGlyphs"
text-anchor="middle" opacity="0">B</text>
<g class="stroked-text"><desc>B</desc>
<path d="M286.0951 84.9127
L286.2808 84.9746
" />
<path d="M286.2808 84.9746
L286.3427 85.0365
" />
<path d="M286.3427 85.0365
L286.4046 85.1603
" />
<path d="M286.4046 85.1603
L286.4046 85.3460
" />
<path d="M286.4046 85.3460
L286.3427 85.4698
" />
<path d="M286.3427 85.4698
L286.2808 85.5317
" />
<path d="M286.2808 85.5317
L286.1570 85.5936
" />
<path d="M286.1570 85.5936
L285.6617 85.5936
" />
<path d="M285.6617 85.5936
L285.6617 84.2936
" />
<path d="M285.6617 84.2936
L286.0951 84.2936
" />
<path d="M286.0951 84.2936
L286.2189 84.3555
" />
<path d="M286.2189 84.3555
L286.2808 84.4174
" />
<path d="M286.2808 84.4174
L286.3427 84.5412
" />
<path d="M286.3427 84.5412
L286.3427 84.6650
" />
<path d="M286.3427 84.6650
L286.2808 84.7888
" />
<path d="M286.2808 84.7888
L286.2189 84.8507
" />
<path d="M286.2189 84.8507
L286.0951 84.9127
" />
<path d="M286.0951 84.9127
L285.6617 84.9127
" />
</g></g>
<g style="fill:none; 
stroke:#000000; stroke-width:0.1500; stroke-opacity:1; 
stroke-linecap:round; stroke-linejoin:round;">
<text x="286.0022" y="135.6500"
textLength="1.4900" font-size="1.7333" lengthAdjust="spacingAndGlyphs"
text-anchor="middle" opacity="0">C</text>
<g class="stroked-text"><desc>C</desc>
<path d="M286.4046 135.4698
L286.3427 135.5317
" />
<path d="M286.3427 135.5317
L286.1570 135.5936
" />
<path d="M286.1570 135.5936
L286.0332 135.5936
" />
<path d="M286.0332 135.5936
L285.8474 135.5317
" />
<path d="M285.8474 135.5317
L285.7236 135.4079
" />
<path d="M285.7236 135.4079
L285.6617 135.2841
" />
<path d="M285.6617 135.2841
L285.5998 135.0365
" />
<path d="M285.5998 135.0365
L285.5998 134.8507
" />
<path d="M285.5998 134.8507
L285.6617 134.6031
" />
<path d="M285.6617 134.6031
L285.7236 134.4793
" />
<path d="M285.7236 134.4793
L285.8474 134.3555
" />
<path d="M285.8474 134.3555
L286.0332 134.2936
" />
<path d="M286.0332 134.2936
L286.1570 134.2936
" />
<path d="M286.1570 134.2936
L286.3427 134.3555
" />
<path d="M286.3427 134.3555
L286.4046 134.4174
" />
</g></g>
<g style="fill:none; 
stroke:#000000; stroke-width:0.1500; stroke-opacity:1; 
stroke-linecap:round; stroke-linejoin:round;">
<text x="286.0022" y="185.6500"
textLength="1.4900" font-size="1.7333" lengthAdjust="spacingAndGlyphs"
text-anchor="middle" opacity="0">D</text>
<g class="stroked-text"><desc>D</desc>
<path d="M285.6617 185.5936
L285.6617 184.2936
" />
<path d="M285.6617 184.2936
L285.9712 184.2936
" />
<path d="M285.9712 184.2936
L286.1570 184.3555
" />
<path d="M286.1570 184.3555
L286.2808 184.4793
" />
<path d="M286.2808 184.4793
L286.3427 184.6031
" />
<path d="M286.3427 184.6031
L286.4046 184.8507
" />
<path d="M286.4046 184.8507
L286.4046 185.0365
" />
<path d="M286.4046 185.0365
L286.3427 185.2841
" />
<path d="M286.3427 185.2841
L286.2808 185.4079
" />
<path d="M286.2808 185.4079
L286.1570 185.5317
" />
<path d="M286.1570 185.5317
L285.9712 185.5936
" />
<path d="M285.9712 185.5936
L285.6617 185.5936
" />
</g></g>
<g style="fill:none; 
stroke:#000000; stroke-width:0.1500; stroke-opacity:1; 
stroke-linecap:round; stroke-linejoin:round;">
<text x="200.0022" y="193.8572"
textLength="7.0071" font-size="2.0000" lengthAdjust="spacingAndGlyphs"
text-anchor="start" opacity="0">Date: </text>
<g class="stroked-text"><desc>Date: </desc>
<path d="M200.4580 193.7933
L200.4580 192.2933
" />
<path d="M200.4580 192.2933
L200.8152 192.2933
" />
<path d="M200.8152 192.2933
L201.0295 192.3648
" />
<path d="M201.0295 192.3648
L201.1723 192.5076
" />
<path d="M201.1723 192.5076
L201.2437 192.6505
" />
<path d="M201.2437 192.6505
L201.3152 192.9362
" />
<path d="M201.3152 192.9362
L201.3152 193.1505
" />
<path d="M201.3152 193.1505
L201.2437 193.4362
" />
<path d="M201.2437 193.4362
L201.1723 193.5790
" />
<path d="M201.1723 193.5790
L201.0295 193.7219
" />
<path d="M201.0295 193.7219
L200.8152 193.7933
" />
<path d="M200.8152 193.7933
L200.4580 193.7933
" />
<path d="M202.6009 193.7933
L202.6009 193.0076
" />
<path d="M202.6009 193.0076
L202.5295 192.8648
" />
<path d="M202.5295 192.8648
L202.3866 192.7933
" />
<path d="M202.3866 192.7933
L202.1009 192.7933
" />
<path d="M202.1009 192.7933
L201.9580 192.8648
" />
<path d="M202.6009 193.7219
L202.4580 193.7933
" />
<path d="M202.4580 193.7933
L202.1009 193.7933
" />
<path d="M202.1009 193.7933
L201.9580 193.7219
" />
<path d="M201.9580 193.7219
L201.8866 193.5790
" />
<path d="M201.8866 193.5790
L201.8866 193.4362
" />
<path d="M201.8866 193.4362
L201.9580 193.2933
" />
<path d="M201.9580 193.2933
L202.1009 193.2219
" />
<path d="M202.1009 193.2219
L202.4580 193.2219
" />
<path d="M202.4580 193.2219
L202.6009 193.1505
" />
<path d="M203.1009 192.7933
L203.6723 192.7933
" />
<path d="M203.3152 192.2933
L203.3152 193.5790
" />
<path d="M203.3152 193.5790
L203.3866 193.7219
" />
<path d="M203.3866 193.7219
L203.5295 193.7933
" />
<path d="M203.5295 193.7933
L203.6723 193.7933
" />
<path d="M204.7437 193.7219
L204.6009 193.7933
" />
<path d="M204.6009 193.7933
L204.3152 193.7933
" />
<path d="M204.3152 193.7933
L204.1723 193.7219
" />
<path d="M204.1723 193.7219
L204.1009 193.5790
" />
<path d="M204.1009 193.5790
L204.1009 193.0076
" />
<path d="M204.1009 193.0076
L204.1723 192.8648
" />
<path d="M204.1723 192.8648
L204.3152 192.7933
" />
<path d="M204.3152 192.7933
L204.6009 192.7933
" />
<path d="M204.6009 192.7933
L204.7437 192.8648
" />
<path d="M204.7437 192.8648
L204.8152 193.0076
" />
<path d="M204.8152 193.0076
L204.8152 193.1505
" />
<path d="M204.8152 193.1505
L204.1009 193.2933
" />
<path d="M205.4580 193.6505
L205.5295 193.7219
" />
<path d="M205.5295 193.7219
L205.4580 193.7933
" />
<path d="M205.4580 193.7933
L205.3866 193.7219
" />
<path d="M205.3866 193.7219
L205.4580 193.6505
" />
<path d="M205.4580 193.6505
L205.4580 193.7933
" />
<path d="M205.4580 192.8648
L205.5295 192.9362
" />
<path d="M205.5295 192.9362
L205.4580 193.0076
" />
<path d="M205.4580 193.0076
L205.3866 192.9362
" />
<path d="M205.3866 192.9362
L205.4580 192.8648
" />
<path d="M205.4580 192.8648
L205.4580 193.0076
" />
</g></g>
<g style="fill:none; 
stroke:#000000; stroke-width:0.1500; stroke-opacity:1; 
stroke-linecap:round; stroke-linejoin:round;">
<path d="M177.0022 194.5072
L285.0022 194.5072
" />
</g>
<g style="fill:none; 
stroke:#000000; stroke-width:0.1500; stroke-opacity:1; 
stroke-linecap:round; stroke-linejoin:round;">
<text x="178.0022" y="196.6572"
textLength="20.8643" font-size="2.0000" lengthAdjust="spacingAndGlyphs"
text-anchor="start" opacity="0">KiCad E.D.A. 8.0.2</text>
<g class="stroked-text"><desc>KiCad E.D.A. 8.0.2</desc>
<path d="M178.4580 196.5933
L178.4580 195.0933
" />
<path d="M179.3152 196.5933
L178.6723 195.7362
" />
<path d="M179.3152 195.0933
L178.4580 195.9505
" />
<path d="M179.9580 196.5933
L179.9580 195.5933
" />
<path d="M179.9580 195.0933
L179.8866 195.1648
" />
<path d="M179.8866 195.1648
L179.9580 195.2362
" />
<path d="M179.9580 195.2362
L180.0295 195.1648
" />
<path d="M180.0295 195.1648
L179.9580 195.0933
" />
<path d="M179.9580 195.0933
L179.9580 195.2362
" />
<path d="M181.5295 196.4505
L181.4580 196.5219
" />
<path d="M181.4580 196.5219
L181.2437 196.5933
" />
<path d="M181.2437 196.5933
L181.1009 196.5933
" />
<path d="M181.1009 196.5933
L180.8866 196.5219
" />
<path d="M180.8866 196.5219
L180.7437 196.3790
" />
<path d="M180.7437 196.3790
L180.6723 196.2362
" />
<path d="M180.6723 196.2362
L180.6009 195.9505
" />
<path d="M180.6009 195.9505
L180.6009 195.7362
" />
<path d="M180.6009 195.7362
L180.6723 195.4505
" />
<path d="M180.6723 195.4505
L180.7437 195.3076
" />
<path d="M180.7437 195.3076
L180.8866 195.1648
" />
<path d="M180.8866 195.1648
L181.1009 195.0933
" />
<path d="M181.1009 195.0933
L181.2437 195.0933
" />
<path d="M181.2437 195.0933
L181.4580 195.1648
" />
<path d="M181.4580 195.1648
L181.5295 195.2362
" />
<path d="M182.8152 196.5933
L182.8152 195.8076
" />
<path d="M182.8152 195.8076
L182.7437 195.6648
" />
<path d="M182.7437 195.6648
L182.6009 195.5933
" />
<path d="M182.6009 195.5933
L182.3152 195.5933
" />
<path d="M182.3152 195.5933
L182.1723 195.6648
" />
<path d="M182.8152 196.5219
L182.6723 196.5933
" />
<path d="M182.6723 196.5933
L182.3152 196.5933
" />
<path d="M182.3152 196.5933
L182.1723 196.5219
" />
<path d="M182.1723 196.5219
L182.1009 196.3790
" />
<path d="M182.1009 196.3790
L182.1009 196.2362
" />
<path d="M182.1009 196.2362
L182.1723 196.0933
" />
<path d="M182.1723 196.0933
L182.3152 196.0219
" />
<path d="M182.3152 196.0219
L182.6723 196.0219
" />
<path d="M182.6723 196.0219
L182.8152 195.9505
" />
<path d="M184.1723 196.5933
L184.1723 195.0933
" />
<path d="M184.1723 196.5219
L184.0295 196.5933
" />
<path d="M184.0295 196.5933
L183.7437 196.5933
" />
<path d="M183.7437 196.5933
L183.6009 196.5219
" />
<path d="M183.6009 196.5219
L183.5295 196.4505
" />
<path d="M183.5295 196.4505
L183.4580 196.3076
" />
<path d="M183.4580 196.3076
L183.4580 195.8790
" />
<path d="M183.4580 195.8790
L183.5295 195.7362
" />
<path d="M183.5295 195.7362
L183.6009 195.6648
" />
<path d="M183.6009 195.6648
L183.7437 195.5933
" />
<path d="M183.7437 195.5933
L184.0295 195.5933
" />
<path d="M184.0295 195.5933
L184.1723 195.6648
" />
<path d="M186.0295 195.8076
L186.5295 195.8076
" />
<path d="M186.7437 196.5933
L186.0295 196.5933
" />
<path d="M186.0295 196.5933
L186.0295 195.0933
" />
<path d="M186.0295 195.0933
L186.7437 195.0933
" />
<path d="M187.3866 196.4505
L187.4580 196.5219
" />
<path d="M187.4580 196.5219
L187.3866 196.5933
" />
<path d="M187.3866 196.5933
L187.3152 196.5219
" />
<path d="M187.3152 196.5219
L187.3866 196.4505
" />
<path d="M187.3866 196.4505
L187.3866 196.5933
" />
<path d="M188.1009 196.5933
L188.1009 195.0933
" />
<path d="M188.1009 195.0933
L188.4580 195.0933
" />
<path d="M188.4580 195.0933
L188.6723 195.1648
" />
<path d="M188.6723 195.1648
L188.8152 195.3076
" />
<path d="M188.8152 195.3076
L188.8866 195.4505
" />
<path d="M188.8866 195.4505
L188.9580 195.7362
" />
<path d="M188.9580 195.7362
L188.9580 195.9505
" />
<path d="M188.9580 195.9505
L188.8866 196.2362
" />
<path d="M188.8866 196.2362
L188.8152 196.3790
" />
<path d="M188.8152 196.3790
L188.6723 196.5219
" />
<path d="M188.6723 196.5219
L188.4580 196.5933
" />
<path d="M188.4580 196.5933
L188.1009 196.5933
" />
<path d="M189.6009 196.4505
L189.6723 196.5219
" />
<path d="M189.6723 196.5219
L189.6009 196.5933
" />
<path d="M189.6009 196.5933
L189.5295 196.5219
" />
<path d="M189.5295 196.5219
L189.6009 196.4505
" />
<path d="M189.6009 196.4505
L189.6009 196.5933
" />
<path d="M190.2437 196.1648
L190.9580 196.1648
" />
<path d="M190.1009 196.5933
L190.6009 195.0933
" />
<path d="M190.6009 195.0933
L191.1009 196.5933
" />
<path d="M191.6009 196.4505
L191.6723 196.5219
" />
<path d="M191.6723 196.5219
L191.6009 196.5933
" />
<path d="M191.6009 196.5933
L191.5295 196.5219
" />
<path d="M191.5295 196.5219
L191.6009 196.4505
" />
<path d="M191.6009 196.4505
L191.6009 196.5933
" />
<path d="M193.6723 195.7362
L193.5295 195.6648
" />
<path d="M193.5295 195.6648
L193.4580 195.5933
" />
<path d="M193.4580 195.5933
L193.3866 195.4505
" />
<path d="M193.3866 195.4505
L193.3866 195.3790
" />
<path d="M193.3866 195.3790
L193.4580 195.2362
" />
<path d="M193.4580 195.2362
L193.5295 195.1648
" />
<path d="M193.5295 195.1648
L193.6723 195.0933
" />
<path d="M193.6723 195.0933
L193.9580 195.0933
" />
<path d="M193.9580 195.0933
L194.1009 195.1648
" />
<path d="M194.1009 195.1648
L194.1723 195.2362
" />
<path d="M194.1723 195.2362
L194.2437 195.3790
" />
<path d="M194.2437 195.3790
L194.2437 195.4505
" />
<path d="M194.2437 195.4505
L194.1723 195.5933
" />
<path d="M194.1723 195.5933
L194.1009 195.6648
" />
<path d="M194.1009 195.6648
L193.9580 195.7362
" />
<path d="M193.9580 195.7362
L193.6723 195.7362
" />
<path d="M193.6723 195.7362
L193.5295 195.8076
" />
<path d="M193.5295 195.8076
L193.4580 195.8790
" />
<path d="M193.4580 195.8790
L193.3866 196.0219
" />
<path d="M193.3866 196.0219
L193.3866 196.3076
" />
<path d="M193.3866 196.3076
L193.4580 196.4505
" />
<path d="M193.4580 196.4505
L193.5295 196.5219
" />
<path d="M193.5295 196.5219
L193.6723 196.5933
" />
<path d="M193.6723 196.5933
L193.9580 196.5933
" />
<path d="M193.9580 196.5933
L194.1009 196.5219
" />
<path d="M194.1009 196.5219
L194.1723 196.4505
" />
<path d="M194.1723 196.4505
L194.2437 196.3076
" />
<path d="M194.2437 196.3076
L194.2437 196.0219
" />
<path d="M194.2437 196.0219
L194.1723 195.8790
" />
<path d="M194.1723 195.8790
L194.1009 195.8076
" />
<path d="M194.1009 195.8076
L193.9580 195.7362
" />
<path d="M194.8866 196.4505
L194.9580 196.5219
" />
<path d="M194.9580 196.5219
L194.8866 196.5933
" />
<path d="M194.8866 196.5933
L194.8152 196.5219
" />
<path d="M194.8152 196.5219
L194.8866 196.4505
" />
<path d="M194.8866 196.4505
L194.8866 196.5933
" />
<path d="M195.8866 195.0933
L196.0295 195.0933
" />
<path d="M196.0295 195.0933
L196.1723 195.1648
" />
<path d="M196.1723 195.1648
L196.2437 195.2362
" />
<path d="M196.2437 195.2362
L196.3152 195.3790
" />
<path d="M196.3152 195.3790
L196.3866 195.6648
" />
<path d="M196.3866 195.6648
L196.3866 196.0219
" />
<path d="M196.3866 196.0219
L196.3152 196.3076
" />
<path d="M196.3152 196.3076
L196.2437 196.4505
" />
<path d="M196.2437 196.4505
L196.1723 196.5219
" />
<path d="M196.1723 196.5219
L196.0295 196.5933
" />
<path d="M196.0295 196.5933
L195.8866 196.5933
" />
<path d="M195.8866 196.5933
L195.7437 196.5219
" />
<path d="M195.7437 196.5219
L195.6723 196.4505
" />
<path d="M195.6723 196.4505
L195.6009 196.3076
" />
<path d="M195.6009 196.3076
L195.5295 196.0219
" />
<path d="M195.5295 196.0219
L195.5295 195.6648
" />
<path d="M195.5295 195.6648
L195.6009 195.3790
" />
<path d="M195.6009 195.3790
L195.6723 195.2362
" />
<path d="M195.6723 195.2362
L195.7437 195.1648
" />
<path d="M195.7437 195.1648
L195.8866 195.0933
" />
<path d="M197.0295 196.4505
L197.1009 196.5219
" />
<path d="M197.1009 196.5219
L197.0295 196.5933
" />
<path d="M197.0295 196.5933
L196.9580 196.5219
" />
<path d="M196.9580 196.5219
L197.0295 196.4505
" />
<path d="M197.0295 196.4505
L197.0295 196.5933
" />
<path d="M197.6723 195.2362
L197.7437 195.1648
" />
<path d="M197.7437 195.1648
L197.8866 195.0933
" />
<path d="M197.8866 195.0933
L198.2437 195.0933
" />
<path d="M198.2437 195.0933
L198.3866 195.1648
" />
<path d="M198.3866 195.1648
L198.4580 195.2362
" />
<path d="M198.4580 195.2362
L198.5295 195.3790
" />
<path d="M198.5295 195.3790
L198.5295 195.5219
" />
<path d="M198.5295 195.5219
L198.4580 195.7362
" />
<path d="M198.4580 195.7362
L197.6009 196.5933
" />
<path d="M197.6009 196.5933
L198.5295 196.5933
" />
</g></g>
<g style="fill:none; 
stroke:#000000; stroke-width:0.1500; stroke-opacity:1; 
stroke-linecap:round; stroke-linejoin:round;">
<path d="M177.0022 191.5072
L285.0022 191.5072
" />
</g>
<g style="fill:none; 
stroke:#000000; stroke-width:0.3000; stroke-opacity:1; 
stroke-linecap:round; stroke-linejoin:round;">
<text x="263.0022" y="193.8572"
textLength="6.3857" font-size="2.0000" lengthAdjust="spacingAndGlyphs"
text-anchor="start" opacity="0">Rev: </text>
<g class="stroked-text"><desc>Rev: </desc>
<path d="M264.4139 193.7855
L263.9139 193.0712
" />
<path d="M263.5567 193.7855
L263.5567 192.2855
" />
<path d="M263.5567 192.2855
L264.1281 192.2855
" />
<path d="M264.1281 192.2855
L264.2710 192.3570
" />
<path d="M264.2710 192.3570
L264.3424 192.4284
" />
<path d="M264.3424 192.4284
L264.4139 192.5712
" />
<path d="M264.4139 192.5712
L264.4139 192.7855
" />
<path d="M264.4139 192.7855
L264.3424 192.9284
" />
<path d="M264.3424 192.9284
L264.2710 192.9998
" />
<path d="M264.2710 192.9998
L264.1281 193.0712
" />
<path d="M264.1281 193.0712
L263.5567 193.0712
" />
<path d="M265.6281 193.7141
L265.4853 193.7855
" />
<path d="M265.4853 193.7855
L265.1996 193.7855
" />
<path d="M265.1996 193.7855
L265.0567 193.7141
" />
<path d="M265.0567 193.7141
L264.9853 193.5712
" />
<path d="M264.9853 193.5712
L264.9853 192.9998
" />
<path d="M264.9853 192.9998
L265.0567 192.8570
" />
<path d="M265.0567 192.8570
L265.1996 192.7855
" />
<path d="M265.1996 192.7855
L265.4853 192.7855
" />
<path d="M265.4853 192.7855
L265.6281 192.8570
" />
<path d="M265.6281 192.8570
L265.6996 192.9998
" />
<path d="M265.6996 192.9998
L265.6996 193.1427
" />
<path d="M265.6996 193.1427
L264.9853 193.2855
" />
<path d="M266.1996 192.7855
L266.5567 193.7855
" />
<path d="M266.5567 193.7855
L266.9139 192.7855
" />
<path d="M267.4853 193.6427
L267.5567 193.7141
" />
<path d="M267.5567 193.7141
L267.4853 193.7855
" />
<path d="M267.4853 193.7855
L267.4139 193.7141
" />
<path d="M267.4139 193.7141
L267.4853 193.6427
" />
<path d="M267.4853 193.6427
L267.4853 193.7855
" />
<path d="M267.4853 192.8570
L267.5567 192.9284
" />
<path d="M267.5567 192.9284
L267.4853 192.9998
" />
<path d="M267.4853 192.9998
L267.4139 192.9284
" />
<path d="M267.4139 192.9284
L267.4853 192.8570
" />
<path d="M267.4853 192.8570
L267.4853 192.9998
" />
</g></g>
<g style="fill:none; 
stroke:#000000; stroke-width:0.1500; stroke-opacity:1; 
stroke-linecap:round; stroke-linejoin:round;">
<text x="178.0022" y="193.8572"
textLength="9.3643" font-size="2.0000" lengthAdjust="spacingAndGlyphs"
text-anchor="start" opacity="0">Size: A4</text>
<g class="stroked-text"><desc>Size: A4</desc>
<path d="M178.3866 193.7219
L178.6009 193.7933
" />
<path d="M178.6009 193.7933
L178.9580 193.7933
" />
<path d="M178.9580 193.7933
L179.1009 193.7219
" />
<path d="M179.1009 193.7219
L179.1723 193.6505
" />
<path d="M179.1723 193.6505
L179.2437 193.5076
" />
<path d="M179.2437 193.5076
L179.2437 193.3648
" />
<path d="M179.2437 193.3648
L179.1723 193.2219
" />
<path d="M179.1723 193.2219
L179.1009 193.1505
" />
<path d="M179.1009 193.1505
L178.9580 193.0790
" />
<path d="M178.9580 193.0790
L178.6723 193.0076
" />
<path d="M178.6723 193.0076
L178.5295 192.9362
" />
<path d="M178.5295 192.9362
L178.4580 192.8648
" />
<path d="M178.4580 192.8648
L178.3866 192.7219
" />
<path d="M178.3866 192.7219
L178.3866 192.5790
" />
<path d="M178.3866 192.5790
L178.4580 192.4362
" />
<path d="M178.4580 192.4362
L178.5295 192.3648
" />
<path d="M178.5295 192.3648
L178.6723 192.2933
" />
<path d="M178.6723 192.2933
L179.0295 192.2933
" />
<path d="M179.0295 192.2933
L179.2437 192.3648
" />
<path d="M179.8866 193.7933
L179.8866 192.7933
" />
<path d="M179.8866 192.2933
L179.8152 192.3648
" />
<path d="M179.8152 192.3648
L179.8866 192.4362
" />
<path d="M179.8866 192.4362
L179.9580 192.3648
" />
<path d="M179.9580 192.3648
L179.8866 192.2933
" />
<path d="M179.8866 192.2933
L179.8866 192.4362
" />
<path d="M180.4580 192.7933
L181.2437 192.7933
" />
<path d="M181.2437 192.7933
L180.4580 193.7933
" />
<path d="M180.4580 193.7933
L181.2437 193.7933
" />
<path d="M182.3866 193.7219
L182.2437 193.7933
" />
<path d="M182.2437 193.7933
L181.9580 193.7933
" />
<path d="M181.9580 193.7933
L181.8152 193.7219
" />
<path d="M181.8152 193.7219
L181.7437 193.5790
" />
<path d="M181.7437 193.5790
L181.7437 193.0076
" />
<path d="M181.7437 193.0076
L181.8152 192.8648
" />
<path d="M181.8152 192.8648
L181.9580 192.7933
" />
<path d="M181.9580 192.7933
L182.2437 192.7933
" />
<path d="M182.2437 192.7933
L182.3866 192.8648
" />
<path d="M182.3866 192.8648
L182.4580 193.0076
" />
<path d="M182.4580 193.0076
L182.4580 193.1505
" />
<path d="M182.4580 193.1505
L181.7437 193.2933
" />
<path d="M183.1009 193.6505
L183.1723 193.7219
" />
<path d="M183.1723 193.7219
L183.1009 193.7933
" />
<path d="M183.1009 193.7933
L183.0295 193.7219
" />
<path d="M183.0295 193.7219
L183.1009 193.6505
" />
<path d="M183.1009 193.6505
L183.1009 193.7933
" />
<path d="M183.1009 192.8648
L183.1723 192.9362
" />
<path d="M183.1723 192.9362
L183.1009 193.0076
" />
<path d="M183.1009 193.0076
L183.0295 192.9362
" />
<path d="M183.0295 192.9362
L183.1009 192.8648
" />
<path d="M183.1009 192.8648
L183.1009 193.0076
" />
<path d="M184.8866 193.3648
L185.6009 193.3648
" />
<path d="M184.7437 193.7933
L185.2437 192.2933
" />
<path d="M185.2437 192.2933
L185.7437 193.7933
" />
<path d="M186.8866 192.7933
L186.8866 193.7933
" />
<path d="M186.5295 192.2219
L186.1723 193.2933
" />
<path d="M186.1723 193.2933
L187.1009 193.2933
" />
</g></g>
<g style="fill:none; 
stroke:#000000; stroke-width:0.1500; stroke-opacity:1; 
stroke-linecap:round; stroke-linejoin:round;">
<text x="263.0022" y="196.6572"
textLength="8.5071" font-size="2.0000" lengthAdjust="spacingAndGlyphs"
text-anchor="start" opacity="0">Id: 1/1</text>
<g class="stroked-text"><desc>Id: 1/1</desc>
<path d="M263.4580 196.5933
L263.4580 195.0933
" />
<path d="M264.8152 196.5933
L264.8152 195.0933
" />
<path d="M264.8152 196.5219
L264.6723 196.5933
" />
<path d="M264.6723 196.5933
L264.3866 196.5933
" />
<path d="M264.3866 196.5933
L264.2437 196.5219
" />
<path d="M264.2437 196.5219
L264.1723 196.4505
" />
<path d="M264.1723 196.4505
L264.1009 196.3076
" />
<path d="M264.1009 196.3076
L264.1009 195.8790
" />
<path d="M264.1009 195.8790
L264.1723 195.7362
" />
<path d="M264.1723 195.7362
L264.2437 195.6648
" />
<path d="M264.2437 195.6648
L264.3866 195.5933
" />
<path d="M264.3866 195.5933
L264.6723 195.5933
" />
<path d="M264.6723 195.5933
L264.8152 195.6648
" />
<path d="M265.5295 196.4505
L265.6009 196.5219
" />
<path d="M265.6009 196.5219
L265.5295 196.5933
" />
<path d="M265.5295 196.5933
L265.4580 196.5219
" />
<path d="M265.4580 196.5219
L265.5295 196.4505
" />
<path d="M265.5295 196.4505
L265.5295 196.5933
" />
<path d="M265.5295 195.6648
L265.6009 195.7362
" />
<path d="M265.6009 195.7362
L265.5295 195.8076
" />
<path d="M265.5295 195.8076
L265.4580 195.7362
" />
<path d="M265.4580 195.7362
L265.5295 195.6648
" />
<path d="M265.5295 195.6648
L265.5295 195.8076
" />
<path d="M268.1723 196.5933
L267.3152 196.5933
" />
<path d="M267.7437 196.5933
L267.7437 195.0933
" />
<path d="M267.7437 195.0933
L267.6009 195.3076
" />
<path d="M267.6009 195.3076
L267.4580 195.4505
" />
<path d="M267.4580 195.4505
L267.3152 195.5219
" />
<path d="M269.8866 195.0219
L268.6009 196.9505
" />
<path d="M271.1723 196.5933
L270.3152 196.5933
" />
<path d="M270.7437 196.5933
L270.7437 195.0933
" />
<path d="M270.7437 195.0933
L270.6009 195.3076
" />
<path d="M270.6009 195.3076
L270.4580 195.4505
" />
<path d="M270.4580 195.4505
L270.3152 195.5219
" />
</g></g>
<g style="fill:none; 
stroke:#000000; stroke-width:0.1500; stroke-opacity:1; 
stroke-linecap:round; stroke-linejoin:round;">
<path d="M177.0022 187.5072
L285.0022 187.5072
" />
</g>
<g style="fill:none; 
stroke:#000000; stroke-width:0.4000; stroke-opacity:1; 
stroke-linecap:round; stroke-linejoin:round;">
<text x="178.0022" y="190.3072"
textLength="9.6571" font-size="2.6667" lengthAdjust="spacingAndGlyphs"
text-anchor="start" opacity="0">Title: </text>
<g class="stroked-text"><desc>Title: </desc>
<path d="M178.6939 188.2116
L179.8368 188.2116
" />
<path d="M179.0154 190.2116
L179.2654 188.2116
" />
<path d="M180.2535 190.2116
L180.4201 188.8783
" />
<path d="M180.5035 188.2116
L180.3963 188.3069
" />
<path d="M180.3963 188.3069
L180.4796 188.4021
" />
<path d="M180.4796 188.4021
L180.5868 188.3069
" />
<path d="M180.5868 188.3069
L180.5035 188.2116
" />
<path d="M180.5035 188.2116
L180.4796 188.4021
" />
<path d="M181.0868 188.8783
L181.8487 188.8783
" />
<path d="M181.4558 188.2116
L181.2415 189.9259
" />
<path d="M181.2415 189.9259
L181.3130 190.1164
" />
<path d="M181.3130 190.1164
L181.4915 190.2116
" />
<path d="M181.4915 190.2116
L181.6820 190.2116
" />
<path d="M182.6344 190.2116
L182.4558 190.1164
" />
<path d="M182.4558 190.1164
L182.3844 189.9259
" />
<path d="M182.3844 189.9259
L182.5987 188.2116
" />
<path d="M184.1701 190.1164
L183.9677 190.2116
" />
<path d="M183.9677 190.2116
L183.5868 190.2116
" />
<path d="M183.5868 190.2116
L183.4082 190.1164
" />
<path d="M183.4082 190.1164
L183.3368 189.9259
" />
<path d="M183.3368 189.9259
L183.4320 189.1640
" />
<path d="M183.4320 189.1640
L183.5511 188.9735
" />
<path d="M183.5511 188.9735
L183.7535 188.8783
" />
<path d="M183.7535 188.8783
L184.1344 188.8783
" />
<path d="M184.1344 188.8783
L184.3130 188.9735
" />
<path d="M184.3130 188.9735
L184.3844 189.1640
" />
<path d="M184.3844 189.1640
L184.3606 189.3545
" />
<path d="M184.3606 189.3545
L183.3844 189.5450
" />
<path d="M185.1344 190.0212
L185.2177 190.1164
" />
<path d="M185.2177 190.1164
L185.1106 190.2116
" />
<path d="M185.1106 190.2116
L185.0273 190.1164
" />
<path d="M185.0273 190.1164
L185.1344 190.0212
" />
<path d="M185.1344 190.0212
L185.1106 190.2116
" />
<path d="M185.2654 188.9735
L185.3487 189.0688
" />
<path d="M185.3487 189.0688
L185.2415 189.1640
" />
<path d="M185.2415 189.1640
L185.1582 189.0688
" />
<path d="M185.1582 189.0688
L185.2654 188.9735
" />
<path d="M185.2654 188.9735
L185.2415 189.1640
" />
</g></g>
<g style="fill:none; 
stroke:#000000; stroke-width:0.1500; stroke-opacity:1; 
stroke-linecap:round; stroke-linejoin:round;">
<text x="178.0022" y="186.4572"
textLength="35.5071" font-size="2.0000" lengthAdjust="spacingAndGlyphs"
text-anchor="start" opacity="0">File: PhotonBreakout.kicad_pcb</text>
<g class="stroked-text"><desc>File: PhotonBreakout.kicad_pcb</desc>
<path d="M178.9580 185.6076
L178.4580 185.6076
" />
<path d="M178.4580 186.3933
L178.4580 184.8933
" />
<path d="M178.4580 184.8933
L179.1723 184.8933
" />
<path d="M179.7437 186.3933
L179.7437 185.3933
" />
<path d="M179.7437 184.8933
L179.6723 184.9648
" />
<path d="M179.6723 184.9648
L179.7437 185.0362
" />
<path d="M179.7437 185.0362
L179.8152 184.9648
" />
<path d="M179.8152 184.9648
L179.7437 184.8933
" />
<path d="M179.7437 184.8933
L179.7437 185.0362
" />
<path d="M180.6723 186.3933
L180.5295 186.3219
" />
<path d="M180.5295 186.3219
L180.4580 186.1790
" />
<path d="M180.4580 186.1790
L180.4580 184.8933
" />
<path d="M181.8152 186.3219
L181.6723 186.3933
" />
<path d="M181.6723 186.3933
L181.3866 186.3933
" />
<path d="M181.3866 186.3933
L181.2437 186.3219
" />
<path d="M181.2437 186.3219
L181.1723 186.1790
" />
<path d="M181.1723 186.1790
L181.1723 185.6076
" />
<path d="M181.1723 185.6076
L181.2437 185.4648
" />
<path d="M181.2437 185.4648
L181.3866 185.3933
" />
<path d="M181.3866 185.3933
L181.6723 185.3933
" />
<path d="M181.6723 185.3933
L181.8152 185.4648
" />
<path d="M181.8152 185.4648
L181.8866 185.6076
" />
<path d="M181.8866 185.6076
L181.8866 185.7505
" />
<path d="M181.8866 185.7505
L181.1723 185.8933
" />
<path d="M182.5295 186.2505
L182.6009 186.3219
" />
<path d="M182.6009 186.3219
L182.5295 186.3933
" />
<path d="M182.5295 186.3933
L182.4580 186.3219
" />
<path d="M182.4580 186.3219
L182.5295 186.2505
" />
<path d="M182.5295 186.2505
L182.5295 186.3933
" />
<path d="M182.5295 185.4648
L182.6009 185.5362
" />
<path d="M182.6009 185.5362
L182.5295 185.6076
" />
<path d="M182.5295 185.6076
L182.4580 185.5362
" />
<path d="M182.4580 185.5362
L182.5295 185.4648
" />
<path d="M182.5295 185.4648
L182.5295 185.6076
" />
<path d="M184.3866 186.3933
L184.3866 184.8933
" />
<path d="M184.3866 184.8933
L184.9580 184.8933
" />
<path d="M184.9580 184.8933
L185.1009 184.9648
" />
<path d="M185.1009 184.9648
L185.1723 185.0362
" />
<path d="M185.1723 185.0362
L185.2437 185.1790
" />
<path d="M185.2437 185.1790
L185.2437 185.3933
" />
<path d="M185.2437 185.3933
L185.1723 185.5362
" />
<path d="M185.1723 185.5362
L185.1009 185.6076
" />
<path d="M185.1009 185.6076
L184.9580 185.6790
" />
<path d="M184.9580 185.6790
L184.3866 185.6790
" />
<path d="M185.8866 186.3933
L185.8866 184.8933
" />
<path d="M186.5295 186.3933
L186.5295 185.6076
" />
<path d="M186.5295 185.6076
L186.4580 185.4648
" />
<path d="M186.4580 185.4648
L186.3152 185.3933
" />
<path d="M186.3152 185.3933
L186.1009 185.3933
" />
<path d="M186.1009 185.3933
L185.9580 185.4648
" />
<path d="M185.9580 185.4648
L185.8866 185.5362
" />
<path d="M187.4580 186.3933
L187.3152 186.3219
" />
<path d="M187.3152 186.3219
L187.2437 186.2505
" />
<path d="M187.2437 186.2505
L187.1723 186.1076
" />
<path d="M187.1723 186.1076
L187.1723 185.6790
" />
<path d="M187.1723 185.6790
L187.2437 185.5362
" />
<path d="M187.2437 185.5362
L187.3152 185.4648
" />
<path d="M187.3152 185.4648
L187.4580 185.3933
" />
<path d="M187.4580 185.3933
L187.6723 185.3933
" />
<path d="M187.6723 185.3933
L187.8152 185.4648
" />
<path d="M187.8152 185.4648
L187.8866 185.5362
" />
<path d="M187.8866 185.5362
L187.9580 185.6790
" />
<path d="M187.9580 185.6790
L187.9580 186.1076
" />
<path d="M187.9580 186.1076
L187.8866 186.2505
" />
<path d="M187.8866 186.2505
L187.8152 186.3219
" />
<path d="M187.8152 186.3219
L187.6723 186.3933
" />
<path d="M187.6723 186.3933
L187.4580 186.3933
" />
<path d="M188.3866 185.3933
L188.9580 185.3933
" />
<path d="M188.6009 184.8933
L188.6009 186.1790
" />
<path d="M188.6009 186.1790
L188.6723 186.3219
" />
<path d="M188.6723 186.3219
L188.8152 186.3933
" />
<path d="M188.8152 186.3933
L188.9580 186.3933
" />
<path d="M189.6723 186.3933
L189.5295 186.3219
" />
<path d="M189.5295 186.3219
L189.4580 186.2505
" />
<path d="M189.4580 186.2505
L189.3866 186.1076
" />
<path d="M189.3866 186.1076
L189.3866 185.6790
" />
<path d="M189.3866 185.6790
L189.4580 185.5362
" />
<path d="M189.4580 185.5362
L189.5295 185.4648
" />
<path d="M189.5295 185.4648
L189.6723 185.3933
" />
<path d="M189.6723 185.3933
L189.8866 185.3933
" />
<path d="M189.8866 185.3933
L190.0295 185.4648
" />
<path d="M190.0295 185.4648
L190.1009 185.5362
" />
<path d="M190.1009 185.5362
L190.1723 185.6790
" />
<path d="M190.1723 185.6790
L190.1723 186.1076
" />
<path d="M190.1723 186.1076
L190.1009 186.2505
" />
<path d="M190.1009 186.2505
L190.0295 186.3219
" />
<path d="M190.0295 186.3219
L189.8866 186.3933
" />
<path d="M189.8866 186.3933
L189.6723 186.3933
" />
<path d="M190.8152 185.3933
L190.8152 186.3933
" />
<path d="M190.8152 185.5362
L190.8866 185.4648
" />
<path d="M190.8866 185.4648
L191.0295 185.3933
" />
<path d="M191.0295 185.3933
L191.2437 185.3933
" />
<path d="M191.2437 185.3933
L191.3866 185.4648
" />
<path d="M191.3866 185.4648
L191.4580 185.6076
" />
<path d="M191.4580 185.6076
L191.4580 186.3933
" />
<path d="M192.6723 185.6076
L192.8866 185.6790
" />
<path d="M192.8866 185.6790
L192.9580 185.7505
" />
<path d="M192.9580 185.7505
L193.0295 185.8933
" />
<path d="M193.0295 185.8933
L193.0295 186.1076
" />
<path d="M193.0295 186.1076
L192.9580 186.2505
" />
<path d="M192.9580 186.2505
L192.8866 186.3219
" />
<path d="M192.8866 186.3219
L192.7437 186.3933
" />
<path d="M192.7437 186.3933
L192.1723 186.3933
" />
<path d="M192.1723 186.3933
L192.1723 184.8933
" />
<path d="M192.1723 184.8933
L192.6723 184.8933
" />
<path d="M192.6723 184.8933
L192.8152 184.9648
" />
<path d="M192.8152 184.9648
L192.8866 185.0362
" />
<path d="M192.8866 185.0362
L192.9580 185.1790
" />
<path d="M192.9580 185.1790
L192.9580 185.3219
" />
<path d="M192.9580 185.3219
L192.8866 185.4648
" />
<path d="M192.8866 185.4648
L192.8152 185.5362
" />
<path d="M192.8152 185.5362
L192.6723 185.6076
" />
<path d="M192.6723 185.6076
L192.1723 185.6076
" />
<path d="M193.6723 186.3933
L193.6723 185.3933
" />
<path d="M193.6723 185.6790
L193.7437 185.5362
" />
<path d="M193.7437 185.5362
L193.8152 185.4648
" />
<path d="M193.8152 185.4648
L193.9580 185.3933
" />
<path d="M193.9580 185.3933
L194.1009 185.3933
" />
<path d="M195.1723 186.3219
L195.0295 186.3933
" />
<path d="M195.0295 186.3933
L194.7437 186.3933
" />
<path d="M194.7437 186.3933
L194.6009 186.3219
" />
<path d="M194.6009 186.3219
L194.5295 186.1790
" />
<path d="M194.5295 186.1790
L194.5295 185.6076
" />
<path d="M194.5295 185.6076
L194.6009 185.4648
" />
<path d="M194.6009 185.4648
L194.7437 185.3933
" />
<path d="M194.7437 185.3933
L195.0295 185.3933
" />
<path d="M195.0295 185.3933
L195.1723 185.4648
" />
<path d="M195.1723 185.4648
L195.2437 185.6076
" />
<path d="M195.2437 185.6076
L195.2437 185.7505
" />
<path d="M195.2437 185.7505
L194.5295 185.8933
" />
<path d="M196.5295 186.3933
L196.5295 185.6076
" />
<path d="M196.5295 185.6076
L196.4580 185.4648
" />
<path d="M196.4580 185.4648
L196.3152 185.3933
" />
<path d="M196.3152 185.3933
L196.0295 185.3933
" />
<path d="M196.0295 185.3933
L195.8866 185.4648
" />
<path d="M196.5295 186.3219
L196.3866 186.3933
" />
<path d="M196.3866 186.3933
L196.0295 186.3933
" />
<path d="M196.0295 186.3933
L195.8866 186.3219
" />
<path d="M195.8866 186.3219
L195.8152 186.1790
" />
<path d="M195.8152 186.1790
L195.8152 186.0362
" />
<path d="M195.8152 186.0362
L195.8866 185.8933
" />
<path d="M195.8866 185.8933
L196.0295 185.8219
" />
<path d="M196.0295 185.8219
L196.3866 185.8219
" />
<path d="M196.3866 185.8219
L196.5295 185.7505
" />
<path d="M197.2437 186.3933
L197.2437 184.8933
" />
<path d="M197.3866 185.8219
L197.8152 186.3933
" />
<path d="M197.8152 185.3933
L197.2437 185.9648
" />
<path d="M198.6723 186.3933
L198.5295 186.3219
" />
<path d="M198.5295 186.3219
L198.4580 186.2505
" />
<path d="M198.4580 186.2505
L198.3866 186.1076
" />
<path d="M198.3866 186.1076
L198.3866 185.6790
" />
<path d="M198.3866 185.6790
L198.4580 185.5362
" />
<path d="M198.4580 185.5362
L198.5295 185.4648
" />
<path d="M198.5295 185.4648
L198.6723 185.3933
" />
<path d="M198.6723 185.3933
L198.8866 185.3933
" />
<path d="M198.8866 185.3933
L199.0295 185.4648
" />
<path d="M199.0295 185.4648
L199.1009 185.5362
" />
<path d="M199.1009 185.5362
L199.1723 185.6790
" />
<path d="M199.1723 185.6790
L199.1723 186.1076
" />
<path d="M199.1723 186.1076
L199.1009 186.2505
" />
<path d="M199.1009 186.2505
L199.0295 186.3219
" />
<path d="M199.0295 186.3219
L198.8866 186.3933
" />
<path d="M198.8866 186.3933
L198.6723 186.3933
" />
<path d="M200.4580 185.3933
L200.4580 186.3933
" />
<path d="M199.8152 185.3933
L199.8152 186.1790
" />
<path d="M199.8152 186.1790
L199.8866 186.3219
" />
<path d="M199.8866 186.3219
L200.0295 186.3933
" />
<path d="M200.0295 186.3933
L200.2437 186.3933
" />
<path d="M200.2437 186.3933
L200.3866 186.3219
" />
<path d="M200.3866 186.3219
L200.4580 186.2505
" />
<path d="M200.9580 185.3933
L201.5295 185.3933
" />
<path d="M201.1723 184.8933
L201.1723 186.1790
" />
<path d="M201.1723 186.1790
L201.2437 186.3219
" />
<path d="M201.2437 186.3219
L201.3866 186.3933
" />
<path d="M201.3866 186.3933
L201.5295 186.3933
" />
<path d="M202.0295 186.2505
L202.1009 186.3219
" />
<path d="M202.1009 186.3219
L202.0295 186.3933
" />
<path d="M202.0295 186.3933
L201.9580 186.3219
" />
<path d="M201.9580 186.3219
L202.0295 186.2505
" />
<path d="M202.0295 186.2505
L202.0295 186.3933
" />
<path d="M202.7437 186.3933
L202.7437 184.8933
" />
<path d="M202.8866 185.8219
L203.3152 186.3933
" />
<path d="M203.3152 185.3933
L202.7437 185.9648
" />
<path d="M203.9580 186.3933
L203.9580 185.3933
" />
<path d="M203.9580 184.8933
L203.8866 184.9648
" />
<path d="M203.8866 184.9648
L203.9580 185.0362
" />
<path d="M203.9580 185.0362
L204.0295 184.9648
" />
<path d="M204.0295 184.9648
L203.9580 184.8933
" />
<path d="M203.9580 184.8933
L203.9580 185.0362
" />
<path d="M205.3152 186.3219
L205.1723 186.3933
" />
<path d="M205.1723 186.3933
L204.8866 186.3933
" />
<path d="M204.8866 186.3933
L204.7437 186.3219
" />
<path d="M204.7437 186.3219
L204.6723 186.2505
" />
<path d="M204.6723 186.2505
L204.6009 186.1076
" />
<path d="M204.6009 186.1076
L204.6009 185.6790
" />
<path d="M204.6009 185.6790
L204.6723 185.5362
" />
<path d="M204.6723 185.5362
L204.7437 185.4648
" />
<path d="M204.7437 185.4648
L204.8866 185.3933
" />
<path d="M204.8866 185.3933
L205.1723 185.3933
" />
<path d="M205.1723 185.3933
L205.3152 185.4648
" />
<path d="M206.6009 186.3933
L206.6009 185.6076
" />
<path d="M206.6009 185.6076
L206.5295 185.4648
" />
<path d="M206.5295 185.4648
L206.3866 185.3933
" />
<path d="M206.3866 185.3933
L206.1009 185.3933
" />
<path d="M206.1009 185.3933
L205.9580 185.4648
" />
<path d="M206.6009 186.3219
L206.4580 186.3933
" />
<path d="M206.4580 186.3933
L206.1009 186.3933
" />
<path d="M206.1009 186.3933
L205.9580 186.3219
" />
<path d="M205.9580 186.3219
L205.8866 186.1790
" />
<path d="M205.8866 186.1790
L205.8866 186.0362
" />
<path d="M205.8866 186.0362
L205.9580 185.8933
" />
<path d="M205.9580 185.8933
L206.1009 185.8219
" />
<path d="M206.1009 185.8219
L206.4580 185.8219
" />
<path d="M206.4580 185.8219
L206.6009 185.7505
" />
<path d="M207.9580 186.3933
L207.9580 184.8933
" />
<path d="M207.9580 186.3219
L207.8152 186.3933
" />
<path d="M207.8152 186.3933
L207.5295 186.3933
" />
<path d="M207.5295 186.3933
L207.3866 186.3219
" />
<path d="M207.3866 186.3219
L207.3152 186.2505
" />
<path d="M207.3152 186.2505
L207.2437 186.1076
" />
<path d="M207.2437 186.1076
L207.2437 185.6790
" />
<path d="M207.2437 185.6790
L207.3152 185.5362
" />
<path d="M207.3152 185.5362
L207.3866 185.4648
" />
<path d="M207.3866 185.4648
L207.5295 185.3933
" />
<path d="M207.5295 185.3933
L207.8152 185.3933
" />
<path d="M207.8152 185.3933
L207.9580 185.4648
" />
<path d="M208.3152 186.5362
L209.4580 186.5362
" />
<path d="M209.8152 185.3933
L209.8152 186.8933
" />
<path d="M209.8152 185.4648
L209.9580 185.3933
" />
<path d="M209.9580 185.3933
L210.2437 185.3933
" />
<path d="M210.2437 185.3933
L210.3866 185.4648
" />
<path d="M210.3866 185.4648
L210.4580 185.5362
" />
<path d="M210.4580 185.5362
L210.5295 185.6790
" />
<path d="M210.5295 185.6790
L210.5295 186.1076
" />
<path d="M210.5295 186.1076
L210.4580 186.2505
" />
<path d="M210.4580 186.2505
L210.3866 186.3219
" />
<path d="M210.3866 186.3219
L210.2437 186.3933
" />
<path d="M210.2437 186.3933
L209.9580 186.3933
" />
<path d="M209.9580 186.3933
L209.8152 186.3219
" />
<path d="M211.8152 186.3219
L211.6723 186.3933
" />
<path d="M211.6723 186.3933
L211.3866 186.3933
" />
<path d="M211.3866 186.3933
L211.2437 186.3219
" />
<path d="M211.2437 186.3219
L211.1723 186.2505
" />
<path d="M211.1723 186.2505
L211.1009 186.1076
" />
<path d="M211.1009 186.1076
L211.1009 185.6790
" />
<path d="M211.1009 185.6790
L211.1723 185.5362
" />
<path d="M211.1723 185.5362
L211.2437 185.4648
" />
<path d="M211.2437 185.4648
L211.3866 185.3933
" />
<path d="M211.3866 185.3933
L211.6723 185.3933
" />
<path d="M211.6723 185.3933
L211.8152 185.4648
" />
<path d="M212.4580 186.3933
L212.4580 184.8933
" />
<path d="M212.4580 185.4648
L212.6009 185.3933
" />
<path d="M212.6009 185.3933
L212.8866 185.3933
" />
<path d="M212.8866 185.3933
L213.0295 185.4648
" />
<path d="M213.0295 185.4648
L213.1009 185.5362
" />
<path d="M213.1009 185.5362
L213.1723 185.6790
" />
<path d="M213.1723 185.6790
L213.1723 186.1076
" />
<path d="M213.1723 186.1076
L213.1009 186.2505
" />
<path d="M213.1009 186.2505
L213.0295 186.3219
" />
<path d="M213.0295 186.3219
L212.8866 186.3933
" />
<path d="M212.8866 186.3933
L212.6009 186.3933
" />
<path d="M212.6009 186.3933
L212.4580 186.3219
" />
</g></g>
<g style="fill:none; 
stroke:#000000; stroke-width:0.1500; stroke-opacity:1; 
stroke-linecap:round; stroke-linejoin:round;">
<path d="M177.0022 181.5072
L285.0022 181.5072
" />
</g>
<g style="fill:none; 
stroke:#000000; stroke-width:0.1500; stroke-opacity:1; 
stroke-linecap:round; stroke-linejoin:round;">
<text x="178.0022" y="183.7572"
textLength="8.2214" font-size="2.0000" lengthAdjust="spacingAndGlyphs"
text-anchor="start" opacity="0">Sheet: </text>
<g class="stroked-text"><desc>Sheet: </desc>
<path d="M178.3866 183.6219
L178.6009 183.6933
" />
<path d="M178.6009 183.6933
L178.9580 183.6933
" />
<path d="M178.9580 183.6933
L179.1009 183.6219
" />
<path d="M179.1009 183.6219
L179.1723 183.5505
" />
<path d="M179.1723 183.5505
L179.2437 183.4076
" />
<path d="M179.2437 183.4076
L179.2437 183.2648
" />
<path d="M179.2437 183.2648
L179.1723 183.1219
" />
<path d="M179.1723 183.1219
L179.1009 183.0505
" />
<path d="M179.1009 183.0505
L178.9580 182.9790
" />
<path d="M178.9580 182.9790
L178.6723 182.9076
" />
<path d="M178.6723 182.9076
L178.5295 182.8362
" />
<path d="M178.5295 182.8362
L178.4580 182.7648
" />
<path d="M178.4580 182.7648
L178.3866 182.6219
" />
<path d="M178.3866 182.6219
L178.3866 182.4790
" />
<path d="M178.3866 182.4790
L178.4580 182.3362
" />
<path d="M178.4580 182.3362
L178.5295 182.2648
" />
<path d="M178.5295 182.2648
L178.6723 182.1933
" />
<path d="M178.6723 182.1933
L179.0295 182.1933
" />
<path d="M179.0295 182.1933
L179.2437 182.2648
" />
<path d="M179.8866 183.6933
L179.8866 182.1933
" />
<path d="M180.5295 183.6933
L180.5295 182.9076
" />
<path d="M180.5295 182.9076
L180.4580 182.7648
" />
<path d="M180.4580 182.7648
L180.3152 182.6933
" />
<path d="M180.3152 182.6933
L180.1009 182.6933
" />
<path d="M180.1009 182.6933
L179.9580 182.7648
" />
<path d="M179.9580 182.7648
L179.8866 182.8362
" />
<path d="M181.8152 183.6219
L181.6723 183.6933
" />
<path d="M181.6723 183.6933
L181.3866 183.6933
" />
<path d="M181.3866 183.6933
L181.2437 183.6219
" />
<path d="M181.2437 183.6219
L181.1723 183.4790
" />
<path d="M181.1723 183.4790
L181.1723 182.9076
" />
<path d="M181.1723 182.9076
L181.2437 182.7648
" />
<path d="M181.2437 182.7648
L181.3866 182.6933
" />
<path d="M181.3866 182.6933
L181.6723 182.6933
" />
<path d="M181.6723 182.6933
L181.8152 182.7648
" />
<path d="M181.8152 182.7648
L181.8866 182.9076
" />
<path d="M181.8866 182.9076
L181.8866 183.0505
" />
<path d="M181.8866 183.0505
L181.1723 183.1933
" />
<path d="M183.1009 183.6219
L182.9580 183.6933
" />
<path d="M182.9580 183.6933
L182.6723 183.6933
" />
<path d="M182.6723 183.6933
L182.5295 183.6219
" />
<path d="M182.5295 183.6219
L182.4580 183.4790
" />
<path d="M182.4580 183.4790
L182.4580 182.9076
" />
<path d="M182.4580 182.9076
L182.5295 182.7648
" />
<path d="M182.5295 182.7648
L182.6723 182.6933
" />
<path d="M182.6723 182.6933
L182.9580 182.6933
" />
<path d="M182.9580 182.6933
L183.1009 182.7648
" />
<path d="M183.1009 182.7648
L183.1723 182.9076
" />
<path d="M183.1723 182.9076
L183.1723 183.0505
" />
<path d="M183.1723 183.0505
L182.4580 183.1933
" />
<path d="M183.6009 182.6933
L184.1723 182.6933
" />
<path d="M183.8152 182.1933
L183.8152 183.4790
" />
<path d="M183.8152 183.4790
L183.8866 183.6219
" />
<path d="M183.8866 183.6219
L184.0295 183.6933
" />
<path d="M184.0295 183.6933
L184.1723 183.6933
" />
<path d="M184.6723 183.5505
L184.7437 183.6219
" />
<path d="M184.7437 183.6219
L184.6723 183.6933
" />
<path d="M184.6723 183.6933
L184.6009 183.6219
" />
<path d="M184.6009 183.6219
L184.6723 183.5505
" />
<path d="M184.6723 183.5505
L184.6723 183.6933
" />
<path d="M184.6723 182.7648
L184.7437 182.8362
" />
<path d="M184.7437 182.8362
L184.6723 182.9076
" />
<path d="M184.6723 182.9076
L184.6009 182.8362
" />
<path d="M184.6009 182.8362
L184.6723 182.7648
" />
<path d="M184.6723 182.7648
L184.6723 182.9076
" />
</g></g>
<g style="fill:none; 
stroke:#000000; stroke-width:0.3000; stroke-opacity:1; 
stroke-linecap:round; stroke-linejoin:round;">
<text x="178.0022" y="180.7572"
textLength="0.9000" font-size="2.0000" lengthAdjust="spacingAndGlyphs"
text-anchor="start" opacity="0"></text>
<g class="stroked-text"><desc></desc>
</g></g>
<g style="fill:none; 
stroke:#000000; stroke-width:0.1500; stroke-opacity:1; 
stroke-linecap:round; stroke-linejoin:round;">
<text x="178.0022" y="177.7572"
textLength="0.4500" font-size="2.0000" lengthAdjust="spacingAndGlyphs"
text-anchor="start" opacity="0"></text>
<g class="stroked-text"><desc></desc>
</g></g>
<g style="fill:none; 
stroke:#000000; stroke-width:0.1500; stroke-opacity:1; 
stroke-linecap:round; stroke-linejoin:round;">
<text x="178.0022" y="174.7572"
textLength="0.4500" font-size="2.0000" lengthAdjust="spacingAndGlyphs"
text-anchor="start" opacity="0"></text>
<g class="stroked-text"><desc></desc>
</g></g>
<g style="fill:none; 
stroke:#000000; stroke-width:0.1500; stroke-opacity:1; 
stroke-linecap:round; stroke-linejoin:round;">
<text x="178.0022" y="171.7572"
textLength="0.4500" font-size="2.0000" lengthAdjust="spacingAndGlyphs"
text-anchor="start" opacity="0"></text>
<g class="stroked-text"><desc></desc>
</g></g>
<g style="fill:none; 
stroke:#000000; stroke-width:0.1500; stroke-opacity:1; 
stroke-linecap:round; stroke-linejoin:round;">
<text x="178.0022" y="168.7572"
textLength="0.4500" font-size="2.0000" lengthAdjust="spacingAndGlyphs"
text-anchor="start" opacity="0"></text>
<g class="stroked-text"><desc></desc>
</g></g>
<g style="fill:none; 
stroke:#000000; stroke-width:0.1500; stroke-opacity:1; 
stroke-linecap:round; stroke-linejoin:round;">
<path d="M197.0022 191.5072
L197.0022 194.5072
" />
</g>
<g style="fill:none; 
stroke:#000000; stroke-width:0.1500; stroke-opacity:1; 
stroke-linecap:round; stroke-linejoin:round;">
<path d="M261.0022 191.5072
L261.0022 198.0072
" />
<path style="fill:none; 
stroke:#D0D2CD; stroke-width:0.1000; stroke-opacity:1; 
stroke-linecap:round; stroke-linejoin:round;fill:none"
d="M 116.7683,57.3540
118.1149,57.5411
119.6357,57.8310
121.3111,58.2061
129.1657,60.2010
133.5091,61.2459
135.7160,61.7178
137.9202,62.1324
140.1019,62.4716
142.2415,62.7179
144.3193,62.8533
146.3157,62.8600
147.1930,62.7970
148.0781,62.6710
148.9684,62.4913
149.8615,62.2671
150.7547,62.0077
151.6456,61.7223
153.4101,61.1107
155.1347,60.5062
155.9758,60.2297
156.7993,59.9827
157.6026,59.7746
158.3834,59.6144
159.1389,59.5115
159.8668,59.4752
160.2095,59.4839
160.5478,59.5096
160.8811,59.5520
161.2091,59.6106
161.5314,59.6850
161.8475,59.7747
162.1570,59.8795
162.4595,59.9988
162.7545,60.1322
163.0418,60.2793
163.3207,60.4398
163.5910,60.6131
163.8522,60.7988
164.1039,60.9966
164.3456,61.2060
164.5770,61.4267
164.7976,61.6580
165.0070,61.8998
165.2047,62.1515
165.3905,62.4127
165.5638,62.6830
165.7242,62.9621
165.8713,63.2493
166.0048,63.5445
166.1241,63.8470
166.2288,64.1566
166.3186,64.4728
166.3930,64.7951
166.4516,65.1232
166.4940,65.4566
166.5197,65.7950
166.5284,66.1378
166.4944,66.8457
166.3985,67.6373
166.2499,68.5041
166.0579,69.4377
165.0393,73.6697
164.5086,75.9657
164.2702,77.1291
164.0620,78.2913
163.8933,79.4440
163.7731,80.5787
163.7109,81.6869
163.7156,82.7601
163.8160,84.0347
164.0076,85.2968
164.2768,86.5483
164.6102,87.7908
164.9944,89.0263
165.4158,90.2565
166.3165,92.7081
167.2046,95.1600
167.6102,96.3905
167.9723,97.6264
168.2774,98.8696
168.5120,100.1217
168.6626,101.3846
168.7023,102.0207
168.7159,102.6602
168.7003,103.2996
168.6550,103.9358
168.4836,105.1989
168.2180,106.4514
167.8748,107.6950
167.4705,108.9314
167.0216,110.1624
166.0563,112.6152
165.1109,115.0673
164.6869,116.2975
164.3175,117.5328
164.0192,118.7750
163.8084,120.0258
163.7410,120.6550
163.7017,121.2869
163.6926,121.9220
163.7156,122.5602
163.7556,122.9935
163.8197,123.4178
163.9065,123.8341
164.0140,124.2430
164.1408,124.6454
164.2851,125.0419
164.6197,125.8205
165.0043,126.5850
165.4256,127.3413
166.3249,128.8541
166.7761,129.6227
167.2105,130.4075
167.6147,131.2146
167.9755,132.0501
168.1354,132.4804
168.2793,132.9201
168.4058,133.3699
168.5129,133.8306
168.5992,134.3030
168.6629,134.7878
168.7023,135.2858
168.7159,135.7977
168.7043,136.2531
168.6702,136.7025
168.6139,137.1454
168.5360,137.5813
168.4372,138.0094
168.3180,138.4294
168.1788,138.8406
168.0204,139.2425
167.8431,139.6345
167.6477,140.0161
167.4346,140.3867
167.2044,140.7458
166.9576,141.0928
166.6949,141.4271
166.4167,141.7483
166.1237,142.0556
165.8163,142.3487
165.4952,142.6268
165.1609,142.8896
164.8139,143.1363
164.4548,143.3665
164.0842,143.5796
163.7026,143.7750
163.3106,143.9523
162.9087,144.1107
162.4975,144.2499
162.0775,144.3691
161.6493,144.4680
161.2135,144.5458
160.7706,144.6021
160.3212,144.6363
159.8657,144.6478
158.7132,144.5815
157.3666,144.3944
155.8458,144.1044
154.1703,143.7293
146.3158,141.7342
141.9724,140.6893
139.7655,140.2173
137.5613,139.8027
135.3796,139.4634
133.2400,139.2171
131.1622,139.0817
129.1658,139.0750
128.2885,139.1380
127.4034,139.2640
126.5130,139.4438
125.6200,139.6680
124.7268,139.9274
123.8359,140.2128
122.0714,140.8246
120.3467,141.4292
119.5057,141.7057
118.6822,141.9527
117.8788,142.1609
117.0981,142.3211
116.3426,142.4240
115.6147,142.4603
115.2845,142.4521
114.9566,142.4277
114.6314,142.3873
114.3096,142.3310
113.9916,142.2593
113.6780,142.1722
113.3693,142.0700
113.0662,141.9529
112.7691,141.8212
112.4786,141.6751
112.1953,141.5148
111.9196,141.3406
111.6522,141.1526
111.3936,140.9511
111.1443,140.7363
110.9049,140.5085
110.6771,140.2691
110.4623,140.0198
110.2608,139.7612
110.0728,139.4938
109.8986,139.2181
109.7383,138.9348
109.5921,138.6443
109.4604,138.3472
109.3434,138.0440
109.2412,137.7353
109.1541,137.4216
109.0824,137.1035
109.0261,136.7815
108.9857,136.4562
108.9613,136.1280
108.9531,135.7977
108.9871,135.0898
109.0830,134.2982
109.2316,133.4313
109.4236,132.4978
110.4422,128.2656
110.9728,125.9694
111.2112,124.8060
111.4194,123.6437
111.5882,122.4910
111.7083,121.3563
111.7706,120.2481
111.7658,119.1749
111.6654,117.9003
111.4739,116.6382
111.2047,115.3868
110.8713,114.1442
110.4871,112.9088
110.0657,111.6786
109.1650,109.2271
108.2769,106.7753
107.8713,105.5449
107.5091,104.3090
107.2041,103.0659
106.9695,101.8138
106.8188,100.5509
106.7792,99.9148
106.7656,99.2753
106.7812,98.6359
106.8265,97.9997
106.9979,96.7366
107.2635,95.4841
107.6067,94.2405
108.0110,93.0041
108.4598,91.7731
109.4252,89.3203
110.3706,86.8682
110.7945,85.6380
111.1639,84.4027
111.4623,83.1605
111.6731,81.9097
111.7405,81.2805
111.7798,80.6486
111.7889,80.0135
111.7658,79.3753
111.7259,78.9420
111.6617,78.5177
111.5750,78.1014
111.4674,77.6925
111.3407,77.2901
111.1963,76.8936
110.8618,76.1150
110.4772,75.3505
110.0559,74.5942
109.1566,73.0814
108.7054,72.3128
108.2710,71.5280
107.8667,70.7209
107.5060,69.8854
107.3461,69.4551
107.2021,69.0154
107.0757,68.5656
106.9685,68.1049
106.8823,67.6325
106.8186,67.1477
106.7791,66.6497
106.7656,66.1378
106.7771,65.6824
106.8113,65.2330
106.8676,64.7901
106.9454,64.3542
107.0443,63.9261
107.1635,63.5061
107.3027,63.0949
107.4611,62.6930
107.6384,62.3010
107.8338,61.9194
108.0469,61.5488
108.2771,61.1897
108.5239,60.8427
108.7866,60.5084
109.0647,60.1872
109.3578,59.8799
109.6651,59.5868
109.9863,59.3087
110.3206,59.0460
110.6676,58.7992
111.0267,58.5690
111.3973,58.3559
111.7789,58.1605
112.1709,57.9832
112.5728,57.8248
112.9840,57.6856
113.4040,57.5664
113.8321,57.4675
114.2680,57.3897
114.7109,57.3334
115.1603,57.2992
115.6157,57.2877
Z" /> 
<path style="fill:none; 
stroke:#D0D2CD; stroke-width:0.1000; stroke-opacity:1; 
stroke-linecap:round; stroke-linejoin:round;fill:none"
d="M 116.7683,57.3540
118.1149,57.5411
119.6357,57.8310
121.3111,58.2061
129.1657,60.2010
133.5091,61.2459
135.7160,61.7178
137.9202,62.1324
140.1019,62.4716
142.2415,62.7179
144.3193,62.8533
146.3157,62.8600
147.1930,62.7970
148.0781,62.6710
148.9684,62.4913
149.8615,62.2671
150.7547,62.0077
151.6456,61.7223
153.4101,61.1107
155.1347,60.5062
155.9758,60.2297
156.7993,59.9827
157.6026,59.7746
158.3834,59.6144
159.1389,59.5115
159.8668,59.4752
160.2095,59.4839
160.5478,59.5096
160.8811,59.5520
161.2091,59.6106
161.5314,59.6850
161.8475,59.7747
162.1570,59.8795
162.4595,59.9988
162.7545,60.1322
163.0418,60.2793
163.3207,60.4398
163.5910,60.6131
163.8522,60.7988
164.1039,60.9966
164.3456,61.2060
164.5770,61.4267
164.7976,61.6580
165.0070,61.8998
165.2047,62.1515
165.3905,62.4127
165.5638,62.6830
165.7242,62.9621
165.8713,63.2493
166.0048,63.5445
166.1241,63.8470
166.2288,64.1566
166.3186,64.4728
166.3930,64.7951
166.4516,65.1232
166.4940,65.4566
166.5197,65.7950
166.5284,66.1378
166.4944,66.8457
166.3985,67.6373
166.2499,68.5041
166.0579,69.4377
165.0393,73.6697
164.5086,75.9657
164.2702,77.1291
164.0620,78.2913
163.8933,79.4440
163.7731,80.5787
163.7109,81.6869
163.7156,82.7601
163.8160,84.0347
164.0076,85.2968
164.2768,86.5483
164.6102,87.7908
164.9944,89.0263
165.4158,90.2565
166.3165,92.7081
167.2046,95.1600
167.6102,96.3905
167.9723,97.6264
168.2774,98.8696
168.5120,100.1217
168.6626,101.3846
168.7023,102.0207
168.7159,102.6602
168.7003,103.2996
168.6550,103.9358
168.4836,105.1989
168.2180,106.4514
167.8748,107.6950
167.4705,108.9314
167.0216,110.1624
166.0563,112.6152
165.1109,115.0673
164.6869,116.2975
164.3175,117.5328
164.0192,118.7750
163.8084,120.0258
163.7410,120.6550
163.7017,121.2869
163.6926,121.9220
163.7156,122.5602
163.7556,122.9935
163.8197,123.4178
163.9065,123.8341
164.0140,124.2430
164.1408,124.6454
164.2851,125.0419
164.6197,125.8205
165.0043,126.5850
165.4256,127.3413
166.3249,128.8541
166.7761,129.6227
167.2105,130.4075
167.6147,131.2146
167.9755,132.0501
168.1354,132.4804
168.2793,132.9201
168.4058,133.3699
168.5129,133.8306
168.5992,134.3030
168.6629,134.7878
168.7023,135.2858
168.7159,135.7977
168.7043,136.2531
168.6702,136.7025
168.6139,137.1454
168.5360,137.5813
168.4372,138.0094
168.3180,138.4294
168.1788,138.8406
168.0204,139.2425
167.8431,139.6345
167.6477,140.0161
167.4346,140.3867
167.2044,140.7458
166.9576,141.0928
166.6949,141.4271
166.4167,141.7483
166.1237,142.0556
165.8163,142.3487
165.4952,142.6268
165.1609,142.8896
164.8139,143.1363
164.4548,143.3665
164.0842,143.5796
163.7026,143.7750
163.3106,143.9523
162.9087,144.1107
162.4975,144.2499
162.0775,144.3691
161.6493,144.4680
161.2135,144.5458
160.7706,144.6021
160.3212,144.6363
159.8657,144.6478
158.7132,144.5815
157.3666,144.3944
155.8458,144.1044
154.1703,143.7293
146.3158,141.7342
141.9724,140.6893
139.7655,140.2173
137.5613,139.8027
135.3796,139.4634
133.2400,139.2171
131.1622,139.0817
129.1658,139.0750
128.2885,139.1380
127.4034,139.2640
126.5130,139.4438
125.6200,139.6680
124.7268,139.9274
123.8359,140.2128
122.0714,140.8246
120.3467,141.4292
119.5057,141.7057
118.6822,141.9527
117.8788,142.1609
117.0981,142.3211
116.3426,142.4240
115.6147,142.4603
115.2845,142.4521
114.9566,142.4277
114.6314,142.3873
114.3096,142.3310
113.9916,142.2593
113.6780,142.1722
113.3693,142.0700
113.0662,141.9529
112.7691,141.8212
112.4786,141.6751
112.1953,141.5148
111.9196,141.3406
111.6522,141.1526
111.3936,140.9511
111.1443,140.7363
110.9049,140.5085
110.6771,140.2691
110.4623,140.0198
110.2608,139.7612
110.0728,139.4938
109.8986,139.2181
109.7383,138.9348
109.5921,138.6443
109.4604,138.3472
109.3434,138.0440
109.2412,137.7353
109.1541,137.4216
109.0824,137.1035
109.0261,136.7815
108.9857,136.4562
108.9613,136.1280
108.9531,135.7977
108.9871,135.0898
109.0830,134.2982
109.2316,133.4313
109.4236,132.4978
110.4422,128.2656
110.9728,125.9694
111.2112,124.8060
111.4194,123.6437
111.5882,122.4910
111.7083,121.3563
111.7706,120.2481
111.7658,119.1749
111.6654,117.9003
111.4739,116.6382
111.2047,115.3868
110.8713,114.1442
110.4871,112.9088
110.0657,111.6786
109.1650,109.2271
108.2769,106.7753
107.8713,105.5449
107.5091,104.3090
107.2041,103.0659
106.9695,101.8138
106.8188,100.5509
106.7792,99.9148
106.7656,99.2753
106.7812,98.6359
106.8265,97.9997
106.9979,96.7366
107.2635,95.4841
107.6067,94.2405
108.0110,93.0041
108.4598,91.7731
109.4252,89.3203
110.3706,86.8682
110.7945,85.6380
111.1639,84.4027
111.4623,83.1605
111.6731,81.9097
111.7405,81.2805
111.7798,80.6486
111.7889,80.0135
111.7658,79.3753
111.7259,78.9420
111.6617,78.5177
111.5750,78.1014
111.4674,77.6925
111.3407,77.2901
111.1963,76.8936
110.8618,76.1150
110.4772,75.3505
110.0559,74.5942
109.1566,73.0814
108.7054,72.3128
108.2710,71.5280
107.8667,70.7209
107.5060,69.8854
107.3461,69.4551
107.2021,69.0154
107.0757,68.5656
106.9685,68.1049
106.8823,67.6325
106.8186,67.1477
106.7791,66.6497
106.7656,66.1378
106.7771,65.6824
106.8113,65.2330
106.8676,64.7901
106.9454,64.3542
107.0443,63.9261
107.1635,63.5061
107.3027,63.0949
107.4611,62.6930
107.6384,62.3010
107.8338,61.9194
108.0469,61.5488
108.2771,61.1897
108.5239,60.8427
108.7866,60.5084
109.0647,60.1872
109.3578,59.8799
109.6651,59.5868
109.9863,59.3087
110.3206,59.0460
110.6676,58.7992
111.0267,58.5690
111.3973,58.3559
111.7789,58.1605
112.1709,57.9832
112.5728,57.8248
112.9840,57.6856
113.4040,57.5664
113.8321,57.4675
114.2680,57.3897
114.7109,57.3334
115.1603,57.2992
115.6157,57.2877
Z" /> 
</g> 
</svg>
