%TF.GenerationSoftware,KiCad,Pcbnew,8.0.2*%
%TF.CreationDate,2024-07-30T13:24:05-06:00*%
%TF.ProjectId,PhotonBreakout,50686f74-6f6e-4427-9265-616b6f75742e,rev?*%
%TF.SameCoordinates,Original*%
%TF.FileFunction,Legend,Top*%
%TF.FilePolarity,Positive*%
%FSLAX46Y46*%
G04 Gerber Fmt 4.6, Leading zero omitted, Abs format (unit mm)*
G04 Created by KiCad (PCBNEW 8.0.2) date 2024-07-30 13:24:05*
%MOMM*%
%LPD*%
G01*
G04 APERTURE LIST*
%ADD10C,0.100000*%
%ADD11C,0.200000*%
%ADD12C,0.150000*%
%ADD13C,0.120000*%
G04 APERTURE END LIST*
D10*
X144780000Y-125730000D02*
X147955000Y-125730000D01*
X137795000Y-125730000D02*
X140970000Y-125730000D01*
D11*
X141589286Y-125851266D02*
X142351191Y-125851266D01*
X141970238Y-126232219D02*
X141970238Y-125470314D01*
X143303571Y-125232219D02*
X142827381Y-125232219D01*
X142827381Y-125232219D02*
X142779762Y-125708409D01*
X142779762Y-125708409D02*
X142827381Y-125660790D01*
X142827381Y-125660790D02*
X142922619Y-125613171D01*
X142922619Y-125613171D02*
X143160714Y-125613171D01*
X143160714Y-125613171D02*
X143255952Y-125660790D01*
X143255952Y-125660790D02*
X143303571Y-125708409D01*
X143303571Y-125708409D02*
X143351190Y-125803647D01*
X143351190Y-125803647D02*
X143351190Y-126041742D01*
X143351190Y-126041742D02*
X143303571Y-126136980D01*
X143303571Y-126136980D02*
X143255952Y-126184600D01*
X143255952Y-126184600D02*
X143160714Y-126232219D01*
X143160714Y-126232219D02*
X142922619Y-126232219D01*
X142922619Y-126232219D02*
X142827381Y-126184600D01*
X142827381Y-126184600D02*
X142779762Y-126136980D01*
X143636905Y-125232219D02*
X143970238Y-126232219D01*
X143970238Y-126232219D02*
X144303571Y-125232219D01*
D10*
X137795000Y-134620000D02*
X137795000Y-125730000D01*
X140970000Y-134620000D02*
X137795000Y-134620000D01*
X144780000Y-134620000D02*
X147955000Y-134620000D01*
D11*
X141589286Y-134741266D02*
X142351191Y-134741266D01*
X141970238Y-135122219D02*
X141970238Y-134360314D01*
X143303571Y-134122219D02*
X142827381Y-134122219D01*
X142827381Y-134122219D02*
X142779762Y-134598409D01*
X142779762Y-134598409D02*
X142827381Y-134550790D01*
X142827381Y-134550790D02*
X142922619Y-134503171D01*
X142922619Y-134503171D02*
X143160714Y-134503171D01*
X143160714Y-134503171D02*
X143255952Y-134550790D01*
X143255952Y-134550790D02*
X143303571Y-134598409D01*
X143303571Y-134598409D02*
X143351190Y-134693647D01*
X143351190Y-134693647D02*
X143351190Y-134931742D01*
X143351190Y-134931742D02*
X143303571Y-135026980D01*
X143303571Y-135026980D02*
X143255952Y-135074600D01*
X143255952Y-135074600D02*
X143160714Y-135122219D01*
X143160714Y-135122219D02*
X142922619Y-135122219D01*
X142922619Y-135122219D02*
X142827381Y-135074600D01*
X142827381Y-135074600D02*
X142779762Y-135026980D01*
X143636905Y-134122219D02*
X143970238Y-135122219D01*
X143970238Y-135122219D02*
X144303571Y-134122219D01*
D10*
X121452475Y-70801905D02*
X120452475Y-70801905D01*
X120928665Y-70801905D02*
X120928665Y-70230477D01*
X121452475Y-70230477D02*
X120452475Y-70230477D01*
X121452475Y-69611429D02*
X121404856Y-69706667D01*
X121404856Y-69706667D02*
X121357236Y-69754286D01*
X121357236Y-69754286D02*
X121261998Y-69801905D01*
X121261998Y-69801905D02*
X120976284Y-69801905D01*
X120976284Y-69801905D02*
X120881046Y-69754286D01*
X120881046Y-69754286D02*
X120833427Y-69706667D01*
X120833427Y-69706667D02*
X120785808Y-69611429D01*
X120785808Y-69611429D02*
X120785808Y-69468572D01*
X120785808Y-69468572D02*
X120833427Y-69373334D01*
X120833427Y-69373334D02*
X120881046Y-69325715D01*
X120881046Y-69325715D02*
X120976284Y-69278096D01*
X120976284Y-69278096D02*
X121261998Y-69278096D01*
X121261998Y-69278096D02*
X121357236Y-69325715D01*
X121357236Y-69325715D02*
X121404856Y-69373334D01*
X121404856Y-69373334D02*
X121452475Y-69468572D01*
X121452475Y-69468572D02*
X121452475Y-69611429D01*
X121452475Y-68706667D02*
X121404856Y-68801905D01*
X121404856Y-68801905D02*
X121309617Y-68849524D01*
X121309617Y-68849524D02*
X120452475Y-68849524D01*
X121404856Y-67944762D02*
X121452475Y-68040000D01*
X121452475Y-68040000D02*
X121452475Y-68230476D01*
X121452475Y-68230476D02*
X121404856Y-68325714D01*
X121404856Y-68325714D02*
X121309617Y-68373333D01*
X121309617Y-68373333D02*
X120928665Y-68373333D01*
X120928665Y-68373333D02*
X120833427Y-68325714D01*
X120833427Y-68325714D02*
X120785808Y-68230476D01*
X120785808Y-68230476D02*
X120785808Y-68040000D01*
X120785808Y-68040000D02*
X120833427Y-67944762D01*
X120833427Y-67944762D02*
X120928665Y-67897143D01*
X120928665Y-67897143D02*
X121023903Y-67897143D01*
X121023903Y-67897143D02*
X121119141Y-68373333D01*
X121452475Y-66706666D02*
X120452475Y-66706666D01*
X120452475Y-66706666D02*
X120452475Y-66325714D01*
X120452475Y-66325714D02*
X120500094Y-66230476D01*
X120500094Y-66230476D02*
X120547713Y-66182857D01*
X120547713Y-66182857D02*
X120642951Y-66135238D01*
X120642951Y-66135238D02*
X120785808Y-66135238D01*
X120785808Y-66135238D02*
X120881046Y-66182857D01*
X120881046Y-66182857D02*
X120928665Y-66230476D01*
X120928665Y-66230476D02*
X120976284Y-66325714D01*
X120976284Y-66325714D02*
X120976284Y-66706666D01*
X121452475Y-65278095D02*
X120928665Y-65278095D01*
X120928665Y-65278095D02*
X120833427Y-65325714D01*
X120833427Y-65325714D02*
X120785808Y-65420952D01*
X120785808Y-65420952D02*
X120785808Y-65611428D01*
X120785808Y-65611428D02*
X120833427Y-65706666D01*
X121404856Y-65278095D02*
X121452475Y-65373333D01*
X121452475Y-65373333D02*
X121452475Y-65611428D01*
X121452475Y-65611428D02*
X121404856Y-65706666D01*
X121404856Y-65706666D02*
X121309617Y-65754285D01*
X121309617Y-65754285D02*
X121214379Y-65754285D01*
X121214379Y-65754285D02*
X121119141Y-65706666D01*
X121119141Y-65706666D02*
X121071522Y-65611428D01*
X121071522Y-65611428D02*
X121071522Y-65373333D01*
X121071522Y-65373333D02*
X121023903Y-65278095D01*
X120785808Y-64944761D02*
X120785808Y-64563809D01*
X120452475Y-64801904D02*
X121309617Y-64801904D01*
X121309617Y-64801904D02*
X121404856Y-64754285D01*
X121404856Y-64754285D02*
X121452475Y-64659047D01*
X121452475Y-64659047D02*
X121452475Y-64563809D01*
X120785808Y-64373332D02*
X120785808Y-63992380D01*
X120452475Y-64230475D02*
X121309617Y-64230475D01*
X121309617Y-64230475D02*
X121404856Y-64182856D01*
X121404856Y-64182856D02*
X121452475Y-64087618D01*
X121452475Y-64087618D02*
X121452475Y-63992380D01*
X121404856Y-63278094D02*
X121452475Y-63373332D01*
X121452475Y-63373332D02*
X121452475Y-63563808D01*
X121452475Y-63563808D02*
X121404856Y-63659046D01*
X121404856Y-63659046D02*
X121309617Y-63706665D01*
X121309617Y-63706665D02*
X120928665Y-63706665D01*
X120928665Y-63706665D02*
X120833427Y-63659046D01*
X120833427Y-63659046D02*
X120785808Y-63563808D01*
X120785808Y-63563808D02*
X120785808Y-63373332D01*
X120785808Y-63373332D02*
X120833427Y-63278094D01*
X120833427Y-63278094D02*
X120928665Y-63230475D01*
X120928665Y-63230475D02*
X121023903Y-63230475D01*
X121023903Y-63230475D02*
X121119141Y-63706665D01*
X121452475Y-62801903D02*
X120785808Y-62801903D01*
X120976284Y-62801903D02*
X120881046Y-62754284D01*
X120881046Y-62754284D02*
X120833427Y-62706665D01*
X120833427Y-62706665D02*
X120785808Y-62611427D01*
X120785808Y-62611427D02*
X120785808Y-62516189D01*
X120785808Y-62182855D02*
X121452475Y-62182855D01*
X120881046Y-62182855D02*
X120833427Y-62135236D01*
X120833427Y-62135236D02*
X120785808Y-62039998D01*
X120785808Y-62039998D02*
X120785808Y-61897141D01*
X120785808Y-61897141D02*
X120833427Y-61801903D01*
X120833427Y-61801903D02*
X120928665Y-61754284D01*
X120928665Y-61754284D02*
X121452475Y-61754284D01*
X121357236Y-61278093D02*
X121404856Y-61230474D01*
X121404856Y-61230474D02*
X121452475Y-61278093D01*
X121452475Y-61278093D02*
X121404856Y-61325712D01*
X121404856Y-61325712D02*
X121357236Y-61278093D01*
X121357236Y-61278093D02*
X121452475Y-61278093D01*
X120833427Y-61278093D02*
X120881046Y-61230474D01*
X120881046Y-61230474D02*
X120928665Y-61278093D01*
X120928665Y-61278093D02*
X120881046Y-61325712D01*
X120881046Y-61325712D02*
X120833427Y-61278093D01*
X120833427Y-61278093D02*
X120928665Y-61278093D01*
X123062419Y-70611428D02*
X123062419Y-71182856D01*
X123062419Y-70897142D02*
X122062419Y-70897142D01*
X122062419Y-70897142D02*
X122205276Y-70992380D01*
X122205276Y-70992380D02*
X122300514Y-71087618D01*
X122300514Y-71087618D02*
X122348133Y-71182856D01*
X122967180Y-70182856D02*
X123014800Y-70135237D01*
X123014800Y-70135237D02*
X123062419Y-70182856D01*
X123062419Y-70182856D02*
X123014800Y-70230475D01*
X123014800Y-70230475D02*
X122967180Y-70182856D01*
X122967180Y-70182856D02*
X123062419Y-70182856D01*
X122062419Y-69801904D02*
X122062419Y-69135238D01*
X122062419Y-69135238D02*
X123062419Y-69563809D01*
X122062419Y-68278095D02*
X122062419Y-68754285D01*
X122062419Y-68754285D02*
X122538609Y-68801904D01*
X122538609Y-68801904D02*
X122490990Y-68754285D01*
X122490990Y-68754285D02*
X122443371Y-68659047D01*
X122443371Y-68659047D02*
X122443371Y-68420952D01*
X122443371Y-68420952D02*
X122490990Y-68325714D01*
X122490990Y-68325714D02*
X122538609Y-68278095D01*
X122538609Y-68278095D02*
X122633847Y-68230476D01*
X122633847Y-68230476D02*
X122871942Y-68230476D01*
X122871942Y-68230476D02*
X122967180Y-68278095D01*
X122967180Y-68278095D02*
X123014800Y-68325714D01*
X123014800Y-68325714D02*
X123062419Y-68420952D01*
X123062419Y-68420952D02*
X123062419Y-68659047D01*
X123062419Y-68659047D02*
X123014800Y-68754285D01*
X123014800Y-68754285D02*
X122967180Y-68801904D01*
X122062419Y-67849523D02*
X122252895Y-67849523D01*
X122062419Y-67468571D02*
X122252895Y-67468571D01*
X122062419Y-66373332D02*
X123062419Y-65706666D01*
X122062419Y-65706666D02*
X123062419Y-66373332D01*
X122157657Y-64611427D02*
X122110038Y-64563808D01*
X122110038Y-64563808D02*
X122062419Y-64468570D01*
X122062419Y-64468570D02*
X122062419Y-64230475D01*
X122062419Y-64230475D02*
X122110038Y-64135237D01*
X122110038Y-64135237D02*
X122157657Y-64087618D01*
X122157657Y-64087618D02*
X122252895Y-64039999D01*
X122252895Y-64039999D02*
X122348133Y-64039999D01*
X122348133Y-64039999D02*
X122490990Y-64087618D01*
X122490990Y-64087618D02*
X123062419Y-64659046D01*
X123062419Y-64659046D02*
X123062419Y-64039999D01*
X122967180Y-63611427D02*
X123014800Y-63563808D01*
X123014800Y-63563808D02*
X123062419Y-63611427D01*
X123062419Y-63611427D02*
X123014800Y-63659046D01*
X123014800Y-63659046D02*
X122967180Y-63611427D01*
X122967180Y-63611427D02*
X123062419Y-63611427D01*
X122062419Y-63230475D02*
X122062419Y-62563809D01*
X122062419Y-62563809D02*
X123062419Y-62992380D01*
X122062419Y-61706666D02*
X122062419Y-62182856D01*
X122062419Y-62182856D02*
X122538609Y-62230475D01*
X122538609Y-62230475D02*
X122490990Y-62182856D01*
X122490990Y-62182856D02*
X122443371Y-62087618D01*
X122443371Y-62087618D02*
X122443371Y-61849523D01*
X122443371Y-61849523D02*
X122490990Y-61754285D01*
X122490990Y-61754285D02*
X122538609Y-61706666D01*
X122538609Y-61706666D02*
X122633847Y-61659047D01*
X122633847Y-61659047D02*
X122871942Y-61659047D01*
X122871942Y-61659047D02*
X122967180Y-61706666D01*
X122967180Y-61706666D02*
X123014800Y-61754285D01*
X123014800Y-61754285D02*
X123062419Y-61849523D01*
X123062419Y-61849523D02*
X123062419Y-62087618D01*
X123062419Y-62087618D02*
X123014800Y-62182856D01*
X123014800Y-62182856D02*
X122967180Y-62230475D01*
X122062419Y-61278094D02*
X122252895Y-61278094D01*
X122062419Y-60897142D02*
X122252895Y-60897142D01*
X127635000Y-136525000D02*
X127635000Y-121285000D01*
X147955000Y-121285000D02*
X147955000Y-136525000D01*
X125095000Y-136525000D02*
X127635000Y-136525000D01*
X154305000Y-136525000D02*
X156845000Y-136525000D01*
X147955000Y-136525000D02*
X149860000Y-136525000D01*
X127635000Y-121285000D02*
X118745000Y-121285000D01*
X156845000Y-136525000D02*
X156845000Y-121285000D01*
X118745000Y-136525000D02*
X120650000Y-136525000D01*
X118745000Y-121285000D02*
X118745000Y-136525000D01*
X156845000Y-121285000D02*
X147955000Y-121285000D01*
D11*
X109803660Y-102689600D02*
X109946517Y-102737219D01*
X109946517Y-102737219D02*
X110184612Y-102737219D01*
X110184612Y-102737219D02*
X110279850Y-102689600D01*
X110279850Y-102689600D02*
X110327469Y-102641980D01*
X110327469Y-102641980D02*
X110375088Y-102546742D01*
X110375088Y-102546742D02*
X110375088Y-102451504D01*
X110375088Y-102451504D02*
X110327469Y-102356266D01*
X110327469Y-102356266D02*
X110279850Y-102308647D01*
X110279850Y-102308647D02*
X110184612Y-102261028D01*
X110184612Y-102261028D02*
X109994136Y-102213409D01*
X109994136Y-102213409D02*
X109898898Y-102165790D01*
X109898898Y-102165790D02*
X109851279Y-102118171D01*
X109851279Y-102118171D02*
X109803660Y-102022933D01*
X109803660Y-102022933D02*
X109803660Y-101927695D01*
X109803660Y-101927695D02*
X109851279Y-101832457D01*
X109851279Y-101832457D02*
X109898898Y-101784838D01*
X109898898Y-101784838D02*
X109994136Y-101737219D01*
X109994136Y-101737219D02*
X110232231Y-101737219D01*
X110232231Y-101737219D02*
X110375088Y-101784838D01*
X111375088Y-102641980D02*
X111327469Y-102689600D01*
X111327469Y-102689600D02*
X111184612Y-102737219D01*
X111184612Y-102737219D02*
X111089374Y-102737219D01*
X111089374Y-102737219D02*
X110946517Y-102689600D01*
X110946517Y-102689600D02*
X110851279Y-102594361D01*
X110851279Y-102594361D02*
X110803660Y-102499123D01*
X110803660Y-102499123D02*
X110756041Y-102308647D01*
X110756041Y-102308647D02*
X110756041Y-102165790D01*
X110756041Y-102165790D02*
X110803660Y-101975314D01*
X110803660Y-101975314D02*
X110851279Y-101880076D01*
X110851279Y-101880076D02*
X110946517Y-101784838D01*
X110946517Y-101784838D02*
X111089374Y-101737219D01*
X111089374Y-101737219D02*
X111184612Y-101737219D01*
X111184612Y-101737219D02*
X111327469Y-101784838D01*
X111327469Y-101784838D02*
X111375088Y-101832457D01*
X111803660Y-102737219D02*
X111803660Y-101737219D01*
X112375088Y-102737219D02*
X111946517Y-102165790D01*
X112375088Y-101737219D02*
X111803660Y-102308647D01*
X112803660Y-102356266D02*
X113565565Y-102356266D01*
X114041755Y-102737219D02*
X114041755Y-101737219D01*
X114041755Y-101737219D02*
X114279850Y-101737219D01*
X114279850Y-101737219D02*
X114422707Y-101784838D01*
X114422707Y-101784838D02*
X114517945Y-101880076D01*
X114517945Y-101880076D02*
X114565564Y-101975314D01*
X114565564Y-101975314D02*
X114613183Y-102165790D01*
X114613183Y-102165790D02*
X114613183Y-102308647D01*
X114613183Y-102308647D02*
X114565564Y-102499123D01*
X114565564Y-102499123D02*
X114517945Y-102594361D01*
X114517945Y-102594361D02*
X114422707Y-102689600D01*
X114422707Y-102689600D02*
X114279850Y-102737219D01*
X114279850Y-102737219D02*
X114041755Y-102737219D01*
X115565564Y-102737219D02*
X114994136Y-102737219D01*
X115279850Y-102737219D02*
X115279850Y-101737219D01*
X115279850Y-101737219D02*
X115184612Y-101880076D01*
X115184612Y-101880076D02*
X115089374Y-101975314D01*
X115089374Y-101975314D02*
X114994136Y-102022933D01*
X115898898Y-101737219D02*
X116565564Y-101737219D01*
X116565564Y-101737219D02*
X116136993Y-102737219D01*
X110851279Y-97609600D02*
X110994136Y-97657219D01*
X110994136Y-97657219D02*
X111232231Y-97657219D01*
X111232231Y-97657219D02*
X111327469Y-97609600D01*
X111327469Y-97609600D02*
X111375088Y-97561980D01*
X111375088Y-97561980D02*
X111422707Y-97466742D01*
X111422707Y-97466742D02*
X111422707Y-97371504D01*
X111422707Y-97371504D02*
X111375088Y-97276266D01*
X111375088Y-97276266D02*
X111327469Y-97228647D01*
X111327469Y-97228647D02*
X111232231Y-97181028D01*
X111232231Y-97181028D02*
X111041755Y-97133409D01*
X111041755Y-97133409D02*
X110946517Y-97085790D01*
X110946517Y-97085790D02*
X110898898Y-97038171D01*
X110898898Y-97038171D02*
X110851279Y-96942933D01*
X110851279Y-96942933D02*
X110851279Y-96847695D01*
X110851279Y-96847695D02*
X110898898Y-96752457D01*
X110898898Y-96752457D02*
X110946517Y-96704838D01*
X110946517Y-96704838D02*
X111041755Y-96657219D01*
X111041755Y-96657219D02*
X111279850Y-96657219D01*
X111279850Y-96657219D02*
X111422707Y-96704838D01*
X112279850Y-96990552D02*
X112279850Y-97657219D01*
X112041755Y-96609600D02*
X111803660Y-97323885D01*
X111803660Y-97323885D02*
X112422707Y-97323885D01*
X112803660Y-97276266D02*
X113565565Y-97276266D01*
X114041755Y-97657219D02*
X114041755Y-96657219D01*
X114041755Y-96657219D02*
X114279850Y-96657219D01*
X114279850Y-96657219D02*
X114422707Y-96704838D01*
X114422707Y-96704838D02*
X114517945Y-96800076D01*
X114517945Y-96800076D02*
X114565564Y-96895314D01*
X114565564Y-96895314D02*
X114613183Y-97085790D01*
X114613183Y-97085790D02*
X114613183Y-97228647D01*
X114613183Y-97228647D02*
X114565564Y-97419123D01*
X114565564Y-97419123D02*
X114517945Y-97514361D01*
X114517945Y-97514361D02*
X114422707Y-97609600D01*
X114422707Y-97609600D02*
X114279850Y-97657219D01*
X114279850Y-97657219D02*
X114041755Y-97657219D01*
X115565564Y-97657219D02*
X114994136Y-97657219D01*
X115279850Y-97657219D02*
X115279850Y-96657219D01*
X115279850Y-96657219D02*
X115184612Y-96800076D01*
X115184612Y-96800076D02*
X115089374Y-96895314D01*
X115089374Y-96895314D02*
X114994136Y-96942933D01*
X116041755Y-97657219D02*
X116232231Y-97657219D01*
X116232231Y-97657219D02*
X116327469Y-97609600D01*
X116327469Y-97609600D02*
X116375088Y-97561980D01*
X116375088Y-97561980D02*
X116470326Y-97419123D01*
X116470326Y-97419123D02*
X116517945Y-97228647D01*
X116517945Y-97228647D02*
X116517945Y-96847695D01*
X116517945Y-96847695D02*
X116470326Y-96752457D01*
X116470326Y-96752457D02*
X116422707Y-96704838D01*
X116422707Y-96704838D02*
X116327469Y-96657219D01*
X116327469Y-96657219D02*
X116136993Y-96657219D01*
X116136993Y-96657219D02*
X116041755Y-96704838D01*
X116041755Y-96704838D02*
X115994136Y-96752457D01*
X115994136Y-96752457D02*
X115946517Y-96847695D01*
X115946517Y-96847695D02*
X115946517Y-97085790D01*
X115946517Y-97085790D02*
X115994136Y-97181028D01*
X115994136Y-97181028D02*
X116041755Y-97228647D01*
X116041755Y-97228647D02*
X116136993Y-97276266D01*
X116136993Y-97276266D02*
X116327469Y-97276266D01*
X116327469Y-97276266D02*
X116422707Y-97228647D01*
X116422707Y-97228647D02*
X116470326Y-97181028D01*
X116470326Y-97181028D02*
X116517945Y-97085790D01*
X132052768Y-101979838D02*
X132052768Y-99979838D01*
X132052768Y-99979838D02*
X132814673Y-99979838D01*
X132814673Y-99979838D02*
X133005149Y-100075076D01*
X133005149Y-100075076D02*
X133100387Y-100170314D01*
X133100387Y-100170314D02*
X133195625Y-100360790D01*
X133195625Y-100360790D02*
X133195625Y-100646504D01*
X133195625Y-100646504D02*
X133100387Y-100836980D01*
X133100387Y-100836980D02*
X133005149Y-100932219D01*
X133005149Y-100932219D02*
X132814673Y-101027457D01*
X132814673Y-101027457D02*
X132052768Y-101027457D01*
X134052768Y-101979838D02*
X134052768Y-99979838D01*
X134909911Y-101979838D02*
X134909911Y-100932219D01*
X134909911Y-100932219D02*
X134814673Y-100741742D01*
X134814673Y-100741742D02*
X134624197Y-100646504D01*
X134624197Y-100646504D02*
X134338482Y-100646504D01*
X134338482Y-100646504D02*
X134148006Y-100741742D01*
X134148006Y-100741742D02*
X134052768Y-100836980D01*
X136148006Y-101979838D02*
X135957530Y-101884600D01*
X135957530Y-101884600D02*
X135862292Y-101789361D01*
X135862292Y-101789361D02*
X135767054Y-101598885D01*
X135767054Y-101598885D02*
X135767054Y-101027457D01*
X135767054Y-101027457D02*
X135862292Y-100836980D01*
X135862292Y-100836980D02*
X135957530Y-100741742D01*
X135957530Y-100741742D02*
X136148006Y-100646504D01*
X136148006Y-100646504D02*
X136433721Y-100646504D01*
X136433721Y-100646504D02*
X136624197Y-100741742D01*
X136624197Y-100741742D02*
X136719435Y-100836980D01*
X136719435Y-100836980D02*
X136814673Y-101027457D01*
X136814673Y-101027457D02*
X136814673Y-101598885D01*
X136814673Y-101598885D02*
X136719435Y-101789361D01*
X136719435Y-101789361D02*
X136624197Y-101884600D01*
X136624197Y-101884600D02*
X136433721Y-101979838D01*
X136433721Y-101979838D02*
X136148006Y-101979838D01*
X137386102Y-100646504D02*
X138148006Y-100646504D01*
X137671816Y-99979838D02*
X137671816Y-101694123D01*
X137671816Y-101694123D02*
X137767054Y-101884600D01*
X137767054Y-101884600D02*
X137957530Y-101979838D01*
X137957530Y-101979838D02*
X138148006Y-101979838D01*
X139100387Y-101979838D02*
X138909911Y-101884600D01*
X138909911Y-101884600D02*
X138814673Y-101789361D01*
X138814673Y-101789361D02*
X138719435Y-101598885D01*
X138719435Y-101598885D02*
X138719435Y-101027457D01*
X138719435Y-101027457D02*
X138814673Y-100836980D01*
X138814673Y-100836980D02*
X138909911Y-100741742D01*
X138909911Y-100741742D02*
X139100387Y-100646504D01*
X139100387Y-100646504D02*
X139386102Y-100646504D01*
X139386102Y-100646504D02*
X139576578Y-100741742D01*
X139576578Y-100741742D02*
X139671816Y-100836980D01*
X139671816Y-100836980D02*
X139767054Y-101027457D01*
X139767054Y-101027457D02*
X139767054Y-101598885D01*
X139767054Y-101598885D02*
X139671816Y-101789361D01*
X139671816Y-101789361D02*
X139576578Y-101884600D01*
X139576578Y-101884600D02*
X139386102Y-101979838D01*
X139386102Y-101979838D02*
X139100387Y-101979838D01*
X140624197Y-100646504D02*
X140624197Y-101979838D01*
X140624197Y-100836980D02*
X140719435Y-100741742D01*
X140719435Y-100741742D02*
X140909911Y-100646504D01*
X140909911Y-100646504D02*
X141195626Y-100646504D01*
X141195626Y-100646504D02*
X141386102Y-100741742D01*
X141386102Y-100741742D02*
X141481340Y-100932219D01*
X141481340Y-100932219D02*
X141481340Y-101979838D01*
X143862293Y-100170314D02*
X143957531Y-100075076D01*
X143957531Y-100075076D02*
X144148007Y-99979838D01*
X144148007Y-99979838D02*
X144624198Y-99979838D01*
X144624198Y-99979838D02*
X144814674Y-100075076D01*
X144814674Y-100075076D02*
X144909912Y-100170314D01*
X144909912Y-100170314D02*
X145005150Y-100360790D01*
X145005150Y-100360790D02*
X145005150Y-100551266D01*
X145005150Y-100551266D02*
X144909912Y-100836980D01*
X144909912Y-100836980D02*
X143767055Y-101979838D01*
X143767055Y-101979838D02*
X145005150Y-101979838D01*
X158341816Y-91577219D02*
X158675149Y-92577219D01*
X158675149Y-92577219D02*
X159008482Y-91577219D01*
X159341816Y-91577219D02*
X159341816Y-92386742D01*
X159341816Y-92386742D02*
X159389435Y-92481980D01*
X159389435Y-92481980D02*
X159437054Y-92529600D01*
X159437054Y-92529600D02*
X159532292Y-92577219D01*
X159532292Y-92577219D02*
X159722768Y-92577219D01*
X159722768Y-92577219D02*
X159818006Y-92529600D01*
X159818006Y-92529600D02*
X159865625Y-92481980D01*
X159865625Y-92481980D02*
X159913244Y-92386742D01*
X159913244Y-92386742D02*
X159913244Y-91577219D01*
X160341816Y-92529600D02*
X160484673Y-92577219D01*
X160484673Y-92577219D02*
X160722768Y-92577219D01*
X160722768Y-92577219D02*
X160818006Y-92529600D01*
X160818006Y-92529600D02*
X160865625Y-92481980D01*
X160865625Y-92481980D02*
X160913244Y-92386742D01*
X160913244Y-92386742D02*
X160913244Y-92291504D01*
X160913244Y-92291504D02*
X160865625Y-92196266D01*
X160865625Y-92196266D02*
X160818006Y-92148647D01*
X160818006Y-92148647D02*
X160722768Y-92101028D01*
X160722768Y-92101028D02*
X160532292Y-92053409D01*
X160532292Y-92053409D02*
X160437054Y-92005790D01*
X160437054Y-92005790D02*
X160389435Y-91958171D01*
X160389435Y-91958171D02*
X160341816Y-91862933D01*
X160341816Y-91862933D02*
X160341816Y-91767695D01*
X160341816Y-91767695D02*
X160389435Y-91672457D01*
X160389435Y-91672457D02*
X160437054Y-91624838D01*
X160437054Y-91624838D02*
X160532292Y-91577219D01*
X160532292Y-91577219D02*
X160770387Y-91577219D01*
X160770387Y-91577219D02*
X160913244Y-91624838D01*
X161675149Y-92053409D02*
X161818006Y-92101028D01*
X161818006Y-92101028D02*
X161865625Y-92148647D01*
X161865625Y-92148647D02*
X161913244Y-92243885D01*
X161913244Y-92243885D02*
X161913244Y-92386742D01*
X161913244Y-92386742D02*
X161865625Y-92481980D01*
X161865625Y-92481980D02*
X161818006Y-92529600D01*
X161818006Y-92529600D02*
X161722768Y-92577219D01*
X161722768Y-92577219D02*
X161341816Y-92577219D01*
X161341816Y-92577219D02*
X161341816Y-91577219D01*
X161341816Y-91577219D02*
X161675149Y-91577219D01*
X161675149Y-91577219D02*
X161770387Y-91624838D01*
X161770387Y-91624838D02*
X161818006Y-91672457D01*
X161818006Y-91672457D02*
X161865625Y-91767695D01*
X161865625Y-91767695D02*
X161865625Y-91862933D01*
X161865625Y-91862933D02*
X161818006Y-91958171D01*
X161818006Y-91958171D02*
X161770387Y-92005790D01*
X161770387Y-92005790D02*
X161675149Y-92053409D01*
X161675149Y-92053409D02*
X161341816Y-92053409D01*
X153404673Y-71622219D02*
X153404673Y-70622219D01*
X153833244Y-70717457D02*
X153880863Y-70669838D01*
X153880863Y-70669838D02*
X153976101Y-70622219D01*
X153976101Y-70622219D02*
X154214196Y-70622219D01*
X154214196Y-70622219D02*
X154309434Y-70669838D01*
X154309434Y-70669838D02*
X154357053Y-70717457D01*
X154357053Y-70717457D02*
X154404672Y-70812695D01*
X154404672Y-70812695D02*
X154404672Y-70907933D01*
X154404672Y-70907933D02*
X154357053Y-71050790D01*
X154357053Y-71050790D02*
X153785625Y-71622219D01*
X153785625Y-71622219D02*
X154404672Y-71622219D01*
X155404672Y-71526980D02*
X155357053Y-71574600D01*
X155357053Y-71574600D02*
X155214196Y-71622219D01*
X155214196Y-71622219D02*
X155118958Y-71622219D01*
X155118958Y-71622219D02*
X154976101Y-71574600D01*
X154976101Y-71574600D02*
X154880863Y-71479361D01*
X154880863Y-71479361D02*
X154833244Y-71384123D01*
X154833244Y-71384123D02*
X154785625Y-71193647D01*
X154785625Y-71193647D02*
X154785625Y-71050790D01*
X154785625Y-71050790D02*
X154833244Y-70860314D01*
X154833244Y-70860314D02*
X154880863Y-70765076D01*
X154880863Y-70765076D02*
X154976101Y-70669838D01*
X154976101Y-70669838D02*
X155118958Y-70622219D01*
X155118958Y-70622219D02*
X155214196Y-70622219D01*
X155214196Y-70622219D02*
X155357053Y-70669838D01*
X155357053Y-70669838D02*
X155404672Y-70717457D01*
X130625161Y-134878482D02*
X130672780Y-134783244D01*
X130672780Y-134783244D02*
X130672780Y-134640387D01*
X130672780Y-134640387D02*
X130625161Y-134497530D01*
X130625161Y-134497530D02*
X130529923Y-134402292D01*
X130529923Y-134402292D02*
X130434685Y-134354673D01*
X130434685Y-134354673D02*
X130244209Y-134307054D01*
X130244209Y-134307054D02*
X130101352Y-134307054D01*
X130101352Y-134307054D02*
X129910876Y-134354673D01*
X129910876Y-134354673D02*
X129815638Y-134402292D01*
X129815638Y-134402292D02*
X129720400Y-134497530D01*
X129720400Y-134497530D02*
X129672780Y-134640387D01*
X129672780Y-134640387D02*
X129672780Y-134735625D01*
X129672780Y-134735625D02*
X129720400Y-134878482D01*
X129720400Y-134878482D02*
X129768019Y-134926101D01*
X129768019Y-134926101D02*
X130101352Y-134926101D01*
X130101352Y-134926101D02*
X130101352Y-134735625D01*
X129672780Y-135354673D02*
X130672780Y-135354673D01*
X130672780Y-135354673D02*
X129672780Y-135926101D01*
X129672780Y-135926101D02*
X130672780Y-135926101D01*
X129672780Y-136402292D02*
X130672780Y-136402292D01*
X130672780Y-136402292D02*
X130672780Y-136640387D01*
X130672780Y-136640387D02*
X130625161Y-136783244D01*
X130625161Y-136783244D02*
X130529923Y-136878482D01*
X130529923Y-136878482D02*
X130434685Y-136926101D01*
X130434685Y-136926101D02*
X130244209Y-136973720D01*
X130244209Y-136973720D02*
X130101352Y-136973720D01*
X130101352Y-136973720D02*
X129910876Y-136926101D01*
X129910876Y-136926101D02*
X129815638Y-136878482D01*
X129815638Y-136878482D02*
X129720400Y-136783244D01*
X129720400Y-136783244D02*
X129672780Y-136640387D01*
X129672780Y-136640387D02*
X129672780Y-136402292D01*
X110946517Y-87211504D02*
X111422707Y-87211504D01*
X110851279Y-87497219D02*
X111184612Y-86497219D01*
X111184612Y-86497219D02*
X111517945Y-87497219D01*
X112041755Y-86497219D02*
X112136993Y-86497219D01*
X112136993Y-86497219D02*
X112232231Y-86544838D01*
X112232231Y-86544838D02*
X112279850Y-86592457D01*
X112279850Y-86592457D02*
X112327469Y-86687695D01*
X112327469Y-86687695D02*
X112375088Y-86878171D01*
X112375088Y-86878171D02*
X112375088Y-87116266D01*
X112375088Y-87116266D02*
X112327469Y-87306742D01*
X112327469Y-87306742D02*
X112279850Y-87401980D01*
X112279850Y-87401980D02*
X112232231Y-87449600D01*
X112232231Y-87449600D02*
X112136993Y-87497219D01*
X112136993Y-87497219D02*
X112041755Y-87497219D01*
X112041755Y-87497219D02*
X111946517Y-87449600D01*
X111946517Y-87449600D02*
X111898898Y-87401980D01*
X111898898Y-87401980D02*
X111851279Y-87306742D01*
X111851279Y-87306742D02*
X111803660Y-87116266D01*
X111803660Y-87116266D02*
X111803660Y-86878171D01*
X111803660Y-86878171D02*
X111851279Y-86687695D01*
X111851279Y-86687695D02*
X111898898Y-86592457D01*
X111898898Y-86592457D02*
X111946517Y-86544838D01*
X111946517Y-86544838D02*
X112041755Y-86497219D01*
X112803660Y-87116266D02*
X113565565Y-87116266D01*
X114041755Y-87497219D02*
X114041755Y-86497219D01*
X114041755Y-86497219D02*
X114279850Y-86497219D01*
X114279850Y-86497219D02*
X114422707Y-86544838D01*
X114422707Y-86544838D02*
X114517945Y-86640076D01*
X114517945Y-86640076D02*
X114565564Y-86735314D01*
X114565564Y-86735314D02*
X114613183Y-86925790D01*
X114613183Y-86925790D02*
X114613183Y-87068647D01*
X114613183Y-87068647D02*
X114565564Y-87259123D01*
X114565564Y-87259123D02*
X114517945Y-87354361D01*
X114517945Y-87354361D02*
X114422707Y-87449600D01*
X114422707Y-87449600D02*
X114279850Y-87497219D01*
X114279850Y-87497219D02*
X114041755Y-87497219D01*
X115565564Y-87497219D02*
X114994136Y-87497219D01*
X115279850Y-87497219D02*
X115279850Y-86497219D01*
X115279850Y-86497219D02*
X115184612Y-86640076D01*
X115184612Y-86640076D02*
X115089374Y-86735314D01*
X115089374Y-86735314D02*
X114994136Y-86782933D01*
X116517945Y-87497219D02*
X115946517Y-87497219D01*
X116232231Y-87497219D02*
X116232231Y-86497219D01*
X116232231Y-86497219D02*
X116136993Y-86640076D01*
X116136993Y-86640076D02*
X116041755Y-86735314D01*
X116041755Y-86735314D02*
X115946517Y-86782933D01*
X158960863Y-87497219D02*
X158484673Y-87497219D01*
X158484673Y-87497219D02*
X158484673Y-86497219D01*
X159294197Y-87497219D02*
X159294197Y-86830552D01*
X159294197Y-86497219D02*
X159246578Y-86544838D01*
X159246578Y-86544838D02*
X159294197Y-86592457D01*
X159294197Y-86592457D02*
X159341816Y-86544838D01*
X159341816Y-86544838D02*
X159294197Y-86497219D01*
X159294197Y-86497219D02*
X159294197Y-86592457D01*
X159770387Y-87116266D02*
X160532292Y-87116266D01*
X160151339Y-87497219D02*
X160151339Y-86735314D01*
X150864673Y-136646266D02*
X151626578Y-136646266D01*
X151245625Y-137027219D02*
X151245625Y-136265314D01*
X152007530Y-136027219D02*
X152626577Y-136027219D01*
X152626577Y-136027219D02*
X152293244Y-136408171D01*
X152293244Y-136408171D02*
X152436101Y-136408171D01*
X152436101Y-136408171D02*
X152531339Y-136455790D01*
X152531339Y-136455790D02*
X152578958Y-136503409D01*
X152578958Y-136503409D02*
X152626577Y-136598647D01*
X152626577Y-136598647D02*
X152626577Y-136836742D01*
X152626577Y-136836742D02*
X152578958Y-136931980D01*
X152578958Y-136931980D02*
X152531339Y-136979600D01*
X152531339Y-136979600D02*
X152436101Y-137027219D01*
X152436101Y-137027219D02*
X152150387Y-137027219D01*
X152150387Y-137027219D02*
X152055149Y-136979600D01*
X152055149Y-136979600D02*
X152007530Y-136931980D01*
X152912292Y-136027219D02*
X153245625Y-137027219D01*
X153245625Y-137027219D02*
X153578958Y-136027219D01*
X159008482Y-73209838D02*
X158913244Y-73162219D01*
X158913244Y-73162219D02*
X158770387Y-73162219D01*
X158770387Y-73162219D02*
X158627530Y-73209838D01*
X158627530Y-73209838D02*
X158532292Y-73305076D01*
X158532292Y-73305076D02*
X158484673Y-73400314D01*
X158484673Y-73400314D02*
X158437054Y-73590790D01*
X158437054Y-73590790D02*
X158437054Y-73733647D01*
X158437054Y-73733647D02*
X158484673Y-73924123D01*
X158484673Y-73924123D02*
X158532292Y-74019361D01*
X158532292Y-74019361D02*
X158627530Y-74114600D01*
X158627530Y-74114600D02*
X158770387Y-74162219D01*
X158770387Y-74162219D02*
X158865625Y-74162219D01*
X158865625Y-74162219D02*
X159008482Y-74114600D01*
X159008482Y-74114600D02*
X159056101Y-74066980D01*
X159056101Y-74066980D02*
X159056101Y-73733647D01*
X159056101Y-73733647D02*
X158865625Y-73733647D01*
X159484673Y-74162219D02*
X159484673Y-73162219D01*
X159484673Y-73162219D02*
X160056101Y-74162219D01*
X160056101Y-74162219D02*
X160056101Y-73162219D01*
X160532292Y-74162219D02*
X160532292Y-73162219D01*
X160532292Y-73162219D02*
X160770387Y-73162219D01*
X160770387Y-73162219D02*
X160913244Y-73209838D01*
X160913244Y-73209838D02*
X161008482Y-73305076D01*
X161008482Y-73305076D02*
X161056101Y-73400314D01*
X161056101Y-73400314D02*
X161103720Y-73590790D01*
X161103720Y-73590790D02*
X161103720Y-73733647D01*
X161103720Y-73733647D02*
X161056101Y-73924123D01*
X161056101Y-73924123D02*
X161008482Y-74019361D01*
X161008482Y-74019361D02*
X160913244Y-74114600D01*
X160913244Y-74114600D02*
X160770387Y-74162219D01*
X160770387Y-74162219D02*
X160532292Y-74162219D01*
X112375088Y-110357219D02*
X112041755Y-109881028D01*
X111803660Y-110357219D02*
X111803660Y-109357219D01*
X111803660Y-109357219D02*
X112184612Y-109357219D01*
X112184612Y-109357219D02*
X112279850Y-109404838D01*
X112279850Y-109404838D02*
X112327469Y-109452457D01*
X112327469Y-109452457D02*
X112375088Y-109547695D01*
X112375088Y-109547695D02*
X112375088Y-109690552D01*
X112375088Y-109690552D02*
X112327469Y-109785790D01*
X112327469Y-109785790D02*
X112279850Y-109833409D01*
X112279850Y-109833409D02*
X112184612Y-109881028D01*
X112184612Y-109881028D02*
X111803660Y-109881028D01*
X112708422Y-109357219D02*
X113375088Y-110357219D01*
X113375088Y-109357219D02*
X112708422Y-110357219D01*
X113756041Y-109976266D02*
X114517946Y-109976266D01*
X114994136Y-110357219D02*
X114994136Y-109357219D01*
X114994136Y-109357219D02*
X115232231Y-109357219D01*
X115232231Y-109357219D02*
X115375088Y-109404838D01*
X115375088Y-109404838D02*
X115470326Y-109500076D01*
X115470326Y-109500076D02*
X115517945Y-109595314D01*
X115517945Y-109595314D02*
X115565564Y-109785790D01*
X115565564Y-109785790D02*
X115565564Y-109928647D01*
X115565564Y-109928647D02*
X115517945Y-110119123D01*
X115517945Y-110119123D02*
X115470326Y-110214361D01*
X115470326Y-110214361D02*
X115375088Y-110309600D01*
X115375088Y-110309600D02*
X115232231Y-110357219D01*
X115232231Y-110357219D02*
X114994136Y-110357219D01*
X116041755Y-110357219D02*
X116232231Y-110357219D01*
X116232231Y-110357219D02*
X116327469Y-110309600D01*
X116327469Y-110309600D02*
X116375088Y-110261980D01*
X116375088Y-110261980D02*
X116470326Y-110119123D01*
X116470326Y-110119123D02*
X116517945Y-109928647D01*
X116517945Y-109928647D02*
X116517945Y-109547695D01*
X116517945Y-109547695D02*
X116470326Y-109452457D01*
X116470326Y-109452457D02*
X116422707Y-109404838D01*
X116422707Y-109404838D02*
X116327469Y-109357219D01*
X116327469Y-109357219D02*
X116136993Y-109357219D01*
X116136993Y-109357219D02*
X116041755Y-109404838D01*
X116041755Y-109404838D02*
X115994136Y-109452457D01*
X115994136Y-109452457D02*
X115946517Y-109547695D01*
X115946517Y-109547695D02*
X115946517Y-109785790D01*
X115946517Y-109785790D02*
X115994136Y-109881028D01*
X115994136Y-109881028D02*
X116041755Y-109928647D01*
X116041755Y-109928647D02*
X116136993Y-109976266D01*
X116136993Y-109976266D02*
X116327469Y-109976266D01*
X116327469Y-109976266D02*
X116422707Y-109928647D01*
X116422707Y-109928647D02*
X116470326Y-109881028D01*
X116470326Y-109881028D02*
X116517945Y-109785790D01*
X129001427Y-73527219D02*
X129001427Y-72527219D01*
X129001427Y-72527219D02*
X129382379Y-72527219D01*
X129382379Y-72527219D02*
X129477617Y-72574838D01*
X129477617Y-72574838D02*
X129525236Y-72622457D01*
X129525236Y-72622457D02*
X129572855Y-72717695D01*
X129572855Y-72717695D02*
X129572855Y-72860552D01*
X129572855Y-72860552D02*
X129525236Y-72955790D01*
X129525236Y-72955790D02*
X129477617Y-73003409D01*
X129477617Y-73003409D02*
X129382379Y-73051028D01*
X129382379Y-73051028D02*
X129001427Y-73051028D01*
X130001427Y-73527219D02*
X130001427Y-72527219D01*
X130429998Y-73527219D02*
X130429998Y-73003409D01*
X130429998Y-73003409D02*
X130382379Y-72908171D01*
X130382379Y-72908171D02*
X130287141Y-72860552D01*
X130287141Y-72860552D02*
X130144284Y-72860552D01*
X130144284Y-72860552D02*
X130049046Y-72908171D01*
X130049046Y-72908171D02*
X130001427Y-72955790D01*
X131049046Y-73527219D02*
X130953808Y-73479600D01*
X130953808Y-73479600D02*
X130906189Y-73431980D01*
X130906189Y-73431980D02*
X130858570Y-73336742D01*
X130858570Y-73336742D02*
X130858570Y-73051028D01*
X130858570Y-73051028D02*
X130906189Y-72955790D01*
X130906189Y-72955790D02*
X130953808Y-72908171D01*
X130953808Y-72908171D02*
X131049046Y-72860552D01*
X131049046Y-72860552D02*
X131191903Y-72860552D01*
X131191903Y-72860552D02*
X131287141Y-72908171D01*
X131287141Y-72908171D02*
X131334760Y-72955790D01*
X131334760Y-72955790D02*
X131382379Y-73051028D01*
X131382379Y-73051028D02*
X131382379Y-73336742D01*
X131382379Y-73336742D02*
X131334760Y-73431980D01*
X131334760Y-73431980D02*
X131287141Y-73479600D01*
X131287141Y-73479600D02*
X131191903Y-73527219D01*
X131191903Y-73527219D02*
X131049046Y-73527219D01*
X131668094Y-72860552D02*
X132049046Y-72860552D01*
X131810951Y-72527219D02*
X131810951Y-73384361D01*
X131810951Y-73384361D02*
X131858570Y-73479600D01*
X131858570Y-73479600D02*
X131953808Y-73527219D01*
X131953808Y-73527219D02*
X132049046Y-73527219D01*
X132525237Y-73527219D02*
X132429999Y-73479600D01*
X132429999Y-73479600D02*
X132382380Y-73431980D01*
X132382380Y-73431980D02*
X132334761Y-73336742D01*
X132334761Y-73336742D02*
X132334761Y-73051028D01*
X132334761Y-73051028D02*
X132382380Y-72955790D01*
X132382380Y-72955790D02*
X132429999Y-72908171D01*
X132429999Y-72908171D02*
X132525237Y-72860552D01*
X132525237Y-72860552D02*
X132668094Y-72860552D01*
X132668094Y-72860552D02*
X132763332Y-72908171D01*
X132763332Y-72908171D02*
X132810951Y-72955790D01*
X132810951Y-72955790D02*
X132858570Y-73051028D01*
X132858570Y-73051028D02*
X132858570Y-73336742D01*
X132858570Y-73336742D02*
X132810951Y-73431980D01*
X132810951Y-73431980D02*
X132763332Y-73479600D01*
X132763332Y-73479600D02*
X132668094Y-73527219D01*
X132668094Y-73527219D02*
X132525237Y-73527219D01*
X133287142Y-72860552D02*
X133287142Y-73527219D01*
X133287142Y-72955790D02*
X133334761Y-72908171D01*
X133334761Y-72908171D02*
X133429999Y-72860552D01*
X133429999Y-72860552D02*
X133572856Y-72860552D01*
X133572856Y-72860552D02*
X133668094Y-72908171D01*
X133668094Y-72908171D02*
X133715713Y-73003409D01*
X133715713Y-73003409D02*
X133715713Y-73527219D01*
X134906190Y-72622457D02*
X134953809Y-72574838D01*
X134953809Y-72574838D02*
X135049047Y-72527219D01*
X135049047Y-72527219D02*
X135287142Y-72527219D01*
X135287142Y-72527219D02*
X135382380Y-72574838D01*
X135382380Y-72574838D02*
X135429999Y-72622457D01*
X135429999Y-72622457D02*
X135477618Y-72717695D01*
X135477618Y-72717695D02*
X135477618Y-72812933D01*
X135477618Y-72812933D02*
X135429999Y-72955790D01*
X135429999Y-72955790D02*
X134858571Y-73527219D01*
X134858571Y-73527219D02*
X135477618Y-73527219D01*
X137001428Y-73003409D02*
X137144285Y-73051028D01*
X137144285Y-73051028D02*
X137191904Y-73098647D01*
X137191904Y-73098647D02*
X137239523Y-73193885D01*
X137239523Y-73193885D02*
X137239523Y-73336742D01*
X137239523Y-73336742D02*
X137191904Y-73431980D01*
X137191904Y-73431980D02*
X137144285Y-73479600D01*
X137144285Y-73479600D02*
X137049047Y-73527219D01*
X137049047Y-73527219D02*
X136668095Y-73527219D01*
X136668095Y-73527219D02*
X136668095Y-72527219D01*
X136668095Y-72527219D02*
X137001428Y-72527219D01*
X137001428Y-72527219D02*
X137096666Y-72574838D01*
X137096666Y-72574838D02*
X137144285Y-72622457D01*
X137144285Y-72622457D02*
X137191904Y-72717695D01*
X137191904Y-72717695D02*
X137191904Y-72812933D01*
X137191904Y-72812933D02*
X137144285Y-72908171D01*
X137144285Y-72908171D02*
X137096666Y-72955790D01*
X137096666Y-72955790D02*
X137001428Y-73003409D01*
X137001428Y-73003409D02*
X136668095Y-73003409D01*
X137668095Y-73527219D02*
X137668095Y-72860552D01*
X137668095Y-73051028D02*
X137715714Y-72955790D01*
X137715714Y-72955790D02*
X137763333Y-72908171D01*
X137763333Y-72908171D02*
X137858571Y-72860552D01*
X137858571Y-72860552D02*
X137953809Y-72860552D01*
X138668095Y-73479600D02*
X138572857Y-73527219D01*
X138572857Y-73527219D02*
X138382381Y-73527219D01*
X138382381Y-73527219D02*
X138287143Y-73479600D01*
X138287143Y-73479600D02*
X138239524Y-73384361D01*
X138239524Y-73384361D02*
X138239524Y-73003409D01*
X138239524Y-73003409D02*
X138287143Y-72908171D01*
X138287143Y-72908171D02*
X138382381Y-72860552D01*
X138382381Y-72860552D02*
X138572857Y-72860552D01*
X138572857Y-72860552D02*
X138668095Y-72908171D01*
X138668095Y-72908171D02*
X138715714Y-73003409D01*
X138715714Y-73003409D02*
X138715714Y-73098647D01*
X138715714Y-73098647D02*
X138239524Y-73193885D01*
X139572857Y-73527219D02*
X139572857Y-73003409D01*
X139572857Y-73003409D02*
X139525238Y-72908171D01*
X139525238Y-72908171D02*
X139430000Y-72860552D01*
X139430000Y-72860552D02*
X139239524Y-72860552D01*
X139239524Y-72860552D02*
X139144286Y-72908171D01*
X139572857Y-73479600D02*
X139477619Y-73527219D01*
X139477619Y-73527219D02*
X139239524Y-73527219D01*
X139239524Y-73527219D02*
X139144286Y-73479600D01*
X139144286Y-73479600D02*
X139096667Y-73384361D01*
X139096667Y-73384361D02*
X139096667Y-73289123D01*
X139096667Y-73289123D02*
X139144286Y-73193885D01*
X139144286Y-73193885D02*
X139239524Y-73146266D01*
X139239524Y-73146266D02*
X139477619Y-73146266D01*
X139477619Y-73146266D02*
X139572857Y-73098647D01*
X140049048Y-73527219D02*
X140049048Y-72527219D01*
X140144286Y-73146266D02*
X140430000Y-73527219D01*
X140430000Y-72860552D02*
X140049048Y-73241504D01*
X141001429Y-73527219D02*
X140906191Y-73479600D01*
X140906191Y-73479600D02*
X140858572Y-73431980D01*
X140858572Y-73431980D02*
X140810953Y-73336742D01*
X140810953Y-73336742D02*
X140810953Y-73051028D01*
X140810953Y-73051028D02*
X140858572Y-72955790D01*
X140858572Y-72955790D02*
X140906191Y-72908171D01*
X140906191Y-72908171D02*
X141001429Y-72860552D01*
X141001429Y-72860552D02*
X141144286Y-72860552D01*
X141144286Y-72860552D02*
X141239524Y-72908171D01*
X141239524Y-72908171D02*
X141287143Y-72955790D01*
X141287143Y-72955790D02*
X141334762Y-73051028D01*
X141334762Y-73051028D02*
X141334762Y-73336742D01*
X141334762Y-73336742D02*
X141287143Y-73431980D01*
X141287143Y-73431980D02*
X141239524Y-73479600D01*
X141239524Y-73479600D02*
X141144286Y-73527219D01*
X141144286Y-73527219D02*
X141001429Y-73527219D01*
X142191905Y-72860552D02*
X142191905Y-73527219D01*
X141763334Y-72860552D02*
X141763334Y-73384361D01*
X141763334Y-73384361D02*
X141810953Y-73479600D01*
X141810953Y-73479600D02*
X141906191Y-73527219D01*
X141906191Y-73527219D02*
X142049048Y-73527219D01*
X142049048Y-73527219D02*
X142144286Y-73479600D01*
X142144286Y-73479600D02*
X142191905Y-73431980D01*
X142525239Y-72860552D02*
X142906191Y-72860552D01*
X142668096Y-72527219D02*
X142668096Y-73384361D01*
X142668096Y-73384361D02*
X142715715Y-73479600D01*
X142715715Y-73479600D02*
X142810953Y-73527219D01*
X142810953Y-73527219D02*
X142906191Y-73527219D01*
X144334763Y-73003409D02*
X144477620Y-73051028D01*
X144477620Y-73051028D02*
X144525239Y-73098647D01*
X144525239Y-73098647D02*
X144572858Y-73193885D01*
X144572858Y-73193885D02*
X144572858Y-73336742D01*
X144572858Y-73336742D02*
X144525239Y-73431980D01*
X144525239Y-73431980D02*
X144477620Y-73479600D01*
X144477620Y-73479600D02*
X144382382Y-73527219D01*
X144382382Y-73527219D02*
X144001430Y-73527219D01*
X144001430Y-73527219D02*
X144001430Y-72527219D01*
X144001430Y-72527219D02*
X144334763Y-72527219D01*
X144334763Y-72527219D02*
X144430001Y-72574838D01*
X144430001Y-72574838D02*
X144477620Y-72622457D01*
X144477620Y-72622457D02*
X144525239Y-72717695D01*
X144525239Y-72717695D02*
X144525239Y-72812933D01*
X144525239Y-72812933D02*
X144477620Y-72908171D01*
X144477620Y-72908171D02*
X144430001Y-72955790D01*
X144430001Y-72955790D02*
X144334763Y-73003409D01*
X144334763Y-73003409D02*
X144001430Y-73003409D01*
X145144287Y-73527219D02*
X145049049Y-73479600D01*
X145049049Y-73479600D02*
X145001430Y-73431980D01*
X145001430Y-73431980D02*
X144953811Y-73336742D01*
X144953811Y-73336742D02*
X144953811Y-73051028D01*
X144953811Y-73051028D02*
X145001430Y-72955790D01*
X145001430Y-72955790D02*
X145049049Y-72908171D01*
X145049049Y-72908171D02*
X145144287Y-72860552D01*
X145144287Y-72860552D02*
X145287144Y-72860552D01*
X145287144Y-72860552D02*
X145382382Y-72908171D01*
X145382382Y-72908171D02*
X145430001Y-72955790D01*
X145430001Y-72955790D02*
X145477620Y-73051028D01*
X145477620Y-73051028D02*
X145477620Y-73336742D01*
X145477620Y-73336742D02*
X145430001Y-73431980D01*
X145430001Y-73431980D02*
X145382382Y-73479600D01*
X145382382Y-73479600D02*
X145287144Y-73527219D01*
X145287144Y-73527219D02*
X145144287Y-73527219D01*
X146334763Y-73527219D02*
X146334763Y-73003409D01*
X146334763Y-73003409D02*
X146287144Y-72908171D01*
X146287144Y-72908171D02*
X146191906Y-72860552D01*
X146191906Y-72860552D02*
X146001430Y-72860552D01*
X146001430Y-72860552D02*
X145906192Y-72908171D01*
X146334763Y-73479600D02*
X146239525Y-73527219D01*
X146239525Y-73527219D02*
X146001430Y-73527219D01*
X146001430Y-73527219D02*
X145906192Y-73479600D01*
X145906192Y-73479600D02*
X145858573Y-73384361D01*
X145858573Y-73384361D02*
X145858573Y-73289123D01*
X145858573Y-73289123D02*
X145906192Y-73193885D01*
X145906192Y-73193885D02*
X146001430Y-73146266D01*
X146001430Y-73146266D02*
X146239525Y-73146266D01*
X146239525Y-73146266D02*
X146334763Y-73098647D01*
X146810954Y-73527219D02*
X146810954Y-72860552D01*
X146810954Y-73051028D02*
X146858573Y-72955790D01*
X146858573Y-72955790D02*
X146906192Y-72908171D01*
X146906192Y-72908171D02*
X147001430Y-72860552D01*
X147001430Y-72860552D02*
X147096668Y-72860552D01*
X147858573Y-73527219D02*
X147858573Y-72527219D01*
X147858573Y-73479600D02*
X147763335Y-73527219D01*
X147763335Y-73527219D02*
X147572859Y-73527219D01*
X147572859Y-73527219D02*
X147477621Y-73479600D01*
X147477621Y-73479600D02*
X147430002Y-73431980D01*
X147430002Y-73431980D02*
X147382383Y-73336742D01*
X147382383Y-73336742D02*
X147382383Y-73051028D01*
X147382383Y-73051028D02*
X147430002Y-72955790D01*
X147430002Y-72955790D02*
X147477621Y-72908171D01*
X147477621Y-72908171D02*
X147572859Y-72860552D01*
X147572859Y-72860552D02*
X147763335Y-72860552D01*
X147763335Y-72860552D02*
X147858573Y-72908171D01*
X110946517Y-94831504D02*
X111422707Y-94831504D01*
X110851279Y-95117219D02*
X111184612Y-94117219D01*
X111184612Y-94117219D02*
X111517945Y-95117219D01*
X112327469Y-94117219D02*
X111851279Y-94117219D01*
X111851279Y-94117219D02*
X111803660Y-94593409D01*
X111803660Y-94593409D02*
X111851279Y-94545790D01*
X111851279Y-94545790D02*
X111946517Y-94498171D01*
X111946517Y-94498171D02*
X112184612Y-94498171D01*
X112184612Y-94498171D02*
X112279850Y-94545790D01*
X112279850Y-94545790D02*
X112327469Y-94593409D01*
X112327469Y-94593409D02*
X112375088Y-94688647D01*
X112375088Y-94688647D02*
X112375088Y-94926742D01*
X112375088Y-94926742D02*
X112327469Y-95021980D01*
X112327469Y-95021980D02*
X112279850Y-95069600D01*
X112279850Y-95069600D02*
X112184612Y-95117219D01*
X112184612Y-95117219D02*
X111946517Y-95117219D01*
X111946517Y-95117219D02*
X111851279Y-95069600D01*
X111851279Y-95069600D02*
X111803660Y-95021980D01*
X112803660Y-94736266D02*
X113565565Y-94736266D01*
X114041755Y-95117219D02*
X114041755Y-94117219D01*
X114041755Y-94117219D02*
X114279850Y-94117219D01*
X114279850Y-94117219D02*
X114422707Y-94164838D01*
X114422707Y-94164838D02*
X114517945Y-94260076D01*
X114517945Y-94260076D02*
X114565564Y-94355314D01*
X114565564Y-94355314D02*
X114613183Y-94545790D01*
X114613183Y-94545790D02*
X114613183Y-94688647D01*
X114613183Y-94688647D02*
X114565564Y-94879123D01*
X114565564Y-94879123D02*
X114517945Y-94974361D01*
X114517945Y-94974361D02*
X114422707Y-95069600D01*
X114422707Y-95069600D02*
X114279850Y-95117219D01*
X114279850Y-95117219D02*
X114041755Y-95117219D01*
X115565564Y-95117219D02*
X114994136Y-95117219D01*
X115279850Y-95117219D02*
X115279850Y-94117219D01*
X115279850Y-94117219D02*
X115184612Y-94260076D01*
X115184612Y-94260076D02*
X115089374Y-94355314D01*
X115089374Y-94355314D02*
X114994136Y-94402933D01*
X116422707Y-94450552D02*
X116422707Y-95117219D01*
X116184612Y-94069600D02*
X115946517Y-94783885D01*
X115946517Y-94783885D02*
X116565564Y-94783885D01*
X114422707Y-84004838D02*
X114327469Y-83957219D01*
X114327469Y-83957219D02*
X114184612Y-83957219D01*
X114184612Y-83957219D02*
X114041755Y-84004838D01*
X114041755Y-84004838D02*
X113946517Y-84100076D01*
X113946517Y-84100076D02*
X113898898Y-84195314D01*
X113898898Y-84195314D02*
X113851279Y-84385790D01*
X113851279Y-84385790D02*
X113851279Y-84528647D01*
X113851279Y-84528647D02*
X113898898Y-84719123D01*
X113898898Y-84719123D02*
X113946517Y-84814361D01*
X113946517Y-84814361D02*
X114041755Y-84909600D01*
X114041755Y-84909600D02*
X114184612Y-84957219D01*
X114184612Y-84957219D02*
X114279850Y-84957219D01*
X114279850Y-84957219D02*
X114422707Y-84909600D01*
X114422707Y-84909600D02*
X114470326Y-84861980D01*
X114470326Y-84861980D02*
X114470326Y-84528647D01*
X114470326Y-84528647D02*
X114279850Y-84528647D01*
X114898898Y-84957219D02*
X114898898Y-83957219D01*
X114898898Y-83957219D02*
X115470326Y-84957219D01*
X115470326Y-84957219D02*
X115470326Y-83957219D01*
X115946517Y-84957219D02*
X115946517Y-83957219D01*
X115946517Y-83957219D02*
X116184612Y-83957219D01*
X116184612Y-83957219D02*
X116327469Y-84004838D01*
X116327469Y-84004838D02*
X116422707Y-84100076D01*
X116422707Y-84100076D02*
X116470326Y-84195314D01*
X116470326Y-84195314D02*
X116517945Y-84385790D01*
X116517945Y-84385790D02*
X116517945Y-84528647D01*
X116517945Y-84528647D02*
X116470326Y-84719123D01*
X116470326Y-84719123D02*
X116422707Y-84814361D01*
X116422707Y-84814361D02*
X116327469Y-84909600D01*
X116327469Y-84909600D02*
X116184612Y-84957219D01*
X116184612Y-84957219D02*
X115946517Y-84957219D01*
X109184613Y-105277219D02*
X109184613Y-104277219D01*
X109184613Y-104277219D02*
X109517946Y-104991504D01*
X109517946Y-104991504D02*
X109851279Y-104277219D01*
X109851279Y-104277219D02*
X109851279Y-105277219D01*
X110517946Y-104277219D02*
X110708422Y-104277219D01*
X110708422Y-104277219D02*
X110803660Y-104324838D01*
X110803660Y-104324838D02*
X110898898Y-104420076D01*
X110898898Y-104420076D02*
X110946517Y-104610552D01*
X110946517Y-104610552D02*
X110946517Y-104943885D01*
X110946517Y-104943885D02*
X110898898Y-105134361D01*
X110898898Y-105134361D02*
X110803660Y-105229600D01*
X110803660Y-105229600D02*
X110708422Y-105277219D01*
X110708422Y-105277219D02*
X110517946Y-105277219D01*
X110517946Y-105277219D02*
X110422708Y-105229600D01*
X110422708Y-105229600D02*
X110327470Y-105134361D01*
X110327470Y-105134361D02*
X110279851Y-104943885D01*
X110279851Y-104943885D02*
X110279851Y-104610552D01*
X110279851Y-104610552D02*
X110327470Y-104420076D01*
X110327470Y-104420076D02*
X110422708Y-104324838D01*
X110422708Y-104324838D02*
X110517946Y-104277219D01*
X111327470Y-105229600D02*
X111470327Y-105277219D01*
X111470327Y-105277219D02*
X111708422Y-105277219D01*
X111708422Y-105277219D02*
X111803660Y-105229600D01*
X111803660Y-105229600D02*
X111851279Y-105181980D01*
X111851279Y-105181980D02*
X111898898Y-105086742D01*
X111898898Y-105086742D02*
X111898898Y-104991504D01*
X111898898Y-104991504D02*
X111851279Y-104896266D01*
X111851279Y-104896266D02*
X111803660Y-104848647D01*
X111803660Y-104848647D02*
X111708422Y-104801028D01*
X111708422Y-104801028D02*
X111517946Y-104753409D01*
X111517946Y-104753409D02*
X111422708Y-104705790D01*
X111422708Y-104705790D02*
X111375089Y-104658171D01*
X111375089Y-104658171D02*
X111327470Y-104562933D01*
X111327470Y-104562933D02*
X111327470Y-104467695D01*
X111327470Y-104467695D02*
X111375089Y-104372457D01*
X111375089Y-104372457D02*
X111422708Y-104324838D01*
X111422708Y-104324838D02*
X111517946Y-104277219D01*
X111517946Y-104277219D02*
X111756041Y-104277219D01*
X111756041Y-104277219D02*
X111898898Y-104324838D01*
X112327470Y-105277219D02*
X112327470Y-104277219D01*
X112803660Y-104896266D02*
X113565565Y-104896266D01*
X114041755Y-105277219D02*
X114041755Y-104277219D01*
X114041755Y-104277219D02*
X114279850Y-104277219D01*
X114279850Y-104277219D02*
X114422707Y-104324838D01*
X114422707Y-104324838D02*
X114517945Y-104420076D01*
X114517945Y-104420076D02*
X114565564Y-104515314D01*
X114565564Y-104515314D02*
X114613183Y-104705790D01*
X114613183Y-104705790D02*
X114613183Y-104848647D01*
X114613183Y-104848647D02*
X114565564Y-105039123D01*
X114565564Y-105039123D02*
X114517945Y-105134361D01*
X114517945Y-105134361D02*
X114422707Y-105229600D01*
X114422707Y-105229600D02*
X114279850Y-105277219D01*
X114279850Y-105277219D02*
X114041755Y-105277219D01*
X115565564Y-105277219D02*
X114994136Y-105277219D01*
X115279850Y-105277219D02*
X115279850Y-104277219D01*
X115279850Y-104277219D02*
X115184612Y-104420076D01*
X115184612Y-104420076D02*
X115089374Y-104515314D01*
X115089374Y-104515314D02*
X114994136Y-104562933D01*
X116470326Y-104277219D02*
X115994136Y-104277219D01*
X115994136Y-104277219D02*
X115946517Y-104753409D01*
X115946517Y-104753409D02*
X115994136Y-104705790D01*
X115994136Y-104705790D02*
X116089374Y-104658171D01*
X116089374Y-104658171D02*
X116327469Y-104658171D01*
X116327469Y-104658171D02*
X116422707Y-104705790D01*
X116422707Y-104705790D02*
X116470326Y-104753409D01*
X116470326Y-104753409D02*
X116517945Y-104848647D01*
X116517945Y-104848647D02*
X116517945Y-105086742D01*
X116517945Y-105086742D02*
X116470326Y-105181980D01*
X116470326Y-105181980D02*
X116422707Y-105229600D01*
X116422707Y-105229600D02*
X116327469Y-105277219D01*
X116327469Y-105277219D02*
X116089374Y-105277219D01*
X116089374Y-105277219D02*
X115994136Y-105229600D01*
X115994136Y-105229600D02*
X115946517Y-105181980D01*
X109184613Y-107817219D02*
X109184613Y-106817219D01*
X109184613Y-106817219D02*
X109517946Y-107531504D01*
X109517946Y-107531504D02*
X109851279Y-106817219D01*
X109851279Y-106817219D02*
X109851279Y-107817219D01*
X110327470Y-107817219D02*
X110327470Y-106817219D01*
X110756041Y-107769600D02*
X110898898Y-107817219D01*
X110898898Y-107817219D02*
X111136993Y-107817219D01*
X111136993Y-107817219D02*
X111232231Y-107769600D01*
X111232231Y-107769600D02*
X111279850Y-107721980D01*
X111279850Y-107721980D02*
X111327469Y-107626742D01*
X111327469Y-107626742D02*
X111327469Y-107531504D01*
X111327469Y-107531504D02*
X111279850Y-107436266D01*
X111279850Y-107436266D02*
X111232231Y-107388647D01*
X111232231Y-107388647D02*
X111136993Y-107341028D01*
X111136993Y-107341028D02*
X110946517Y-107293409D01*
X110946517Y-107293409D02*
X110851279Y-107245790D01*
X110851279Y-107245790D02*
X110803660Y-107198171D01*
X110803660Y-107198171D02*
X110756041Y-107102933D01*
X110756041Y-107102933D02*
X110756041Y-107007695D01*
X110756041Y-107007695D02*
X110803660Y-106912457D01*
X110803660Y-106912457D02*
X110851279Y-106864838D01*
X110851279Y-106864838D02*
X110946517Y-106817219D01*
X110946517Y-106817219D02*
X111184612Y-106817219D01*
X111184612Y-106817219D02*
X111327469Y-106864838D01*
X111946517Y-106817219D02*
X112136993Y-106817219D01*
X112136993Y-106817219D02*
X112232231Y-106864838D01*
X112232231Y-106864838D02*
X112327469Y-106960076D01*
X112327469Y-106960076D02*
X112375088Y-107150552D01*
X112375088Y-107150552D02*
X112375088Y-107483885D01*
X112375088Y-107483885D02*
X112327469Y-107674361D01*
X112327469Y-107674361D02*
X112232231Y-107769600D01*
X112232231Y-107769600D02*
X112136993Y-107817219D01*
X112136993Y-107817219D02*
X111946517Y-107817219D01*
X111946517Y-107817219D02*
X111851279Y-107769600D01*
X111851279Y-107769600D02*
X111756041Y-107674361D01*
X111756041Y-107674361D02*
X111708422Y-107483885D01*
X111708422Y-107483885D02*
X111708422Y-107150552D01*
X111708422Y-107150552D02*
X111756041Y-106960076D01*
X111756041Y-106960076D02*
X111851279Y-106864838D01*
X111851279Y-106864838D02*
X111946517Y-106817219D01*
X112803660Y-107436266D02*
X113565565Y-107436266D01*
X114041755Y-107817219D02*
X114041755Y-106817219D01*
X114041755Y-106817219D02*
X114279850Y-106817219D01*
X114279850Y-106817219D02*
X114422707Y-106864838D01*
X114422707Y-106864838D02*
X114517945Y-106960076D01*
X114517945Y-106960076D02*
X114565564Y-107055314D01*
X114565564Y-107055314D02*
X114613183Y-107245790D01*
X114613183Y-107245790D02*
X114613183Y-107388647D01*
X114613183Y-107388647D02*
X114565564Y-107579123D01*
X114565564Y-107579123D02*
X114517945Y-107674361D01*
X114517945Y-107674361D02*
X114422707Y-107769600D01*
X114422707Y-107769600D02*
X114279850Y-107817219D01*
X114279850Y-107817219D02*
X114041755Y-107817219D01*
X115565564Y-107817219D02*
X114994136Y-107817219D01*
X115279850Y-107817219D02*
X115279850Y-106817219D01*
X115279850Y-106817219D02*
X115184612Y-106960076D01*
X115184612Y-106960076D02*
X115089374Y-107055314D01*
X115089374Y-107055314D02*
X114994136Y-107102933D01*
X116422707Y-106817219D02*
X116232231Y-106817219D01*
X116232231Y-106817219D02*
X116136993Y-106864838D01*
X116136993Y-106864838D02*
X116089374Y-106912457D01*
X116089374Y-106912457D02*
X115994136Y-107055314D01*
X115994136Y-107055314D02*
X115946517Y-107245790D01*
X115946517Y-107245790D02*
X115946517Y-107626742D01*
X115946517Y-107626742D02*
X115994136Y-107721980D01*
X115994136Y-107721980D02*
X116041755Y-107769600D01*
X116041755Y-107769600D02*
X116136993Y-107817219D01*
X116136993Y-107817219D02*
X116327469Y-107817219D01*
X116327469Y-107817219D02*
X116422707Y-107769600D01*
X116422707Y-107769600D02*
X116470326Y-107721980D01*
X116470326Y-107721980D02*
X116517945Y-107626742D01*
X116517945Y-107626742D02*
X116517945Y-107388647D01*
X116517945Y-107388647D02*
X116470326Y-107293409D01*
X116470326Y-107293409D02*
X116422707Y-107245790D01*
X116422707Y-107245790D02*
X116327469Y-107198171D01*
X116327469Y-107198171D02*
X116136993Y-107198171D01*
X116136993Y-107198171D02*
X116041755Y-107245790D01*
X116041755Y-107245790D02*
X115994136Y-107293409D01*
X115994136Y-107293409D02*
X115946517Y-107388647D01*
X158484673Y-95117219D02*
X158484673Y-94117219D01*
X158484673Y-94117219D02*
X158722768Y-94117219D01*
X158722768Y-94117219D02*
X158865625Y-94164838D01*
X158865625Y-94164838D02*
X158960863Y-94260076D01*
X158960863Y-94260076D02*
X159008482Y-94355314D01*
X159008482Y-94355314D02*
X159056101Y-94545790D01*
X159056101Y-94545790D02*
X159056101Y-94688647D01*
X159056101Y-94688647D02*
X159008482Y-94879123D01*
X159008482Y-94879123D02*
X158960863Y-94974361D01*
X158960863Y-94974361D02*
X158865625Y-95069600D01*
X158865625Y-95069600D02*
X158722768Y-95117219D01*
X158722768Y-95117219D02*
X158484673Y-95117219D01*
X160008482Y-95117219D02*
X159437054Y-95117219D01*
X159722768Y-95117219D02*
X159722768Y-94117219D01*
X159722768Y-94117219D02*
X159627530Y-94260076D01*
X159627530Y-94260076D02*
X159532292Y-94355314D01*
X159532292Y-94355314D02*
X159437054Y-94402933D01*
X160627530Y-94117219D02*
X160722768Y-94117219D01*
X160722768Y-94117219D02*
X160818006Y-94164838D01*
X160818006Y-94164838D02*
X160865625Y-94212457D01*
X160865625Y-94212457D02*
X160913244Y-94307695D01*
X160913244Y-94307695D02*
X160960863Y-94498171D01*
X160960863Y-94498171D02*
X160960863Y-94736266D01*
X160960863Y-94736266D02*
X160913244Y-94926742D01*
X160913244Y-94926742D02*
X160865625Y-95021980D01*
X160865625Y-95021980D02*
X160818006Y-95069600D01*
X160818006Y-95069600D02*
X160722768Y-95117219D01*
X160722768Y-95117219D02*
X160627530Y-95117219D01*
X160627530Y-95117219D02*
X160532292Y-95069600D01*
X160532292Y-95069600D02*
X160484673Y-95021980D01*
X160484673Y-95021980D02*
X160437054Y-94926742D01*
X160437054Y-94926742D02*
X160389435Y-94736266D01*
X160389435Y-94736266D02*
X160389435Y-94498171D01*
X160389435Y-94498171D02*
X160437054Y-94307695D01*
X160437054Y-94307695D02*
X160484673Y-94212457D01*
X160484673Y-94212457D02*
X160532292Y-94164838D01*
X160532292Y-94164838D02*
X160627530Y-94117219D01*
X158484673Y-89513409D02*
X158818006Y-89513409D01*
X158960863Y-90037219D02*
X158484673Y-90037219D01*
X158484673Y-90037219D02*
X158484673Y-89037219D01*
X158484673Y-89037219D02*
X158960863Y-89037219D01*
X159389435Y-90037219D02*
X159389435Y-89037219D01*
X159389435Y-89037219D02*
X159960863Y-90037219D01*
X159960863Y-90037219D02*
X159960863Y-89037219D01*
X158484673Y-100197219D02*
X158484673Y-99197219D01*
X158484673Y-99197219D02*
X158722768Y-99197219D01*
X158722768Y-99197219D02*
X158865625Y-99244838D01*
X158865625Y-99244838D02*
X158960863Y-99340076D01*
X158960863Y-99340076D02*
X159008482Y-99435314D01*
X159008482Y-99435314D02*
X159056101Y-99625790D01*
X159056101Y-99625790D02*
X159056101Y-99768647D01*
X159056101Y-99768647D02*
X159008482Y-99959123D01*
X159008482Y-99959123D02*
X158960863Y-100054361D01*
X158960863Y-100054361D02*
X158865625Y-100149600D01*
X158865625Y-100149600D02*
X158722768Y-100197219D01*
X158722768Y-100197219D02*
X158484673Y-100197219D01*
X159913244Y-99197219D02*
X159722768Y-99197219D01*
X159722768Y-99197219D02*
X159627530Y-99244838D01*
X159627530Y-99244838D02*
X159579911Y-99292457D01*
X159579911Y-99292457D02*
X159484673Y-99435314D01*
X159484673Y-99435314D02*
X159437054Y-99625790D01*
X159437054Y-99625790D02*
X159437054Y-100006742D01*
X159437054Y-100006742D02*
X159484673Y-100101980D01*
X159484673Y-100101980D02*
X159532292Y-100149600D01*
X159532292Y-100149600D02*
X159627530Y-100197219D01*
X159627530Y-100197219D02*
X159818006Y-100197219D01*
X159818006Y-100197219D02*
X159913244Y-100149600D01*
X159913244Y-100149600D02*
X159960863Y-100101980D01*
X159960863Y-100101980D02*
X160008482Y-100006742D01*
X160008482Y-100006742D02*
X160008482Y-99768647D01*
X160008482Y-99768647D02*
X159960863Y-99673409D01*
X159960863Y-99673409D02*
X159913244Y-99625790D01*
X159913244Y-99625790D02*
X159818006Y-99578171D01*
X159818006Y-99578171D02*
X159627530Y-99578171D01*
X159627530Y-99578171D02*
X159532292Y-99625790D01*
X159532292Y-99625790D02*
X159484673Y-99673409D01*
X159484673Y-99673409D02*
X159437054Y-99768647D01*
X158484673Y-112897219D02*
X158484673Y-111897219D01*
X158484673Y-111897219D02*
X158722768Y-111897219D01*
X158722768Y-111897219D02*
X158865625Y-111944838D01*
X158865625Y-111944838D02*
X158960863Y-112040076D01*
X158960863Y-112040076D02*
X159008482Y-112135314D01*
X159008482Y-112135314D02*
X159056101Y-112325790D01*
X159056101Y-112325790D02*
X159056101Y-112468647D01*
X159056101Y-112468647D02*
X159008482Y-112659123D01*
X159008482Y-112659123D02*
X158960863Y-112754361D01*
X158960863Y-112754361D02*
X158865625Y-112849600D01*
X158865625Y-112849600D02*
X158722768Y-112897219D01*
X158722768Y-112897219D02*
X158484673Y-112897219D01*
X160008482Y-112897219D02*
X159437054Y-112897219D01*
X159722768Y-112897219D02*
X159722768Y-111897219D01*
X159722768Y-111897219D02*
X159627530Y-112040076D01*
X159627530Y-112040076D02*
X159532292Y-112135314D01*
X159532292Y-112135314D02*
X159437054Y-112182933D01*
X160437054Y-112516266D02*
X161198959Y-112516266D01*
X161627530Y-112611504D02*
X162103720Y-112611504D01*
X161532292Y-112897219D02*
X161865625Y-111897219D01*
X161865625Y-111897219D02*
X162198958Y-112897219D01*
X162960863Y-112230552D02*
X162960863Y-112897219D01*
X162722768Y-111849600D02*
X162484673Y-112563885D01*
X162484673Y-112563885D02*
X163103720Y-112563885D01*
X112851279Y-82417219D02*
X112851279Y-81417219D01*
X112851279Y-81417219D02*
X113184612Y-82131504D01*
X113184612Y-82131504D02*
X113517945Y-81417219D01*
X113517945Y-81417219D02*
X113517945Y-82417219D01*
X114184612Y-81417219D02*
X114375088Y-81417219D01*
X114375088Y-81417219D02*
X114470326Y-81464838D01*
X114470326Y-81464838D02*
X114565564Y-81560076D01*
X114565564Y-81560076D02*
X114613183Y-81750552D01*
X114613183Y-81750552D02*
X114613183Y-82083885D01*
X114613183Y-82083885D02*
X114565564Y-82274361D01*
X114565564Y-82274361D02*
X114470326Y-82369600D01*
X114470326Y-82369600D02*
X114375088Y-82417219D01*
X114375088Y-82417219D02*
X114184612Y-82417219D01*
X114184612Y-82417219D02*
X114089374Y-82369600D01*
X114089374Y-82369600D02*
X113994136Y-82274361D01*
X113994136Y-82274361D02*
X113946517Y-82083885D01*
X113946517Y-82083885D02*
X113946517Y-81750552D01*
X113946517Y-81750552D02*
X113994136Y-81560076D01*
X113994136Y-81560076D02*
X114089374Y-81464838D01*
X114089374Y-81464838D02*
X114184612Y-81417219D01*
X115041755Y-82417219D02*
X115041755Y-81417219D01*
X115041755Y-81417219D02*
X115279850Y-81417219D01*
X115279850Y-81417219D02*
X115422707Y-81464838D01*
X115422707Y-81464838D02*
X115517945Y-81560076D01*
X115517945Y-81560076D02*
X115565564Y-81655314D01*
X115565564Y-81655314D02*
X115613183Y-81845790D01*
X115613183Y-81845790D02*
X115613183Y-81988647D01*
X115613183Y-81988647D02*
X115565564Y-82179123D01*
X115565564Y-82179123D02*
X115517945Y-82274361D01*
X115517945Y-82274361D02*
X115422707Y-82369600D01*
X115422707Y-82369600D02*
X115279850Y-82417219D01*
X115279850Y-82417219D02*
X115041755Y-82417219D01*
X116041755Y-81893409D02*
X116375088Y-81893409D01*
X116517945Y-82417219D02*
X116041755Y-82417219D01*
X116041755Y-82417219D02*
X116041755Y-81417219D01*
X116041755Y-81417219D02*
X116517945Y-81417219D01*
X111898898Y-111897219D02*
X112470326Y-111897219D01*
X112184612Y-112897219D02*
X112184612Y-111897219D01*
X112708422Y-111897219D02*
X113375088Y-112897219D01*
X113375088Y-111897219D02*
X112708422Y-112897219D01*
X113756041Y-112516266D02*
X114517946Y-112516266D01*
X114994136Y-112897219D02*
X114994136Y-111897219D01*
X114994136Y-111897219D02*
X115232231Y-111897219D01*
X115232231Y-111897219D02*
X115375088Y-111944838D01*
X115375088Y-111944838D02*
X115470326Y-112040076D01*
X115470326Y-112040076D02*
X115517945Y-112135314D01*
X115517945Y-112135314D02*
X115565564Y-112325790D01*
X115565564Y-112325790D02*
X115565564Y-112468647D01*
X115565564Y-112468647D02*
X115517945Y-112659123D01*
X115517945Y-112659123D02*
X115470326Y-112754361D01*
X115470326Y-112754361D02*
X115375088Y-112849600D01*
X115375088Y-112849600D02*
X115232231Y-112897219D01*
X115232231Y-112897219D02*
X114994136Y-112897219D01*
X116136993Y-112325790D02*
X116041755Y-112278171D01*
X116041755Y-112278171D02*
X115994136Y-112230552D01*
X115994136Y-112230552D02*
X115946517Y-112135314D01*
X115946517Y-112135314D02*
X115946517Y-112087695D01*
X115946517Y-112087695D02*
X115994136Y-111992457D01*
X115994136Y-111992457D02*
X116041755Y-111944838D01*
X116041755Y-111944838D02*
X116136993Y-111897219D01*
X116136993Y-111897219D02*
X116327469Y-111897219D01*
X116327469Y-111897219D02*
X116422707Y-111944838D01*
X116422707Y-111944838D02*
X116470326Y-111992457D01*
X116470326Y-111992457D02*
X116517945Y-112087695D01*
X116517945Y-112087695D02*
X116517945Y-112135314D01*
X116517945Y-112135314D02*
X116470326Y-112230552D01*
X116470326Y-112230552D02*
X116422707Y-112278171D01*
X116422707Y-112278171D02*
X116327469Y-112325790D01*
X116327469Y-112325790D02*
X116136993Y-112325790D01*
X116136993Y-112325790D02*
X116041755Y-112373409D01*
X116041755Y-112373409D02*
X115994136Y-112421028D01*
X115994136Y-112421028D02*
X115946517Y-112516266D01*
X115946517Y-112516266D02*
X115946517Y-112706742D01*
X115946517Y-112706742D02*
X115994136Y-112801980D01*
X115994136Y-112801980D02*
X116041755Y-112849600D01*
X116041755Y-112849600D02*
X116136993Y-112897219D01*
X116136993Y-112897219D02*
X116327469Y-112897219D01*
X116327469Y-112897219D02*
X116422707Y-112849600D01*
X116422707Y-112849600D02*
X116470326Y-112801980D01*
X116470326Y-112801980D02*
X116517945Y-112706742D01*
X116517945Y-112706742D02*
X116517945Y-112516266D01*
X116517945Y-112516266D02*
X116470326Y-112421028D01*
X116470326Y-112421028D02*
X116422707Y-112373409D01*
X116422707Y-112373409D02*
X116327469Y-112325790D01*
D10*
X129834761Y-75437419D02*
X129834761Y-74437419D01*
X129834761Y-74437419D02*
X130072856Y-74437419D01*
X130072856Y-74437419D02*
X130215713Y-74485038D01*
X130215713Y-74485038D02*
X130310951Y-74580276D01*
X130310951Y-74580276D02*
X130358570Y-74675514D01*
X130358570Y-74675514D02*
X130406189Y-74865990D01*
X130406189Y-74865990D02*
X130406189Y-75008847D01*
X130406189Y-75008847D02*
X130358570Y-75199323D01*
X130358570Y-75199323D02*
X130310951Y-75294561D01*
X130310951Y-75294561D02*
X130215713Y-75389800D01*
X130215713Y-75389800D02*
X130072856Y-75437419D01*
X130072856Y-75437419D02*
X129834761Y-75437419D01*
X131263332Y-75437419D02*
X131263332Y-74913609D01*
X131263332Y-74913609D02*
X131215713Y-74818371D01*
X131215713Y-74818371D02*
X131120475Y-74770752D01*
X131120475Y-74770752D02*
X130929999Y-74770752D01*
X130929999Y-74770752D02*
X130834761Y-74818371D01*
X131263332Y-75389800D02*
X131168094Y-75437419D01*
X131168094Y-75437419D02*
X130929999Y-75437419D01*
X130929999Y-75437419D02*
X130834761Y-75389800D01*
X130834761Y-75389800D02*
X130787142Y-75294561D01*
X130787142Y-75294561D02*
X130787142Y-75199323D01*
X130787142Y-75199323D02*
X130834761Y-75104085D01*
X130834761Y-75104085D02*
X130929999Y-75056466D01*
X130929999Y-75056466D02*
X131168094Y-75056466D01*
X131168094Y-75056466D02*
X131263332Y-75008847D01*
X131739523Y-74770752D02*
X131739523Y-75437419D01*
X131739523Y-74865990D02*
X131787142Y-74818371D01*
X131787142Y-74818371D02*
X131882380Y-74770752D01*
X131882380Y-74770752D02*
X132025237Y-74770752D01*
X132025237Y-74770752D02*
X132120475Y-74818371D01*
X132120475Y-74818371D02*
X132168094Y-74913609D01*
X132168094Y-74913609D02*
X132168094Y-75437419D01*
X132644285Y-75437419D02*
X132644285Y-74770752D01*
X132644285Y-74437419D02*
X132596666Y-74485038D01*
X132596666Y-74485038D02*
X132644285Y-74532657D01*
X132644285Y-74532657D02*
X132691904Y-74485038D01*
X132691904Y-74485038D02*
X132644285Y-74437419D01*
X132644285Y-74437419D02*
X132644285Y-74532657D01*
X133501427Y-75389800D02*
X133406189Y-75437419D01*
X133406189Y-75437419D02*
X133215713Y-75437419D01*
X133215713Y-75437419D02*
X133120475Y-75389800D01*
X133120475Y-75389800D02*
X133072856Y-75294561D01*
X133072856Y-75294561D02*
X133072856Y-74913609D01*
X133072856Y-74913609D02*
X133120475Y-74818371D01*
X133120475Y-74818371D02*
X133215713Y-74770752D01*
X133215713Y-74770752D02*
X133406189Y-74770752D01*
X133406189Y-74770752D02*
X133501427Y-74818371D01*
X133501427Y-74818371D02*
X133549046Y-74913609D01*
X133549046Y-74913609D02*
X133549046Y-75008847D01*
X133549046Y-75008847D02*
X133072856Y-75104085D01*
X134120475Y-75437419D02*
X134025237Y-75389800D01*
X134025237Y-75389800D02*
X133977618Y-75294561D01*
X133977618Y-75294561D02*
X133977618Y-74437419D01*
X135215714Y-75389800D02*
X135358571Y-75437419D01*
X135358571Y-75437419D02*
X135596666Y-75437419D01*
X135596666Y-75437419D02*
X135691904Y-75389800D01*
X135691904Y-75389800D02*
X135739523Y-75342180D01*
X135739523Y-75342180D02*
X135787142Y-75246942D01*
X135787142Y-75246942D02*
X135787142Y-75151704D01*
X135787142Y-75151704D02*
X135739523Y-75056466D01*
X135739523Y-75056466D02*
X135691904Y-75008847D01*
X135691904Y-75008847D02*
X135596666Y-74961228D01*
X135596666Y-74961228D02*
X135406190Y-74913609D01*
X135406190Y-74913609D02*
X135310952Y-74865990D01*
X135310952Y-74865990D02*
X135263333Y-74818371D01*
X135263333Y-74818371D02*
X135215714Y-74723133D01*
X135215714Y-74723133D02*
X135215714Y-74627895D01*
X135215714Y-74627895D02*
X135263333Y-74532657D01*
X135263333Y-74532657D02*
X135310952Y-74485038D01*
X135310952Y-74485038D02*
X135406190Y-74437419D01*
X135406190Y-74437419D02*
X135644285Y-74437419D01*
X135644285Y-74437419D02*
X135787142Y-74485038D01*
X136072857Y-74770752D02*
X136453809Y-74770752D01*
X136215714Y-74437419D02*
X136215714Y-75294561D01*
X136215714Y-75294561D02*
X136263333Y-75389800D01*
X136263333Y-75389800D02*
X136358571Y-75437419D01*
X136358571Y-75437419D02*
X136453809Y-75437419D01*
X136787143Y-75437419D02*
X136787143Y-74770752D01*
X136787143Y-74961228D02*
X136834762Y-74865990D01*
X136834762Y-74865990D02*
X136882381Y-74818371D01*
X136882381Y-74818371D02*
X136977619Y-74770752D01*
X136977619Y-74770752D02*
X137072857Y-74770752D01*
X137549048Y-75437419D02*
X137453810Y-75389800D01*
X137453810Y-75389800D02*
X137406191Y-75342180D01*
X137406191Y-75342180D02*
X137358572Y-75246942D01*
X137358572Y-75246942D02*
X137358572Y-74961228D01*
X137358572Y-74961228D02*
X137406191Y-74865990D01*
X137406191Y-74865990D02*
X137453810Y-74818371D01*
X137453810Y-74818371D02*
X137549048Y-74770752D01*
X137549048Y-74770752D02*
X137691905Y-74770752D01*
X137691905Y-74770752D02*
X137787143Y-74818371D01*
X137787143Y-74818371D02*
X137834762Y-74865990D01*
X137834762Y-74865990D02*
X137882381Y-74961228D01*
X137882381Y-74961228D02*
X137882381Y-75246942D01*
X137882381Y-75246942D02*
X137834762Y-75342180D01*
X137834762Y-75342180D02*
X137787143Y-75389800D01*
X137787143Y-75389800D02*
X137691905Y-75437419D01*
X137691905Y-75437419D02*
X137549048Y-75437419D01*
X138310953Y-75437419D02*
X138310953Y-74770752D01*
X138310953Y-74865990D02*
X138358572Y-74818371D01*
X138358572Y-74818371D02*
X138453810Y-74770752D01*
X138453810Y-74770752D02*
X138596667Y-74770752D01*
X138596667Y-74770752D02*
X138691905Y-74818371D01*
X138691905Y-74818371D02*
X138739524Y-74913609D01*
X138739524Y-74913609D02*
X138739524Y-75437419D01*
X138739524Y-74913609D02*
X138787143Y-74818371D01*
X138787143Y-74818371D02*
X138882381Y-74770752D01*
X138882381Y-74770752D02*
X139025238Y-74770752D01*
X139025238Y-74770752D02*
X139120477Y-74818371D01*
X139120477Y-74818371D02*
X139168096Y-74913609D01*
X139168096Y-74913609D02*
X139168096Y-75437419D01*
X139644286Y-75437419D02*
X139644286Y-74437419D01*
X139644286Y-74818371D02*
X139739524Y-74770752D01*
X139739524Y-74770752D02*
X139930000Y-74770752D01*
X139930000Y-74770752D02*
X140025238Y-74818371D01*
X140025238Y-74818371D02*
X140072857Y-74865990D01*
X140072857Y-74865990D02*
X140120476Y-74961228D01*
X140120476Y-74961228D02*
X140120476Y-75246942D01*
X140120476Y-75246942D02*
X140072857Y-75342180D01*
X140072857Y-75342180D02*
X140025238Y-75389800D01*
X140025238Y-75389800D02*
X139930000Y-75437419D01*
X139930000Y-75437419D02*
X139739524Y-75437419D01*
X139739524Y-75437419D02*
X139644286Y-75389800D01*
X140930000Y-75389800D02*
X140834762Y-75437419D01*
X140834762Y-75437419D02*
X140644286Y-75437419D01*
X140644286Y-75437419D02*
X140549048Y-75389800D01*
X140549048Y-75389800D02*
X140501429Y-75294561D01*
X140501429Y-75294561D02*
X140501429Y-74913609D01*
X140501429Y-74913609D02*
X140549048Y-74818371D01*
X140549048Y-74818371D02*
X140644286Y-74770752D01*
X140644286Y-74770752D02*
X140834762Y-74770752D01*
X140834762Y-74770752D02*
X140930000Y-74818371D01*
X140930000Y-74818371D02*
X140977619Y-74913609D01*
X140977619Y-74913609D02*
X140977619Y-75008847D01*
X140977619Y-75008847D02*
X140501429Y-75104085D01*
X141406191Y-75437419D02*
X141406191Y-74770752D01*
X141406191Y-74961228D02*
X141453810Y-74865990D01*
X141453810Y-74865990D02*
X141501429Y-74818371D01*
X141501429Y-74818371D02*
X141596667Y-74770752D01*
X141596667Y-74770752D02*
X141691905Y-74770752D01*
X142453810Y-74770752D02*
X142453810Y-75580276D01*
X142453810Y-75580276D02*
X142406191Y-75675514D01*
X142406191Y-75675514D02*
X142358572Y-75723133D01*
X142358572Y-75723133D02*
X142263334Y-75770752D01*
X142263334Y-75770752D02*
X142120477Y-75770752D01*
X142120477Y-75770752D02*
X142025239Y-75723133D01*
X142453810Y-75389800D02*
X142358572Y-75437419D01*
X142358572Y-75437419D02*
X142168096Y-75437419D01*
X142168096Y-75437419D02*
X142072858Y-75389800D01*
X142072858Y-75389800D02*
X142025239Y-75342180D01*
X142025239Y-75342180D02*
X141977620Y-75246942D01*
X141977620Y-75246942D02*
X141977620Y-74961228D01*
X141977620Y-74961228D02*
X142025239Y-74865990D01*
X142025239Y-74865990D02*
X142072858Y-74818371D01*
X142072858Y-74818371D02*
X142168096Y-74770752D01*
X142168096Y-74770752D02*
X142358572Y-74770752D01*
X142358572Y-74770752D02*
X142453810Y-74818371D01*
X143644287Y-74532657D02*
X143691906Y-74485038D01*
X143691906Y-74485038D02*
X143787144Y-74437419D01*
X143787144Y-74437419D02*
X144025239Y-74437419D01*
X144025239Y-74437419D02*
X144120477Y-74485038D01*
X144120477Y-74485038D02*
X144168096Y-74532657D01*
X144168096Y-74532657D02*
X144215715Y-74627895D01*
X144215715Y-74627895D02*
X144215715Y-74723133D01*
X144215715Y-74723133D02*
X144168096Y-74865990D01*
X144168096Y-74865990D02*
X143596668Y-75437419D01*
X143596668Y-75437419D02*
X144215715Y-75437419D01*
X144834763Y-74437419D02*
X144930001Y-74437419D01*
X144930001Y-74437419D02*
X145025239Y-74485038D01*
X145025239Y-74485038D02*
X145072858Y-74532657D01*
X145072858Y-74532657D02*
X145120477Y-74627895D01*
X145120477Y-74627895D02*
X145168096Y-74818371D01*
X145168096Y-74818371D02*
X145168096Y-75056466D01*
X145168096Y-75056466D02*
X145120477Y-75246942D01*
X145120477Y-75246942D02*
X145072858Y-75342180D01*
X145072858Y-75342180D02*
X145025239Y-75389800D01*
X145025239Y-75389800D02*
X144930001Y-75437419D01*
X144930001Y-75437419D02*
X144834763Y-75437419D01*
X144834763Y-75437419D02*
X144739525Y-75389800D01*
X144739525Y-75389800D02*
X144691906Y-75342180D01*
X144691906Y-75342180D02*
X144644287Y-75246942D01*
X144644287Y-75246942D02*
X144596668Y-75056466D01*
X144596668Y-75056466D02*
X144596668Y-74818371D01*
X144596668Y-74818371D02*
X144644287Y-74627895D01*
X144644287Y-74627895D02*
X144691906Y-74532657D01*
X144691906Y-74532657D02*
X144739525Y-74485038D01*
X144739525Y-74485038D02*
X144834763Y-74437419D01*
X145549049Y-74532657D02*
X145596668Y-74485038D01*
X145596668Y-74485038D02*
X145691906Y-74437419D01*
X145691906Y-74437419D02*
X145930001Y-74437419D01*
X145930001Y-74437419D02*
X146025239Y-74485038D01*
X146025239Y-74485038D02*
X146072858Y-74532657D01*
X146072858Y-74532657D02*
X146120477Y-74627895D01*
X146120477Y-74627895D02*
X146120477Y-74723133D01*
X146120477Y-74723133D02*
X146072858Y-74865990D01*
X146072858Y-74865990D02*
X145501430Y-75437419D01*
X145501430Y-75437419D02*
X146120477Y-75437419D01*
X146977620Y-74770752D02*
X146977620Y-75437419D01*
X146739525Y-74389800D02*
X146501430Y-75104085D01*
X146501430Y-75104085D02*
X147120477Y-75104085D01*
D11*
X158484673Y-110357219D02*
X158484673Y-109357219D01*
X158484673Y-109357219D02*
X158722768Y-109357219D01*
X158722768Y-109357219D02*
X158865625Y-109404838D01*
X158865625Y-109404838D02*
X158960863Y-109500076D01*
X158960863Y-109500076D02*
X159008482Y-109595314D01*
X159008482Y-109595314D02*
X159056101Y-109785790D01*
X159056101Y-109785790D02*
X159056101Y-109928647D01*
X159056101Y-109928647D02*
X159008482Y-110119123D01*
X159008482Y-110119123D02*
X158960863Y-110214361D01*
X158960863Y-110214361D02*
X158865625Y-110309600D01*
X158865625Y-110309600D02*
X158722768Y-110357219D01*
X158722768Y-110357219D02*
X158484673Y-110357219D01*
X159437054Y-109452457D02*
X159484673Y-109404838D01*
X159484673Y-109404838D02*
X159579911Y-109357219D01*
X159579911Y-109357219D02*
X159818006Y-109357219D01*
X159818006Y-109357219D02*
X159913244Y-109404838D01*
X159913244Y-109404838D02*
X159960863Y-109452457D01*
X159960863Y-109452457D02*
X160008482Y-109547695D01*
X160008482Y-109547695D02*
X160008482Y-109642933D01*
X160008482Y-109642933D02*
X159960863Y-109785790D01*
X159960863Y-109785790D02*
X159389435Y-110357219D01*
X159389435Y-110357219D02*
X160008482Y-110357219D01*
X110851279Y-100149600D02*
X110994136Y-100197219D01*
X110994136Y-100197219D02*
X111232231Y-100197219D01*
X111232231Y-100197219D02*
X111327469Y-100149600D01*
X111327469Y-100149600D02*
X111375088Y-100101980D01*
X111375088Y-100101980D02*
X111422707Y-100006742D01*
X111422707Y-100006742D02*
X111422707Y-99911504D01*
X111422707Y-99911504D02*
X111375088Y-99816266D01*
X111375088Y-99816266D02*
X111327469Y-99768647D01*
X111327469Y-99768647D02*
X111232231Y-99721028D01*
X111232231Y-99721028D02*
X111041755Y-99673409D01*
X111041755Y-99673409D02*
X110946517Y-99625790D01*
X110946517Y-99625790D02*
X110898898Y-99578171D01*
X110898898Y-99578171D02*
X110851279Y-99482933D01*
X110851279Y-99482933D02*
X110851279Y-99387695D01*
X110851279Y-99387695D02*
X110898898Y-99292457D01*
X110898898Y-99292457D02*
X110946517Y-99244838D01*
X110946517Y-99244838D02*
X111041755Y-99197219D01*
X111041755Y-99197219D02*
X111279850Y-99197219D01*
X111279850Y-99197219D02*
X111422707Y-99244838D01*
X111756041Y-99197219D02*
X112375088Y-99197219D01*
X112375088Y-99197219D02*
X112041755Y-99578171D01*
X112041755Y-99578171D02*
X112184612Y-99578171D01*
X112184612Y-99578171D02*
X112279850Y-99625790D01*
X112279850Y-99625790D02*
X112327469Y-99673409D01*
X112327469Y-99673409D02*
X112375088Y-99768647D01*
X112375088Y-99768647D02*
X112375088Y-100006742D01*
X112375088Y-100006742D02*
X112327469Y-100101980D01*
X112327469Y-100101980D02*
X112279850Y-100149600D01*
X112279850Y-100149600D02*
X112184612Y-100197219D01*
X112184612Y-100197219D02*
X111898898Y-100197219D01*
X111898898Y-100197219D02*
X111803660Y-100149600D01*
X111803660Y-100149600D02*
X111756041Y-100101980D01*
X112803660Y-99816266D02*
X113565565Y-99816266D01*
X114041755Y-100197219D02*
X114041755Y-99197219D01*
X114041755Y-99197219D02*
X114279850Y-99197219D01*
X114279850Y-99197219D02*
X114422707Y-99244838D01*
X114422707Y-99244838D02*
X114517945Y-99340076D01*
X114517945Y-99340076D02*
X114565564Y-99435314D01*
X114565564Y-99435314D02*
X114613183Y-99625790D01*
X114613183Y-99625790D02*
X114613183Y-99768647D01*
X114613183Y-99768647D02*
X114565564Y-99959123D01*
X114565564Y-99959123D02*
X114517945Y-100054361D01*
X114517945Y-100054361D02*
X114422707Y-100149600D01*
X114422707Y-100149600D02*
X114279850Y-100197219D01*
X114279850Y-100197219D02*
X114041755Y-100197219D01*
X115565564Y-100197219D02*
X114994136Y-100197219D01*
X115279850Y-100197219D02*
X115279850Y-99197219D01*
X115279850Y-99197219D02*
X115184612Y-99340076D01*
X115184612Y-99340076D02*
X115089374Y-99435314D01*
X115089374Y-99435314D02*
X114994136Y-99482933D01*
X116136993Y-99625790D02*
X116041755Y-99578171D01*
X116041755Y-99578171D02*
X115994136Y-99530552D01*
X115994136Y-99530552D02*
X115946517Y-99435314D01*
X115946517Y-99435314D02*
X115946517Y-99387695D01*
X115946517Y-99387695D02*
X115994136Y-99292457D01*
X115994136Y-99292457D02*
X116041755Y-99244838D01*
X116041755Y-99244838D02*
X116136993Y-99197219D01*
X116136993Y-99197219D02*
X116327469Y-99197219D01*
X116327469Y-99197219D02*
X116422707Y-99244838D01*
X116422707Y-99244838D02*
X116470326Y-99292457D01*
X116470326Y-99292457D02*
X116517945Y-99387695D01*
X116517945Y-99387695D02*
X116517945Y-99435314D01*
X116517945Y-99435314D02*
X116470326Y-99530552D01*
X116470326Y-99530552D02*
X116422707Y-99578171D01*
X116422707Y-99578171D02*
X116327469Y-99625790D01*
X116327469Y-99625790D02*
X116136993Y-99625790D01*
X116136993Y-99625790D02*
X116041755Y-99673409D01*
X116041755Y-99673409D02*
X115994136Y-99721028D01*
X115994136Y-99721028D02*
X115946517Y-99816266D01*
X115946517Y-99816266D02*
X115946517Y-100006742D01*
X115946517Y-100006742D02*
X115994136Y-100101980D01*
X115994136Y-100101980D02*
X116041755Y-100149600D01*
X116041755Y-100149600D02*
X116136993Y-100197219D01*
X116136993Y-100197219D02*
X116327469Y-100197219D01*
X116327469Y-100197219D02*
X116422707Y-100149600D01*
X116422707Y-100149600D02*
X116470326Y-100101980D01*
X116470326Y-100101980D02*
X116517945Y-100006742D01*
X116517945Y-100006742D02*
X116517945Y-99816266D01*
X116517945Y-99816266D02*
X116470326Y-99721028D01*
X116470326Y-99721028D02*
X116422707Y-99673409D01*
X116422707Y-99673409D02*
X116327469Y-99625790D01*
X114803659Y-77337219D02*
X114470326Y-76861028D01*
X114232231Y-77337219D02*
X114232231Y-76337219D01*
X114232231Y-76337219D02*
X114613183Y-76337219D01*
X114613183Y-76337219D02*
X114708421Y-76384838D01*
X114708421Y-76384838D02*
X114756040Y-76432457D01*
X114756040Y-76432457D02*
X114803659Y-76527695D01*
X114803659Y-76527695D02*
X114803659Y-76670552D01*
X114803659Y-76670552D02*
X114756040Y-76765790D01*
X114756040Y-76765790D02*
X114708421Y-76813409D01*
X114708421Y-76813409D02*
X114613183Y-76861028D01*
X114613183Y-76861028D02*
X114232231Y-76861028D01*
X115184612Y-77289600D02*
X115327469Y-77337219D01*
X115327469Y-77337219D02*
X115565564Y-77337219D01*
X115565564Y-77337219D02*
X115660802Y-77289600D01*
X115660802Y-77289600D02*
X115708421Y-77241980D01*
X115708421Y-77241980D02*
X115756040Y-77146742D01*
X115756040Y-77146742D02*
X115756040Y-77051504D01*
X115756040Y-77051504D02*
X115708421Y-76956266D01*
X115708421Y-76956266D02*
X115660802Y-76908647D01*
X115660802Y-76908647D02*
X115565564Y-76861028D01*
X115565564Y-76861028D02*
X115375088Y-76813409D01*
X115375088Y-76813409D02*
X115279850Y-76765790D01*
X115279850Y-76765790D02*
X115232231Y-76718171D01*
X115232231Y-76718171D02*
X115184612Y-76622933D01*
X115184612Y-76622933D02*
X115184612Y-76527695D01*
X115184612Y-76527695D02*
X115232231Y-76432457D01*
X115232231Y-76432457D02*
X115279850Y-76384838D01*
X115279850Y-76384838D02*
X115375088Y-76337219D01*
X115375088Y-76337219D02*
X115613183Y-76337219D01*
X115613183Y-76337219D02*
X115756040Y-76384838D01*
X116041755Y-76337219D02*
X116613183Y-76337219D01*
X116327469Y-77337219D02*
X116327469Y-76337219D01*
X158484673Y-107817219D02*
X158484673Y-106817219D01*
X158484673Y-106817219D02*
X158722768Y-106817219D01*
X158722768Y-106817219D02*
X158865625Y-106864838D01*
X158865625Y-106864838D02*
X158960863Y-106960076D01*
X158960863Y-106960076D02*
X159008482Y-107055314D01*
X159008482Y-107055314D02*
X159056101Y-107245790D01*
X159056101Y-107245790D02*
X159056101Y-107388647D01*
X159056101Y-107388647D02*
X159008482Y-107579123D01*
X159008482Y-107579123D02*
X158960863Y-107674361D01*
X158960863Y-107674361D02*
X158865625Y-107769600D01*
X158865625Y-107769600D02*
X158722768Y-107817219D01*
X158722768Y-107817219D02*
X158484673Y-107817219D01*
X159389435Y-106817219D02*
X160008482Y-106817219D01*
X160008482Y-106817219D02*
X159675149Y-107198171D01*
X159675149Y-107198171D02*
X159818006Y-107198171D01*
X159818006Y-107198171D02*
X159913244Y-107245790D01*
X159913244Y-107245790D02*
X159960863Y-107293409D01*
X159960863Y-107293409D02*
X160008482Y-107388647D01*
X160008482Y-107388647D02*
X160008482Y-107626742D01*
X160008482Y-107626742D02*
X159960863Y-107721980D01*
X159960863Y-107721980D02*
X159913244Y-107769600D01*
X159913244Y-107769600D02*
X159818006Y-107817219D01*
X159818006Y-107817219D02*
X159532292Y-107817219D01*
X159532292Y-107817219D02*
X159437054Y-107769600D01*
X159437054Y-107769600D02*
X159389435Y-107721980D01*
X129310238Y-126232219D02*
X129310238Y-125232219D01*
X129310238Y-125232219D02*
X129881666Y-126232219D01*
X129881666Y-126232219D02*
X129881666Y-125232219D01*
X130738809Y-126184600D02*
X130643571Y-126232219D01*
X130643571Y-126232219D02*
X130453095Y-126232219D01*
X130453095Y-126232219D02*
X130357857Y-126184600D01*
X130357857Y-126184600D02*
X130310238Y-126089361D01*
X130310238Y-126089361D02*
X130310238Y-125708409D01*
X130310238Y-125708409D02*
X130357857Y-125613171D01*
X130357857Y-125613171D02*
X130453095Y-125565552D01*
X130453095Y-125565552D02*
X130643571Y-125565552D01*
X130643571Y-125565552D02*
X130738809Y-125613171D01*
X130738809Y-125613171D02*
X130786428Y-125708409D01*
X130786428Y-125708409D02*
X130786428Y-125803647D01*
X130786428Y-125803647D02*
X130310238Y-125898885D01*
X131357857Y-126232219D02*
X131262619Y-126184600D01*
X131262619Y-126184600D02*
X131215000Y-126136980D01*
X131215000Y-126136980D02*
X131167381Y-126041742D01*
X131167381Y-126041742D02*
X131167381Y-125756028D01*
X131167381Y-125756028D02*
X131215000Y-125660790D01*
X131215000Y-125660790D02*
X131262619Y-125613171D01*
X131262619Y-125613171D02*
X131357857Y-125565552D01*
X131357857Y-125565552D02*
X131500714Y-125565552D01*
X131500714Y-125565552D02*
X131595952Y-125613171D01*
X131595952Y-125613171D02*
X131643571Y-125660790D01*
X131643571Y-125660790D02*
X131691190Y-125756028D01*
X131691190Y-125756028D02*
X131691190Y-126041742D01*
X131691190Y-126041742D02*
X131643571Y-126136980D01*
X131643571Y-126136980D02*
X131595952Y-126184600D01*
X131595952Y-126184600D02*
X131500714Y-126232219D01*
X131500714Y-126232219D02*
X131357857Y-126232219D01*
X132119762Y-126232219D02*
X132119762Y-125232219D01*
X132119762Y-125232219D02*
X132500714Y-125232219D01*
X132500714Y-125232219D02*
X132595952Y-125279838D01*
X132595952Y-125279838D02*
X132643571Y-125327457D01*
X132643571Y-125327457D02*
X132691190Y-125422695D01*
X132691190Y-125422695D02*
X132691190Y-125565552D01*
X132691190Y-125565552D02*
X132643571Y-125660790D01*
X132643571Y-125660790D02*
X132595952Y-125708409D01*
X132595952Y-125708409D02*
X132500714Y-125756028D01*
X132500714Y-125756028D02*
X132119762Y-125756028D01*
X133119762Y-126232219D02*
X133119762Y-125565552D01*
X133119762Y-125232219D02*
X133072143Y-125279838D01*
X133072143Y-125279838D02*
X133119762Y-125327457D01*
X133119762Y-125327457D02*
X133167381Y-125279838D01*
X133167381Y-125279838D02*
X133119762Y-125232219D01*
X133119762Y-125232219D02*
X133119762Y-125327457D01*
X133500714Y-126232219D02*
X134024523Y-125565552D01*
X133500714Y-125565552D02*
X134024523Y-126232219D01*
X134786428Y-126184600D02*
X134691190Y-126232219D01*
X134691190Y-126232219D02*
X134500714Y-126232219D01*
X134500714Y-126232219D02*
X134405476Y-126184600D01*
X134405476Y-126184600D02*
X134357857Y-126089361D01*
X134357857Y-126089361D02*
X134357857Y-125708409D01*
X134357857Y-125708409D02*
X134405476Y-125613171D01*
X134405476Y-125613171D02*
X134500714Y-125565552D01*
X134500714Y-125565552D02*
X134691190Y-125565552D01*
X134691190Y-125565552D02*
X134786428Y-125613171D01*
X134786428Y-125613171D02*
X134834047Y-125708409D01*
X134834047Y-125708409D02*
X134834047Y-125803647D01*
X134834047Y-125803647D02*
X134357857Y-125898885D01*
X135405476Y-126232219D02*
X135310238Y-126184600D01*
X135310238Y-126184600D02*
X135262619Y-126089361D01*
X135262619Y-126089361D02*
X135262619Y-125232219D01*
X135738810Y-126184600D02*
X135834048Y-126232219D01*
X135834048Y-126232219D02*
X136024524Y-126232219D01*
X136024524Y-126232219D02*
X136119762Y-126184600D01*
X136119762Y-126184600D02*
X136167381Y-126089361D01*
X136167381Y-126089361D02*
X136167381Y-126041742D01*
X136167381Y-126041742D02*
X136119762Y-125946504D01*
X136119762Y-125946504D02*
X136024524Y-125898885D01*
X136024524Y-125898885D02*
X135881667Y-125898885D01*
X135881667Y-125898885D02*
X135786429Y-125851266D01*
X135786429Y-125851266D02*
X135738810Y-125756028D01*
X135738810Y-125756028D02*
X135738810Y-125708409D01*
X135738810Y-125708409D02*
X135786429Y-125613171D01*
X135786429Y-125613171D02*
X135881667Y-125565552D01*
X135881667Y-125565552D02*
X136024524Y-125565552D01*
X136024524Y-125565552D02*
X136119762Y-125613171D01*
X132212780Y-134354673D02*
X133212780Y-134354673D01*
X133212780Y-134354673D02*
X133212780Y-134592768D01*
X133212780Y-134592768D02*
X133165161Y-134735625D01*
X133165161Y-134735625D02*
X133069923Y-134830863D01*
X133069923Y-134830863D02*
X132974685Y-134878482D01*
X132974685Y-134878482D02*
X132784209Y-134926101D01*
X132784209Y-134926101D02*
X132641352Y-134926101D01*
X132641352Y-134926101D02*
X132450876Y-134878482D01*
X132450876Y-134878482D02*
X132355638Y-134830863D01*
X132355638Y-134830863D02*
X132260400Y-134735625D01*
X132260400Y-134735625D02*
X132212780Y-134592768D01*
X132212780Y-134592768D02*
X132212780Y-134354673D01*
X132212780Y-135783244D02*
X132736590Y-135783244D01*
X132736590Y-135783244D02*
X132831828Y-135735625D01*
X132831828Y-135735625D02*
X132879447Y-135640387D01*
X132879447Y-135640387D02*
X132879447Y-135449911D01*
X132879447Y-135449911D02*
X132831828Y-135354673D01*
X132260400Y-135783244D02*
X132212780Y-135688006D01*
X132212780Y-135688006D02*
X132212780Y-135449911D01*
X132212780Y-135449911D02*
X132260400Y-135354673D01*
X132260400Y-135354673D02*
X132355638Y-135307054D01*
X132355638Y-135307054D02*
X132450876Y-135307054D01*
X132450876Y-135307054D02*
X132546114Y-135354673D01*
X132546114Y-135354673D02*
X132593733Y-135449911D01*
X132593733Y-135449911D02*
X132593733Y-135688006D01*
X132593733Y-135688006D02*
X132641352Y-135783244D01*
X132879447Y-136116578D02*
X132879447Y-136497530D01*
X133212780Y-136259435D02*
X132355638Y-136259435D01*
X132355638Y-136259435D02*
X132260400Y-136307054D01*
X132260400Y-136307054D02*
X132212780Y-136402292D01*
X132212780Y-136402292D02*
X132212780Y-136497530D01*
X132212780Y-137259435D02*
X132736590Y-137259435D01*
X132736590Y-137259435D02*
X132831828Y-137211816D01*
X132831828Y-137211816D02*
X132879447Y-137116578D01*
X132879447Y-137116578D02*
X132879447Y-136926102D01*
X132879447Y-136926102D02*
X132831828Y-136830864D01*
X132260400Y-137259435D02*
X132212780Y-137164197D01*
X132212780Y-137164197D02*
X132212780Y-136926102D01*
X132212780Y-136926102D02*
X132260400Y-136830864D01*
X132260400Y-136830864D02*
X132355638Y-136783245D01*
X132355638Y-136783245D02*
X132450876Y-136783245D01*
X132450876Y-136783245D02*
X132546114Y-136830864D01*
X132546114Y-136830864D02*
X132593733Y-136926102D01*
X132593733Y-136926102D02*
X132593733Y-137164197D01*
X132593733Y-137164197D02*
X132641352Y-137259435D01*
X110946517Y-92291504D02*
X111422707Y-92291504D01*
X110851279Y-92577219D02*
X111184612Y-91577219D01*
X111184612Y-91577219D02*
X111517945Y-92577219D01*
X111803660Y-91672457D02*
X111851279Y-91624838D01*
X111851279Y-91624838D02*
X111946517Y-91577219D01*
X111946517Y-91577219D02*
X112184612Y-91577219D01*
X112184612Y-91577219D02*
X112279850Y-91624838D01*
X112279850Y-91624838D02*
X112327469Y-91672457D01*
X112327469Y-91672457D02*
X112375088Y-91767695D01*
X112375088Y-91767695D02*
X112375088Y-91862933D01*
X112375088Y-91862933D02*
X112327469Y-92005790D01*
X112327469Y-92005790D02*
X111756041Y-92577219D01*
X111756041Y-92577219D02*
X112375088Y-92577219D01*
X112803660Y-92196266D02*
X113565565Y-92196266D01*
X114041755Y-92577219D02*
X114041755Y-91577219D01*
X114041755Y-91577219D02*
X114279850Y-91577219D01*
X114279850Y-91577219D02*
X114422707Y-91624838D01*
X114422707Y-91624838D02*
X114517945Y-91720076D01*
X114517945Y-91720076D02*
X114565564Y-91815314D01*
X114565564Y-91815314D02*
X114613183Y-92005790D01*
X114613183Y-92005790D02*
X114613183Y-92148647D01*
X114613183Y-92148647D02*
X114565564Y-92339123D01*
X114565564Y-92339123D02*
X114517945Y-92434361D01*
X114517945Y-92434361D02*
X114422707Y-92529600D01*
X114422707Y-92529600D02*
X114279850Y-92577219D01*
X114279850Y-92577219D02*
X114041755Y-92577219D01*
X115565564Y-92577219D02*
X114994136Y-92577219D01*
X115279850Y-92577219D02*
X115279850Y-91577219D01*
X115279850Y-91577219D02*
X115184612Y-91720076D01*
X115184612Y-91720076D02*
X115089374Y-91815314D01*
X115089374Y-91815314D02*
X114994136Y-91862933D01*
X115898898Y-91577219D02*
X116517945Y-91577219D01*
X116517945Y-91577219D02*
X116184612Y-91958171D01*
X116184612Y-91958171D02*
X116327469Y-91958171D01*
X116327469Y-91958171D02*
X116422707Y-92005790D01*
X116422707Y-92005790D02*
X116470326Y-92053409D01*
X116470326Y-92053409D02*
X116517945Y-92148647D01*
X116517945Y-92148647D02*
X116517945Y-92386742D01*
X116517945Y-92386742D02*
X116470326Y-92481980D01*
X116470326Y-92481980D02*
X116422707Y-92529600D01*
X116422707Y-92529600D02*
X116327469Y-92577219D01*
X116327469Y-92577219D02*
X116041755Y-92577219D01*
X116041755Y-92577219D02*
X115946517Y-92529600D01*
X115946517Y-92529600D02*
X115898898Y-92481980D01*
X158484673Y-102737219D02*
X158484673Y-101737219D01*
X158484673Y-101737219D02*
X158722768Y-101737219D01*
X158722768Y-101737219D02*
X158865625Y-101784838D01*
X158865625Y-101784838D02*
X158960863Y-101880076D01*
X158960863Y-101880076D02*
X159008482Y-101975314D01*
X159008482Y-101975314D02*
X159056101Y-102165790D01*
X159056101Y-102165790D02*
X159056101Y-102308647D01*
X159056101Y-102308647D02*
X159008482Y-102499123D01*
X159008482Y-102499123D02*
X158960863Y-102594361D01*
X158960863Y-102594361D02*
X158865625Y-102689600D01*
X158865625Y-102689600D02*
X158722768Y-102737219D01*
X158722768Y-102737219D02*
X158484673Y-102737219D01*
X159960863Y-101737219D02*
X159484673Y-101737219D01*
X159484673Y-101737219D02*
X159437054Y-102213409D01*
X159437054Y-102213409D02*
X159484673Y-102165790D01*
X159484673Y-102165790D02*
X159579911Y-102118171D01*
X159579911Y-102118171D02*
X159818006Y-102118171D01*
X159818006Y-102118171D02*
X159913244Y-102165790D01*
X159913244Y-102165790D02*
X159960863Y-102213409D01*
X159960863Y-102213409D02*
X160008482Y-102308647D01*
X160008482Y-102308647D02*
X160008482Y-102546742D01*
X160008482Y-102546742D02*
X159960863Y-102641980D01*
X159960863Y-102641980D02*
X159913244Y-102689600D01*
X159913244Y-102689600D02*
X159818006Y-102737219D01*
X159818006Y-102737219D02*
X159579911Y-102737219D01*
X159579911Y-102737219D02*
X159484673Y-102689600D01*
X159484673Y-102689600D02*
X159437054Y-102641980D01*
X158437054Y-76654600D02*
X158579911Y-76702219D01*
X158579911Y-76702219D02*
X158818006Y-76702219D01*
X158818006Y-76702219D02*
X158913244Y-76654600D01*
X158913244Y-76654600D02*
X158960863Y-76606980D01*
X158960863Y-76606980D02*
X159008482Y-76511742D01*
X159008482Y-76511742D02*
X159008482Y-76416504D01*
X159008482Y-76416504D02*
X158960863Y-76321266D01*
X158960863Y-76321266D02*
X158913244Y-76273647D01*
X158913244Y-76273647D02*
X158818006Y-76226028D01*
X158818006Y-76226028D02*
X158627530Y-76178409D01*
X158627530Y-76178409D02*
X158532292Y-76130790D01*
X158532292Y-76130790D02*
X158484673Y-76083171D01*
X158484673Y-76083171D02*
X158437054Y-75987933D01*
X158437054Y-75987933D02*
X158437054Y-75892695D01*
X158437054Y-75892695D02*
X158484673Y-75797457D01*
X158484673Y-75797457D02*
X158532292Y-75749838D01*
X158532292Y-75749838D02*
X158627530Y-75702219D01*
X158627530Y-75702219D02*
X158865625Y-75702219D01*
X158865625Y-75702219D02*
X159008482Y-75749838D01*
X159437054Y-76702219D02*
X159437054Y-75702219D01*
X159437054Y-75702219D02*
X159675149Y-75702219D01*
X159675149Y-75702219D02*
X159818006Y-75749838D01*
X159818006Y-75749838D02*
X159913244Y-75845076D01*
X159913244Y-75845076D02*
X159960863Y-75940314D01*
X159960863Y-75940314D02*
X160008482Y-76130790D01*
X160008482Y-76130790D02*
X160008482Y-76273647D01*
X160008482Y-76273647D02*
X159960863Y-76464123D01*
X159960863Y-76464123D02*
X159913244Y-76559361D01*
X159913244Y-76559361D02*
X159818006Y-76654600D01*
X159818006Y-76654600D02*
X159675149Y-76702219D01*
X159675149Y-76702219D02*
X159437054Y-76702219D01*
X160389435Y-76416504D02*
X160865625Y-76416504D01*
X160294197Y-76702219D02*
X160627530Y-75702219D01*
X160627530Y-75702219D02*
X160960863Y-76702219D01*
X114898898Y-115437219D02*
X114898898Y-114437219D01*
X114898898Y-114437219D02*
X115470326Y-115437219D01*
X115470326Y-115437219D02*
X115470326Y-114437219D01*
X116517945Y-115341980D02*
X116470326Y-115389600D01*
X116470326Y-115389600D02*
X116327469Y-115437219D01*
X116327469Y-115437219D02*
X116232231Y-115437219D01*
X116232231Y-115437219D02*
X116089374Y-115389600D01*
X116089374Y-115389600D02*
X115994136Y-115294361D01*
X115994136Y-115294361D02*
X115946517Y-115199123D01*
X115946517Y-115199123D02*
X115898898Y-115008647D01*
X115898898Y-115008647D02*
X115898898Y-114865790D01*
X115898898Y-114865790D02*
X115946517Y-114675314D01*
X115946517Y-114675314D02*
X115994136Y-114580076D01*
X115994136Y-114580076D02*
X116089374Y-114484838D01*
X116089374Y-114484838D02*
X116232231Y-114437219D01*
X116232231Y-114437219D02*
X116327469Y-114437219D01*
X116327469Y-114437219D02*
X116470326Y-114484838D01*
X116470326Y-114484838D02*
X116517945Y-114532457D01*
X158437054Y-79194600D02*
X158579911Y-79242219D01*
X158579911Y-79242219D02*
X158818006Y-79242219D01*
X158818006Y-79242219D02*
X158913244Y-79194600D01*
X158913244Y-79194600D02*
X158960863Y-79146980D01*
X158960863Y-79146980D02*
X159008482Y-79051742D01*
X159008482Y-79051742D02*
X159008482Y-78956504D01*
X159008482Y-78956504D02*
X158960863Y-78861266D01*
X158960863Y-78861266D02*
X158913244Y-78813647D01*
X158913244Y-78813647D02*
X158818006Y-78766028D01*
X158818006Y-78766028D02*
X158627530Y-78718409D01*
X158627530Y-78718409D02*
X158532292Y-78670790D01*
X158532292Y-78670790D02*
X158484673Y-78623171D01*
X158484673Y-78623171D02*
X158437054Y-78527933D01*
X158437054Y-78527933D02*
X158437054Y-78432695D01*
X158437054Y-78432695D02*
X158484673Y-78337457D01*
X158484673Y-78337457D02*
X158532292Y-78289838D01*
X158532292Y-78289838D02*
X158627530Y-78242219D01*
X158627530Y-78242219D02*
X158865625Y-78242219D01*
X158865625Y-78242219D02*
X159008482Y-78289838D01*
X160008482Y-79146980D02*
X159960863Y-79194600D01*
X159960863Y-79194600D02*
X159818006Y-79242219D01*
X159818006Y-79242219D02*
X159722768Y-79242219D01*
X159722768Y-79242219D02*
X159579911Y-79194600D01*
X159579911Y-79194600D02*
X159484673Y-79099361D01*
X159484673Y-79099361D02*
X159437054Y-79004123D01*
X159437054Y-79004123D02*
X159389435Y-78813647D01*
X159389435Y-78813647D02*
X159389435Y-78670790D01*
X159389435Y-78670790D02*
X159437054Y-78480314D01*
X159437054Y-78480314D02*
X159484673Y-78385076D01*
X159484673Y-78385076D02*
X159579911Y-78289838D01*
X159579911Y-78289838D02*
X159722768Y-78242219D01*
X159722768Y-78242219D02*
X159818006Y-78242219D01*
X159818006Y-78242219D02*
X159960863Y-78289838D01*
X159960863Y-78289838D02*
X160008482Y-78337457D01*
X160913244Y-79242219D02*
X160437054Y-79242219D01*
X160437054Y-79242219D02*
X160437054Y-78242219D01*
X135752780Y-134830863D02*
X135752780Y-134354673D01*
X135752780Y-134354673D02*
X135276590Y-134307054D01*
X135276590Y-134307054D02*
X135324209Y-134354673D01*
X135324209Y-134354673D02*
X135371828Y-134449911D01*
X135371828Y-134449911D02*
X135371828Y-134688006D01*
X135371828Y-134688006D02*
X135324209Y-134783244D01*
X135324209Y-134783244D02*
X135276590Y-134830863D01*
X135276590Y-134830863D02*
X135181352Y-134878482D01*
X135181352Y-134878482D02*
X134943257Y-134878482D01*
X134943257Y-134878482D02*
X134848019Y-134830863D01*
X134848019Y-134830863D02*
X134800400Y-134783244D01*
X134800400Y-134783244D02*
X134752780Y-134688006D01*
X134752780Y-134688006D02*
X134752780Y-134449911D01*
X134752780Y-134449911D02*
X134800400Y-134354673D01*
X134800400Y-134354673D02*
X134848019Y-134307054D01*
X135752780Y-135164197D02*
X134752780Y-135497530D01*
X134752780Y-135497530D02*
X135752780Y-135830863D01*
X158484673Y-105277219D02*
X158484673Y-104277219D01*
X158484673Y-104277219D02*
X158722768Y-104277219D01*
X158722768Y-104277219D02*
X158865625Y-104324838D01*
X158865625Y-104324838D02*
X158960863Y-104420076D01*
X158960863Y-104420076D02*
X159008482Y-104515314D01*
X159008482Y-104515314D02*
X159056101Y-104705790D01*
X159056101Y-104705790D02*
X159056101Y-104848647D01*
X159056101Y-104848647D02*
X159008482Y-105039123D01*
X159008482Y-105039123D02*
X158960863Y-105134361D01*
X158960863Y-105134361D02*
X158865625Y-105229600D01*
X158865625Y-105229600D02*
X158722768Y-105277219D01*
X158722768Y-105277219D02*
X158484673Y-105277219D01*
X159913244Y-104610552D02*
X159913244Y-105277219D01*
X159675149Y-104229600D02*
X159437054Y-104943885D01*
X159437054Y-104943885D02*
X160056101Y-104943885D01*
X158484673Y-97657219D02*
X158484673Y-96657219D01*
X158484673Y-96657219D02*
X158722768Y-96657219D01*
X158722768Y-96657219D02*
X158865625Y-96704838D01*
X158865625Y-96704838D02*
X158960863Y-96800076D01*
X158960863Y-96800076D02*
X159008482Y-96895314D01*
X159008482Y-96895314D02*
X159056101Y-97085790D01*
X159056101Y-97085790D02*
X159056101Y-97228647D01*
X159056101Y-97228647D02*
X159008482Y-97419123D01*
X159008482Y-97419123D02*
X158960863Y-97514361D01*
X158960863Y-97514361D02*
X158865625Y-97609600D01*
X158865625Y-97609600D02*
X158722768Y-97657219D01*
X158722768Y-97657219D02*
X158484673Y-97657219D01*
X159389435Y-96657219D02*
X160056101Y-96657219D01*
X160056101Y-96657219D02*
X159627530Y-97657219D01*
X122178482Y-136709838D02*
X122083244Y-136662219D01*
X122083244Y-136662219D02*
X121940387Y-136662219D01*
X121940387Y-136662219D02*
X121797530Y-136709838D01*
X121797530Y-136709838D02*
X121702292Y-136805076D01*
X121702292Y-136805076D02*
X121654673Y-136900314D01*
X121654673Y-136900314D02*
X121607054Y-137090790D01*
X121607054Y-137090790D02*
X121607054Y-137233647D01*
X121607054Y-137233647D02*
X121654673Y-137424123D01*
X121654673Y-137424123D02*
X121702292Y-137519361D01*
X121702292Y-137519361D02*
X121797530Y-137614600D01*
X121797530Y-137614600D02*
X121940387Y-137662219D01*
X121940387Y-137662219D02*
X122035625Y-137662219D01*
X122035625Y-137662219D02*
X122178482Y-137614600D01*
X122178482Y-137614600D02*
X122226101Y-137566980D01*
X122226101Y-137566980D02*
X122226101Y-137233647D01*
X122226101Y-137233647D02*
X122035625Y-137233647D01*
X122654673Y-137662219D02*
X122654673Y-136662219D01*
X122654673Y-136662219D02*
X123226101Y-137662219D01*
X123226101Y-137662219D02*
X123226101Y-136662219D01*
X123702292Y-137662219D02*
X123702292Y-136662219D01*
X123702292Y-136662219D02*
X123940387Y-136662219D01*
X123940387Y-136662219D02*
X124083244Y-136709838D01*
X124083244Y-136709838D02*
X124178482Y-136805076D01*
X124178482Y-136805076D02*
X124226101Y-136900314D01*
X124226101Y-136900314D02*
X124273720Y-137090790D01*
X124273720Y-137090790D02*
X124273720Y-137233647D01*
X124273720Y-137233647D02*
X124226101Y-137424123D01*
X124226101Y-137424123D02*
X124178482Y-137519361D01*
X124178482Y-137519361D02*
X124083244Y-137614600D01*
X124083244Y-137614600D02*
X123940387Y-137662219D01*
X123940387Y-137662219D02*
X123702292Y-137662219D01*
X114089374Y-78877219D02*
X114708421Y-78877219D01*
X114708421Y-78877219D02*
X114375088Y-79258171D01*
X114375088Y-79258171D02*
X114517945Y-79258171D01*
X114517945Y-79258171D02*
X114613183Y-79305790D01*
X114613183Y-79305790D02*
X114660802Y-79353409D01*
X114660802Y-79353409D02*
X114708421Y-79448647D01*
X114708421Y-79448647D02*
X114708421Y-79686742D01*
X114708421Y-79686742D02*
X114660802Y-79781980D01*
X114660802Y-79781980D02*
X114613183Y-79829600D01*
X114613183Y-79829600D02*
X114517945Y-79877219D01*
X114517945Y-79877219D02*
X114232231Y-79877219D01*
X114232231Y-79877219D02*
X114136993Y-79829600D01*
X114136993Y-79829600D02*
X114089374Y-79781980D01*
X114994136Y-78877219D02*
X115327469Y-79877219D01*
X115327469Y-79877219D02*
X115660802Y-78877219D01*
X115898898Y-78877219D02*
X116517945Y-78877219D01*
X116517945Y-78877219D02*
X116184612Y-79258171D01*
X116184612Y-79258171D02*
X116327469Y-79258171D01*
X116327469Y-79258171D02*
X116422707Y-79305790D01*
X116422707Y-79305790D02*
X116470326Y-79353409D01*
X116470326Y-79353409D02*
X116517945Y-79448647D01*
X116517945Y-79448647D02*
X116517945Y-79686742D01*
X116517945Y-79686742D02*
X116470326Y-79781980D01*
X116470326Y-79781980D02*
X116422707Y-79829600D01*
X116422707Y-79829600D02*
X116327469Y-79877219D01*
X116327469Y-79877219D02*
X116041755Y-79877219D01*
X116041755Y-79877219D02*
X115946517Y-79829600D01*
X115946517Y-79829600D02*
X115898898Y-79781980D01*
X158389435Y-80782219D02*
X159008482Y-80782219D01*
X159008482Y-80782219D02*
X158675149Y-81163171D01*
X158675149Y-81163171D02*
X158818006Y-81163171D01*
X158818006Y-81163171D02*
X158913244Y-81210790D01*
X158913244Y-81210790D02*
X158960863Y-81258409D01*
X158960863Y-81258409D02*
X159008482Y-81353647D01*
X159008482Y-81353647D02*
X159008482Y-81591742D01*
X159008482Y-81591742D02*
X158960863Y-81686980D01*
X158960863Y-81686980D02*
X158913244Y-81734600D01*
X158913244Y-81734600D02*
X158818006Y-81782219D01*
X158818006Y-81782219D02*
X158532292Y-81782219D01*
X158532292Y-81782219D02*
X158437054Y-81734600D01*
X158437054Y-81734600D02*
X158389435Y-81686980D01*
X159294197Y-80782219D02*
X159627530Y-81782219D01*
X159627530Y-81782219D02*
X159960863Y-80782219D01*
X160198959Y-80782219D02*
X160818006Y-80782219D01*
X160818006Y-80782219D02*
X160484673Y-81163171D01*
X160484673Y-81163171D02*
X160627530Y-81163171D01*
X160627530Y-81163171D02*
X160722768Y-81210790D01*
X160722768Y-81210790D02*
X160770387Y-81258409D01*
X160770387Y-81258409D02*
X160818006Y-81353647D01*
X160818006Y-81353647D02*
X160818006Y-81591742D01*
X160818006Y-81591742D02*
X160770387Y-81686980D01*
X160770387Y-81686980D02*
X160722768Y-81734600D01*
X160722768Y-81734600D02*
X160627530Y-81782219D01*
X160627530Y-81782219D02*
X160341816Y-81782219D01*
X160341816Y-81782219D02*
X160246578Y-81734600D01*
X160246578Y-81734600D02*
X160198959Y-81686980D01*
X110946517Y-89751504D02*
X111422707Y-89751504D01*
X110851279Y-90037219D02*
X111184612Y-89037219D01*
X111184612Y-89037219D02*
X111517945Y-90037219D01*
X112375088Y-90037219D02*
X111803660Y-90037219D01*
X112089374Y-90037219D02*
X112089374Y-89037219D01*
X112089374Y-89037219D02*
X111994136Y-89180076D01*
X111994136Y-89180076D02*
X111898898Y-89275314D01*
X111898898Y-89275314D02*
X111803660Y-89322933D01*
X112803660Y-89656266D02*
X113565565Y-89656266D01*
X114041755Y-90037219D02*
X114041755Y-89037219D01*
X114041755Y-89037219D02*
X114279850Y-89037219D01*
X114279850Y-89037219D02*
X114422707Y-89084838D01*
X114422707Y-89084838D02*
X114517945Y-89180076D01*
X114517945Y-89180076D02*
X114565564Y-89275314D01*
X114565564Y-89275314D02*
X114613183Y-89465790D01*
X114613183Y-89465790D02*
X114613183Y-89608647D01*
X114613183Y-89608647D02*
X114565564Y-89799123D01*
X114565564Y-89799123D02*
X114517945Y-89894361D01*
X114517945Y-89894361D02*
X114422707Y-89989600D01*
X114422707Y-89989600D02*
X114279850Y-90037219D01*
X114279850Y-90037219D02*
X114041755Y-90037219D01*
X115565564Y-90037219D02*
X114994136Y-90037219D01*
X115279850Y-90037219D02*
X115279850Y-89037219D01*
X115279850Y-89037219D02*
X115184612Y-89180076D01*
X115184612Y-89180076D02*
X115089374Y-89275314D01*
X115089374Y-89275314D02*
X114994136Y-89322933D01*
X115946517Y-89132457D02*
X115994136Y-89084838D01*
X115994136Y-89084838D02*
X116089374Y-89037219D01*
X116089374Y-89037219D02*
X116327469Y-89037219D01*
X116327469Y-89037219D02*
X116422707Y-89084838D01*
X116422707Y-89084838D02*
X116470326Y-89132457D01*
X116470326Y-89132457D02*
X116517945Y-89227695D01*
X116517945Y-89227695D02*
X116517945Y-89322933D01*
X116517945Y-89322933D02*
X116470326Y-89465790D01*
X116470326Y-89465790D02*
X115898898Y-90037219D01*
X115898898Y-90037219D02*
X116517945Y-90037219D01*
X158484673Y-115437219D02*
X158484673Y-114437219D01*
X158484673Y-114437219D02*
X158722768Y-114437219D01*
X158722768Y-114437219D02*
X158865625Y-114484838D01*
X158865625Y-114484838D02*
X158960863Y-114580076D01*
X158960863Y-114580076D02*
X159008482Y-114675314D01*
X159008482Y-114675314D02*
X159056101Y-114865790D01*
X159056101Y-114865790D02*
X159056101Y-115008647D01*
X159056101Y-115008647D02*
X159008482Y-115199123D01*
X159008482Y-115199123D02*
X158960863Y-115294361D01*
X158960863Y-115294361D02*
X158865625Y-115389600D01*
X158865625Y-115389600D02*
X158722768Y-115437219D01*
X158722768Y-115437219D02*
X158484673Y-115437219D01*
X159675149Y-114437219D02*
X159770387Y-114437219D01*
X159770387Y-114437219D02*
X159865625Y-114484838D01*
X159865625Y-114484838D02*
X159913244Y-114532457D01*
X159913244Y-114532457D02*
X159960863Y-114627695D01*
X159960863Y-114627695D02*
X160008482Y-114818171D01*
X160008482Y-114818171D02*
X160008482Y-115056266D01*
X160008482Y-115056266D02*
X159960863Y-115246742D01*
X159960863Y-115246742D02*
X159913244Y-115341980D01*
X159913244Y-115341980D02*
X159865625Y-115389600D01*
X159865625Y-115389600D02*
X159770387Y-115437219D01*
X159770387Y-115437219D02*
X159675149Y-115437219D01*
X159675149Y-115437219D02*
X159579911Y-115389600D01*
X159579911Y-115389600D02*
X159532292Y-115341980D01*
X159532292Y-115341980D02*
X159484673Y-115246742D01*
X159484673Y-115246742D02*
X159437054Y-115056266D01*
X159437054Y-115056266D02*
X159437054Y-114818171D01*
X159437054Y-114818171D02*
X159484673Y-114627695D01*
X159484673Y-114627695D02*
X159532292Y-114532457D01*
X159532292Y-114532457D02*
X159579911Y-114484838D01*
X159579911Y-114484838D02*
X159675149Y-114437219D01*
X160437054Y-115056266D02*
X161198959Y-115056266D01*
X161627530Y-115151504D02*
X162103720Y-115151504D01*
X161532292Y-115437219D02*
X161865625Y-114437219D01*
X161865625Y-114437219D02*
X162198958Y-115437219D01*
X162437054Y-114437219D02*
X163056101Y-114437219D01*
X163056101Y-114437219D02*
X162722768Y-114818171D01*
X162722768Y-114818171D02*
X162865625Y-114818171D01*
X162865625Y-114818171D02*
X162960863Y-114865790D01*
X162960863Y-114865790D02*
X163008482Y-114913409D01*
X163008482Y-114913409D02*
X163056101Y-115008647D01*
X163056101Y-115008647D02*
X163056101Y-115246742D01*
X163056101Y-115246742D02*
X163008482Y-115341980D01*
X163008482Y-115341980D02*
X162960863Y-115389600D01*
X162960863Y-115389600D02*
X162865625Y-115437219D01*
X162865625Y-115437219D02*
X162579911Y-115437219D01*
X162579911Y-115437219D02*
X162484673Y-115389600D01*
X162484673Y-115389600D02*
X162437054Y-115341980D01*
D12*
X142541666Y-127724819D02*
X142541666Y-128439104D01*
X142541666Y-128439104D02*
X142494047Y-128581961D01*
X142494047Y-128581961D02*
X142398809Y-128677200D01*
X142398809Y-128677200D02*
X142255952Y-128724819D01*
X142255952Y-128724819D02*
X142160714Y-128724819D01*
X142922619Y-127724819D02*
X143589285Y-127724819D01*
X143589285Y-127724819D02*
X143160714Y-128724819D01*
X124959819Y-96389101D02*
X125674104Y-96389101D01*
X125674104Y-96389101D02*
X125816961Y-96436720D01*
X125816961Y-96436720D02*
X125912200Y-96531958D01*
X125912200Y-96531958D02*
X125959819Y-96674815D01*
X125959819Y-96674815D02*
X125959819Y-96770053D01*
X125293152Y-95484339D02*
X125959819Y-95484339D01*
X124912200Y-95722434D02*
X125626485Y-95960529D01*
X125626485Y-95960529D02*
X125626485Y-95341482D01*
X149949819Y-129238333D02*
X150664104Y-129238333D01*
X150664104Y-129238333D02*
X150806961Y-129285952D01*
X150806961Y-129285952D02*
X150902200Y-129381190D01*
X150902200Y-129381190D02*
X150949819Y-129524047D01*
X150949819Y-129524047D02*
X150949819Y-129619285D01*
X149949819Y-128285952D02*
X149949819Y-128762142D01*
X149949819Y-128762142D02*
X150426009Y-128809761D01*
X150426009Y-128809761D02*
X150378390Y-128762142D01*
X150378390Y-128762142D02*
X150330771Y-128666904D01*
X150330771Y-128666904D02*
X150330771Y-128428809D01*
X150330771Y-128428809D02*
X150378390Y-128333571D01*
X150378390Y-128333571D02*
X150426009Y-128285952D01*
X150426009Y-128285952D02*
X150521247Y-128238333D01*
X150521247Y-128238333D02*
X150759342Y-128238333D01*
X150759342Y-128238333D02*
X150854580Y-128285952D01*
X150854580Y-128285952D02*
X150902200Y-128333571D01*
X150902200Y-128333571D02*
X150949819Y-128428809D01*
X150949819Y-128428809D02*
X150949819Y-128666904D01*
X150949819Y-128666904D02*
X150902200Y-128762142D01*
X150902200Y-128762142D02*
X150854580Y-128809761D01*
X114808095Y-131644819D02*
X114808095Y-130644819D01*
X114808095Y-131121009D02*
X115379523Y-131121009D01*
X115379523Y-131644819D02*
X115379523Y-130644819D01*
X115760476Y-130644819D02*
X116379523Y-130644819D01*
X116379523Y-130644819D02*
X116046190Y-131025771D01*
X116046190Y-131025771D02*
X116189047Y-131025771D01*
X116189047Y-131025771D02*
X116284285Y-131073390D01*
X116284285Y-131073390D02*
X116331904Y-131121009D01*
X116331904Y-131121009D02*
X116379523Y-131216247D01*
X116379523Y-131216247D02*
X116379523Y-131454342D01*
X116379523Y-131454342D02*
X116331904Y-131549580D01*
X116331904Y-131549580D02*
X116284285Y-131597200D01*
X116284285Y-131597200D02*
X116189047Y-131644819D01*
X116189047Y-131644819D02*
X115903333Y-131644819D01*
X115903333Y-131644819D02*
X115808095Y-131597200D01*
X115808095Y-131597200D02*
X115760476Y-131549580D01*
X151854819Y-115268333D02*
X152569104Y-115268333D01*
X152569104Y-115268333D02*
X152711961Y-115315952D01*
X152711961Y-115315952D02*
X152807200Y-115411190D01*
X152807200Y-115411190D02*
X152854819Y-115554047D01*
X152854819Y-115554047D02*
X152854819Y-115649285D01*
X151854819Y-114887380D02*
X151854819Y-114268333D01*
X151854819Y-114268333D02*
X152235771Y-114601666D01*
X152235771Y-114601666D02*
X152235771Y-114458809D01*
X152235771Y-114458809D02*
X152283390Y-114363571D01*
X152283390Y-114363571D02*
X152331009Y-114315952D01*
X152331009Y-114315952D02*
X152426247Y-114268333D01*
X152426247Y-114268333D02*
X152664342Y-114268333D01*
X152664342Y-114268333D02*
X152759580Y-114315952D01*
X152759580Y-114315952D02*
X152807200Y-114363571D01*
X152807200Y-114363571D02*
X152854819Y-114458809D01*
X152854819Y-114458809D02*
X152854819Y-114744523D01*
X152854819Y-114744523D02*
X152807200Y-114839761D01*
X152807200Y-114839761D02*
X152759580Y-114887380D01*
X132381666Y-126929819D02*
X132381666Y-127644104D01*
X132381666Y-127644104D02*
X132334047Y-127786961D01*
X132334047Y-127786961D02*
X132238809Y-127882200D01*
X132238809Y-127882200D02*
X132095952Y-127929819D01*
X132095952Y-127929819D02*
X132000714Y-127929819D01*
X132810238Y-127025057D02*
X132857857Y-126977438D01*
X132857857Y-126977438D02*
X132953095Y-126929819D01*
X132953095Y-126929819D02*
X133191190Y-126929819D01*
X133191190Y-126929819D02*
X133286428Y-126977438D01*
X133286428Y-126977438D02*
X133334047Y-127025057D01*
X133334047Y-127025057D02*
X133381666Y-127120295D01*
X133381666Y-127120295D02*
X133381666Y-127215533D01*
X133381666Y-127215533D02*
X133334047Y-127358390D01*
X133334047Y-127358390D02*
X132762619Y-127929819D01*
X132762619Y-127929819D02*
X133381666Y-127929819D01*
X124549819Y-129238333D02*
X125264104Y-129238333D01*
X125264104Y-129238333D02*
X125406961Y-129285952D01*
X125406961Y-129285952D02*
X125502200Y-129381190D01*
X125502200Y-129381190D02*
X125549819Y-129524047D01*
X125549819Y-129524047D02*
X125549819Y-129619285D01*
X124549819Y-128333571D02*
X124549819Y-128524047D01*
X124549819Y-128524047D02*
X124597438Y-128619285D01*
X124597438Y-128619285D02*
X124645057Y-128666904D01*
X124645057Y-128666904D02*
X124787914Y-128762142D01*
X124787914Y-128762142D02*
X124978390Y-128809761D01*
X124978390Y-128809761D02*
X125359342Y-128809761D01*
X125359342Y-128809761D02*
X125454580Y-128762142D01*
X125454580Y-128762142D02*
X125502200Y-128714523D01*
X125502200Y-128714523D02*
X125549819Y-128619285D01*
X125549819Y-128619285D02*
X125549819Y-128428809D01*
X125549819Y-128428809D02*
X125502200Y-128333571D01*
X125502200Y-128333571D02*
X125454580Y-128285952D01*
X125454580Y-128285952D02*
X125359342Y-128238333D01*
X125359342Y-128238333D02*
X125121247Y-128238333D01*
X125121247Y-128238333D02*
X125026009Y-128285952D01*
X125026009Y-128285952D02*
X124978390Y-128333571D01*
X124978390Y-128333571D02*
X124930771Y-128428809D01*
X124930771Y-128428809D02*
X124930771Y-128619285D01*
X124930771Y-128619285D02*
X124978390Y-128714523D01*
X124978390Y-128714523D02*
X125026009Y-128762142D01*
X125026009Y-128762142D02*
X125121247Y-128809761D01*
X159258095Y-61794819D02*
X159258095Y-60794819D01*
X159258095Y-61271009D02*
X159829523Y-61271009D01*
X159829523Y-61794819D02*
X159829523Y-60794819D01*
X160258095Y-60890057D02*
X160305714Y-60842438D01*
X160305714Y-60842438D02*
X160400952Y-60794819D01*
X160400952Y-60794819D02*
X160639047Y-60794819D01*
X160639047Y-60794819D02*
X160734285Y-60842438D01*
X160734285Y-60842438D02*
X160781904Y-60890057D01*
X160781904Y-60890057D02*
X160829523Y-60985295D01*
X160829523Y-60985295D02*
X160829523Y-61080533D01*
X160829523Y-61080533D02*
X160781904Y-61223390D01*
X160781904Y-61223390D02*
X160210476Y-61794819D01*
X160210476Y-61794819D02*
X160829523Y-61794819D01*
X114808095Y-61794819D02*
X114808095Y-60794819D01*
X114808095Y-61271009D02*
X115379523Y-61271009D01*
X115379523Y-61794819D02*
X115379523Y-60794819D01*
X116379523Y-61794819D02*
X115808095Y-61794819D01*
X116093809Y-61794819D02*
X116093809Y-60794819D01*
X116093809Y-60794819D02*
X115998571Y-60937676D01*
X115998571Y-60937676D02*
X115903333Y-61032914D01*
X115903333Y-61032914D02*
X115808095Y-61080533D01*
D11*
X151852219Y-77803333D02*
X152566504Y-77803333D01*
X152566504Y-77803333D02*
X152709361Y-77850952D01*
X152709361Y-77850952D02*
X152804600Y-77946190D01*
X152804600Y-77946190D02*
X152852219Y-78089047D01*
X152852219Y-78089047D02*
X152852219Y-78184285D01*
X152852219Y-76803333D02*
X152852219Y-77374761D01*
X152852219Y-77089047D02*
X151852219Y-77089047D01*
X151852219Y-77089047D02*
X151995076Y-77184285D01*
X151995076Y-77184285D02*
X152090314Y-77279523D01*
X152090314Y-77279523D02*
X152137933Y-77374761D01*
D12*
X159258095Y-131644819D02*
X159258095Y-130644819D01*
X159258095Y-131121009D02*
X159829523Y-131121009D01*
X159829523Y-131644819D02*
X159829523Y-130644819D01*
X160734285Y-130978152D02*
X160734285Y-131644819D01*
X160496190Y-130597200D02*
X160258095Y-131311485D01*
X160258095Y-131311485D02*
X160877142Y-131311485D01*
X128298214Y-119089104D02*
X128774404Y-119089104D01*
X128202976Y-119374819D02*
X128536309Y-118374819D01*
X128536309Y-118374819D02*
X128869642Y-119374819D01*
X129726785Y-119374819D02*
X129155357Y-119374819D01*
X129441071Y-119374819D02*
X129441071Y-118374819D01*
X129441071Y-118374819D02*
X129345833Y-118517676D01*
X129345833Y-118517676D02*
X129250595Y-118612914D01*
X129250595Y-118612914D02*
X129155357Y-118660533D01*
D13*
%TO.C,J7*%
X138535000Y-132835000D02*
X138535000Y-133575000D01*
X138535000Y-133575000D02*
X139035000Y-133575000D01*
X138775000Y-127015000D02*
X138775000Y-133335000D01*
X138775000Y-127015000D02*
X146975000Y-127015000D01*
X138775000Y-127475000D02*
X146975000Y-127475000D01*
X138775000Y-132775000D02*
X139545000Y-132775000D01*
X138775000Y-133335000D02*
X139545000Y-133335000D01*
X141125000Y-132775000D02*
X142085000Y-132775000D01*
X141125000Y-133335000D02*
X142085000Y-133335000D01*
X143665000Y-132775000D02*
X144625000Y-132775000D01*
X143665000Y-133335000D02*
X144625000Y-133335000D01*
X146205000Y-132775000D02*
X146975000Y-132775000D01*
X146205000Y-133335000D02*
X146975000Y-133335000D01*
X146975000Y-127015000D02*
X146975000Y-133335000D01*
%TO.C,J4*%
X117525000Y-75125768D02*
X117525000Y-75925768D01*
X117765000Y-75365768D02*
X117765000Y-116745768D01*
X118565000Y-75125768D02*
X117525000Y-75125768D01*
X118685000Y-75365768D02*
X118685000Y-116745768D01*
X119685000Y-75365768D02*
X119685000Y-116745768D01*
X122786000Y-75365768D02*
X122786000Y-116745768D01*
X124505000Y-75365768D02*
X117765000Y-75365768D01*
X124505000Y-75365768D02*
X124505000Y-116745768D01*
X124505000Y-116745768D02*
X117765000Y-116745768D01*
%TO.C,J5*%
X155800000Y-135785000D02*
X155800000Y-135285000D01*
X155560000Y-135545000D02*
X155560000Y-122265000D01*
X155060000Y-135785000D02*
X155800000Y-135785000D01*
X155000000Y-135545000D02*
X155000000Y-122265000D01*
X149700000Y-135545000D02*
X149700000Y-122265000D01*
X149240000Y-135545000D02*
X155560000Y-135545000D01*
X149240000Y-135545000D02*
X149240000Y-122265000D01*
X149240000Y-122265000D02*
X155560000Y-122265000D01*
%TO.C,J3*%
X151145000Y-85571162D02*
X157465000Y-85571162D01*
X151145000Y-116632162D02*
X151145000Y-85571162D01*
X151145000Y-116632162D02*
X157465000Y-116632162D01*
X151605000Y-116632162D02*
X151605000Y-85571162D01*
X156905000Y-116632162D02*
X156905000Y-85571162D01*
X156965000Y-116872162D02*
X157705000Y-116872162D01*
X157465000Y-116632162D02*
X157465000Y-85571162D01*
X157705000Y-116872162D02*
X157705000Y-116372162D01*
%TO.C,J2*%
X136815000Y-127015000D02*
X136815000Y-133335000D01*
X136045000Y-133335000D02*
X136815000Y-133335000D01*
X136045000Y-132775000D02*
X136815000Y-132775000D01*
X133505000Y-133335000D02*
X134465000Y-133335000D01*
X133505000Y-132775000D02*
X134465000Y-132775000D01*
X130965000Y-133335000D02*
X131925000Y-133335000D01*
X130965000Y-132775000D02*
X131925000Y-132775000D01*
X128615000Y-133335000D02*
X129385000Y-133335000D01*
X128615000Y-132775000D02*
X129385000Y-132775000D01*
X128615000Y-127475000D02*
X136815000Y-127475000D01*
X128615000Y-127015000D02*
X136815000Y-127015000D01*
X128615000Y-127015000D02*
X128615000Y-133335000D01*
X128375000Y-133575000D02*
X128875000Y-133575000D01*
X128375000Y-132835000D02*
X128375000Y-133575000D01*
%TO.C,J6*%
X119790000Y-122025000D02*
X119790000Y-122525000D01*
X120030000Y-122265000D02*
X120030000Y-135545000D01*
X120530000Y-122025000D02*
X119790000Y-122025000D01*
X120590000Y-122265000D02*
X120590000Y-135545000D01*
X125890000Y-122265000D02*
X125890000Y-135545000D01*
X126350000Y-122265000D02*
X120030000Y-122265000D01*
X126350000Y-122265000D02*
X126350000Y-135545000D01*
X126350000Y-135545000D02*
X120030000Y-135545000D01*
%TO.C,J1*%
X151145000Y-72100000D02*
X157465000Y-72100000D01*
X151145000Y-82840000D02*
X151145000Y-72100000D01*
X151145000Y-82840000D02*
X157465000Y-82840000D01*
X151605000Y-82840000D02*
X151605000Y-72100000D01*
X156905000Y-82840000D02*
X156905000Y-72100000D01*
X156965000Y-83080000D02*
X157705000Y-83080000D01*
X157465000Y-82840000D02*
X157465000Y-72100000D01*
X157705000Y-83080000D02*
X157705000Y-82580000D01*
%TO.C,A1*%
X149442500Y-118920000D02*
G75*
G02*
X146792500Y-121570000I-2650000J0D01*
G01*
X146792500Y-70550000D02*
G75*
G02*
X149442500Y-73200000I0J-2650000D01*
G01*
X129012500Y-121570000D02*
G75*
G02*
X126362500Y-118920000I0J2650000D01*
G01*
X126362500Y-73200000D02*
G75*
G02*
X129012500Y-70550000I2650000J0D01*
G01*
X149442500Y-73200000D02*
X149442500Y-118920000D01*
X146792500Y-121570000D02*
X129012500Y-121570000D01*
X146792500Y-70550000D02*
X129012500Y-70550000D01*
X126362500Y-73200000D02*
X126362500Y-118920000D01*
X126042500Y-78010000D02*
X126042500Y-76010000D01*
%TD*%
M02*
