%TF.GenerationSoftware,KiCad,Pcbnew,8.0.2*%
%TF.CreationDate,2024-07-30T13:24:05-06:00*%
%TF.ProjectId,PhotonBreakout,50686f74-6f6e-4427-9265-616b6f75742e,rev?*%
%TF.SameCoordinates,Original*%
%TF.FileFunction,Soldermask,Bot*%
%TF.FilePolarity,Negative*%
%FSLAX46Y46*%
G04 Gerber Fmt 4.6, Leading zero omitted, Abs format (unit mm)*
G04 Created by KiCad (PCBNEW 8.0.2) date 2024-07-30 13:24:05*
%MOMM*%
%LPD*%
G01*
G04 APERTURE LIST*
%ADD10C,1.100000*%
%ADD11R,2.200000X2.200000*%
%ADD12C,2.200000*%
%ADD13R,2.000000X2.000000*%
%ADD14C,2.000000*%
%ADD15C,0.800000*%
%ADD16C,7.400000*%
%ADD17C,1.600000*%
%ADD18R,1.600000X1.600000*%
G04 APERTURE END LIST*
D10*
%TO.C,J7*%
X140335000Y-132715000D03*
X142875000Y-132715000D03*
X145415000Y-132715000D03*
D11*
X140335000Y-130175000D03*
D12*
X142875000Y-130175000D03*
X145415000Y-130175000D03*
%TD*%
D13*
%TO.C,J4*%
X121285000Y-77005768D03*
D14*
X121285000Y-79545768D03*
X121285000Y-82085768D03*
X121285000Y-84625768D03*
X121285000Y-87165768D03*
X121285000Y-89705768D03*
X121285000Y-92245768D03*
X121285000Y-94785768D03*
X121285000Y-97325768D03*
X121285000Y-99865768D03*
X121285000Y-102405768D03*
X121285000Y-104945768D03*
X121285000Y-107485768D03*
X121285000Y-110025768D03*
X121285000Y-112565768D03*
X121285000Y-115105768D03*
%TD*%
D12*
%TO.C,J5*%
X152400000Y-123825000D03*
X152400000Y-126365000D03*
X152400000Y-128905000D03*
X152400000Y-131445000D03*
D11*
X152400000Y-133985000D03*
%TD*%
D15*
%TO.C,H3*%
X112795000Y-135890000D03*
X113607779Y-133927779D03*
X113607779Y-137852221D03*
X115570000Y-133115000D03*
D16*
X115570000Y-135890000D03*
D15*
X115570000Y-138665000D03*
X117532221Y-133927779D03*
X117532221Y-137852221D03*
X118345000Y-135890000D03*
%TD*%
D11*
%TO.C,J3*%
X154305000Y-115072162D03*
D12*
X154305000Y-112532162D03*
X154305000Y-109992162D03*
X154305000Y-107452162D03*
X154305000Y-104912162D03*
X154305000Y-102372162D03*
X154305000Y-99832162D03*
X154305000Y-97292162D03*
X154305000Y-94752162D03*
X154305000Y-92212162D03*
X154305000Y-89672162D03*
X154305000Y-87132162D03*
%TD*%
%TO.C,J2*%
X135255000Y-130175000D03*
X132715000Y-130175000D03*
D11*
X130175000Y-130175000D03*
D10*
X135255000Y-132715000D03*
X132715000Y-132715000D03*
X130175000Y-132715000D03*
%TD*%
D11*
%TO.C,J6*%
X123190000Y-123825000D03*
D12*
X123190000Y-126365000D03*
X123190000Y-128905000D03*
X123190000Y-131445000D03*
X123190000Y-133985000D03*
%TD*%
D15*
%TO.C,H2*%
X157245000Y-66040000D03*
X158057779Y-64077779D03*
X158057779Y-68002221D03*
X160020000Y-63265000D03*
D16*
X160020000Y-66040000D03*
D15*
X160020000Y-68815000D03*
X161982221Y-64077779D03*
X161982221Y-68002221D03*
X162795000Y-66040000D03*
%TD*%
%TO.C,H1*%
X112795000Y-66040000D03*
X113607779Y-64077779D03*
X113607779Y-68002221D03*
X115570000Y-63265000D03*
D16*
X115570000Y-66040000D03*
D15*
X115570000Y-68815000D03*
X117532221Y-64077779D03*
X117532221Y-68002221D03*
X118345000Y-66040000D03*
%TD*%
D11*
%TO.C,J1*%
X154305000Y-81280000D03*
D12*
X154305000Y-78740000D03*
X154305000Y-76200000D03*
X154305000Y-73660000D03*
%TD*%
D15*
%TO.C,H4*%
X157245000Y-135890000D03*
X158057779Y-133927779D03*
X158057779Y-137852221D03*
X160020000Y-133115000D03*
D16*
X160020000Y-135890000D03*
D15*
X160020000Y-138665000D03*
X161982221Y-133927779D03*
X161982221Y-137852221D03*
X162795000Y-135890000D03*
%TD*%
D17*
%TO.C,A1*%
X148062500Y-87170000D03*
X148062500Y-89710000D03*
X148062500Y-92250000D03*
X148062500Y-94790000D03*
X148062500Y-97330000D03*
X148062500Y-99870000D03*
X148062500Y-102410000D03*
X148062500Y-104950000D03*
X148062500Y-107490000D03*
X148062500Y-110030000D03*
X148062500Y-112570000D03*
X148062500Y-115110000D03*
X127742500Y-115110000D03*
X127742500Y-112570000D03*
X127742500Y-110030000D03*
X127742500Y-107490000D03*
X127742500Y-104950000D03*
X127742500Y-102410000D03*
X127742500Y-99870000D03*
X127742500Y-97330000D03*
X127742500Y-94790000D03*
X127742500Y-92250000D03*
X127742500Y-89710000D03*
X127742500Y-87170000D03*
X127742500Y-84630000D03*
X127742500Y-82090000D03*
X127742500Y-79550000D03*
D18*
X127742500Y-77010000D03*
%TD*%
M02*
