%TF.GenerationSoftware,KiCad,Pcbnew,8.0.2*%
%TF.CreationDate,2024-07-30T13:24:05-06:00*%
%TF.ProjectId,PhotonBreakout,50686f74-6f6e-4427-9265-616b6f75742e,rev?*%
%TF.SameCoordinates,Original*%
%TF.FileFunction,Copper,L1,Top*%
%TF.FilePolarity,Positive*%
%FSLAX46Y46*%
G04 Gerber Fmt 4.6, Leading zero omitted, Abs format (unit mm)*
G04 Created by KiCad (PCBNEW 8.0.2) date 2024-07-30 13:24:05*
%MOMM*%
%LPD*%
G01*
G04 APERTURE LIST*
%TA.AperFunction,ComponentPad*%
%ADD10R,2.200000X2.200000*%
%TD*%
%TA.AperFunction,ComponentPad*%
%ADD11C,2.200000*%
%TD*%
%TA.AperFunction,ComponentPad*%
%ADD12R,2.000000X2.000000*%
%TD*%
%TA.AperFunction,ComponentPad*%
%ADD13C,2.000000*%
%TD*%
%TA.AperFunction,ComponentPad*%
%ADD14C,0.800000*%
%TD*%
%TA.AperFunction,ComponentPad*%
%ADD15C,7.400000*%
%TD*%
%TA.AperFunction,ComponentPad*%
%ADD16C,1.600000*%
%TD*%
%TA.AperFunction,ComponentPad*%
%ADD17R,1.600000X1.600000*%
%TD*%
%TA.AperFunction,Conductor*%
%ADD18C,0.200000*%
%TD*%
%TA.AperFunction,Conductor*%
%ADD19C,1.000000*%
%TD*%
G04 APERTURE END LIST*
D10*
%TO.P,J7,1,Pin_1*%
%TO.N,+5V*%
X140335000Y-130175000D03*
D11*
%TO.P,J7,2,Pin_2*%
X142875000Y-130175000D03*
%TO.P,J7,3,Pin_3*%
X145415000Y-130175000D03*
%TD*%
D12*
%TO.P,J4,1,Pin_1*%
%TO.N,Net-(A1-~{RESET})*%
X121285000Y-77005768D03*
D13*
%TO.P,J4,2,Pin_2*%
%TO.N,+3V3*%
X121285000Y-79545768D03*
%TO.P,J4,3,Pin_3*%
%TO.N,Net-(A1-MODE)*%
X121285000Y-82085768D03*
%TO.P,J4,4,Pin_4*%
%TO.N,GND*%
X121285000Y-84625768D03*
%TO.P,J4,5,Pin_5*%
%TO.N,Net-(A1-A0)*%
X121285000Y-87165768D03*
%TO.P,J4,6,Pin_6*%
%TO.N,Net-(A1-A1)*%
X121285000Y-89705768D03*
%TO.P,J4,7,Pin_7*%
%TO.N,Net-(A1-A2)*%
X121285000Y-92245768D03*
%TO.P,J4,8,Pin_8*%
%TO.N,Net-(A1-A5)*%
X121285000Y-94785768D03*
%TO.P,J4,9,Pin_9*%
%TO.N,Net-(A1-D19_S4)*%
X121285000Y-97325768D03*
%TO.P,J4,10,Pin_10*%
%TO.N,Net-(A1-D18_S3)*%
X121285000Y-99865768D03*
%TO.P,J4,11,Pin_11*%
%TO.N,Net-(A1-SCK)*%
X121285000Y-102405768D03*
%TO.P,J4,12,Pin_12*%
%TO.N,Net-(A1-MOSI)*%
X121285000Y-104945768D03*
%TO.P,J4,13,Pin_13*%
%TO.N,Net-(A1-MISO)*%
X121285000Y-107485768D03*
%TO.P,J4,14,Pin_14*%
%TO.N,Net-(A1-RX)*%
X121285000Y-110025768D03*
%TO.P,J4,15,Pin_15*%
%TO.N,Net-(A1-TX)*%
X121285000Y-112565768D03*
%TO.P,J4,16,Pin_16*%
%TO.N,Net-(A1-NC)*%
X121285000Y-115105768D03*
%TD*%
D11*
%TO.P,J5,5,Pin_5*%
%TO.N,+3V3*%
X152400000Y-123825000D03*
%TO.P,J5,4,Pin_4*%
X152400000Y-126365000D03*
%TO.P,J5,3,Pin_3*%
X152400000Y-128905000D03*
%TO.P,J5,2,Pin_2*%
X152400000Y-131445000D03*
D10*
%TO.P,J5,1,Pin_1*%
X152400000Y-133985000D03*
%TD*%
D14*
%TO.P,H3,1,1*%
%TO.N,GND*%
X112795000Y-135890000D03*
X113607779Y-133927779D03*
X113607779Y-137852221D03*
X115570000Y-133115000D03*
D15*
X115570000Y-135890000D03*
D14*
X115570000Y-138665000D03*
X117532221Y-133927779D03*
X117532221Y-137852221D03*
X118345000Y-135890000D03*
%TD*%
D10*
%TO.P,J3,1,Pin_1*%
%TO.N,Net-(A1-SDA_A3)*%
X154305000Y-115072162D03*
D11*
%TO.P,J3,2,Pin_2*%
%TO.N,Net-(A1-SCL_A4)*%
X154305000Y-112532162D03*
%TO.P,J3,3,Pin_3*%
%TO.N,Net-(A1-D2)*%
X154305000Y-109992162D03*
%TO.P,J3,4,Pin_4*%
%TO.N,Net-(A1-D3)*%
X154305000Y-107452162D03*
%TO.P,J3,5,Pin_5*%
%TO.N,Net-(A1-D4)*%
X154305000Y-104912162D03*
%TO.P,J3,6,Pin_6*%
%TO.N,Net-(A1-D5)*%
X154305000Y-102372162D03*
%TO.P,J3,7,Pin_7*%
%TO.N,Net-(A1-D6)*%
X154305000Y-99832162D03*
%TO.P,J3,8,Pin_8*%
%TO.N,Net-(A1-D7)*%
X154305000Y-97292162D03*
%TO.P,J3,9,Pin_9*%
%TO.N,Net-(A1-D10)*%
X154305000Y-94752162D03*
%TO.P,J3,10,Pin_10*%
%TO.N,+5V*%
X154305000Y-92212162D03*
%TO.P,J3,11,Pin_11*%
%TO.N,Net-(A1-EN)*%
X154305000Y-89672162D03*
%TO.P,J3,12,Pin_12*%
%TO.N,+BATT*%
X154305000Y-87132162D03*
%TD*%
%TO.P,J2,3,Pin_3*%
%TO.N,+5V*%
X135255000Y-130175000D03*
%TO.P,J2,2,Pin_2*%
%TO.N,Net-(A1-D2)*%
X132715000Y-130175000D03*
D10*
%TO.P,J2,1,Pin_1*%
%TO.N,GND*%
X130175000Y-130175000D03*
%TD*%
%TO.P,J6,1,Pin_1*%
%TO.N,GND*%
X123190000Y-123825000D03*
D11*
%TO.P,J6,2,Pin_2*%
X123190000Y-126365000D03*
%TO.P,J6,3,Pin_3*%
X123190000Y-128905000D03*
%TO.P,J6,4,Pin_4*%
X123190000Y-131445000D03*
%TO.P,J6,5,Pin_5*%
X123190000Y-133985000D03*
%TD*%
D14*
%TO.P,H2,1,1*%
%TO.N,GND*%
X157245000Y-66040000D03*
X158057779Y-64077779D03*
X158057779Y-68002221D03*
X160020000Y-63265000D03*
D15*
X160020000Y-66040000D03*
D14*
X160020000Y-68815000D03*
X161982221Y-64077779D03*
X161982221Y-68002221D03*
X162795000Y-66040000D03*
%TD*%
%TO.P,H1,1,1*%
%TO.N,GND*%
X112795000Y-66040000D03*
X113607779Y-64077779D03*
X113607779Y-68002221D03*
X115570000Y-63265000D03*
D15*
X115570000Y-66040000D03*
D14*
X115570000Y-68815000D03*
X117532221Y-64077779D03*
X117532221Y-68002221D03*
X118345000Y-66040000D03*
%TD*%
D10*
%TO.P,J1,1,Pin_1*%
%TO.N,+3V3*%
X154305000Y-81280000D03*
D11*
%TO.P,J1,2,Pin_2*%
%TO.N,Net-(A1-SCL_A4)*%
X154305000Y-78740000D03*
%TO.P,J1,3,Pin_3*%
%TO.N,Net-(A1-SDA_A3)*%
X154305000Y-76200000D03*
%TO.P,J1,4,Pin_4*%
%TO.N,GND*%
X154305000Y-73660000D03*
%TD*%
D14*
%TO.P,H4,1,1*%
%TO.N,GND*%
X157245000Y-135890000D03*
X158057779Y-133927779D03*
X158057779Y-137852221D03*
X160020000Y-133115000D03*
D15*
X160020000Y-135890000D03*
D14*
X160020000Y-138665000D03*
X161982221Y-133927779D03*
X161982221Y-137852221D03*
X162795000Y-135890000D03*
%TD*%
D16*
%TO.P,A1,28,VBAT*%
%TO.N,+BATT*%
X148062500Y-87170000D03*
%TO.P,A1,27,EN*%
%TO.N,Net-(A1-EN)*%
X148062500Y-89710000D03*
%TO.P,A1,26,USB*%
%TO.N,+5V*%
X148062500Y-92250000D03*
%TO.P,A1,25,D10*%
%TO.N,Net-(A1-D10)*%
X148062500Y-94790000D03*
%TO.P,A1,24,D7*%
%TO.N,Net-(A1-D7)*%
X148062500Y-97330000D03*
%TO.P,A1,23,D6*%
%TO.N,Net-(A1-D6)*%
X148062500Y-99870000D03*
%TO.P,A1,22,D5*%
%TO.N,Net-(A1-D5)*%
X148062500Y-102410000D03*
%TO.P,A1,21,D4*%
%TO.N,Net-(A1-D4)*%
X148062500Y-104950000D03*
%TO.P,A1,20,D3*%
%TO.N,Net-(A1-D3)*%
X148062500Y-107490000D03*
%TO.P,A1,19,D2*%
%TO.N,Net-(A1-D2)*%
X148062500Y-110030000D03*
%TO.P,A1,18,SCL_A4*%
%TO.N,Net-(A1-SCL_A4)*%
X148062500Y-112570000D03*
%TO.P,A1,17,SDA_A3*%
%TO.N,Net-(A1-SDA_A3)*%
X148062500Y-115110000D03*
%TO.P,A1,16,NC*%
%TO.N,Net-(A1-NC)*%
X127742500Y-115110000D03*
%TO.P,A1,15,TX*%
%TO.N,Net-(A1-TX)*%
X127742500Y-112570000D03*
%TO.P,A1,14,RX*%
%TO.N,Net-(A1-RX)*%
X127742500Y-110030000D03*
%TO.P,A1,13,MISO*%
%TO.N,Net-(A1-MISO)*%
X127742500Y-107490000D03*
%TO.P,A1,12,MOSI*%
%TO.N,Net-(A1-MOSI)*%
X127742500Y-104950000D03*
%TO.P,A1,11,SCK*%
%TO.N,Net-(A1-SCK)*%
X127742500Y-102410000D03*
%TO.P,A1,10,D18_S3*%
%TO.N,Net-(A1-D18_S3)*%
X127742500Y-99870000D03*
%TO.P,A1,9,D19_S4*%
%TO.N,Net-(A1-D19_S4)*%
X127742500Y-97330000D03*
%TO.P,A1,8,A5*%
%TO.N,Net-(A1-A5)*%
X127742500Y-94790000D03*
%TO.P,A1,7,A2*%
%TO.N,Net-(A1-A2)*%
X127742500Y-92250000D03*
%TO.P,A1,6,A1*%
%TO.N,Net-(A1-A1)*%
X127742500Y-89710000D03*
%TO.P,A1,5,A0*%
%TO.N,Net-(A1-A0)*%
X127742500Y-87170000D03*
%TO.P,A1,4,GND*%
%TO.N,GND*%
X127742500Y-84630000D03*
%TO.P,A1,3,MODE*%
%TO.N,Net-(A1-MODE)*%
X127742500Y-82090000D03*
%TO.P,A1,2,3V3*%
%TO.N,+3V3*%
X127742500Y-79550000D03*
D17*
%TO.P,A1,1,~{RESET}*%
%TO.N,Net-(A1-~{RESET})*%
X127742500Y-77010000D03*
%TD*%
D18*
%TO.N,+BATT*%
X148100338Y-87132162D02*
X148062500Y-87170000D01*
D19*
X154305000Y-87132162D02*
X148100338Y-87132162D01*
%TO.N,+3V3*%
X129472500Y-81280000D02*
X127742500Y-79550000D01*
X154305000Y-81280000D02*
X129472500Y-81280000D01*
%TO.N,+5V*%
X142875000Y-130175000D02*
X140335000Y-130175000D01*
X145415000Y-130175000D02*
X142875000Y-130175000D01*
D18*
%TO.N,Net-(A1-SDA_A3)*%
X156845000Y-112532162D02*
X154305000Y-115072162D01*
X156845000Y-78740000D02*
X156845000Y-112532162D01*
X154305000Y-76200000D02*
X156845000Y-78740000D01*
%TO.N,Net-(A1-SCL_A4)*%
X156210000Y-110627162D02*
X154305000Y-112532162D01*
X156210000Y-80385000D02*
X156210000Y-110627162D01*
X154565000Y-78740000D02*
X156210000Y-80385000D01*
X154305000Y-78740000D02*
X154565000Y-78740000D01*
D19*
%TO.N,+5V*%
X140335000Y-130175000D02*
X135255000Y-130175000D01*
X145415000Y-94615000D02*
X145415000Y-130175000D01*
D18*
X148062500Y-92250000D02*
X147780000Y-92250000D01*
D19*
X147780000Y-92250000D02*
X145415000Y-94615000D01*
D18*
%TO.N,Net-(A1-EN)*%
X154267162Y-89710000D02*
X154305000Y-89672162D01*
X148062500Y-89710000D02*
X154267162Y-89710000D01*
%TO.N,+5V*%
X154267162Y-92250000D02*
X154305000Y-92212162D01*
D19*
X148062500Y-92250000D02*
X154267162Y-92250000D01*
D18*
%TO.N,Net-(A1-D10)*%
X148100338Y-94752162D02*
X148062500Y-94790000D01*
X154305000Y-94752162D02*
X148100338Y-94752162D01*
%TO.N,Net-(A1-D7)*%
X154267162Y-97330000D02*
X154305000Y-97292162D01*
X148062500Y-97330000D02*
X154267162Y-97330000D01*
%TO.N,Net-(A1-D6)*%
X154267162Y-99870000D02*
X154305000Y-99832162D01*
X148062500Y-99870000D02*
X154267162Y-99870000D01*
%TO.N,Net-(A1-D5)*%
X154267162Y-102410000D02*
X154305000Y-102372162D01*
X148062500Y-102410000D02*
X154267162Y-102410000D01*
%TO.N,Net-(A1-D4)*%
X148062500Y-104950000D02*
X154267162Y-104950000D01*
X154267162Y-104950000D02*
X154305000Y-104912162D01*
%TO.N,Net-(A1-D3)*%
X154267162Y-107490000D02*
X154305000Y-107452162D01*
X148062500Y-107490000D02*
X154267162Y-107490000D01*
%TO.N,Net-(A1-D2)*%
X148062500Y-110030000D02*
X154267162Y-110030000D01*
X154267162Y-110030000D02*
X154305000Y-109992162D01*
%TO.N,Net-(A1-SCL_A4)*%
X148062500Y-112570000D02*
X154267162Y-112570000D01*
X154267162Y-112570000D02*
X154305000Y-112532162D01*
%TO.N,Net-(A1-SDA_A3)*%
X154267162Y-115110000D02*
X154305000Y-115072162D01*
X148062500Y-115110000D02*
X154267162Y-115110000D01*
%TO.N,Net-(A1-NC)*%
X127738268Y-115105768D02*
X127742500Y-115110000D01*
X121285000Y-115105768D02*
X127738268Y-115105768D01*
%TO.N,Net-(A1-TX)*%
X127738268Y-112565768D02*
X127742500Y-112570000D01*
X121285000Y-112565768D02*
X127738268Y-112565768D01*
%TO.N,Net-(A1-RX)*%
X127738268Y-110025768D02*
X127742500Y-110030000D01*
X121285000Y-110025768D02*
X127738268Y-110025768D01*
%TO.N,Net-(A1-MISO)*%
X121285000Y-107485768D02*
X127738268Y-107485768D01*
X127738268Y-107485768D02*
X127742500Y-107490000D01*
%TO.N,Net-(A1-MOSI)*%
X121289232Y-104950000D02*
X121285000Y-104945768D01*
X127742500Y-104950000D02*
X121289232Y-104950000D01*
%TO.N,Net-(A1-SCK)*%
X127738268Y-102405768D02*
X127742500Y-102410000D01*
X121285000Y-102405768D02*
X127738268Y-102405768D01*
%TO.N,Net-(A1-D18_S3)*%
X127738268Y-99865768D02*
X127742500Y-99870000D01*
X121285000Y-99865768D02*
X127738268Y-99865768D01*
%TO.N,Net-(A1-D19_S4)*%
X121289232Y-97330000D02*
X121285000Y-97325768D01*
X127742500Y-97330000D02*
X121289232Y-97330000D01*
%TO.N,Net-(A1-A5)*%
X127738268Y-94785768D02*
X127742500Y-94790000D01*
X121285000Y-94785768D02*
X127738268Y-94785768D01*
%TO.N,Net-(A1-A2)*%
X121289232Y-92250000D02*
X121285000Y-92245768D01*
X127742500Y-92250000D02*
X121289232Y-92250000D01*
%TO.N,Net-(A1-A1)*%
X127738268Y-89705768D02*
X127742500Y-89710000D01*
X121285000Y-89705768D02*
X127738268Y-89705768D01*
%TO.N,Net-(A1-A0)*%
X121289232Y-87170000D02*
X121285000Y-87165768D01*
X127742500Y-87170000D02*
X121289232Y-87170000D01*
%TO.N,Net-(A1-MODE)*%
X121289232Y-82090000D02*
X121285000Y-82085768D01*
X127742500Y-82090000D02*
X121289232Y-82090000D01*
%TO.N,+3V3*%
X121289232Y-79550000D02*
X121285000Y-79545768D01*
D19*
X127742500Y-79550000D02*
X121289232Y-79550000D01*
D18*
%TO.N,Net-(A1-~{RESET})*%
X121289232Y-77010000D02*
X121285000Y-77005768D01*
X127742500Y-77010000D02*
X121289232Y-77010000D01*
%TO.N,+BATT*%
X154267162Y-87170000D02*
X154305000Y-87132162D01*
%TD*%
%TA.AperFunction,Conductor*%
%TO.N,GND*%
G36*
X126577847Y-82710185D02*
G01*
X126612380Y-82743374D01*
X126676585Y-82835069D01*
X126742454Y-82929141D01*
X126903358Y-83090045D01*
X126903361Y-83090047D01*
X127089766Y-83220568D01*
X127148365Y-83247893D01*
X127200805Y-83294065D01*
X127219957Y-83361258D01*
X127199742Y-83428139D01*
X127148367Y-83472657D01*
X127090013Y-83499868D01*
X127090012Y-83499868D01*
X127017026Y-83550973D01*
X127017026Y-83550974D01*
X127696053Y-84230000D01*
X127689839Y-84230000D01*
X127588106Y-84257259D01*
X127496894Y-84309920D01*
X127422420Y-84384394D01*
X127369759Y-84475606D01*
X127342500Y-84577339D01*
X127342500Y-84583552D01*
X126663474Y-83904526D01*
X126663473Y-83904526D01*
X126612368Y-83977512D01*
X126612366Y-83977516D01*
X126516234Y-84183673D01*
X126516230Y-84183682D01*
X126457360Y-84403389D01*
X126457358Y-84403400D01*
X126437534Y-84629997D01*
X126437534Y-84630002D01*
X126457358Y-84856599D01*
X126457360Y-84856610D01*
X126516230Y-85076317D01*
X126516235Y-85076331D01*
X126612363Y-85282478D01*
X126663474Y-85355472D01*
X127342500Y-84676446D01*
X127342500Y-84682661D01*
X127369759Y-84784394D01*
X127422420Y-84875606D01*
X127496894Y-84950080D01*
X127588106Y-85002741D01*
X127689839Y-85030000D01*
X127696053Y-85030000D01*
X127017026Y-85709025D01*
X127090013Y-85760132D01*
X127090021Y-85760136D01*
X127148364Y-85787342D01*
X127200804Y-85833514D01*
X127219956Y-85900707D01*
X127199741Y-85967589D01*
X127148366Y-86012105D01*
X127089772Y-86039428D01*
X127089765Y-86039432D01*
X126903358Y-86169954D01*
X126742454Y-86330858D01*
X126672541Y-86430707D01*
X126612381Y-86516624D01*
X126557807Y-86560248D01*
X126510808Y-86569500D01*
X122742972Y-86569500D01*
X122675933Y-86549815D01*
X122630178Y-86497011D01*
X122629416Y-86495310D01*
X122609173Y-86449161D01*
X122473166Y-86240985D01*
X122407776Y-86169953D01*
X122304744Y-86058030D01*
X122201253Y-85977480D01*
X122160442Y-85920771D01*
X122153655Y-85871944D01*
X122155056Y-85849377D01*
X121496059Y-85190380D01*
X121516591Y-85184879D01*
X121653408Y-85105887D01*
X121765119Y-84994176D01*
X121844111Y-84857359D01*
X121849612Y-84836828D01*
X122508434Y-85495650D01*
X122608731Y-85342137D01*
X122708587Y-85114485D01*
X122769612Y-84873506D01*
X122769614Y-84873497D01*
X122790141Y-84625773D01*
X122790141Y-84625762D01*
X122769614Y-84378038D01*
X122769612Y-84378029D01*
X122708587Y-84137050D01*
X122608731Y-83909398D01*
X122508434Y-83755884D01*
X121849612Y-84414707D01*
X121844111Y-84394177D01*
X121765119Y-84257360D01*
X121653408Y-84145649D01*
X121516591Y-84066657D01*
X121496059Y-84061155D01*
X122155056Y-83402158D01*
X122153655Y-83379593D01*
X122169147Y-83311462D01*
X122201250Y-83274058D01*
X122304744Y-83193506D01*
X122473164Y-83010553D01*
X122609173Y-82802375D01*
X122616591Y-82785463D01*
X122625703Y-82764691D01*
X122670658Y-82711205D01*
X122737394Y-82690514D01*
X122739259Y-82690500D01*
X126510808Y-82690500D01*
X126577847Y-82710185D01*
G37*
%TD.AperFunction*%
%TA.AperFunction,Conductor*%
G36*
X115612769Y-57788887D02*
G01*
X116714457Y-57852263D01*
X116724367Y-57853234D01*
X118030451Y-58034649D01*
X118036574Y-58035657D01*
X119532253Y-58320812D01*
X119536044Y-58321598D01*
X120837201Y-58612863D01*
X121193090Y-58692529D01*
X121196525Y-58693349D01*
X123109184Y-59179135D01*
X128971129Y-60667978D01*
X128984027Y-60672079D01*
X128984526Y-60672199D01*
X128984528Y-60672200D01*
X129044841Y-60686709D01*
X129046295Y-60687069D01*
X129106313Y-60702313D01*
X129106314Y-60702312D01*
X129106811Y-60702439D01*
X129120126Y-60704819D01*
X133320112Y-61715190D01*
X133332647Y-61718916D01*
X133340006Y-61721532D01*
X133340007Y-61721532D01*
X133340009Y-61721533D01*
X133396755Y-61733668D01*
X133399736Y-61734345D01*
X133456110Y-61747907D01*
X133456118Y-61747906D01*
X133463865Y-61748724D01*
X133476780Y-61750780D01*
X135539071Y-62191797D01*
X135551766Y-62195225D01*
X135558761Y-62197519D01*
X135558768Y-62197522D01*
X135558774Y-62197523D01*
X135558777Y-62197524D01*
X135588292Y-62203074D01*
X135615935Y-62208272D01*
X135618866Y-62208860D01*
X135675801Y-62221037D01*
X135675809Y-62221036D01*
X135683138Y-62221623D01*
X135696178Y-62223364D01*
X137756730Y-62610886D01*
X137770193Y-62615066D01*
X137770361Y-62614495D01*
X137778162Y-62616782D01*
X137833522Y-62625391D01*
X137837309Y-62626041D01*
X137892435Y-62636409D01*
X137892441Y-62636408D01*
X137900552Y-62636855D01*
X137900519Y-62637452D01*
X137914611Y-62638001D01*
X139956175Y-62955503D01*
X139971264Y-62959604D01*
X139971327Y-62959357D01*
X139979200Y-62961329D01*
X139979213Y-62961334D01*
X140032384Y-62967453D01*
X140037185Y-62968102D01*
X140090095Y-62976331D01*
X140090096Y-62976330D01*
X140090098Y-62976331D01*
X140098221Y-62976521D01*
X140098215Y-62976775D01*
X140113846Y-62976828D01*
X142118177Y-63207509D01*
X142140492Y-63212517D01*
X142143196Y-63213054D01*
X142143199Y-63213054D01*
X142143202Y-63213055D01*
X142193517Y-63216333D01*
X142199614Y-63216882D01*
X142249733Y-63222651D01*
X142249740Y-63222649D01*
X142252531Y-63222604D01*
X142275353Y-63221665D01*
X144224213Y-63348651D01*
X144248651Y-63352726D01*
X144251737Y-63353564D01*
X144251735Y-63353564D01*
X144254981Y-63353574D01*
X144298355Y-63353720D01*
X144305995Y-63353980D01*
X144352521Y-63357013D01*
X144355655Y-63356388D01*
X144380306Y-63353995D01*
X146255517Y-63360299D01*
X146278527Y-63362534D01*
X146285806Y-63363935D01*
X146328156Y-63360892D01*
X146337421Y-63360575D01*
X146379301Y-63360717D01*
X146379873Y-63360719D01*
X146379874Y-63360719D01*
X146379874Y-63360718D01*
X146379876Y-63360719D01*
X146387047Y-63358822D01*
X146409849Y-63355023D01*
X147168830Y-63300500D01*
X147192602Y-63301078D01*
X147198288Y-63301767D01*
X147241993Y-63295545D01*
X147250555Y-63294629D01*
X147294574Y-63291468D01*
X147299979Y-63289595D01*
X147323092Y-63284000D01*
X148085330Y-63175498D01*
X148110567Y-63174505D01*
X148112525Y-63174628D01*
X148159431Y-63165160D01*
X148166475Y-63163948D01*
X148213857Y-63157204D01*
X148213862Y-63157202D01*
X148215656Y-63156437D01*
X148239782Y-63148941D01*
X149001389Y-62995215D01*
X149019460Y-62993556D01*
X149026370Y-62992756D01*
X149026380Y-62992757D01*
X149076141Y-62980265D01*
X149081768Y-62978992D01*
X149132047Y-62968844D01*
X149132053Y-62968840D01*
X149138635Y-62966586D01*
X149155655Y-62960304D01*
X149914877Y-62769721D01*
X149929810Y-62767719D01*
X149929753Y-62767344D01*
X149937776Y-62766116D01*
X149937787Y-62766116D01*
X149990103Y-62750922D01*
X149994428Y-62749752D01*
X150047250Y-62736493D01*
X150047252Y-62736491D01*
X150054805Y-62733503D01*
X150054944Y-62733855D01*
X150068851Y-62728053D01*
X150823674Y-62508850D01*
X150836789Y-62506663D01*
X150836650Y-62505890D01*
X150844631Y-62504444D01*
X150844641Y-62504444D01*
X150899275Y-62486942D01*
X150902410Y-62485985D01*
X150957570Y-62469967D01*
X150957576Y-62469962D01*
X150965019Y-62466698D01*
X150965337Y-62467424D01*
X150977431Y-62461907D01*
X151727911Y-62221508D01*
X151740764Y-62218139D01*
X151747234Y-62216808D01*
X151747242Y-62216808D01*
X151802587Y-62197622D01*
X151805244Y-62196736D01*
X151861010Y-62178874D01*
X151861023Y-62178865D01*
X151866971Y-62176059D01*
X151879272Y-62171040D01*
X153504257Y-61607759D01*
X153507967Y-61606733D01*
X153513463Y-61604806D01*
X153513466Y-61604806D01*
X153574675Y-61583350D01*
X153636269Y-61562000D01*
X153636271Y-61561998D01*
X153641794Y-61560084D01*
X153645335Y-61558582D01*
X155294589Y-60980479D01*
X155296765Y-60979740D01*
X156124328Y-60707696D01*
X156127387Y-60706734D01*
X156931707Y-60465532D01*
X156936194Y-60464277D01*
X157712695Y-60263067D01*
X157718862Y-60261637D01*
X158463448Y-60108904D01*
X158471619Y-60107513D01*
X159179983Y-60011067D01*
X159190523Y-60010088D01*
X159868297Y-59976240D01*
X159877609Y-59976127D01*
X160181048Y-59983801D01*
X160187292Y-59984117D01*
X160482792Y-60006593D01*
X160494073Y-60007452D01*
X160500306Y-60008085D01*
X160802391Y-60046483D01*
X160808547Y-60047423D01*
X161105715Y-60100507D01*
X161111763Y-60101744D01*
X161403606Y-60169121D01*
X161409580Y-60170658D01*
X161695846Y-60251968D01*
X161701660Y-60253777D01*
X161981927Y-60348632D01*
X161987661Y-60350732D01*
X162261588Y-60458762D01*
X162267185Y-60461129D01*
X162534448Y-60581981D01*
X162539893Y-60584605D01*
X162590461Y-60610509D01*
X162800101Y-60717900D01*
X162805366Y-60720761D01*
X163005001Y-60835568D01*
X163058148Y-60866132D01*
X163063262Y-60869239D01*
X163308214Y-61026300D01*
X163313150Y-61029635D01*
X163549922Y-61198029D01*
X163554679Y-61201587D01*
X163782875Y-61380937D01*
X163787443Y-61384707D01*
X164006607Y-61574571D01*
X164010985Y-61578550D01*
X164067642Y-61632572D01*
X164191617Y-61750783D01*
X164220809Y-61778617D01*
X164224985Y-61782794D01*
X164331063Y-61894065D01*
X164425007Y-61992607D01*
X164428986Y-61996985D01*
X164618883Y-62216224D01*
X164622653Y-62220793D01*
X164801956Y-62448971D01*
X164805512Y-62453726D01*
X164973889Y-62690513D01*
X164977225Y-62695451D01*
X165134306Y-62940479D01*
X165137412Y-62945592D01*
X165282769Y-63198395D01*
X165285639Y-63203678D01*
X165418941Y-63463948D01*
X165421546Y-63469356D01*
X165542427Y-63736735D01*
X165544773Y-63742282D01*
X165652810Y-64016280D01*
X165654905Y-64022002D01*
X165749773Y-64302364D01*
X165751598Y-64308235D01*
X165832893Y-64594502D01*
X165834433Y-64600489D01*
X165901810Y-64892403D01*
X165903055Y-64898489D01*
X165956136Y-65195697D01*
X165957079Y-65201866D01*
X165995486Y-65504094D01*
X165996118Y-65510323D01*
X166019453Y-65817166D01*
X166019770Y-65823434D01*
X166027462Y-66127592D01*
X166027359Y-66136678D01*
X165995533Y-66799081D01*
X165994776Y-66808043D01*
X165903451Y-67561869D01*
X165902569Y-67567905D01*
X165758339Y-68409367D01*
X165757578Y-68413403D01*
X165569719Y-69326638D01*
X165568819Y-69330670D01*
X164569888Y-73480981D01*
X164567005Y-73490402D01*
X164552275Y-73554133D01*
X164552018Y-73555222D01*
X164536670Y-73618994D01*
X164535041Y-73628708D01*
X164037645Y-75780964D01*
X164034017Y-75793576D01*
X164031562Y-75800673D01*
X164019906Y-75857547D01*
X164019247Y-75860571D01*
X164006157Y-75917210D01*
X164005435Y-75924701D01*
X164003484Y-75937682D01*
X163794770Y-76956130D01*
X163791457Y-76968836D01*
X163789194Y-76975947D01*
X163778947Y-77033146D01*
X163778366Y-77036169D01*
X163766695Y-77093125D01*
X163766164Y-77100570D01*
X163764536Y-77113600D01*
X163582096Y-78132107D01*
X163578022Y-78145656D01*
X163578583Y-78145815D01*
X163576367Y-78153628D01*
X163568267Y-78208953D01*
X163567633Y-78212848D01*
X163557766Y-78267938D01*
X163557390Y-78276059D01*
X163556808Y-78276032D01*
X163556375Y-78290176D01*
X163408133Y-79302702D01*
X163404160Y-79317865D01*
X163404399Y-79317923D01*
X163402494Y-79325829D01*
X163396867Y-79378970D01*
X163396250Y-79383870D01*
X163388511Y-79436735D01*
X163388511Y-79436737D01*
X163388511Y-79436739D01*
X163388393Y-79444867D01*
X163388147Y-79444863D01*
X163388233Y-79460537D01*
X163282439Y-80459810D01*
X163277700Y-80481858D01*
X163277133Y-80484856D01*
X163274299Y-80535262D01*
X163273806Y-80541352D01*
X163268491Y-80591557D01*
X163268567Y-80594549D01*
X163269699Y-80617123D01*
X163214690Y-81595870D01*
X163210804Y-81620464D01*
X163210077Y-81623224D01*
X163210076Y-81623229D01*
X163210285Y-81670190D01*
X163210091Y-81677695D01*
X163207456Y-81724592D01*
X163207456Y-81724604D01*
X163208039Y-81727396D01*
X163210649Y-81752154D01*
X163214881Y-82703542D01*
X163212809Y-82726675D01*
X163211509Y-82733691D01*
X163211509Y-82733696D01*
X163214863Y-82776280D01*
X163215245Y-82785463D01*
X163215435Y-82828193D01*
X163217311Y-82835069D01*
X163221298Y-82857959D01*
X163312426Y-84014711D01*
X163312044Y-84038200D01*
X163311327Y-84044617D01*
X163311327Y-84044622D01*
X163317840Y-84087531D01*
X163318861Y-84096398D01*
X163322269Y-84139661D01*
X163322270Y-84139667D01*
X163324423Y-84145745D01*
X163330132Y-84168532D01*
X163503333Y-85309784D01*
X163504583Y-85334568D01*
X163504429Y-85337642D01*
X163514263Y-85383357D01*
X163515632Y-85390826D01*
X163522646Y-85437044D01*
X163523879Y-85439862D01*
X163531498Y-85463476D01*
X163773557Y-86588709D01*
X163776108Y-86612660D01*
X163776329Y-86614330D01*
X163789337Y-86662812D01*
X163790799Y-86668866D01*
X163801356Y-86717938D01*
X163801936Y-86719564D01*
X163810586Y-86742006D01*
X164108736Y-87853178D01*
X164111076Y-87868568D01*
X164111342Y-87868523D01*
X164112719Y-87876521D01*
X164112721Y-87876527D01*
X164128650Y-87927761D01*
X164129996Y-87932412D01*
X164143892Y-87984198D01*
X164147004Y-87991705D01*
X164146754Y-87991808D01*
X164152995Y-88006060D01*
X164494704Y-89105086D01*
X164497194Y-89118373D01*
X164497903Y-89118230D01*
X164499510Y-89126194D01*
X164517966Y-89180071D01*
X164519065Y-89183436D01*
X164535986Y-89237856D01*
X164539392Y-89245237D01*
X164538732Y-89245541D01*
X164544568Y-89257735D01*
X164918351Y-90348920D01*
X164922021Y-90361897D01*
X164923228Y-90367266D01*
X164923231Y-90367273D01*
X164943598Y-90422711D01*
X164944469Y-90425165D01*
X164963613Y-90481051D01*
X164966061Y-90485980D01*
X164971396Y-90498374D01*
X165846134Y-92879323D01*
X165846328Y-92879855D01*
X166730893Y-95321924D01*
X166732071Y-95325330D01*
X167131608Y-96537243D01*
X167132841Y-96541202D01*
X167488135Y-97753865D01*
X167489563Y-97759175D01*
X167787212Y-98972011D01*
X167788665Y-98978731D01*
X168016248Y-100193445D01*
X168017496Y-100201594D01*
X168163579Y-101426391D01*
X168164212Y-101433368D01*
X168201942Y-102039058D01*
X168202154Y-102044134D01*
X168215162Y-102656569D01*
X168215153Y-102662217D01*
X168200303Y-103272859D01*
X168200027Y-103278647D01*
X168157204Y-103880322D01*
X168156390Y-103888198D01*
X167990716Y-105108697D01*
X167989146Y-105117740D01*
X167732261Y-106329180D01*
X167730490Y-106336446D01*
X167396184Y-107547807D01*
X167394511Y-107553357D01*
X166998035Y-108765886D01*
X166996673Y-108769826D01*
X166554132Y-109983501D01*
X166553020Y-109986436D01*
X165617535Y-112363308D01*
X165614312Y-112370208D01*
X165590153Y-112432871D01*
X165589840Y-112433676D01*
X165565087Y-112496566D01*
X165562785Y-112503854D01*
X164669333Y-114821200D01*
X164662416Y-114834463D01*
X164662775Y-114834642D01*
X164659146Y-114841916D01*
X164641347Y-114893563D01*
X164639813Y-114897767D01*
X164620175Y-114948702D01*
X164618266Y-114956604D01*
X164617876Y-114956509D01*
X164614623Y-114971112D01*
X164236263Y-116069065D01*
X164229443Y-116083475D01*
X164229615Y-116083553D01*
X164226289Y-116090970D01*
X164211104Y-116141748D01*
X164209539Y-116146615D01*
X164192270Y-116196729D01*
X164190649Y-116204690D01*
X164190464Y-116204652D01*
X164187606Y-116220331D01*
X163856589Y-117327287D01*
X163846765Y-117350921D01*
X163846259Y-117351851D01*
X163846256Y-117351860D01*
X163834864Y-117399285D01*
X163833098Y-117405841D01*
X163819132Y-117452551D01*
X163819132Y-117452553D01*
X163819102Y-117453599D01*
X163815725Y-117478972D01*
X163546640Y-118599317D01*
X163538852Y-118621894D01*
X163536590Y-118626843D01*
X163536589Y-118626844D01*
X163529208Y-118670646D01*
X163527504Y-118678996D01*
X163517133Y-118722176D01*
X163517275Y-118727607D01*
X163515593Y-118751440D01*
X163325356Y-119880349D01*
X163318758Y-119904405D01*
X163317769Y-119906965D01*
X163317766Y-119906976D01*
X163312751Y-119953791D01*
X163311733Y-119961184D01*
X163303914Y-120007584D01*
X163303914Y-120007593D01*
X163304174Y-120010325D01*
X163304026Y-120035270D01*
X163250614Y-120533961D01*
X163247076Y-120550142D01*
X163247132Y-120550153D01*
X163245573Y-120558128D01*
X163242347Y-120609994D01*
X163241881Y-120615496D01*
X163236347Y-120667175D01*
X163236544Y-120675305D01*
X163236486Y-120675306D01*
X163237256Y-120691857D01*
X163206346Y-121188907D01*
X163203001Y-121208500D01*
X163202218Y-121213852D01*
X163201483Y-121264839D01*
X163201257Y-121270742D01*
X163198093Y-121321647D01*
X163198467Y-121327086D01*
X163200303Y-121346842D01*
X163193075Y-121848549D01*
X163190140Y-121872887D01*
X163190016Y-121874192D01*
X163191825Y-121924271D01*
X163191893Y-121930529D01*
X163191172Y-121980634D01*
X163191330Y-121981977D01*
X163194787Y-122006212D01*
X163213132Y-122513805D01*
X163211430Y-122539234D01*
X163211202Y-122540563D01*
X163211202Y-122540566D01*
X163211202Y-122540569D01*
X163212633Y-122556087D01*
X163215650Y-122588819D01*
X163216092Y-122595717D01*
X163217844Y-122644160D01*
X163218240Y-122645449D01*
X163223176Y-122670454D01*
X163251335Y-122975867D01*
X163251087Y-123001063D01*
X163250855Y-123003124D01*
X163250856Y-123003133D01*
X163257990Y-123050331D01*
X163258859Y-123057475D01*
X163263244Y-123105025D01*
X163263245Y-123105030D01*
X163263963Y-123106973D01*
X163270247Y-123131389D01*
X163315193Y-123428675D01*
X163316390Y-123454188D01*
X163316322Y-123455380D01*
X163316323Y-123455384D01*
X163316323Y-123455387D01*
X163322969Y-123487292D01*
X163326236Y-123502976D01*
X163327447Y-123509723D01*
X163334716Y-123557800D01*
X163334718Y-123557806D01*
X163335190Y-123558887D01*
X163342952Y-123583234D01*
X163403052Y-123871768D01*
X163405656Y-123897596D01*
X163405655Y-123897712D01*
X163405655Y-123897716D01*
X163418293Y-123945755D01*
X163419767Y-123952013D01*
X163429903Y-124000670D01*
X163429955Y-124000773D01*
X163439156Y-124025056D01*
X163502310Y-124265110D01*
X163512952Y-124305560D01*
X163516014Y-124325764D01*
X163516866Y-124330599D01*
X163532161Y-124379138D01*
X163533812Y-124384854D01*
X163546765Y-124434088D01*
X163548641Y-124438675D01*
X163556808Y-124457357D01*
X163587217Y-124553859D01*
X163642913Y-124730607D01*
X163646116Y-124746711D01*
X163646201Y-124746693D01*
X163647960Y-124754626D01*
X163665821Y-124803700D01*
X163667566Y-124808842D01*
X163683254Y-124858630D01*
X163686691Y-124866002D01*
X163686609Y-124866039D01*
X163693871Y-124880768D01*
X163792839Y-125152689D01*
X163799033Y-125177299D01*
X163799269Y-125178930D01*
X163818287Y-125223194D01*
X163820878Y-125229731D01*
X163837349Y-125274984D01*
X163838293Y-125276332D01*
X163850643Y-125298499D01*
X164134905Y-125960093D01*
X164142393Y-125983869D01*
X164142956Y-125986588D01*
X164142959Y-125986594D01*
X164164098Y-126028610D01*
X164167256Y-126035388D01*
X164180256Y-126065643D01*
X164185836Y-126078629D01*
X164187552Y-126080805D01*
X164200945Y-126101845D01*
X164526228Y-126748370D01*
X164531842Y-126763452D01*
X164531988Y-126763395D01*
X164534983Y-126770952D01*
X164560667Y-126817061D01*
X164563109Y-126821671D01*
X164586802Y-126868764D01*
X164591373Y-126875487D01*
X164591242Y-126875576D01*
X164600565Y-126888687D01*
X164952691Y-127520838D01*
X164957818Y-127533245D01*
X164958502Y-127532952D01*
X164961708Y-127540421D01*
X164990884Y-127589504D01*
X164992620Y-127592519D01*
X164997298Y-127600916D01*
X165020427Y-127642438D01*
X165020428Y-127642439D01*
X165020430Y-127642442D01*
X165025274Y-127648960D01*
X165024674Y-127649405D01*
X165032835Y-127660076D01*
X165893793Y-129108427D01*
X165894111Y-129108965D01*
X166197052Y-129625000D01*
X166340453Y-129869272D01*
X166342006Y-129871997D01*
X166766340Y-130638588D01*
X166768722Y-130643108D01*
X167159297Y-131422892D01*
X167162269Y-131429271D01*
X167509564Y-132233630D01*
X167511959Y-132239596D01*
X167547713Y-132335827D01*
X167661716Y-132642669D01*
X167661927Y-132643235D01*
X167663522Y-132647802D01*
X167792223Y-133040819D01*
X167799566Y-133063244D01*
X167801098Y-133068284D01*
X167920080Y-133491654D01*
X167921480Y-133497107D01*
X168022060Y-133929462D01*
X168023267Y-133935280D01*
X168104035Y-134377525D01*
X168104997Y-134383651D01*
X168164560Y-134837019D01*
X168165229Y-134843381D01*
X168202098Y-135308882D01*
X168202442Y-135315399D01*
X168215100Y-135794753D01*
X168215103Y-135801161D01*
X168204394Y-136224625D01*
X168204077Y-136230892D01*
X168172295Y-136648830D01*
X168171663Y-136655059D01*
X168119348Y-137066748D01*
X168118406Y-137072917D01*
X168046090Y-137477853D01*
X168044845Y-137483940D01*
X167953039Y-137881707D01*
X167951499Y-137887694D01*
X167840724Y-138277781D01*
X167838898Y-138283651D01*
X167709659Y-138665599D01*
X167707558Y-138671339D01*
X167560359Y-139044662D01*
X167557992Y-139050260D01*
X167393327Y-139414488D01*
X167390703Y-139419933D01*
X167209108Y-139774487D01*
X167206239Y-139779770D01*
X167008201Y-140124189D01*
X167005094Y-140129303D01*
X166791121Y-140463064D01*
X166787785Y-140468002D01*
X166558409Y-140790558D01*
X166554852Y-140795314D01*
X166310592Y-141106138D01*
X166306821Y-141110708D01*
X166048173Y-141409300D01*
X166044194Y-141413678D01*
X165771731Y-141699455D01*
X165767550Y-141703636D01*
X165481752Y-141976119D01*
X165477374Y-141980098D01*
X165178782Y-142238747D01*
X165174212Y-142242518D01*
X164863384Y-142486781D01*
X164858627Y-142490338D01*
X164536086Y-142719703D01*
X164531149Y-142723039D01*
X164197380Y-142937017D01*
X164192266Y-142940124D01*
X163847835Y-143138169D01*
X163842551Y-143141039D01*
X163487985Y-143322637D01*
X163482542Y-143325259D01*
X163118354Y-143489909D01*
X163112755Y-143492277D01*
X162739421Y-143639479D01*
X162733681Y-143641580D01*
X162351727Y-143770822D01*
X162345856Y-143772648D01*
X161955765Y-143883422D01*
X161949779Y-143884962D01*
X161552017Y-143976767D01*
X161545930Y-143978012D01*
X161140989Y-144050328D01*
X161134820Y-144051270D01*
X160723150Y-144103582D01*
X160716921Y-144104214D01*
X160298973Y-144135996D01*
X160292706Y-144136313D01*
X159878937Y-144146777D01*
X159868680Y-144146612D01*
X158767049Y-144083234D01*
X158757110Y-144082260D01*
X157451068Y-143900836D01*
X157444904Y-143899821D01*
X155949269Y-143614649D01*
X155945405Y-143613848D01*
X154288366Y-143242885D01*
X154284928Y-143242063D01*
X146510364Y-141267268D01*
X146497450Y-141263162D01*
X146436705Y-141248546D01*
X146435188Y-141248171D01*
X146374694Y-141232806D01*
X146361382Y-141230425D01*
X142161375Y-140219957D01*
X142148851Y-140216236D01*
X142141487Y-140213618D01*
X142093788Y-140203417D01*
X142084796Y-140201493D01*
X142081763Y-140200804D01*
X142025385Y-140187241D01*
X142025384Y-140187241D01*
X142025380Y-140187240D01*
X142017601Y-140186418D01*
X142004700Y-140184363D01*
X141587157Y-140095064D01*
X139942424Y-139743307D01*
X139929733Y-139739880D01*
X139922729Y-139737584D01*
X139922725Y-139737583D01*
X139898212Y-139732972D01*
X139865550Y-139726828D01*
X139862543Y-139726223D01*
X139805689Y-139714064D01*
X139798323Y-139713475D01*
X139785299Y-139711734D01*
X137724759Y-139324178D01*
X137711289Y-139319997D01*
X137711122Y-139320568D01*
X137703330Y-139318283D01*
X137647959Y-139309671D01*
X137644097Y-139309007D01*
X137589057Y-139298655D01*
X137589056Y-139298655D01*
X137580941Y-139298208D01*
X137580973Y-139297615D01*
X137566884Y-139297061D01*
X135525308Y-138979526D01*
X135510219Y-138975426D01*
X135510158Y-138975673D01*
X135502272Y-138973697D01*
X135449158Y-138967583D01*
X135444284Y-138966924D01*
X135391396Y-138958698D01*
X135383274Y-138958509D01*
X135383279Y-138958255D01*
X135367635Y-138958200D01*
X133648984Y-138760376D01*
X133363303Y-138727492D01*
X133340976Y-138722482D01*
X133338279Y-138721947D01*
X133287979Y-138718669D01*
X133281867Y-138718119D01*
X133231760Y-138712352D01*
X133231755Y-138712352D01*
X133231754Y-138712352D01*
X133229013Y-138712397D01*
X133206144Y-138713336D01*
X131257259Y-138586332D01*
X131232831Y-138582261D01*
X131229743Y-138581423D01*
X131229741Y-138581422D01*
X131229737Y-138581422D01*
X131183149Y-138581265D01*
X131175508Y-138581004D01*
X131128965Y-138577972D01*
X131128958Y-138577972D01*
X131125805Y-138578601D01*
X131101158Y-138580990D01*
X129225964Y-138574678D01*
X129202956Y-138572446D01*
X129195670Y-138571044D01*
X129195660Y-138571043D01*
X129153342Y-138574084D01*
X129144040Y-138574402D01*
X129101607Y-138574259D01*
X129101598Y-138574260D01*
X129094417Y-138576158D01*
X129071625Y-138579954D01*
X128312635Y-138634482D01*
X128288869Y-138633905D01*
X128283180Y-138633217D01*
X128283177Y-138633217D01*
X128239503Y-138639435D01*
X128230914Y-138640354D01*
X128186902Y-138643516D01*
X128181482Y-138645394D01*
X128158372Y-138650986D01*
X127396137Y-138759503D01*
X127370908Y-138760498D01*
X127368945Y-138760375D01*
X127368942Y-138760375D01*
X127322026Y-138769844D01*
X127314978Y-138771056D01*
X127267614Y-138777801D01*
X127267607Y-138777803D01*
X127265803Y-138778573D01*
X127241691Y-138786063D01*
X126480068Y-138939812D01*
X126461915Y-138941482D01*
X126455077Y-138942273D01*
X126405345Y-138954758D01*
X126399693Y-138956038D01*
X126349414Y-138966188D01*
X126342930Y-138968410D01*
X126325800Y-138974729D01*
X125566582Y-139165342D01*
X125551647Y-139167347D01*
X125551705Y-139167721D01*
X125543669Y-139168950D01*
X125491365Y-139184141D01*
X125486977Y-139185328D01*
X125434211Y-139198575D01*
X125426657Y-139201566D01*
X125426518Y-139201214D01*
X125412611Y-139207015D01*
X124657780Y-139426255D01*
X124644671Y-139428452D01*
X124644810Y-139429215D01*
X124636811Y-139430663D01*
X124582204Y-139448158D01*
X124578962Y-139449148D01*
X124523891Y-139465144D01*
X124516445Y-139468412D01*
X124516131Y-139467698D01*
X124504035Y-139473202D01*
X123753537Y-139713642D01*
X123740688Y-139717011D01*
X123734209Y-139718343D01*
X123678932Y-139737507D01*
X123676150Y-139738435D01*
X123620447Y-139756281D01*
X123614464Y-139759105D01*
X123602166Y-139764122D01*
X121977167Y-140327497D01*
X121973465Y-140328522D01*
X121906731Y-140351917D01*
X121906580Y-140351969D01*
X121874456Y-140363107D01*
X121839710Y-140375153D01*
X121836156Y-140376658D01*
X120186949Y-140954838D01*
X120184654Y-140955618D01*
X119357168Y-141227681D01*
X119354063Y-141228657D01*
X118549716Y-141469907D01*
X118545201Y-141471168D01*
X117768778Y-141672389D01*
X117762589Y-141673825D01*
X117018036Y-141826574D01*
X117009847Y-141827970D01*
X116301483Y-141924431D01*
X116290937Y-141925411D01*
X115613042Y-141959267D01*
X115603781Y-141959383D01*
X115312415Y-141952152D01*
X115306280Y-141951847D01*
X115009150Y-141929715D01*
X115003060Y-141929110D01*
X114708445Y-141892476D01*
X114702412Y-141891575D01*
X114410772Y-141840640D01*
X114404810Y-141839447D01*
X114116657Y-141774420D01*
X114110772Y-141772940D01*
X113826599Y-141694020D01*
X113820807Y-141692258D01*
X113541098Y-141599652D01*
X113535403Y-141597611D01*
X113260694Y-141491533D01*
X113255110Y-141489219D01*
X113005818Y-141378709D01*
X112985864Y-141369864D01*
X112980400Y-141367280D01*
X112717119Y-141234852D01*
X112711780Y-141232001D01*
X112455001Y-141086730D01*
X112449799Y-141083617D01*
X112200006Y-140925704D01*
X112194952Y-140922333D01*
X111952611Y-140751964D01*
X111947714Y-140748339D01*
X111815980Y-140645702D01*
X111713308Y-140565707D01*
X111708635Y-140561877D01*
X111482684Y-140367205D01*
X111478158Y-140363107D01*
X111308337Y-140201496D01*
X111261134Y-140156575D01*
X111256793Y-140152233D01*
X111050300Y-139935252D01*
X111046184Y-139930708D01*
X110955420Y-139825363D01*
X110851504Y-139704753D01*
X110847658Y-139700059D01*
X110665056Y-139465695D01*
X110661434Y-139460804D01*
X110645061Y-139437515D01*
X110555185Y-139309671D01*
X110491056Y-139218451D01*
X110487684Y-139213395D01*
X110381016Y-139044662D01*
X110329768Y-138963595D01*
X110326662Y-138958404D01*
X110326547Y-138958200D01*
X110181380Y-138701597D01*
X110178546Y-138696290D01*
X110046123Y-138432997D01*
X110043538Y-138427529D01*
X109978468Y-138280727D01*
X109924181Y-138158252D01*
X109921872Y-138152679D01*
X109914711Y-138134132D01*
X109815785Y-137877906D01*
X109813749Y-137872222D01*
X109769982Y-137740000D01*
X109721147Y-137592465D01*
X109719385Y-137586671D01*
X109709974Y-137552774D01*
X109640460Y-137302397D01*
X109638993Y-137296561D01*
X109573956Y-137008281D01*
X109572765Y-137002324D01*
X109556404Y-136908608D01*
X109521827Y-136710542D01*
X109520928Y-136704518D01*
X109484291Y-136409737D01*
X109483686Y-136403649D01*
X109461548Y-136106271D01*
X109461247Y-136100204D01*
X109456034Y-135890000D01*
X111364935Y-135890000D01*
X111385185Y-136302176D01*
X111445735Y-136710373D01*
X111546007Y-137110676D01*
X111685019Y-137499189D01*
X111685027Y-137499209D01*
X111861466Y-137872257D01*
X112073614Y-138226206D01*
X112319445Y-138557670D01*
X112428476Y-138677967D01*
X112428477Y-138677967D01*
X114097060Y-137009384D01*
X114176112Y-137112407D01*
X114347593Y-137283888D01*
X114450614Y-137362938D01*
X112782031Y-139031521D01*
X112782031Y-139031522D01*
X112902329Y-139140554D01*
X113233793Y-139386385D01*
X113587742Y-139598533D01*
X113960790Y-139774972D01*
X113960810Y-139774980D01*
X114349323Y-139913992D01*
X114749626Y-140014264D01*
X115157823Y-140074814D01*
X115570000Y-140095064D01*
X115982176Y-140074814D01*
X116390373Y-140014264D01*
X116790676Y-139913992D01*
X117179189Y-139774980D01*
X117179209Y-139774972D01*
X117552257Y-139598533D01*
X117906206Y-139386385D01*
X118237664Y-139140558D01*
X118357967Y-139031521D01*
X116689385Y-137362938D01*
X116792407Y-137283888D01*
X116963888Y-137112407D01*
X117042938Y-137009385D01*
X118711521Y-138677967D01*
X118820558Y-138557664D01*
X119066385Y-138226206D01*
X119278533Y-137872257D01*
X119454972Y-137499209D01*
X119454980Y-137499189D01*
X119593992Y-137110676D01*
X119694264Y-136710373D01*
X119754814Y-136302176D01*
X119775064Y-135890000D01*
X155814935Y-135890000D01*
X155835185Y-136302176D01*
X155895735Y-136710373D01*
X155996007Y-137110676D01*
X156135019Y-137499189D01*
X156135027Y-137499209D01*
X156311466Y-137872257D01*
X156523614Y-138226206D01*
X156769445Y-138557670D01*
X156878476Y-138677967D01*
X156878477Y-138677967D01*
X158547060Y-137009384D01*
X158626112Y-137112407D01*
X158797593Y-137283888D01*
X158900614Y-137362938D01*
X157232031Y-139031521D01*
X157232031Y-139031522D01*
X157352329Y-139140554D01*
X157683793Y-139386385D01*
X158037742Y-139598533D01*
X158410790Y-139774972D01*
X158410810Y-139774980D01*
X158799323Y-139913992D01*
X159199626Y-140014264D01*
X159607823Y-140074814D01*
X160020000Y-140095064D01*
X160432176Y-140074814D01*
X160840373Y-140014264D01*
X161240676Y-139913992D01*
X161629189Y-139774980D01*
X161629209Y-139774972D01*
X162002257Y-139598533D01*
X162356206Y-139386385D01*
X162687664Y-139140558D01*
X162807967Y-139031521D01*
X161139385Y-137362938D01*
X161242407Y-137283888D01*
X161413888Y-137112407D01*
X161492938Y-137009385D01*
X163161521Y-138677967D01*
X163270558Y-138557664D01*
X163516385Y-138226206D01*
X163728533Y-137872257D01*
X163904972Y-137499209D01*
X163904980Y-137499189D01*
X164043992Y-137110676D01*
X164144264Y-136710373D01*
X164204814Y-136302176D01*
X164225064Y-135890000D01*
X164204814Y-135477823D01*
X164144264Y-135069626D01*
X164043992Y-134669323D01*
X163904980Y-134280810D01*
X163904972Y-134280790D01*
X163728533Y-133907742D01*
X163516385Y-133553793D01*
X163270554Y-133222329D01*
X163161522Y-133102031D01*
X163161521Y-133102031D01*
X161492938Y-134770614D01*
X161413888Y-134667593D01*
X161242407Y-134496112D01*
X161139384Y-134417059D01*
X162807967Y-132748477D01*
X162807967Y-132748476D01*
X162687670Y-132639445D01*
X162356206Y-132393614D01*
X162002257Y-132181466D01*
X161629209Y-132005027D01*
X161629189Y-132005019D01*
X161240676Y-131866007D01*
X160840373Y-131765735D01*
X160432176Y-131705185D01*
X160020000Y-131684935D01*
X159607823Y-131705185D01*
X159199626Y-131765735D01*
X158799323Y-131866007D01*
X158410810Y-132005019D01*
X158410790Y-132005027D01*
X158037742Y-132181466D01*
X157683793Y-132393614D01*
X157352341Y-132639437D01*
X157232031Y-132748477D01*
X158900614Y-134417060D01*
X158797593Y-134496112D01*
X158626112Y-134667593D01*
X158547060Y-134770614D01*
X156878477Y-133102031D01*
X156769437Y-133222341D01*
X156523614Y-133553793D01*
X156311466Y-133907742D01*
X156135027Y-134280790D01*
X156135019Y-134280810D01*
X155996007Y-134669323D01*
X155895735Y-135069626D01*
X155835185Y-135477823D01*
X155814935Y-135890000D01*
X119775064Y-135890000D01*
X119754814Y-135477823D01*
X119694264Y-135069626D01*
X119593992Y-134669323D01*
X119454980Y-134280810D01*
X119454972Y-134280790D01*
X119278533Y-133907742D01*
X119066385Y-133553793D01*
X118820554Y-133222329D01*
X118711522Y-133102031D01*
X118711521Y-133102031D01*
X117042938Y-134770614D01*
X116963888Y-134667593D01*
X116792407Y-134496112D01*
X116689384Y-134417059D01*
X118357967Y-132748477D01*
X118357967Y-132748476D01*
X118237670Y-132639445D01*
X117906206Y-132393614D01*
X117552257Y-132181466D01*
X117179209Y-132005027D01*
X117179189Y-132005019D01*
X116790676Y-131866007D01*
X116390373Y-131765735D01*
X115982176Y-131705185D01*
X115570000Y-131684935D01*
X115157823Y-131705185D01*
X114749626Y-131765735D01*
X114349323Y-131866007D01*
X113960810Y-132005019D01*
X113960790Y-132005027D01*
X113587742Y-132181466D01*
X113233793Y-132393614D01*
X112902341Y-132639437D01*
X112782031Y-132748477D01*
X114450614Y-134417060D01*
X114347593Y-134496112D01*
X114176112Y-134667593D01*
X114097060Y-134770614D01*
X112428477Y-133102031D01*
X112319437Y-133222341D01*
X112073614Y-133553793D01*
X111861466Y-133907742D01*
X111685027Y-134280790D01*
X111685019Y-134280810D01*
X111546007Y-134669323D01*
X111445735Y-135069626D01*
X111385185Y-135477823D01*
X111364935Y-135890000D01*
X109456034Y-135890000D01*
X109454000Y-135807962D01*
X109454104Y-135798985D01*
X109485941Y-135136394D01*
X109486693Y-135127486D01*
X109578024Y-134373581D01*
X109578897Y-134367602D01*
X109723137Y-133526061D01*
X109723895Y-133522042D01*
X109730683Y-133489043D01*
X109911767Y-132608711D01*
X109912644Y-132604785D01*
X110911588Y-128454256D01*
X110914471Y-128444841D01*
X110915020Y-128442462D01*
X110915022Y-128442460D01*
X110929278Y-128380764D01*
X110929454Y-128380019D01*
X110944233Y-128318620D01*
X110944232Y-128318616D01*
X110944808Y-128316227D01*
X110946434Y-128306527D01*
X111395111Y-126365000D01*
X121585052Y-126365000D01*
X121604812Y-126616072D01*
X121663603Y-126860956D01*
X121759980Y-127093631D01*
X121891568Y-127308362D01*
X121892266Y-127309179D01*
X122666212Y-126535233D01*
X122677482Y-126577292D01*
X122749890Y-126702708D01*
X122852292Y-126805110D01*
X122977708Y-126877518D01*
X123019765Y-126888787D01*
X122273553Y-127635000D01*
X123019765Y-128381212D01*
X122977708Y-128392482D01*
X122852292Y-128464890D01*
X122749890Y-128567292D01*
X122677482Y-128692708D01*
X122666212Y-128734765D01*
X121892266Y-127960819D01*
X121891567Y-127961637D01*
X121759980Y-128176368D01*
X121663603Y-128409043D01*
X121604812Y-128653927D01*
X121585052Y-128905000D01*
X121604812Y-129156072D01*
X121663603Y-129400956D01*
X121759980Y-129633631D01*
X121891568Y-129848362D01*
X121892266Y-129849179D01*
X122666212Y-129075234D01*
X122677482Y-129117292D01*
X122749890Y-129242708D01*
X122852292Y-129345110D01*
X122977708Y-129417518D01*
X123019765Y-129428787D01*
X122273553Y-130175000D01*
X123019765Y-130921212D01*
X122977708Y-130932482D01*
X122852292Y-131004890D01*
X122749890Y-131107292D01*
X122677482Y-131232708D01*
X122666212Y-131274765D01*
X121892266Y-130500819D01*
X121891567Y-130501637D01*
X121759980Y-130716368D01*
X121663603Y-130949043D01*
X121604812Y-131193927D01*
X121585052Y-131445000D01*
X121604812Y-131696072D01*
X121663603Y-131940956D01*
X121759980Y-132173631D01*
X121891568Y-132388362D01*
X121892266Y-132389179D01*
X122666212Y-131615234D01*
X122677482Y-131657292D01*
X122749890Y-131782708D01*
X122852292Y-131885110D01*
X122977708Y-131957518D01*
X123019765Y-131968787D01*
X122273553Y-132715000D01*
X123019765Y-133461212D01*
X122977708Y-133472482D01*
X122852292Y-133544890D01*
X122749890Y-133647292D01*
X122677482Y-133772708D01*
X122666212Y-133814765D01*
X121892266Y-133040819D01*
X121891567Y-133041637D01*
X121759980Y-133256368D01*
X121663603Y-133489043D01*
X121604812Y-133733927D01*
X121585052Y-133985000D01*
X121604812Y-134236072D01*
X121663603Y-134480956D01*
X121759980Y-134713631D01*
X121891568Y-134928362D01*
X121892266Y-134929179D01*
X122666212Y-134155234D01*
X122677482Y-134197292D01*
X122749890Y-134322708D01*
X122852292Y-134425110D01*
X122977708Y-134497518D01*
X123019765Y-134508787D01*
X122245819Y-135282732D01*
X122245819Y-135282733D01*
X122246634Y-135283429D01*
X122461368Y-135415019D01*
X122694043Y-135511396D01*
X122938927Y-135570187D01*
X123190000Y-135589947D01*
X123441072Y-135570187D01*
X123685956Y-135511396D01*
X123918631Y-135415019D01*
X124133361Y-135283432D01*
X124133363Y-135283430D01*
X124134180Y-135282732D01*
X123360234Y-134508787D01*
X123402292Y-134497518D01*
X123527708Y-134425110D01*
X123630110Y-134322708D01*
X123702518Y-134197292D01*
X123713787Y-134155235D01*
X124487732Y-134929180D01*
X124488430Y-134928363D01*
X124488432Y-134928361D01*
X124620019Y-134713631D01*
X124716396Y-134480956D01*
X124775187Y-134236072D01*
X124794947Y-133985000D01*
X124775187Y-133733927D01*
X124716396Y-133489043D01*
X124620019Y-133256368D01*
X124488429Y-133041634D01*
X124487733Y-133040819D01*
X124487732Y-133040819D01*
X123713787Y-133814764D01*
X123702518Y-133772708D01*
X123630110Y-133647292D01*
X123527708Y-133544890D01*
X123402292Y-133472482D01*
X123360234Y-133461212D01*
X124106447Y-132715000D01*
X123360234Y-131968787D01*
X123402292Y-131957518D01*
X123527708Y-131885110D01*
X123630110Y-131782708D01*
X123702518Y-131657292D01*
X123713787Y-131615235D01*
X124487732Y-132389180D01*
X124488430Y-132388363D01*
X124488432Y-132388361D01*
X124620019Y-132173631D01*
X124716396Y-131940956D01*
X124775187Y-131696072D01*
X124794947Y-131445000D01*
X124775187Y-131193927D01*
X124716396Y-130949043D01*
X124620019Y-130716368D01*
X124488429Y-130501634D01*
X124487733Y-130500819D01*
X124487732Y-130500819D01*
X123713787Y-131274764D01*
X123702518Y-131232708D01*
X123630110Y-131107292D01*
X123527708Y-131004890D01*
X123402292Y-130932482D01*
X123360234Y-130921212D01*
X124106447Y-130175000D01*
X123360234Y-129428787D01*
X123402292Y-129417518D01*
X123527708Y-129345110D01*
X123630110Y-129242708D01*
X123702518Y-129117292D01*
X123713787Y-129075235D01*
X124487732Y-129849180D01*
X124488430Y-129848363D01*
X124488432Y-129848361D01*
X124620019Y-129633631D01*
X124716396Y-129400956D01*
X124775187Y-129156072D01*
X124794947Y-128905000D01*
X124775187Y-128653927D01*
X124716396Y-128409043D01*
X124620019Y-128176368D01*
X124488429Y-127961634D01*
X124487733Y-127960819D01*
X124487732Y-127960819D01*
X123713787Y-128734764D01*
X123702518Y-128692708D01*
X123630110Y-128567292D01*
X123527708Y-128464890D01*
X123402292Y-128392482D01*
X123360234Y-128381212D01*
X124106447Y-127635000D01*
X123360234Y-126888787D01*
X123402292Y-126877518D01*
X123527708Y-126805110D01*
X123630110Y-126702708D01*
X123702518Y-126577292D01*
X123713787Y-126535235D01*
X124487732Y-127309180D01*
X124488430Y-127308363D01*
X124488432Y-127308361D01*
X124620019Y-127093631D01*
X124716396Y-126860956D01*
X124775187Y-126616072D01*
X124794947Y-126365000D01*
X124775187Y-126113927D01*
X124716396Y-125869043D01*
X124620019Y-125636368D01*
X124538815Y-125503856D01*
X124520570Y-125436410D01*
X124541686Y-125369808D01*
X124570231Y-125339799D01*
X124647190Y-125282186D01*
X124733350Y-125167093D01*
X124733354Y-125167086D01*
X124783596Y-125032379D01*
X124783598Y-125032372D01*
X124789999Y-124972844D01*
X124790000Y-124972827D01*
X124790000Y-124075000D01*
X123680748Y-124075000D01*
X123702518Y-124037292D01*
X123740000Y-123897409D01*
X123740000Y-123752591D01*
X123702518Y-123612708D01*
X123680748Y-123575000D01*
X124790000Y-123575000D01*
X124790000Y-122677172D01*
X124789999Y-122677155D01*
X124783598Y-122617627D01*
X124783596Y-122617620D01*
X124733354Y-122482913D01*
X124733350Y-122482906D01*
X124647190Y-122367812D01*
X124647187Y-122367809D01*
X124532093Y-122281649D01*
X124532086Y-122281645D01*
X124397379Y-122231403D01*
X124397372Y-122231401D01*
X124337844Y-122225000D01*
X123440000Y-122225000D01*
X123440000Y-123334252D01*
X123402292Y-123312482D01*
X123262409Y-123275000D01*
X123117591Y-123275000D01*
X122977708Y-123312482D01*
X122940000Y-123334252D01*
X122940000Y-122225000D01*
X122042155Y-122225000D01*
X121982627Y-122231401D01*
X121982620Y-122231403D01*
X121847913Y-122281645D01*
X121847906Y-122281649D01*
X121732812Y-122367809D01*
X121732809Y-122367812D01*
X121646649Y-122482906D01*
X121646645Y-122482913D01*
X121596403Y-122617620D01*
X121596401Y-122617627D01*
X121590000Y-122677155D01*
X121590000Y-123575000D01*
X122699252Y-123575000D01*
X122677482Y-123612708D01*
X122640000Y-123752591D01*
X122640000Y-123897409D01*
X122677482Y-124037292D01*
X122699252Y-124075000D01*
X121590000Y-124075000D01*
X121590000Y-124972844D01*
X121596401Y-125032372D01*
X121596403Y-125032379D01*
X121646645Y-125167086D01*
X121646649Y-125167093D01*
X121732809Y-125282187D01*
X121809769Y-125339800D01*
X121851639Y-125395734D01*
X121856623Y-125465425D01*
X121841185Y-125503855D01*
X121759979Y-125636370D01*
X121663603Y-125869043D01*
X121604812Y-126113927D01*
X121585052Y-126365000D01*
X111395111Y-126365000D01*
X111443830Y-126154183D01*
X111447460Y-126141569D01*
X111449918Y-126134465D01*
X111461583Y-126077535D01*
X111462232Y-126074552D01*
X111475318Y-126017934D01*
X111475317Y-126017928D01*
X111476038Y-126010464D01*
X111477990Y-125997470D01*
X111480220Y-125986588D01*
X111686709Y-124978952D01*
X111690025Y-124966243D01*
X111692280Y-124959155D01*
X111692283Y-124959151D01*
X111702543Y-124901866D01*
X111703092Y-124899008D01*
X111714781Y-124841972D01*
X111714781Y-124841969D01*
X111715311Y-124834539D01*
X111716940Y-124821491D01*
X111736613Y-124711660D01*
X111899379Y-123802964D01*
X111903458Y-123789411D01*
X111902894Y-123789251D01*
X111905108Y-123781440D01*
X111905111Y-123781435D01*
X111913229Y-123725983D01*
X111913836Y-123722253D01*
X111923712Y-123667121D01*
X111923711Y-123667113D01*
X111924088Y-123659002D01*
X111924671Y-123659029D01*
X111925102Y-123644884D01*
X111937692Y-123558887D01*
X112073342Y-122632328D01*
X112077317Y-122617170D01*
X112077077Y-122617112D01*
X112078982Y-122609204D01*
X112084605Y-122556087D01*
X112085224Y-122551175D01*
X112086973Y-122539234D01*
X112092967Y-122498293D01*
X112092967Y-122498292D01*
X112093084Y-122490170D01*
X112093330Y-122490173D01*
X112093243Y-122474492D01*
X112199038Y-121475188D01*
X112203777Y-121453150D01*
X112204343Y-121450157D01*
X112204342Y-121450157D01*
X112204344Y-121450154D01*
X112207177Y-121399732D01*
X112207667Y-121393683D01*
X112212986Y-121343448D01*
X112212984Y-121343440D01*
X112212908Y-121340422D01*
X112211777Y-121317884D01*
X112266786Y-120339112D01*
X112270677Y-120314507D01*
X112271401Y-120311760D01*
X112271191Y-120264777D01*
X112271386Y-120257288D01*
X112274022Y-120210397D01*
X112274021Y-120210395D01*
X112274022Y-120210392D01*
X112273440Y-120207601D01*
X112270827Y-120182828D01*
X112266594Y-119231435D01*
X112268669Y-119208298D01*
X112269968Y-119201291D01*
X112266611Y-119158687D01*
X112266230Y-119149527D01*
X112266041Y-119106791D01*
X112264163Y-119099906D01*
X112260178Y-119077027D01*
X112169051Y-117920276D01*
X112169434Y-117896776D01*
X112170150Y-117890367D01*
X112163635Y-117847445D01*
X112162615Y-117838578D01*
X112159208Y-117795327D01*
X112159208Y-117795325D01*
X112157053Y-117789243D01*
X112151344Y-117766453D01*
X111978143Y-116625216D01*
X111976894Y-116600417D01*
X111977047Y-116597359D01*
X111967211Y-116551641D01*
X111965848Y-116544206D01*
X111958830Y-116497956D01*
X111957601Y-116495147D01*
X111949976Y-116471525D01*
X111707919Y-115346317D01*
X111705374Y-115322413D01*
X111705148Y-115320701D01*
X111705148Y-115320693D01*
X111692128Y-115272172D01*
X111690675Y-115266154D01*
X111680119Y-115217082D01*
X111679536Y-115215449D01*
X111670890Y-115193020D01*
X111372741Y-114081881D01*
X111370402Y-114066492D01*
X111370135Y-114066539D01*
X111368756Y-114058537D01*
X111368756Y-114058529D01*
X111352837Y-114007334D01*
X111351483Y-114002657D01*
X111350241Y-113998029D01*
X111337586Y-113950861D01*
X111334473Y-113943352D01*
X111334721Y-113943248D01*
X111328478Y-113928988D01*
X111271723Y-113746455D01*
X110986773Y-112830008D01*
X110984293Y-112816716D01*
X110983574Y-112816862D01*
X110981968Y-112808903D01*
X110981967Y-112808899D01*
X110963482Y-112754940D01*
X110962416Y-112751673D01*
X110945491Y-112697238D01*
X110945489Y-112697235D01*
X110942087Y-112689861D01*
X110942752Y-112689553D01*
X110936907Y-112677360D01*
X110612674Y-111730861D01*
X110563124Y-111586216D01*
X110559452Y-111573231D01*
X110558245Y-111567862D01*
X110537902Y-111512495D01*
X110536986Y-111509914D01*
X110517861Y-111454083D01*
X110515408Y-111449143D01*
X110510076Y-111436757D01*
X110171290Y-110514649D01*
X109635223Y-109055583D01*
X108750575Y-106613382D01*
X108749403Y-106609992D01*
X108733245Y-106560983D01*
X108349852Y-105398076D01*
X108348623Y-105394127D01*
X108284917Y-105176697D01*
X107993345Y-104181558D01*
X107991919Y-104176257D01*
X107694256Y-102963398D01*
X107692814Y-102956728D01*
X107465226Y-101742006D01*
X107463983Y-101733891D01*
X107317898Y-100509088D01*
X107317266Y-100502118D01*
X107315296Y-100470500D01*
X107279535Y-99896435D01*
X107279324Y-99891361D01*
X107278781Y-99865773D01*
X107266316Y-99278891D01*
X107266324Y-99273317D01*
X107281175Y-98662618D01*
X107281451Y-98656850D01*
X107324276Y-98055147D01*
X107325085Y-98047326D01*
X107490765Y-96826777D01*
X107492328Y-96817778D01*
X107749216Y-95606313D01*
X107750987Y-95599049D01*
X107809706Y-95386282D01*
X108085295Y-94387678D01*
X108086968Y-94382131D01*
X108106249Y-94323164D01*
X108483455Y-93169566D01*
X108484783Y-93165725D01*
X108927362Y-91951944D01*
X108928437Y-91949108D01*
X109863931Y-89572214D01*
X109867152Y-89565320D01*
X109868478Y-89561879D01*
X109868481Y-89561876D01*
X109891400Y-89502427D01*
X109891666Y-89501747D01*
X109898923Y-89483308D01*
X109915051Y-89442332D01*
X109915051Y-89442329D01*
X109916397Y-89438910D01*
X109918697Y-89431627D01*
X109983517Y-89263504D01*
X110812144Y-87114292D01*
X110819061Y-87101035D01*
X110818701Y-87100856D01*
X110822326Y-87093588D01*
X110822330Y-87093583D01*
X110840118Y-87041960D01*
X110841656Y-87037746D01*
X110861302Y-86986793D01*
X110863211Y-86978892D01*
X110863603Y-86978986D01*
X110866854Y-86964376D01*
X110874113Y-86943313D01*
X111245209Y-85866437D01*
X111252030Y-85852029D01*
X111251857Y-85851952D01*
X111255179Y-85844539D01*
X111255185Y-85844530D01*
X111270384Y-85793701D01*
X111271921Y-85788922D01*
X111289203Y-85738775D01*
X111289203Y-85738768D01*
X111290826Y-85730809D01*
X111291010Y-85730846D01*
X111293870Y-85715162D01*
X111295705Y-85709025D01*
X111624886Y-84608207D01*
X111634726Y-84584548D01*
X111635217Y-84583645D01*
X111646611Y-84536202D01*
X111648363Y-84529696D01*
X111662343Y-84482951D01*
X111662372Y-84481911D01*
X111665749Y-84456522D01*
X111934836Y-83336173D01*
X111942630Y-83313588D01*
X111944887Y-83308652D01*
X111952267Y-83264854D01*
X111953967Y-83256520D01*
X111964343Y-83213325D01*
X111964201Y-83207892D01*
X111965883Y-83184053D01*
X112156120Y-82055143D01*
X112162720Y-82031088D01*
X112163707Y-82028533D01*
X112168722Y-81981707D01*
X112169738Y-81974332D01*
X112177561Y-81927913D01*
X112177561Y-81927912D01*
X112177562Y-81927907D01*
X112177302Y-81925174D01*
X112177449Y-81900225D01*
X112183747Y-81841420D01*
X112230860Y-81401543D01*
X112234402Y-81385355D01*
X112234346Y-81385344D01*
X112235905Y-81377366D01*
X112236415Y-81369161D01*
X112239131Y-81325466D01*
X112239590Y-81320035D01*
X112245130Y-81268323D01*
X112245128Y-81268316D01*
X112244933Y-81260192D01*
X112244990Y-81260190D01*
X112244220Y-81243643D01*
X112260737Y-80978029D01*
X112275129Y-80746588D01*
X112278462Y-80727084D01*
X112279258Y-80721648D01*
X112279460Y-80707618D01*
X112279992Y-80670652D01*
X112280218Y-80664756D01*
X112283384Y-80613851D01*
X112283383Y-80613846D01*
X112283009Y-80608419D01*
X112281172Y-80588663D01*
X112288400Y-80086950D01*
X112291331Y-80062660D01*
X112291460Y-80061309D01*
X112291460Y-80061308D01*
X112289649Y-80011224D01*
X112289582Y-80004965D01*
X112290304Y-79954860D01*
X112290302Y-79954854D01*
X112290144Y-79953497D01*
X112286688Y-79929283D01*
X112281784Y-79793589D01*
X112272827Y-79545762D01*
X119779357Y-79545762D01*
X119779357Y-79545773D01*
X119799890Y-79793580D01*
X119799892Y-79793592D01*
X119860936Y-80034649D01*
X119960826Y-80262374D01*
X120096833Y-80470550D01*
X120096836Y-80470553D01*
X120265256Y-80653506D01*
X120348008Y-80717915D01*
X120388821Y-80774625D01*
X120392496Y-80844398D01*
X120357864Y-80905081D01*
X120348014Y-80913616D01*
X120289400Y-80959237D01*
X120265257Y-80978029D01*
X120096833Y-81160985D01*
X119960826Y-81369161D01*
X119860936Y-81596886D01*
X119799892Y-81837943D01*
X119799890Y-81837955D01*
X119779357Y-82085762D01*
X119779357Y-82085773D01*
X119799890Y-82333580D01*
X119799892Y-82333592D01*
X119860936Y-82574649D01*
X119960826Y-82802374D01*
X120096833Y-83010550D01*
X120096836Y-83010553D01*
X120265256Y-83193506D01*
X120265259Y-83193508D01*
X120265262Y-83193511D01*
X120368743Y-83274054D01*
X120409556Y-83330764D01*
X120416343Y-83379591D01*
X120414941Y-83402157D01*
X121073940Y-84061155D01*
X121053409Y-84066657D01*
X120916592Y-84145649D01*
X120804881Y-84257360D01*
X120725889Y-84394177D01*
X120720387Y-84414707D01*
X120061564Y-83755884D01*
X119961267Y-83909400D01*
X119861412Y-84137050D01*
X119800387Y-84378029D01*
X119800385Y-84378038D01*
X119779859Y-84625762D01*
X119779859Y-84625773D01*
X119800385Y-84873497D01*
X119800387Y-84873506D01*
X119861412Y-85114485D01*
X119961266Y-85342132D01*
X120061564Y-85495650D01*
X120720387Y-84836827D01*
X120725889Y-84857359D01*
X120804881Y-84994176D01*
X120916592Y-85105887D01*
X121053409Y-85184879D01*
X121073940Y-85190380D01*
X120414942Y-85849377D01*
X120416343Y-85871945D01*
X120400850Y-85940075D01*
X120368744Y-85977481D01*
X120265258Y-86058028D01*
X120096833Y-86240985D01*
X119960826Y-86449161D01*
X119860936Y-86676886D01*
X119799892Y-86917943D01*
X119799890Y-86917955D01*
X119779357Y-87165762D01*
X119779357Y-87165773D01*
X119799890Y-87413580D01*
X119799892Y-87413592D01*
X119860936Y-87654649D01*
X119960826Y-87882374D01*
X120096833Y-88090550D01*
X120096836Y-88090553D01*
X120265256Y-88273506D01*
X120348008Y-88337915D01*
X120388821Y-88394625D01*
X120392496Y-88464398D01*
X120357864Y-88525081D01*
X120348014Y-88533616D01*
X120289400Y-88579237D01*
X120265257Y-88598029D01*
X120096833Y-88780985D01*
X119960826Y-88989161D01*
X119860936Y-89216886D01*
X119799892Y-89457943D01*
X119799890Y-89457955D01*
X119779357Y-89705762D01*
X119779357Y-89705773D01*
X119799890Y-89953580D01*
X119799892Y-89953592D01*
X119860936Y-90194649D01*
X119960826Y-90422374D01*
X120096833Y-90630550D01*
X120096836Y-90630553D01*
X120265256Y-90813506D01*
X120348008Y-90877915D01*
X120388821Y-90934625D01*
X120392496Y-91004398D01*
X120357864Y-91065081D01*
X120348014Y-91073616D01*
X120289400Y-91119237D01*
X120265257Y-91138029D01*
X120096833Y-91320985D01*
X119960826Y-91529161D01*
X119860936Y-91756886D01*
X119799892Y-91997943D01*
X119799890Y-91997955D01*
X119779357Y-92245762D01*
X119779357Y-92245773D01*
X119799890Y-92493580D01*
X119799892Y-92493592D01*
X119860936Y-92734649D01*
X119960826Y-92962374D01*
X120096833Y-93170550D01*
X120096836Y-93170553D01*
X120265256Y-93353506D01*
X120348008Y-93417915D01*
X120388821Y-93474625D01*
X120392496Y-93544398D01*
X120357864Y-93605081D01*
X120348014Y-93613616D01*
X120289400Y-93659237D01*
X120265257Y-93678029D01*
X120096833Y-93860985D01*
X119960826Y-94069161D01*
X119860936Y-94296886D01*
X119799892Y-94537943D01*
X119799890Y-94537955D01*
X119779357Y-94785762D01*
X119779357Y-94785773D01*
X119799890Y-95033580D01*
X119799892Y-95033592D01*
X119860936Y-95274649D01*
X119960826Y-95502374D01*
X120096833Y-95710550D01*
X120096836Y-95710553D01*
X120265256Y-95893506D01*
X120348008Y-95957915D01*
X120388821Y-96014625D01*
X120392496Y-96084398D01*
X120357864Y-96145081D01*
X120348014Y-96153616D01*
X120315051Y-96179273D01*
X120265257Y-96218029D01*
X120096833Y-96400985D01*
X119960826Y-96609161D01*
X119860936Y-96836886D01*
X119799892Y-97077943D01*
X119799890Y-97077955D01*
X119779357Y-97325762D01*
X119779357Y-97325773D01*
X119799890Y-97573580D01*
X119799892Y-97573592D01*
X119860936Y-97814649D01*
X119960826Y-98042374D01*
X120096833Y-98250550D01*
X120096836Y-98250553D01*
X120265256Y-98433506D01*
X120348008Y-98497915D01*
X120388821Y-98554625D01*
X120392496Y-98624398D01*
X120357864Y-98685081D01*
X120348014Y-98693616D01*
X120323600Y-98712619D01*
X120265257Y-98758029D01*
X120096833Y-98940985D01*
X119960826Y-99149161D01*
X119860936Y-99376886D01*
X119799892Y-99617943D01*
X119799890Y-99617955D01*
X119779357Y-99865762D01*
X119779357Y-99865773D01*
X119799890Y-100113580D01*
X119799892Y-100113592D01*
X119860936Y-100354649D01*
X119960826Y-100582374D01*
X120096833Y-100790550D01*
X120096836Y-100790553D01*
X120265256Y-100973506D01*
X120348008Y-101037915D01*
X120388821Y-101094625D01*
X120392496Y-101164398D01*
X120357864Y-101225081D01*
X120348014Y-101233616D01*
X120295923Y-101274161D01*
X120265257Y-101298029D01*
X120096833Y-101480985D01*
X119960826Y-101689161D01*
X119860936Y-101916886D01*
X119799892Y-102157943D01*
X119799890Y-102157955D01*
X119779357Y-102405762D01*
X119779357Y-102405773D01*
X119799890Y-102653580D01*
X119799892Y-102653592D01*
X119860936Y-102894649D01*
X119960826Y-103122374D01*
X120096833Y-103330550D01*
X120096836Y-103330553D01*
X120265256Y-103513506D01*
X120348008Y-103577915D01*
X120388821Y-103634625D01*
X120392496Y-103704398D01*
X120357864Y-103765081D01*
X120348014Y-103773616D01*
X120289400Y-103819237D01*
X120265257Y-103838029D01*
X120096833Y-104020985D01*
X119960826Y-104229161D01*
X119860936Y-104456886D01*
X119799892Y-104697943D01*
X119799890Y-104697955D01*
X119779357Y-104945762D01*
X119779357Y-104945773D01*
X119799890Y-105193580D01*
X119799892Y-105193592D01*
X119860936Y-105434649D01*
X119960826Y-105662374D01*
X120096833Y-105870550D01*
X120096836Y-105870553D01*
X120265256Y-106053506D01*
X120348008Y-106117915D01*
X120388821Y-106174625D01*
X120392496Y-106244398D01*
X120357864Y-106305081D01*
X120348014Y-106313616D01*
X120323310Y-106332845D01*
X120265257Y-106378029D01*
X120096833Y-106560985D01*
X119960826Y-106769161D01*
X119860936Y-106996886D01*
X119799892Y-107237943D01*
X119799890Y-107237955D01*
X119779357Y-107485762D01*
X119779357Y-107485773D01*
X119799890Y-107733580D01*
X119799892Y-107733592D01*
X119860936Y-107974649D01*
X119960826Y-108202374D01*
X120096833Y-108410550D01*
X120096836Y-108410553D01*
X120265256Y-108593506D01*
X120348008Y-108657915D01*
X120388821Y-108714625D01*
X120392496Y-108784398D01*
X120357864Y-108845081D01*
X120348014Y-108853616D01*
X120289400Y-108899237D01*
X120265257Y-108918029D01*
X120096833Y-109100985D01*
X119960826Y-109309161D01*
X119860936Y-109536886D01*
X119799892Y-109777943D01*
X119799890Y-109777955D01*
X119779357Y-110025762D01*
X119779357Y-110025773D01*
X119799890Y-110273580D01*
X119799892Y-110273592D01*
X119860936Y-110514649D01*
X119960826Y-110742374D01*
X120096833Y-110950550D01*
X120096836Y-110950553D01*
X120265256Y-111133506D01*
X120348008Y-111197915D01*
X120388821Y-111254625D01*
X120392496Y-111324398D01*
X120357864Y-111385081D01*
X120348014Y-111393616D01*
X120292588Y-111436757D01*
X120265257Y-111458029D01*
X120096833Y-111640985D01*
X119960826Y-111849161D01*
X119860936Y-112076886D01*
X119799892Y-112317943D01*
X119799890Y-112317955D01*
X119779357Y-112565762D01*
X119779357Y-112565773D01*
X119799890Y-112813580D01*
X119799892Y-112813592D01*
X119860936Y-113054649D01*
X119960826Y-113282374D01*
X120096833Y-113490550D01*
X120096836Y-113490553D01*
X120265256Y-113673506D01*
X120348008Y-113737915D01*
X120388821Y-113794625D01*
X120392496Y-113864398D01*
X120357864Y-113925081D01*
X120348014Y-113933616D01*
X120289400Y-113979237D01*
X120265257Y-113998029D01*
X120096833Y-114180985D01*
X119960826Y-114389161D01*
X119860936Y-114616886D01*
X119799892Y-114857943D01*
X119799890Y-114857955D01*
X119779357Y-115105762D01*
X119779357Y-115105773D01*
X119799890Y-115353580D01*
X119799892Y-115353592D01*
X119860936Y-115594649D01*
X119960826Y-115822374D01*
X120096833Y-116030550D01*
X120096836Y-116030553D01*
X120265256Y-116213506D01*
X120461491Y-116366242D01*
X120680190Y-116484596D01*
X120915386Y-116565339D01*
X121160665Y-116606268D01*
X121409335Y-116606268D01*
X121654614Y-116565339D01*
X121889810Y-116484596D01*
X122108509Y-116366242D01*
X122304744Y-116213506D01*
X122473164Y-116030553D01*
X122609173Y-115822375D01*
X122627560Y-115780457D01*
X122672517Y-115726972D01*
X122739253Y-115706282D01*
X122741116Y-115706268D01*
X126507844Y-115706268D01*
X126574883Y-115725953D01*
X126609419Y-115759145D01*
X126742454Y-115949141D01*
X126903358Y-116110045D01*
X126903361Y-116110047D01*
X127089766Y-116240568D01*
X127296004Y-116336739D01*
X127515808Y-116395635D01*
X127677730Y-116409801D01*
X127742498Y-116415468D01*
X127742500Y-116415468D01*
X127742502Y-116415468D01*
X127799173Y-116410509D01*
X127969192Y-116395635D01*
X128188996Y-116336739D01*
X128395234Y-116240568D01*
X128581639Y-116110047D01*
X128742547Y-115949139D01*
X128873068Y-115762734D01*
X128969239Y-115556496D01*
X129028135Y-115336692D01*
X129047968Y-115110000D01*
X129028135Y-114883308D01*
X128969239Y-114663504D01*
X128873068Y-114457266D01*
X128742547Y-114270861D01*
X128742545Y-114270858D01*
X128581641Y-114109954D01*
X128395234Y-113979432D01*
X128395228Y-113979429D01*
X128337225Y-113952382D01*
X128284785Y-113906210D01*
X128265633Y-113839017D01*
X128285848Y-113772135D01*
X128337225Y-113727618D01*
X128395234Y-113700568D01*
X128581639Y-113570047D01*
X128742547Y-113409139D01*
X128873068Y-113222734D01*
X128969239Y-113016496D01*
X129028135Y-112796692D01*
X129047968Y-112570000D01*
X129028135Y-112343308D01*
X128969239Y-112123504D01*
X128873068Y-111917266D01*
X128742547Y-111730861D01*
X128742545Y-111730858D01*
X128581641Y-111569954D01*
X128395234Y-111439432D01*
X128395228Y-111439429D01*
X128337225Y-111412382D01*
X128284785Y-111366210D01*
X128265633Y-111299017D01*
X128285848Y-111232135D01*
X128337225Y-111187618D01*
X128395234Y-111160568D01*
X128581639Y-111030047D01*
X128742547Y-110869139D01*
X128873068Y-110682734D01*
X128969239Y-110476496D01*
X129028135Y-110256692D01*
X129047968Y-110030000D01*
X129028135Y-109803308D01*
X128969239Y-109583504D01*
X128873068Y-109377266D01*
X128742547Y-109190861D01*
X128742545Y-109190858D01*
X128581641Y-109029954D01*
X128395234Y-108899432D01*
X128395228Y-108899429D01*
X128337225Y-108872382D01*
X128284785Y-108826210D01*
X128265633Y-108759017D01*
X128285848Y-108692135D01*
X128337225Y-108647618D01*
X128395234Y-108620568D01*
X128581639Y-108490047D01*
X128742547Y-108329139D01*
X128873068Y-108142734D01*
X128969239Y-107936496D01*
X129028135Y-107716692D01*
X129047968Y-107490000D01*
X129028135Y-107263308D01*
X128969239Y-107043504D01*
X128873068Y-106837266D01*
X128742547Y-106650861D01*
X128742545Y-106650858D01*
X128581641Y-106489954D01*
X128395234Y-106359432D01*
X128395228Y-106359429D01*
X128367538Y-106346517D01*
X128337224Y-106332381D01*
X128284785Y-106286210D01*
X128265633Y-106219017D01*
X128285848Y-106152135D01*
X128337225Y-106107618D01*
X128395234Y-106080568D01*
X128581639Y-105950047D01*
X128742547Y-105789139D01*
X128873068Y-105602734D01*
X128969239Y-105396496D01*
X129028135Y-105176692D01*
X129047968Y-104950000D01*
X129028135Y-104723308D01*
X128969239Y-104503504D01*
X128873068Y-104297266D01*
X128742547Y-104110861D01*
X128742545Y-104110858D01*
X128581641Y-103949954D01*
X128395234Y-103819432D01*
X128395228Y-103819429D01*
X128337225Y-103792382D01*
X128284785Y-103746210D01*
X128265633Y-103679017D01*
X128285848Y-103612135D01*
X128337225Y-103567618D01*
X128395234Y-103540568D01*
X128581639Y-103410047D01*
X128742547Y-103249139D01*
X128873068Y-103062734D01*
X128969239Y-102856496D01*
X129028135Y-102636692D01*
X129047968Y-102410000D01*
X129028135Y-102183308D01*
X128969239Y-101963504D01*
X128873068Y-101757266D01*
X128742547Y-101570861D01*
X128742545Y-101570858D01*
X128581641Y-101409954D01*
X128395234Y-101279432D01*
X128395228Y-101279429D01*
X128337225Y-101252382D01*
X128284785Y-101206210D01*
X128265633Y-101139017D01*
X128285848Y-101072135D01*
X128337225Y-101027618D01*
X128395234Y-101000568D01*
X128581639Y-100870047D01*
X128742547Y-100709139D01*
X128873068Y-100522734D01*
X128969239Y-100316496D01*
X129028135Y-100096692D01*
X129047968Y-99870000D01*
X129028135Y-99643308D01*
X128969239Y-99423504D01*
X128873068Y-99217266D01*
X128742547Y-99030861D01*
X128742545Y-99030858D01*
X128581641Y-98869954D01*
X128395234Y-98739432D01*
X128395228Y-98739429D01*
X128367538Y-98726517D01*
X128337224Y-98712381D01*
X128284785Y-98666210D01*
X128265633Y-98599017D01*
X128285848Y-98532135D01*
X128337225Y-98487618D01*
X128395234Y-98460568D01*
X128581639Y-98330047D01*
X128742547Y-98169139D01*
X128873068Y-97982734D01*
X128969239Y-97776496D01*
X129028135Y-97556692D01*
X129047968Y-97330000D01*
X129028135Y-97103308D01*
X128969239Y-96883504D01*
X128873068Y-96677266D01*
X128742547Y-96490861D01*
X128742545Y-96490858D01*
X128581641Y-96329954D01*
X128395234Y-96199432D01*
X128395228Y-96199429D01*
X128337225Y-96172382D01*
X128284785Y-96126210D01*
X128265633Y-96059017D01*
X128285848Y-95992135D01*
X128337225Y-95947618D01*
X128395234Y-95920568D01*
X128581639Y-95790047D01*
X128742547Y-95629139D01*
X128873068Y-95442734D01*
X128969239Y-95236496D01*
X129028135Y-95016692D01*
X129047968Y-94790000D01*
X129028135Y-94563308D01*
X128969239Y-94343504D01*
X128873068Y-94137266D01*
X128742547Y-93950861D01*
X128742545Y-93950858D01*
X128581641Y-93789954D01*
X128395234Y-93659432D01*
X128395228Y-93659429D01*
X128337225Y-93632382D01*
X128284785Y-93586210D01*
X128265633Y-93519017D01*
X128285848Y-93452135D01*
X128337225Y-93407618D01*
X128395234Y-93380568D01*
X128581639Y-93250047D01*
X128742547Y-93089139D01*
X128873068Y-92902734D01*
X128969239Y-92696496D01*
X129028135Y-92476692D01*
X129047968Y-92250000D01*
X129028135Y-92023308D01*
X128969239Y-91803504D01*
X128873068Y-91597266D01*
X128742547Y-91410861D01*
X128742545Y-91410858D01*
X128581641Y-91249954D01*
X128395234Y-91119432D01*
X128395228Y-91119429D01*
X128337225Y-91092382D01*
X128284785Y-91046210D01*
X128265633Y-90979017D01*
X128285848Y-90912135D01*
X128337225Y-90867618D01*
X128395234Y-90840568D01*
X128581639Y-90710047D01*
X128742547Y-90549139D01*
X128873068Y-90362734D01*
X128969239Y-90156496D01*
X129028135Y-89936692D01*
X129047968Y-89710000D01*
X129028135Y-89483308D01*
X128969239Y-89263504D01*
X128873068Y-89057266D01*
X128742547Y-88870861D01*
X128742545Y-88870858D01*
X128581641Y-88709954D01*
X128395234Y-88579432D01*
X128395228Y-88579429D01*
X128337225Y-88552382D01*
X128284785Y-88506210D01*
X128265633Y-88439017D01*
X128285848Y-88372135D01*
X128337225Y-88327618D01*
X128395234Y-88300568D01*
X128581639Y-88170047D01*
X128742547Y-88009139D01*
X128873068Y-87822734D01*
X128969239Y-87616496D01*
X129028135Y-87396692D01*
X129047968Y-87170000D01*
X129028135Y-86943308D01*
X128969239Y-86723504D01*
X128873068Y-86517266D01*
X128742547Y-86330861D01*
X128742545Y-86330858D01*
X128581641Y-86169954D01*
X128421795Y-86058030D01*
X128395234Y-86039432D01*
X128336632Y-86012105D01*
X128284194Y-85965933D01*
X128265043Y-85898739D01*
X128285259Y-85831858D01*
X128336635Y-85787341D01*
X128394982Y-85760133D01*
X128467971Y-85709024D01*
X127788947Y-85030000D01*
X127795161Y-85030000D01*
X127896894Y-85002741D01*
X127988106Y-84950080D01*
X128062580Y-84875606D01*
X128115241Y-84784394D01*
X128142500Y-84682661D01*
X128142500Y-84676447D01*
X128821524Y-85355471D01*
X128872636Y-85282478D01*
X128968764Y-85076331D01*
X128968769Y-85076317D01*
X129027639Y-84856610D01*
X129027641Y-84856599D01*
X129047466Y-84630002D01*
X129047466Y-84629997D01*
X129027641Y-84403400D01*
X129027639Y-84403389D01*
X128968769Y-84183682D01*
X128968764Y-84183668D01*
X128872636Y-83977521D01*
X128872632Y-83977513D01*
X128821525Y-83904526D01*
X128142500Y-84583551D01*
X128142500Y-84577339D01*
X128115241Y-84475606D01*
X128062580Y-84384394D01*
X127988106Y-84309920D01*
X127896894Y-84257259D01*
X127795161Y-84230000D01*
X127788948Y-84230000D01*
X128467972Y-83550974D01*
X128394980Y-83499864D01*
X128336634Y-83472657D01*
X128284195Y-83426484D01*
X128265043Y-83359291D01*
X128285259Y-83292410D01*
X128336634Y-83247893D01*
X128395234Y-83220568D01*
X128581639Y-83090047D01*
X128742547Y-82929139D01*
X128873068Y-82742734D01*
X128969239Y-82536496D01*
X129024936Y-82328628D01*
X129061299Y-82268971D01*
X129124146Y-82238441D01*
X129174528Y-82241668D01*
X129174689Y-82240863D01*
X129373954Y-82280499D01*
X129373957Y-82280500D01*
X129373959Y-82280500D01*
X152580501Y-82280500D01*
X152647540Y-82300185D01*
X152693295Y-82352989D01*
X152704501Y-82404500D01*
X152704501Y-82427876D01*
X152710908Y-82487483D01*
X152761202Y-82622328D01*
X152761206Y-82622335D01*
X152847452Y-82737544D01*
X152847455Y-82737547D01*
X152962664Y-82823793D01*
X152962671Y-82823797D01*
X153097517Y-82874091D01*
X153097516Y-82874091D01*
X153104444Y-82874835D01*
X153157127Y-82880500D01*
X155452872Y-82880499D01*
X155457588Y-82879992D01*
X155472245Y-82878417D01*
X155541004Y-82890822D01*
X155592142Y-82938432D01*
X155609500Y-83001706D01*
X155609500Y-85872536D01*
X155589815Y-85939575D01*
X155537011Y-85985330D01*
X155467853Y-85995274D01*
X155404969Y-85966827D01*
X155293875Y-85871944D01*
X155248659Y-85833326D01*
X155248657Y-85833324D01*
X155248655Y-85833323D01*
X155248653Y-85833322D01*
X155033859Y-85701695D01*
X154801110Y-85605288D01*
X154556151Y-85546479D01*
X154305000Y-85526713D01*
X154053848Y-85546479D01*
X153808889Y-85605288D01*
X153576140Y-85701695D01*
X153361346Y-85833322D01*
X153361343Y-85833323D01*
X153169776Y-85996937D01*
X153156822Y-86012105D01*
X153091835Y-86088194D01*
X153033331Y-86126387D01*
X152997547Y-86131662D01*
X148886049Y-86131662D01*
X148819010Y-86111977D01*
X148814939Y-86109245D01*
X148715234Y-86039432D01*
X148715232Y-86039431D01*
X148508997Y-85943261D01*
X148508988Y-85943258D01*
X148289197Y-85884366D01*
X148289193Y-85884365D01*
X148289192Y-85884365D01*
X148289191Y-85884364D01*
X148289186Y-85884364D01*
X148062502Y-85864532D01*
X148062498Y-85864532D01*
X147835813Y-85884364D01*
X147835802Y-85884366D01*
X147616011Y-85943258D01*
X147616002Y-85943261D01*
X147409767Y-86039431D01*
X147409765Y-86039432D01*
X147223358Y-86169954D01*
X147062454Y-86330858D01*
X146931932Y-86517265D01*
X146931931Y-86517267D01*
X146835761Y-86723502D01*
X146835758Y-86723511D01*
X146776866Y-86943302D01*
X146776864Y-86943313D01*
X146757032Y-87169998D01*
X146757032Y-87170001D01*
X146776864Y-87396686D01*
X146776866Y-87396697D01*
X146835758Y-87616488D01*
X146835761Y-87616497D01*
X146931931Y-87822732D01*
X146931932Y-87822734D01*
X147062454Y-88009141D01*
X147223358Y-88170045D01*
X147223361Y-88170047D01*
X147409766Y-88300568D01*
X147467775Y-88327618D01*
X147520214Y-88373791D01*
X147539366Y-88440984D01*
X147519150Y-88507865D01*
X147467775Y-88552382D01*
X147409767Y-88579431D01*
X147409765Y-88579432D01*
X147223358Y-88709954D01*
X147062454Y-88870858D01*
X146931932Y-89057265D01*
X146931931Y-89057267D01*
X146835761Y-89263502D01*
X146835758Y-89263511D01*
X146776866Y-89483302D01*
X146776864Y-89483313D01*
X146757032Y-89709998D01*
X146757032Y-89710001D01*
X146776864Y-89936686D01*
X146776866Y-89936697D01*
X146835758Y-90156488D01*
X146835761Y-90156497D01*
X146931931Y-90362732D01*
X146931932Y-90362734D01*
X147062454Y-90549141D01*
X147223358Y-90710045D01*
X147223361Y-90710047D01*
X147409766Y-90840568D01*
X147467775Y-90867618D01*
X147520214Y-90913791D01*
X147539366Y-90980984D01*
X147519150Y-91047865D01*
X147467775Y-91092382D01*
X147409767Y-91119431D01*
X147409765Y-91119432D01*
X147223358Y-91249954D01*
X147062454Y-91410858D01*
X146931931Y-91597266D01*
X146866132Y-91738372D01*
X146841431Y-91773647D01*
X145774540Y-92840539D01*
X144777221Y-93837858D01*
X144777218Y-93837861D01*
X144707538Y-93907540D01*
X144637859Y-93977219D01*
X144528371Y-94141080D01*
X144528364Y-94141093D01*
X144493117Y-94226190D01*
X144493117Y-94226191D01*
X144452949Y-94323163D01*
X144452947Y-94323171D01*
X144433724Y-94419812D01*
X144414500Y-94516455D01*
X144414500Y-128867545D01*
X144394815Y-128934584D01*
X144371032Y-128961835D01*
X144279776Y-129039776D01*
X144239290Y-129087179D01*
X144180783Y-129125372D01*
X144110915Y-129125870D01*
X144051869Y-129088516D01*
X144050710Y-129087179D01*
X144047998Y-129084004D01*
X144010224Y-129039776D01*
X143852422Y-128905000D01*
X143818656Y-128876161D01*
X143818653Y-128876160D01*
X143603859Y-128744533D01*
X143371110Y-128648126D01*
X143126151Y-128589317D01*
X142875000Y-128569551D01*
X142623848Y-128589317D01*
X142378889Y-128648126D01*
X142146140Y-128744533D01*
X142013983Y-128825520D01*
X141946537Y-128843765D01*
X141879935Y-128822649D01*
X141849927Y-128794104D01*
X141792547Y-128717455D01*
X141792544Y-128717452D01*
X141677335Y-128631206D01*
X141677328Y-128631202D01*
X141542482Y-128580908D01*
X141542483Y-128580908D01*
X141482883Y-128574501D01*
X141482881Y-128574500D01*
X141482873Y-128574500D01*
X141482864Y-128574500D01*
X139187129Y-128574500D01*
X139187123Y-128574501D01*
X139127516Y-128580908D01*
X138992671Y-128631202D01*
X138992664Y-128631206D01*
X138877455Y-128717452D01*
X138877452Y-128717455D01*
X138791206Y-128832664D01*
X138791202Y-128832671D01*
X138740908Y-128967517D01*
X138734501Y-129027116D01*
X138734500Y-129027135D01*
X138734500Y-129050500D01*
X138714815Y-129117539D01*
X138662011Y-129163294D01*
X138610500Y-129174500D01*
X136562453Y-129174500D01*
X136495414Y-129154815D01*
X136468166Y-129131034D01*
X136390224Y-129039776D01*
X136317202Y-128977409D01*
X136198656Y-128876161D01*
X136198653Y-128876160D01*
X135983859Y-128744533D01*
X135751110Y-128648126D01*
X135506151Y-128589317D01*
X135255000Y-128569551D01*
X135003848Y-128589317D01*
X134758889Y-128648126D01*
X134526140Y-128744533D01*
X134311346Y-128876160D01*
X134311343Y-128876161D01*
X134119776Y-129039776D01*
X134079290Y-129087179D01*
X134020783Y-129125372D01*
X133950915Y-129125870D01*
X133891869Y-129088516D01*
X133890710Y-129087179D01*
X133850224Y-129039776D01*
X133692422Y-128905000D01*
X133658656Y-128876161D01*
X133658653Y-128876160D01*
X133443859Y-128744533D01*
X133211110Y-128648126D01*
X132966151Y-128589317D01*
X132715000Y-128569551D01*
X132463848Y-128589317D01*
X132218889Y-128648126D01*
X131986145Y-128744531D01*
X131853555Y-128825783D01*
X131786109Y-128844027D01*
X131719506Y-128822910D01*
X131689499Y-128794366D01*
X131632190Y-128717812D01*
X131632187Y-128717809D01*
X131517093Y-128631649D01*
X131517086Y-128631645D01*
X131382379Y-128581403D01*
X131382372Y-128581401D01*
X131322844Y-128575000D01*
X130425000Y-128575000D01*
X130425000Y-129684252D01*
X130387292Y-129662482D01*
X130247409Y-129625000D01*
X130102591Y-129625000D01*
X129962708Y-129662482D01*
X129925000Y-129684252D01*
X129925000Y-128575000D01*
X129027155Y-128575000D01*
X128967627Y-128581401D01*
X128967620Y-128581403D01*
X128832913Y-128631645D01*
X128832906Y-128631649D01*
X128717812Y-128717809D01*
X128717809Y-128717812D01*
X128631649Y-128832906D01*
X128631645Y-128832913D01*
X128581403Y-128967620D01*
X128581401Y-128967627D01*
X128575000Y-129027155D01*
X128575000Y-129925000D01*
X129684252Y-129925000D01*
X129662482Y-129962708D01*
X129625000Y-130102591D01*
X129625000Y-130247409D01*
X129662482Y-130387292D01*
X129684252Y-130425000D01*
X128575000Y-130425000D01*
X128575000Y-131322844D01*
X128581401Y-131382372D01*
X128581403Y-131382379D01*
X128631645Y-131517086D01*
X128631649Y-131517093D01*
X128717809Y-131632187D01*
X128717812Y-131632190D01*
X128832906Y-131718350D01*
X128832913Y-131718354D01*
X128967620Y-131768596D01*
X128967627Y-131768598D01*
X129027155Y-131774999D01*
X129027172Y-131775000D01*
X129732218Y-131775000D01*
X129799257Y-131794685D01*
X129845012Y-131847489D01*
X129854956Y-131916647D01*
X129825931Y-131980203D01*
X129799999Y-132000894D01*
X129800886Y-132002221D01*
X129664711Y-132093210D01*
X129664707Y-132093213D01*
X129553213Y-132204707D01*
X129553210Y-132204711D01*
X129465609Y-132335814D01*
X129465602Y-132335827D01*
X129405264Y-132481498D01*
X129405261Y-132481510D01*
X129374500Y-132636153D01*
X129374500Y-132793846D01*
X129405261Y-132948489D01*
X129405264Y-132948501D01*
X129465602Y-133094172D01*
X129465609Y-133094185D01*
X129553210Y-133225288D01*
X129553213Y-133225292D01*
X129664707Y-133336786D01*
X129664711Y-133336789D01*
X129795814Y-133424390D01*
X129795827Y-133424397D01*
X129941498Y-133484735D01*
X129941503Y-133484737D01*
X130096153Y-133515499D01*
X130096156Y-133515500D01*
X130096158Y-133515500D01*
X130253844Y-133515500D01*
X130253845Y-133515499D01*
X130408497Y-133484737D01*
X130554179Y-133424394D01*
X130685289Y-133336789D01*
X130796789Y-133225289D01*
X130884394Y-133094179D01*
X130944737Y-132948497D01*
X130975500Y-132793842D01*
X130975500Y-132636158D01*
X130975500Y-132636155D01*
X130975499Y-132636153D01*
X130970051Y-132608764D01*
X130944737Y-132481503D01*
X130927573Y-132440064D01*
X130884397Y-132335827D01*
X130884390Y-132335814D01*
X130796789Y-132204711D01*
X130796786Y-132204707D01*
X130685292Y-132093213D01*
X130685288Y-132093210D01*
X130549114Y-132002221D01*
X130550695Y-131999854D01*
X130509526Y-131959470D01*
X130494019Y-131891343D01*
X130517805Y-131825647D01*
X130573334Y-131783240D01*
X130617782Y-131775000D01*
X131322828Y-131775000D01*
X131322844Y-131774999D01*
X131382372Y-131768598D01*
X131382379Y-131768596D01*
X131517086Y-131718354D01*
X131517093Y-131718350D01*
X131632186Y-131632190D01*
X131689498Y-131555633D01*
X131745432Y-131513762D01*
X131815124Y-131508778D01*
X131853555Y-131524217D01*
X131986140Y-131605466D01*
X132051523Y-131632548D01*
X132218889Y-131701873D01*
X132386043Y-131742003D01*
X132446634Y-131776792D01*
X132478799Y-131838818D01*
X132472323Y-131908387D01*
X132429264Y-131963411D01*
X132404550Y-131977137D01*
X132335820Y-132005606D01*
X132335814Y-132005609D01*
X132204711Y-132093210D01*
X132204707Y-132093213D01*
X132093213Y-132204707D01*
X132093210Y-132204711D01*
X132005609Y-132335814D01*
X132005602Y-132335827D01*
X131945264Y-132481498D01*
X131945261Y-132481510D01*
X131914500Y-132636153D01*
X131914500Y-132793846D01*
X131945261Y-132948489D01*
X131945264Y-132948501D01*
X132005602Y-133094172D01*
X132005609Y-133094185D01*
X132093210Y-133225288D01*
X132093213Y-133225292D01*
X132204707Y-133336786D01*
X132204711Y-133336789D01*
X132335814Y-133424390D01*
X132335827Y-133424397D01*
X132481498Y-133484735D01*
X132481503Y-133484737D01*
X132636153Y-133515499D01*
X132636156Y-133515500D01*
X132636158Y-133515500D01*
X132793844Y-133515500D01*
X132793845Y-133515499D01*
X132948497Y-133484737D01*
X133094179Y-133424394D01*
X133225289Y-133336789D01*
X133336789Y-133225289D01*
X133424394Y-133094179D01*
X133484737Y-132948497D01*
X133515500Y-132793842D01*
X133515500Y-132636158D01*
X133515500Y-132636155D01*
X133515499Y-132636153D01*
X133510051Y-132608764D01*
X133484737Y-132481503D01*
X133467573Y-132440064D01*
X133424397Y-132335827D01*
X133424390Y-132335814D01*
X133336789Y-132204711D01*
X133336786Y-132204707D01*
X133225292Y-132093213D01*
X133225288Y-132093210D01*
X133094185Y-132005609D01*
X133094175Y-132005604D01*
X133025450Y-131977137D01*
X132971047Y-131933296D01*
X132948982Y-131867001D01*
X132966261Y-131799302D01*
X133017399Y-131751692D01*
X133043950Y-131742004D01*
X133211111Y-131701873D01*
X133443859Y-131605466D01*
X133658659Y-131473836D01*
X133850224Y-131310224D01*
X133890710Y-131262819D01*
X133949216Y-131224627D01*
X134019084Y-131224128D01*
X134078130Y-131261482D01*
X134079235Y-131262756D01*
X134110617Y-131299500D01*
X134119776Y-131310224D01*
X134311343Y-131473838D01*
X134311346Y-131473839D01*
X134526140Y-131605466D01*
X134591523Y-131632548D01*
X134758889Y-131701873D01*
X134926043Y-131742003D01*
X134986634Y-131776792D01*
X135018799Y-131838818D01*
X135012323Y-131908387D01*
X134969264Y-131963411D01*
X134944550Y-131977137D01*
X134875820Y-132005606D01*
X134875814Y-132005609D01*
X134744711Y-132093210D01*
X134744707Y-132093213D01*
X134633213Y-132204707D01*
X134633210Y-132204711D01*
X134545609Y-132335814D01*
X134545602Y-132335827D01*
X134485264Y-132481498D01*
X134485261Y-132481510D01*
X134454500Y-132636153D01*
X134454500Y-132793846D01*
X134485261Y-132948489D01*
X134485264Y-132948501D01*
X134545602Y-133094172D01*
X134545609Y-133094185D01*
X134633210Y-133225288D01*
X134633213Y-133225292D01*
X134744707Y-133336786D01*
X134744711Y-133336789D01*
X134875814Y-133424390D01*
X134875827Y-133424397D01*
X135021498Y-133484735D01*
X135021503Y-133484737D01*
X135176153Y-133515499D01*
X135176156Y-133515500D01*
X135176158Y-133515500D01*
X135333844Y-133515500D01*
X135333845Y-133515499D01*
X135488497Y-133484737D01*
X135634179Y-133424394D01*
X135765289Y-133336789D01*
X135876789Y-133225289D01*
X135964394Y-133094179D01*
X136024737Y-132948497D01*
X136055500Y-132793842D01*
X136055500Y-132636158D01*
X136055500Y-132636155D01*
X136055499Y-132636153D01*
X136050051Y-132608764D01*
X136024737Y-132481503D01*
X136007573Y-132440064D01*
X135964397Y-132335827D01*
X135964390Y-132335814D01*
X135876789Y-132204711D01*
X135876786Y-132204707D01*
X135765292Y-132093213D01*
X135765288Y-132093210D01*
X135634185Y-132005609D01*
X135634175Y-132005604D01*
X135565450Y-131977137D01*
X135511047Y-131933296D01*
X135488982Y-131867001D01*
X135506261Y-131799302D01*
X135557399Y-131751692D01*
X135583950Y-131742004D01*
X135751111Y-131701873D01*
X135983859Y-131605466D01*
X136198659Y-131473836D01*
X136390224Y-131310224D01*
X136468164Y-131218967D01*
X136526669Y-131180775D01*
X136562453Y-131175500D01*
X138610501Y-131175500D01*
X138677540Y-131195185D01*
X138723295Y-131247989D01*
X138734501Y-131299500D01*
X138734501Y-131322876D01*
X138740908Y-131382483D01*
X138791202Y-131517328D01*
X138791206Y-131517335D01*
X138877452Y-131632544D01*
X138877455Y-131632547D01*
X138992664Y-131718793D01*
X138992671Y-131718797D01*
X139127517Y-131769091D01*
X139127516Y-131769091D01*
X139134444Y-131769835D01*
X139187127Y-131775500D01*
X139891427Y-131775499D01*
X139958464Y-131795183D01*
X140004219Y-131847987D01*
X140014163Y-131917146D01*
X139985138Y-131980702D01*
X139960316Y-132002601D01*
X139824711Y-132093210D01*
X139824707Y-132093213D01*
X139713213Y-132204707D01*
X139713210Y-132204711D01*
X139625609Y-132335814D01*
X139625602Y-132335827D01*
X139565264Y-132481498D01*
X139565261Y-132481510D01*
X139534500Y-132636153D01*
X139534500Y-132793846D01*
X139565261Y-132948489D01*
X139565264Y-132948501D01*
X139625602Y-133094172D01*
X139625609Y-133094185D01*
X139713210Y-133225288D01*
X139713213Y-133225292D01*
X139824707Y-133336786D01*
X139824711Y-133336789D01*
X139955814Y-133424390D01*
X139955827Y-133424397D01*
X140101498Y-133484735D01*
X140101503Y-133484737D01*
X140256153Y-133515499D01*
X140256156Y-133515500D01*
X140256158Y-133515500D01*
X140413844Y-133515500D01*
X140413845Y-133515499D01*
X140568497Y-133484737D01*
X140714179Y-133424394D01*
X140845289Y-133336789D01*
X140956789Y-133225289D01*
X141044394Y-133094179D01*
X141104737Y-132948497D01*
X141135500Y-132793842D01*
X141135500Y-132636158D01*
X141135500Y-132636155D01*
X141135499Y-132636153D01*
X141130051Y-132608764D01*
X141104737Y-132481503D01*
X141087573Y-132440064D01*
X141044397Y-132335827D01*
X141044390Y-132335814D01*
X140956789Y-132204711D01*
X140956786Y-132204707D01*
X140845292Y-132093213D01*
X140845288Y-132093210D01*
X140709683Y-132002601D01*
X140664878Y-131948989D01*
X140656171Y-131879664D01*
X140686326Y-131816636D01*
X140745769Y-131779917D01*
X140778571Y-131775499D01*
X141482872Y-131775499D01*
X141542483Y-131769091D01*
X141677331Y-131718796D01*
X141792546Y-131632546D01*
X141849928Y-131555893D01*
X141905860Y-131514024D01*
X141975552Y-131509040D01*
X142013983Y-131524479D01*
X142146140Y-131605466D01*
X142211523Y-131632548D01*
X142378889Y-131701873D01*
X142546043Y-131742003D01*
X142606634Y-131776792D01*
X142638799Y-131838818D01*
X142632323Y-131908387D01*
X142589264Y-131963411D01*
X142564550Y-131977137D01*
X142495820Y-132005606D01*
X142495814Y-132005609D01*
X142364711Y-132093210D01*
X142364707Y-132093213D01*
X142253213Y-132204707D01*
X142253210Y-132204711D01*
X142165609Y-132335814D01*
X142165602Y-132335827D01*
X142105264Y-132481498D01*
X142105261Y-132481510D01*
X142074500Y-132636153D01*
X142074500Y-132793846D01*
X142105261Y-132948489D01*
X142105264Y-132948501D01*
X142165602Y-133094172D01*
X142165609Y-133094185D01*
X142253210Y-133225288D01*
X142253213Y-133225292D01*
X142364707Y-133336786D01*
X142364711Y-133336789D01*
X142495814Y-133424390D01*
X142495827Y-133424397D01*
X142641498Y-133484735D01*
X142641503Y-133484737D01*
X142796153Y-133515499D01*
X142796156Y-133515500D01*
X142796158Y-133515500D01*
X142953844Y-133515500D01*
X142953845Y-133515499D01*
X143108497Y-133484737D01*
X143254179Y-133424394D01*
X143385289Y-133336789D01*
X143496789Y-133225289D01*
X143584394Y-133094179D01*
X143644737Y-132948497D01*
X143675500Y-132793842D01*
X143675500Y-132636158D01*
X143675500Y-132636155D01*
X143675499Y-132636153D01*
X143670051Y-132608764D01*
X143644737Y-132481503D01*
X143627573Y-132440064D01*
X143584397Y-132335827D01*
X143584390Y-132335814D01*
X143496789Y-132204711D01*
X143496786Y-132204707D01*
X143385292Y-132093213D01*
X143385288Y-132093210D01*
X143254185Y-132005609D01*
X143254175Y-132005604D01*
X143185450Y-131977137D01*
X143131047Y-131933296D01*
X143108982Y-131867001D01*
X143126261Y-131799302D01*
X143177399Y-131751692D01*
X143203950Y-131742004D01*
X143371111Y-131701873D01*
X143603859Y-131605466D01*
X143818659Y-131473836D01*
X144010224Y-131310224D01*
X144050711Y-131262819D01*
X144109216Y-131224627D01*
X144179084Y-131224128D01*
X144238130Y-131261482D01*
X144239229Y-131262749D01*
X144270617Y-131299500D01*
X144279776Y-131310224D01*
X144471343Y-131473838D01*
X144471346Y-131473839D01*
X144686140Y-131605466D01*
X144751523Y-131632548D01*
X144918889Y-131701873D01*
X145086043Y-131742003D01*
X145146634Y-131776792D01*
X145178799Y-131838818D01*
X145172323Y-131908387D01*
X145129264Y-131963411D01*
X145104550Y-131977137D01*
X145035820Y-132005606D01*
X145035814Y-132005609D01*
X144904711Y-132093210D01*
X144904707Y-132093213D01*
X144793213Y-132204707D01*
X144793210Y-132204711D01*
X144705609Y-132335814D01*
X144705602Y-132335827D01*
X144645264Y-132481498D01*
X144645261Y-132481510D01*
X144614500Y-132636153D01*
X144614500Y-132793846D01*
X144645261Y-132948489D01*
X144645264Y-132948501D01*
X144705602Y-133094172D01*
X144705609Y-133094185D01*
X144793210Y-133225288D01*
X144793213Y-133225292D01*
X144904707Y-133336786D01*
X144904711Y-133336789D01*
X145035814Y-133424390D01*
X145035827Y-133424397D01*
X145181498Y-133484735D01*
X145181503Y-133484737D01*
X145336153Y-133515499D01*
X145336156Y-133515500D01*
X145336158Y-133515500D01*
X145493844Y-133515500D01*
X145493845Y-133515499D01*
X145648497Y-133484737D01*
X145794179Y-133424394D01*
X145925289Y-133336789D01*
X146036789Y-133225289D01*
X146124394Y-133094179D01*
X146184737Y-132948497D01*
X146215500Y-132793842D01*
X146215500Y-132636158D01*
X146215500Y-132636155D01*
X146215499Y-132636153D01*
X146210051Y-132608764D01*
X146184737Y-132481503D01*
X146167573Y-132440064D01*
X146124397Y-132335827D01*
X146124390Y-132335814D01*
X146036789Y-132204711D01*
X146036786Y-132204707D01*
X145925292Y-132093213D01*
X145925288Y-132093210D01*
X145794185Y-132005609D01*
X145794175Y-132005604D01*
X145725450Y-131977137D01*
X145671047Y-131933296D01*
X145648982Y-131867001D01*
X145666261Y-131799302D01*
X145717399Y-131751692D01*
X145743950Y-131742004D01*
X145911111Y-131701873D01*
X146143859Y-131605466D01*
X146358659Y-131473836D01*
X146550224Y-131310224D01*
X146713836Y-131118659D01*
X146845466Y-130903859D01*
X146941873Y-130671111D01*
X147000683Y-130426148D01*
X147020449Y-130175000D01*
X147000683Y-129923852D01*
X146941873Y-129678889D01*
X146845466Y-129446141D01*
X146845466Y-129446140D01*
X146713839Y-129231346D01*
X146713838Y-129231343D01*
X146655718Y-129163294D01*
X146550224Y-129039776D01*
X146465741Y-128967620D01*
X146458968Y-128961835D01*
X146420775Y-128903327D01*
X146415500Y-128867545D01*
X146415500Y-123825000D01*
X150794551Y-123825000D01*
X150814317Y-124076151D01*
X150873126Y-124321110D01*
X150969533Y-124553859D01*
X151101160Y-124768653D01*
X151101161Y-124768656D01*
X151146287Y-124821491D01*
X151264776Y-124960224D01*
X151312178Y-125000709D01*
X151312179Y-125000710D01*
X151350372Y-125059217D01*
X151350870Y-125129085D01*
X151313516Y-125188131D01*
X151312179Y-125189290D01*
X151264776Y-125229776D01*
X151101161Y-125421343D01*
X151101160Y-125421346D01*
X150969533Y-125636140D01*
X150873126Y-125868889D01*
X150814317Y-126113848D01*
X150794551Y-126365000D01*
X150814317Y-126616151D01*
X150873126Y-126861110D01*
X150969533Y-127093859D01*
X151101160Y-127308653D01*
X151101161Y-127308656D01*
X151101164Y-127308659D01*
X151264776Y-127500224D01*
X151311841Y-127540421D01*
X151312179Y-127540710D01*
X151350372Y-127599217D01*
X151350870Y-127669085D01*
X151313516Y-127728131D01*
X151312179Y-127729290D01*
X151264776Y-127769776D01*
X151101161Y-127961343D01*
X151101160Y-127961346D01*
X150969533Y-128176140D01*
X150873126Y-128408889D01*
X150814317Y-128653848D01*
X150794551Y-128905000D01*
X150814317Y-129156151D01*
X150873126Y-129401110D01*
X150969533Y-129633859D01*
X151101160Y-129848653D01*
X151101161Y-129848656D01*
X151156604Y-129913571D01*
X151264776Y-130040224D01*
X151312178Y-130080709D01*
X151312179Y-130080710D01*
X151350372Y-130139217D01*
X151350870Y-130209085D01*
X151313516Y-130268131D01*
X151312179Y-130269290D01*
X151264776Y-130309776D01*
X151101161Y-130501343D01*
X151101160Y-130501346D01*
X150969533Y-130716140D01*
X150873126Y-130948889D01*
X150814317Y-131193848D01*
X150794551Y-131445000D01*
X150814317Y-131696151D01*
X150873126Y-131941110D01*
X150969533Y-132173859D01*
X151050520Y-132306016D01*
X151068765Y-132373462D01*
X151047649Y-132440064D01*
X151019105Y-132470072D01*
X150942452Y-132527455D01*
X150856206Y-132642664D01*
X150856202Y-132642671D01*
X150805908Y-132777517D01*
X150804153Y-132793846D01*
X150799501Y-132837123D01*
X150799500Y-132837135D01*
X150799500Y-135132870D01*
X150799501Y-135132876D01*
X150805908Y-135192483D01*
X150856202Y-135327328D01*
X150856206Y-135327335D01*
X150942452Y-135442544D01*
X150942455Y-135442547D01*
X151057664Y-135528793D01*
X151057671Y-135528797D01*
X151192517Y-135579091D01*
X151192516Y-135579091D01*
X151199444Y-135579835D01*
X151252127Y-135585500D01*
X153547872Y-135585499D01*
X153607483Y-135579091D01*
X153742331Y-135528796D01*
X153857546Y-135442546D01*
X153943796Y-135327331D01*
X153994091Y-135192483D01*
X154000500Y-135132873D01*
X154000499Y-132837128D01*
X153994091Y-132777517D01*
X153992936Y-132774421D01*
X153943797Y-132642671D01*
X153943793Y-132642664D01*
X153857547Y-132527455D01*
X153780894Y-132470072D01*
X153739024Y-132414138D01*
X153734040Y-132344446D01*
X153749476Y-132306021D01*
X153830466Y-132173859D01*
X153926873Y-131941111D01*
X153985683Y-131696148D01*
X154005449Y-131445000D01*
X153985683Y-131193852D01*
X153926873Y-130948889D01*
X153830466Y-130716141D01*
X153830466Y-130716140D01*
X153699017Y-130501637D01*
X153698838Y-130501345D01*
X153698838Y-130501343D01*
X153535224Y-130309776D01*
X153487819Y-130269289D01*
X153449627Y-130210784D01*
X153449128Y-130140916D01*
X153486482Y-130081870D01*
X153487756Y-130080764D01*
X153535224Y-130040224D01*
X153698836Y-129848659D01*
X153830466Y-129633859D01*
X153926873Y-129401111D01*
X153985683Y-129156148D01*
X154005449Y-128905000D01*
X153985683Y-128653852D01*
X153926873Y-128408889D01*
X153915316Y-128380987D01*
X153830466Y-128176140D01*
X153699017Y-127961637D01*
X153698838Y-127961345D01*
X153698838Y-127961343D01*
X153535224Y-127769776D01*
X153487819Y-127729289D01*
X153449627Y-127670784D01*
X153449128Y-127600916D01*
X153486482Y-127541870D01*
X153487756Y-127540764D01*
X153535224Y-127500224D01*
X153698836Y-127308659D01*
X153830466Y-127093859D01*
X153926873Y-126861111D01*
X153985683Y-126616148D01*
X154005449Y-126365000D01*
X153985683Y-126113852D01*
X153926873Y-125868889D01*
X153830466Y-125636141D01*
X153830466Y-125636140D01*
X153698839Y-125421346D01*
X153698838Y-125421343D01*
X153535224Y-125229776D01*
X153527517Y-125223194D01*
X153487819Y-125189289D01*
X153449627Y-125130784D01*
X153449128Y-125060916D01*
X153486482Y-125001870D01*
X153487756Y-125000764D01*
X153535224Y-124960224D01*
X153698836Y-124768659D01*
X153830466Y-124553859D01*
X153926873Y-124321111D01*
X153985683Y-124076148D01*
X154005449Y-123825000D01*
X153985683Y-123573852D01*
X153926873Y-123328889D01*
X153830466Y-123096141D01*
X153830466Y-123096140D01*
X153698839Y-122881346D01*
X153698838Y-122881343D01*
X153661875Y-122838066D01*
X153535224Y-122689776D01*
X153408571Y-122581604D01*
X153343656Y-122526161D01*
X153343653Y-122526160D01*
X153128859Y-122394533D01*
X152896110Y-122298126D01*
X152651151Y-122239317D01*
X152400000Y-122219551D01*
X152148848Y-122239317D01*
X151903889Y-122298126D01*
X151671140Y-122394533D01*
X151456346Y-122526160D01*
X151456343Y-122526161D01*
X151264776Y-122689776D01*
X151101161Y-122881343D01*
X151101160Y-122881346D01*
X150969533Y-123096140D01*
X150873126Y-123328889D01*
X150814317Y-123573848D01*
X150794551Y-123825000D01*
X146415500Y-123825000D01*
X146415500Y-95080781D01*
X146435185Y-95013742D01*
X146451815Y-94993104D01*
X146560785Y-94884134D01*
X146622107Y-94850650D01*
X146691799Y-94855634D01*
X146747732Y-94897506D01*
X146771993Y-94961008D01*
X146776864Y-95016687D01*
X146776866Y-95016697D01*
X146835758Y-95236488D01*
X146835761Y-95236497D01*
X146931931Y-95442732D01*
X146931932Y-95442734D01*
X147062454Y-95629141D01*
X147223358Y-95790045D01*
X147223361Y-95790047D01*
X147409766Y-95920568D01*
X147467775Y-95947618D01*
X147520214Y-95993791D01*
X147539366Y-96060984D01*
X147519150Y-96127865D01*
X147467775Y-96172382D01*
X147409767Y-96199431D01*
X147409765Y-96199432D01*
X147223358Y-96329954D01*
X147062454Y-96490858D01*
X146931932Y-96677265D01*
X146931931Y-96677267D01*
X146835761Y-96883502D01*
X146835758Y-96883511D01*
X146776866Y-97103302D01*
X146776864Y-97103313D01*
X146757032Y-97329998D01*
X146757032Y-97330001D01*
X146776864Y-97556686D01*
X146776866Y-97556697D01*
X146835758Y-97776488D01*
X146835761Y-97776497D01*
X146931931Y-97982732D01*
X146931932Y-97982734D01*
X147062454Y-98169141D01*
X147223358Y-98330045D01*
X147223361Y-98330047D01*
X147409766Y-98460568D01*
X147467775Y-98487618D01*
X147520214Y-98533791D01*
X147539366Y-98600984D01*
X147519150Y-98667865D01*
X147467775Y-98712381D01*
X147450772Y-98720310D01*
X147409767Y-98739431D01*
X147409765Y-98739432D01*
X147223358Y-98869954D01*
X147062454Y-99030858D01*
X146931932Y-99217265D01*
X146931931Y-99217267D01*
X146835761Y-99423502D01*
X146835758Y-99423511D01*
X146776866Y-99643302D01*
X146776864Y-99643313D01*
X146757032Y-99869998D01*
X146757032Y-99870001D01*
X146776864Y-100096686D01*
X146776866Y-100096697D01*
X146835758Y-100316488D01*
X146835761Y-100316497D01*
X146931931Y-100522732D01*
X146931932Y-100522734D01*
X147062454Y-100709141D01*
X147223358Y-100870045D01*
X147223361Y-100870047D01*
X147409766Y-101000568D01*
X147467775Y-101027618D01*
X147520214Y-101073791D01*
X147539366Y-101140984D01*
X147519150Y-101207865D01*
X147467775Y-101252382D01*
X147409767Y-101279431D01*
X147409765Y-101279432D01*
X147223358Y-101409954D01*
X147062454Y-101570858D01*
X146931932Y-101757265D01*
X146931931Y-101757267D01*
X146835761Y-101963502D01*
X146835758Y-101963511D01*
X146776866Y-102183302D01*
X146776864Y-102183313D01*
X146757032Y-102409998D01*
X146757032Y-102410001D01*
X146776864Y-102636686D01*
X146776866Y-102636697D01*
X146835758Y-102856488D01*
X146835761Y-102856497D01*
X146931931Y-103062732D01*
X146931932Y-103062734D01*
X147062454Y-103249141D01*
X147223358Y-103410045D01*
X147223361Y-103410047D01*
X147409766Y-103540568D01*
X147467775Y-103567618D01*
X147520214Y-103613791D01*
X147539366Y-103680984D01*
X147519150Y-103747865D01*
X147467775Y-103792382D01*
X147409767Y-103819431D01*
X147409765Y-103819432D01*
X147223358Y-103949954D01*
X147062454Y-104110858D01*
X146931932Y-104297265D01*
X146931931Y-104297267D01*
X146835761Y-104503502D01*
X146835758Y-104503511D01*
X146776866Y-104723302D01*
X146776864Y-104723313D01*
X146757032Y-104949998D01*
X146757032Y-104950001D01*
X146776864Y-105176686D01*
X146776866Y-105176697D01*
X146835758Y-105396488D01*
X146835761Y-105396497D01*
X146931931Y-105602732D01*
X146931932Y-105602734D01*
X147062454Y-105789141D01*
X147223358Y-105950045D01*
X147223361Y-105950047D01*
X147409766Y-106080568D01*
X147467775Y-106107618D01*
X147520214Y-106153791D01*
X147539366Y-106220984D01*
X147519150Y-106287865D01*
X147467775Y-106332381D01*
X147450772Y-106340310D01*
X147409767Y-106359431D01*
X147409765Y-106359432D01*
X147223358Y-106489954D01*
X147062454Y-106650858D01*
X146931932Y-106837265D01*
X146931931Y-106837267D01*
X146835761Y-107043502D01*
X146835758Y-107043511D01*
X146776866Y-107263302D01*
X146776864Y-107263313D01*
X146757032Y-107489998D01*
X146757032Y-107490001D01*
X146776864Y-107716686D01*
X146776866Y-107716697D01*
X146835758Y-107936488D01*
X146835761Y-107936497D01*
X146931931Y-108142732D01*
X146931932Y-108142734D01*
X147062454Y-108329141D01*
X147223358Y-108490045D01*
X147223361Y-108490047D01*
X147409766Y-108620568D01*
X147467775Y-108647618D01*
X147520214Y-108693791D01*
X147539366Y-108760984D01*
X147519150Y-108827865D01*
X147467775Y-108872382D01*
X147409767Y-108899431D01*
X147409765Y-108899432D01*
X147223358Y-109029954D01*
X147062454Y-109190858D01*
X146931932Y-109377265D01*
X146931931Y-109377267D01*
X146835761Y-109583502D01*
X146835758Y-109583511D01*
X146776866Y-109803302D01*
X146776864Y-109803313D01*
X146757032Y-110029998D01*
X146757032Y-110030001D01*
X146776864Y-110256686D01*
X146776866Y-110256697D01*
X146835758Y-110476488D01*
X146835761Y-110476497D01*
X146931931Y-110682732D01*
X146931932Y-110682734D01*
X147062454Y-110869141D01*
X147223358Y-111030045D01*
X147223361Y-111030047D01*
X147409766Y-111160568D01*
X147467775Y-111187618D01*
X147520214Y-111233791D01*
X147539366Y-111300984D01*
X147519150Y-111367865D01*
X147467775Y-111412382D01*
X147409767Y-111439431D01*
X147409765Y-111439432D01*
X147223358Y-111569954D01*
X147062454Y-111730858D01*
X146931932Y-111917265D01*
X146931931Y-111917267D01*
X146835761Y-112123502D01*
X146835758Y-112123511D01*
X146776866Y-112343302D01*
X146776864Y-112343313D01*
X146757032Y-112569998D01*
X146757032Y-112570001D01*
X146776864Y-112796686D01*
X146776866Y-112796697D01*
X146835758Y-113016488D01*
X146835761Y-113016497D01*
X146931931Y-113222732D01*
X146931932Y-113222734D01*
X147062454Y-113409141D01*
X147223358Y-113570045D01*
X147223361Y-113570047D01*
X147409766Y-113700568D01*
X147467775Y-113727618D01*
X147520214Y-113773791D01*
X147539366Y-113840984D01*
X147519150Y-113907865D01*
X147467775Y-113952382D01*
X147409767Y-113979431D01*
X147409765Y-113979432D01*
X147223358Y-114109954D01*
X147062454Y-114270858D01*
X146931932Y-114457265D01*
X146931931Y-114457267D01*
X146835761Y-114663502D01*
X146835758Y-114663511D01*
X146776866Y-114883302D01*
X146776864Y-114883313D01*
X146757032Y-115109998D01*
X146757032Y-115110001D01*
X146776864Y-115336686D01*
X146776866Y-115336697D01*
X146835758Y-115556488D01*
X146835761Y-115556497D01*
X146931931Y-115762732D01*
X146931932Y-115762734D01*
X147062454Y-115949141D01*
X147223358Y-116110045D01*
X147223361Y-116110047D01*
X147409766Y-116240568D01*
X147616004Y-116336739D01*
X147835808Y-116395635D01*
X147997730Y-116409801D01*
X148062498Y-116415468D01*
X148062500Y-116415468D01*
X148062502Y-116415468D01*
X148119173Y-116410509D01*
X148289192Y-116395635D01*
X148508996Y-116336739D01*
X148715234Y-116240568D01*
X148901639Y-116110047D01*
X149062547Y-115949139D01*
X149192618Y-115763375D01*
X149247193Y-115719752D01*
X149294192Y-115710500D01*
X152580501Y-115710500D01*
X152647540Y-115730185D01*
X152693295Y-115782989D01*
X152704501Y-115834500D01*
X152704501Y-116220038D01*
X152710908Y-116279645D01*
X152761202Y-116414490D01*
X152761206Y-116414497D01*
X152847452Y-116529706D01*
X152847455Y-116529709D01*
X152962664Y-116615955D01*
X152962671Y-116615959D01*
X153097517Y-116666253D01*
X153097516Y-116666253D01*
X153104444Y-116666997D01*
X153157127Y-116672662D01*
X155452872Y-116672661D01*
X155512483Y-116666253D01*
X155647331Y-116615958D01*
X155762546Y-116529708D01*
X155848796Y-116414493D01*
X155899091Y-116279645D01*
X155905500Y-116220035D01*
X155905499Y-114372257D01*
X155925184Y-114305219D01*
X155941813Y-114284582D01*
X157203506Y-113022890D01*
X157203511Y-113022886D01*
X157213714Y-113012682D01*
X157213716Y-113012682D01*
X157325520Y-112900878D01*
X157404577Y-112763946D01*
X157445500Y-112611219D01*
X157445500Y-78660943D01*
X157404577Y-78508216D01*
X157386561Y-78477011D01*
X157325524Y-78371290D01*
X157325521Y-78371286D01*
X157325520Y-78371284D01*
X157213716Y-78259480D01*
X157213715Y-78259479D01*
X157209385Y-78255149D01*
X157209374Y-78255139D01*
X155837292Y-76883057D01*
X155803807Y-76821734D01*
X155808791Y-76752042D01*
X155810412Y-76747923D01*
X155831872Y-76696113D01*
X155831871Y-76696113D01*
X155831873Y-76696111D01*
X155890683Y-76451148D01*
X155910449Y-76200000D01*
X155890683Y-75948852D01*
X155831873Y-75703889D01*
X155735466Y-75471140D01*
X155603839Y-75256346D01*
X155603838Y-75256343D01*
X155566875Y-75213066D01*
X155440224Y-75064776D01*
X155313571Y-74956604D01*
X155248656Y-74901161D01*
X155248653Y-74901160D01*
X155116417Y-74820125D01*
X155093526Y-74802079D01*
X154475234Y-74183787D01*
X154517292Y-74172518D01*
X154642708Y-74100110D01*
X154745110Y-73997708D01*
X154817518Y-73872292D01*
X154828787Y-73830234D01*
X155602732Y-74604180D01*
X155603430Y-74603363D01*
X155603432Y-74603361D01*
X155735019Y-74388631D01*
X155831396Y-74155956D01*
X155890187Y-73911072D01*
X155909947Y-73660000D01*
X155890187Y-73408927D01*
X155831396Y-73164043D01*
X155735019Y-72931368D01*
X155603429Y-72716634D01*
X155602733Y-72715819D01*
X155602732Y-72715819D01*
X154828787Y-73489764D01*
X154817518Y-73447708D01*
X154745110Y-73322292D01*
X154642708Y-73219890D01*
X154517292Y-73147482D01*
X154475234Y-73136212D01*
X155249179Y-72362266D01*
X155248362Y-72361568D01*
X155033631Y-72229980D01*
X154800956Y-72133603D01*
X154556072Y-72074812D01*
X154305000Y-72055052D01*
X154053927Y-72074812D01*
X153809043Y-72133603D01*
X153576368Y-72229980D01*
X153361637Y-72361567D01*
X153360819Y-72362266D01*
X154134765Y-73136212D01*
X154092708Y-73147482D01*
X153967292Y-73219890D01*
X153864890Y-73322292D01*
X153792482Y-73447708D01*
X153781212Y-73489765D01*
X153007266Y-72715819D01*
X153006567Y-72716637D01*
X152874980Y-72931368D01*
X152778603Y-73164043D01*
X152719812Y-73408927D01*
X152700052Y-73660000D01*
X152719812Y-73911072D01*
X152778603Y-74155956D01*
X152874980Y-74388631D01*
X153006568Y-74603362D01*
X153007266Y-74604179D01*
X153781212Y-73830234D01*
X153792482Y-73872292D01*
X153864890Y-73997708D01*
X153967292Y-74100110D01*
X154092708Y-74172518D01*
X154134765Y-74183787D01*
X153516471Y-74802080D01*
X153493581Y-74820126D01*
X153361338Y-74901166D01*
X153169776Y-75064776D01*
X153006161Y-75256343D01*
X153006160Y-75256346D01*
X152874533Y-75471140D01*
X152778126Y-75703889D01*
X152719317Y-75948848D01*
X152699551Y-76200000D01*
X152719317Y-76451151D01*
X152778126Y-76696110D01*
X152874533Y-76928859D01*
X153006160Y-77143653D01*
X153006161Y-77143656D01*
X153044706Y-77188786D01*
X153169776Y-77335224D01*
X153217179Y-77375710D01*
X153255372Y-77434217D01*
X153255870Y-77504085D01*
X153218516Y-77563131D01*
X153217179Y-77564290D01*
X153169776Y-77604776D01*
X153006161Y-77796343D01*
X153006160Y-77796346D01*
X152874533Y-78011140D01*
X152778126Y-78243889D01*
X152719317Y-78488848D01*
X152699551Y-78740000D01*
X152719317Y-78991151D01*
X152778126Y-79236110D01*
X152874533Y-79468859D01*
X152955520Y-79601016D01*
X152973765Y-79668462D01*
X152952649Y-79735064D01*
X152924105Y-79765072D01*
X152847452Y-79822455D01*
X152761206Y-79937664D01*
X152761202Y-79937671D01*
X152710908Y-80072517D01*
X152704501Y-80132116D01*
X152704500Y-80132135D01*
X152704500Y-80155500D01*
X152684815Y-80222539D01*
X152632011Y-80268294D01*
X152580500Y-80279500D01*
X129938283Y-80279500D01*
X129871244Y-80259815D01*
X129850602Y-80243181D01*
X129069387Y-79461966D01*
X129035902Y-79400643D01*
X129033540Y-79385092D01*
X129028135Y-79323308D01*
X128969239Y-79103504D01*
X128873068Y-78897266D01*
X128742547Y-78710861D01*
X128742545Y-78710858D01*
X128581643Y-78549956D01*
X128557036Y-78532726D01*
X128513412Y-78478149D01*
X128506219Y-78408650D01*
X128537741Y-78346296D01*
X128597971Y-78310882D01*
X128614904Y-78307861D01*
X128649983Y-78304091D01*
X128784831Y-78253796D01*
X128900046Y-78167546D01*
X128986296Y-78052331D01*
X129036591Y-77917483D01*
X129043000Y-77857873D01*
X129042999Y-76162128D01*
X129036591Y-76102517D01*
X128986296Y-75967669D01*
X128986295Y-75967668D01*
X128986293Y-75967664D01*
X128900047Y-75852455D01*
X128900044Y-75852452D01*
X128784835Y-75766206D01*
X128784828Y-75766202D01*
X128649982Y-75715908D01*
X128649983Y-75715908D01*
X128590383Y-75709501D01*
X128590381Y-75709500D01*
X128590373Y-75709500D01*
X128590364Y-75709500D01*
X126894629Y-75709500D01*
X126894623Y-75709501D01*
X126835016Y-75715908D01*
X126700171Y-75766202D01*
X126700164Y-75766206D01*
X126584955Y-75852452D01*
X126584952Y-75852455D01*
X126498706Y-75967664D01*
X126498702Y-75967671D01*
X126448408Y-76102517D01*
X126442001Y-76162116D01*
X126442001Y-76162123D01*
X126442000Y-76162135D01*
X126442000Y-76285500D01*
X126422315Y-76352539D01*
X126369511Y-76398294D01*
X126318000Y-76409500D01*
X122909499Y-76409500D01*
X122842460Y-76389815D01*
X122796705Y-76337011D01*
X122785499Y-76285500D01*
X122785499Y-75957897D01*
X122785498Y-75957891D01*
X122785497Y-75957884D01*
X122779091Y-75898285D01*
X122762832Y-75854693D01*
X122728797Y-75763439D01*
X122728793Y-75763432D01*
X122642547Y-75648223D01*
X122642544Y-75648220D01*
X122527335Y-75561974D01*
X122527328Y-75561970D01*
X122392482Y-75511676D01*
X122392483Y-75511676D01*
X122332883Y-75505269D01*
X122332881Y-75505268D01*
X122332873Y-75505268D01*
X122332864Y-75505268D01*
X120237129Y-75505268D01*
X120237123Y-75505269D01*
X120177516Y-75511676D01*
X120042671Y-75561970D01*
X120042664Y-75561974D01*
X119927455Y-75648220D01*
X119927452Y-75648223D01*
X119841206Y-75763432D01*
X119841202Y-75763439D01*
X119790908Y-75898285D01*
X119785176Y-75951607D01*
X119784501Y-75957891D01*
X119784500Y-75957903D01*
X119784500Y-78053638D01*
X119784501Y-78053644D01*
X119790908Y-78113251D01*
X119841202Y-78248096D01*
X119841206Y-78248103D01*
X119927452Y-78363312D01*
X119927455Y-78363315D01*
X120042664Y-78449561D01*
X120047361Y-78452126D01*
X120096766Y-78501532D01*
X120111617Y-78569805D01*
X120091742Y-78628779D01*
X119960826Y-78829161D01*
X119860936Y-79056886D01*
X119799892Y-79297943D01*
X119799890Y-79297955D01*
X119779357Y-79545762D01*
X112272827Y-79545762D01*
X112268343Y-79421689D01*
X112270048Y-79396254D01*
X112270275Y-79394933D01*
X112265825Y-79346676D01*
X112265383Y-79339773D01*
X112263872Y-79297955D01*
X112263633Y-79291344D01*
X112263239Y-79290061D01*
X112258298Y-79265045D01*
X112230140Y-78959631D01*
X112230391Y-78934414D01*
X112230621Y-78932366D01*
X112223484Y-78885165D01*
X112222620Y-78878066D01*
X112218232Y-78830473D01*
X112217515Y-78828532D01*
X112211229Y-78804114D01*
X112166281Y-78506823D01*
X112165087Y-78481292D01*
X112165154Y-78480113D01*
X112155233Y-78432489D01*
X112154024Y-78425754D01*
X112146759Y-78377698D01*
X112146759Y-78377696D01*
X112146285Y-78376611D01*
X112138525Y-78352271D01*
X112078423Y-78063732D01*
X112075821Y-78037892D01*
X112075822Y-78037785D01*
X112063178Y-77989729D01*
X112061706Y-77983476D01*
X112051575Y-77934837D01*
X112051574Y-77934831D01*
X112051523Y-77934730D01*
X112042321Y-77910446D01*
X111968524Y-77629941D01*
X111965480Y-77609842D01*
X111964610Y-77604906D01*
X111964610Y-77604897D01*
X111949310Y-77556347D01*
X111947658Y-77550627D01*
X111934710Y-77501408D01*
X111932825Y-77496799D01*
X111924666Y-77478139D01*
X111838561Y-77204890D01*
X111835361Y-77188786D01*
X111835274Y-77188806D01*
X111833516Y-77180874D01*
X111819970Y-77143656D01*
X111815652Y-77131793D01*
X111813909Y-77126656D01*
X111805689Y-77100570D01*
X111798219Y-77076862D01*
X111798217Y-77076859D01*
X111794787Y-77069500D01*
X111794867Y-77069462D01*
X111787606Y-77054735D01*
X111688636Y-76782806D01*
X111682443Y-76758191D01*
X111682208Y-76756568D01*
X111663186Y-76712300D01*
X111660599Y-76705771D01*
X111657083Y-76696111D01*
X111644129Y-76660515D01*
X111643184Y-76659166D01*
X111630832Y-76636996D01*
X111533085Y-76409500D01*
X111346569Y-75975402D01*
X111339078Y-75951607D01*
X111338518Y-75948904D01*
X111317369Y-75906869D01*
X111314221Y-75900113D01*
X111295641Y-75856869D01*
X111293923Y-75854690D01*
X111280533Y-75833655D01*
X111079260Y-75433609D01*
X110955249Y-75187127D01*
X110949635Y-75172044D01*
X110949489Y-75172103D01*
X110946493Y-75164542D01*
X110920833Y-75118477D01*
X110918389Y-75113865D01*
X110894676Y-75066732D01*
X110890107Y-75060012D01*
X110890237Y-75059923D01*
X110880909Y-75046805D01*
X110528788Y-74414665D01*
X110523666Y-74402251D01*
X110522975Y-74402548D01*
X110519770Y-74395082D01*
X110519769Y-74395076D01*
X110490580Y-74345973D01*
X110488852Y-74342970D01*
X110461048Y-74293055D01*
X110456203Y-74286536D01*
X110456802Y-74286090D01*
X110448639Y-74275417D01*
X110125854Y-73732409D01*
X109587644Y-72826999D01*
X109587484Y-72826728D01*
X109141027Y-72066226D01*
X109139487Y-72063525D01*
X108715122Y-71296876D01*
X108712741Y-71292356D01*
X108322180Y-70512600D01*
X108319208Y-70506221D01*
X107971912Y-69701864D01*
X107969517Y-69695897D01*
X107833822Y-69330670D01*
X107819544Y-69292242D01*
X107817942Y-69287655D01*
X107776481Y-69161044D01*
X107681904Y-68872228D01*
X107680374Y-68867192D01*
X107561386Y-68443796D01*
X107560004Y-68438413D01*
X107459416Y-68006028D01*
X107458209Y-68000210D01*
X107417034Y-67774757D01*
X107377443Y-67557972D01*
X107376481Y-67551846D01*
X107338455Y-67262407D01*
X107316915Y-67098453D01*
X107316252Y-67092148D01*
X107279378Y-66626581D01*
X107279037Y-66620133D01*
X107266377Y-66140736D01*
X107266375Y-66134340D01*
X107267344Y-66096039D01*
X107268761Y-66040000D01*
X111364935Y-66040000D01*
X111385185Y-66452176D01*
X111445735Y-66860373D01*
X111546007Y-67260676D01*
X111685019Y-67649189D01*
X111685027Y-67649209D01*
X111861466Y-68022257D01*
X112073614Y-68376206D01*
X112319445Y-68707670D01*
X112428476Y-68827967D01*
X112428477Y-68827967D01*
X114097060Y-67159384D01*
X114176112Y-67262407D01*
X114347593Y-67433888D01*
X114450614Y-67512938D01*
X112782031Y-69181521D01*
X112782031Y-69181522D01*
X112902329Y-69290554D01*
X113233793Y-69536385D01*
X113587742Y-69748533D01*
X113960790Y-69924972D01*
X113960810Y-69924980D01*
X114349323Y-70063992D01*
X114749626Y-70164264D01*
X115157823Y-70224814D01*
X115570000Y-70245064D01*
X115982176Y-70224814D01*
X116390373Y-70164264D01*
X116790676Y-70063992D01*
X117179189Y-69924980D01*
X117179209Y-69924972D01*
X117552257Y-69748533D01*
X117906206Y-69536385D01*
X118237664Y-69290558D01*
X118357967Y-69181521D01*
X116689385Y-67512938D01*
X116792407Y-67433888D01*
X116963888Y-67262407D01*
X117042938Y-67159385D01*
X118711521Y-68827967D01*
X118820558Y-68707664D01*
X119066385Y-68376206D01*
X119278533Y-68022257D01*
X119454972Y-67649209D01*
X119454980Y-67649189D01*
X119593992Y-67260676D01*
X119694264Y-66860373D01*
X119754814Y-66452176D01*
X119775064Y-66040000D01*
X155814935Y-66040000D01*
X155835185Y-66452176D01*
X155895735Y-66860373D01*
X155996007Y-67260676D01*
X156135019Y-67649189D01*
X156135027Y-67649209D01*
X156311466Y-68022257D01*
X156523614Y-68376206D01*
X156769445Y-68707670D01*
X156878476Y-68827967D01*
X156878477Y-68827967D01*
X158547060Y-67159384D01*
X158626112Y-67262407D01*
X158797593Y-67433888D01*
X158900614Y-67512938D01*
X157232031Y-69181521D01*
X157232031Y-69181522D01*
X157352329Y-69290554D01*
X157683793Y-69536385D01*
X158037742Y-69748533D01*
X158410790Y-69924972D01*
X158410810Y-69924980D01*
X158799323Y-70063992D01*
X159199626Y-70164264D01*
X159607823Y-70224814D01*
X160020000Y-70245064D01*
X160432176Y-70224814D01*
X160840373Y-70164264D01*
X161240676Y-70063992D01*
X161629189Y-69924980D01*
X161629209Y-69924972D01*
X162002257Y-69748533D01*
X162356206Y-69536385D01*
X162687664Y-69290558D01*
X162807967Y-69181521D01*
X161139385Y-67512938D01*
X161242407Y-67433888D01*
X161413888Y-67262407D01*
X161492938Y-67159385D01*
X163161521Y-68827967D01*
X163270558Y-68707664D01*
X163516385Y-68376206D01*
X163728533Y-68022257D01*
X163904972Y-67649209D01*
X163904980Y-67649189D01*
X164043992Y-67260676D01*
X164144264Y-66860373D01*
X164204814Y-66452176D01*
X164225064Y-66040000D01*
X164204814Y-65627823D01*
X164144264Y-65219626D01*
X164043992Y-64819323D01*
X163904980Y-64430810D01*
X163904972Y-64430790D01*
X163728533Y-64057742D01*
X163516385Y-63703793D01*
X163270554Y-63372329D01*
X163161522Y-63252031D01*
X163161521Y-63252031D01*
X161492938Y-64920614D01*
X161413888Y-64817593D01*
X161242407Y-64646112D01*
X161139384Y-64567059D01*
X162807967Y-62898477D01*
X162807967Y-62898476D01*
X162687670Y-62789445D01*
X162356206Y-62543614D01*
X162002257Y-62331466D01*
X161629209Y-62155027D01*
X161629189Y-62155019D01*
X161240676Y-62016007D01*
X160840373Y-61915735D01*
X160432176Y-61855185D01*
X160020000Y-61834935D01*
X159607823Y-61855185D01*
X159199626Y-61915735D01*
X158799323Y-62016007D01*
X158410810Y-62155019D01*
X158410790Y-62155027D01*
X158037742Y-62331466D01*
X157683793Y-62543614D01*
X157352341Y-62789437D01*
X157232031Y-62898477D01*
X158900614Y-64567060D01*
X158797593Y-64646112D01*
X158626112Y-64817593D01*
X158547060Y-64920614D01*
X156878477Y-63252031D01*
X156769437Y-63372341D01*
X156523614Y-63703793D01*
X156311466Y-64057742D01*
X156135027Y-64430790D01*
X156135019Y-64430810D01*
X155996007Y-64819323D01*
X155895735Y-65219626D01*
X155835185Y-65627823D01*
X155814935Y-66040000D01*
X119775064Y-66040000D01*
X119754814Y-65627823D01*
X119694264Y-65219626D01*
X119593992Y-64819323D01*
X119454980Y-64430810D01*
X119454972Y-64430790D01*
X119278533Y-64057742D01*
X119066385Y-63703793D01*
X118820554Y-63372329D01*
X118711522Y-63252031D01*
X118711521Y-63252031D01*
X117042938Y-64920614D01*
X116963888Y-64817593D01*
X116792407Y-64646112D01*
X116689384Y-64567059D01*
X118357967Y-62898477D01*
X118357967Y-62898476D01*
X118237670Y-62789445D01*
X117906206Y-62543614D01*
X117552257Y-62331466D01*
X117179209Y-62155027D01*
X117179189Y-62155019D01*
X116790676Y-62016007D01*
X116390373Y-61915735D01*
X115982176Y-61855185D01*
X115570000Y-61834935D01*
X115157823Y-61855185D01*
X114749626Y-61915735D01*
X114349323Y-62016007D01*
X113960810Y-62155019D01*
X113960790Y-62155027D01*
X113587742Y-62331466D01*
X113233793Y-62543614D01*
X112902341Y-62789437D01*
X112782031Y-62898477D01*
X114450614Y-64567060D01*
X114347593Y-64646112D01*
X114176112Y-64817593D01*
X114097060Y-64920614D01*
X112428477Y-63252031D01*
X112319437Y-63372341D01*
X112073614Y-63703793D01*
X111861466Y-64057742D01*
X111685027Y-64430790D01*
X111685019Y-64430810D01*
X111546007Y-64819323D01*
X111445735Y-65219626D01*
X111385185Y-65627823D01*
X111364935Y-66040000D01*
X107268761Y-66040000D01*
X107277085Y-65710858D01*
X107277399Y-65704634D01*
X107309184Y-65286662D01*
X107309816Y-65280435D01*
X107315558Y-65235248D01*
X107362133Y-64868732D01*
X107363068Y-64862610D01*
X107435391Y-64457631D01*
X107436635Y-64451551D01*
X107453790Y-64377226D01*
X107528439Y-64053795D01*
X107529978Y-64047817D01*
X107537309Y-64022002D01*
X107640764Y-63657684D01*
X107642567Y-63651889D01*
X107771828Y-63269877D01*
X107773913Y-63264179D01*
X107921135Y-62890797D01*
X107923494Y-62885224D01*
X108088154Y-62521009D01*
X108090755Y-62515609D01*
X108272377Y-62161000D01*
X108275217Y-62155769D01*
X108473295Y-61811283D01*
X108476366Y-61806228D01*
X108690374Y-61472409D01*
X108693690Y-61467503D01*
X108752568Y-61384707D01*
X108923092Y-61144910D01*
X108926586Y-61140236D01*
X109170906Y-60829336D01*
X109174642Y-60824809D01*
X109433319Y-60526182D01*
X109437250Y-60521858D01*
X109709779Y-60236011D01*
X109713929Y-60231861D01*
X109999728Y-59959377D01*
X110004101Y-59955404D01*
X110067830Y-59900200D01*
X110302716Y-59696735D01*
X110307243Y-59692999D01*
X110618103Y-59448711D01*
X110622824Y-59445180D01*
X110945409Y-59215783D01*
X110950322Y-59212464D01*
X111284123Y-58998466D01*
X111289182Y-58995392D01*
X111633667Y-58797316D01*
X111638898Y-58794476D01*
X111993512Y-58612851D01*
X111998911Y-58610250D01*
X112363121Y-58445591D01*
X112368700Y-58443232D01*
X112742086Y-58296008D01*
X112747798Y-58293918D01*
X113129783Y-58164666D01*
X113135579Y-58162863D01*
X113525719Y-58052075D01*
X113531689Y-58050539D01*
X113929464Y-57958731D01*
X113935537Y-57957489D01*
X114340491Y-57885170D01*
X114346642Y-57884231D01*
X114758336Y-57831916D01*
X114764542Y-57831287D01*
X115182524Y-57799502D01*
X115188749Y-57799188D01*
X115602550Y-57788723D01*
X115612769Y-57788887D01*
G37*
%TD.AperFunction*%
%TD*%
%TA.AperFunction,NonConductor*%
G36*
X126385040Y-77630185D02*
G01*
X126430795Y-77682989D01*
X126442001Y-77734500D01*
X126442001Y-77857876D01*
X126448408Y-77917483D01*
X126498702Y-78052328D01*
X126498706Y-78052335D01*
X126584952Y-78167544D01*
X126584955Y-78167547D01*
X126700164Y-78253793D01*
X126700171Y-78253797D01*
X126835011Y-78304089D01*
X126835012Y-78304089D01*
X126835017Y-78304091D01*
X126835021Y-78304091D01*
X126838113Y-78304822D01*
X126840271Y-78306050D01*
X126842285Y-78306802D01*
X126842163Y-78307128D01*
X126898830Y-78339394D01*
X126931217Y-78401304D01*
X126924993Y-78470896D01*
X126882132Y-78526075D01*
X126816243Y-78549322D01*
X126809601Y-78549500D01*
X122750889Y-78549500D01*
X122683850Y-78529815D01*
X122638095Y-78477011D01*
X122628151Y-78407853D01*
X122651623Y-78351189D01*
X122728793Y-78248103D01*
X122728792Y-78248103D01*
X122728796Y-78248099D01*
X122779091Y-78113251D01*
X122785500Y-78053641D01*
X122785500Y-77734500D01*
X122805185Y-77667461D01*
X122857989Y-77621706D01*
X122909500Y-77610500D01*
X126318001Y-77610500D01*
X126385040Y-77630185D01*
G37*
%TD.AperFunction*%
%TA.AperFunction,NonConductor*%
G36*
X156106868Y-78851103D02*
G01*
X156208181Y-78952416D01*
X156241666Y-79013739D01*
X156244500Y-79040097D01*
X156244500Y-79270903D01*
X156224815Y-79337942D01*
X156172011Y-79383697D01*
X156102853Y-79393641D01*
X156039297Y-79364616D01*
X156032819Y-79358584D01*
X155896168Y-79221933D01*
X155862683Y-79160610D01*
X155863274Y-79105310D01*
X155890683Y-78991148D01*
X155895570Y-78929052D01*
X155920453Y-78863767D01*
X155976684Y-78822296D01*
X156046409Y-78817809D01*
X156106868Y-78851103D01*
G37*
%TD.AperFunction*%
%TA.AperFunction,NonConductor*%
G36*
X126931951Y-80570185D02*
G01*
X126936023Y-80572917D01*
X127089766Y-80680568D01*
X127147775Y-80707618D01*
X127200214Y-80753791D01*
X127219366Y-80820984D01*
X127199150Y-80887865D01*
X127147775Y-80932382D01*
X127089767Y-80959431D01*
X127089765Y-80959432D01*
X126903358Y-81089954D01*
X126742454Y-81250858D01*
X126690190Y-81325501D01*
X126612381Y-81436624D01*
X126557807Y-81480248D01*
X126510808Y-81489500D01*
X122742972Y-81489500D01*
X122675933Y-81469815D01*
X122630178Y-81417011D01*
X122629416Y-81415310D01*
X122609173Y-81369161D01*
X122473166Y-81160985D01*
X122407776Y-81089953D01*
X122304744Y-80978030D01*
X122221991Y-80913620D01*
X122181179Y-80856911D01*
X122177504Y-80787138D01*
X122212136Y-80726455D01*
X122221985Y-80717919D01*
X122304744Y-80653506D01*
X122362730Y-80590516D01*
X122422616Y-80554526D01*
X122453959Y-80550500D01*
X126864912Y-80550500D01*
X126931951Y-80570185D01*
G37*
%TD.AperFunction*%
%TA.AperFunction,NonConductor*%
G36*
X126577847Y-87790185D02*
G01*
X126612380Y-87823374D01*
X126687078Y-87930054D01*
X126742454Y-88009141D01*
X126903358Y-88170045D01*
X126903361Y-88170047D01*
X127089766Y-88300568D01*
X127147775Y-88327618D01*
X127200214Y-88373791D01*
X127219366Y-88440984D01*
X127199150Y-88507865D01*
X127147775Y-88552382D01*
X127089767Y-88579431D01*
X127089765Y-88579432D01*
X126903358Y-88709954D01*
X126742454Y-88870858D01*
X126659621Y-88989159D01*
X126615344Y-89052391D01*
X126560770Y-89096016D01*
X126513771Y-89105268D01*
X122741116Y-89105268D01*
X122674077Y-89085583D01*
X122628322Y-89032779D01*
X122627560Y-89031079D01*
X122609172Y-88989159D01*
X122473166Y-88780985D01*
X122424857Y-88728508D01*
X122304744Y-88598030D01*
X122221991Y-88533620D01*
X122181179Y-88476911D01*
X122177504Y-88407138D01*
X122212136Y-88346455D01*
X122221985Y-88337919D01*
X122304744Y-88273506D01*
X122473164Y-88090553D01*
X122609173Y-87882375D01*
X122625703Y-87844691D01*
X122670658Y-87791205D01*
X122737394Y-87770514D01*
X122739259Y-87770500D01*
X126510808Y-87770500D01*
X126577847Y-87790185D01*
G37*
%TD.AperFunction*%
%TA.AperFunction,NonConductor*%
G36*
X153064586Y-88152347D02*
G01*
X153091833Y-88176127D01*
X153169776Y-88267386D01*
X153217179Y-88307872D01*
X153255372Y-88366379D01*
X153255870Y-88436247D01*
X153218516Y-88495293D01*
X153217179Y-88496452D01*
X153169776Y-88536938D01*
X153006161Y-88728505D01*
X153006160Y-88728508D01*
X152874533Y-88943303D01*
X152874531Y-88943306D01*
X152837400Y-89032952D01*
X152793560Y-89087356D01*
X152727266Y-89109421D01*
X152722839Y-89109500D01*
X149294192Y-89109500D01*
X149227153Y-89089815D01*
X149192619Y-89056625D01*
X149062547Y-88870861D01*
X149062545Y-88870858D01*
X148901641Y-88709954D01*
X148715234Y-88579432D01*
X148715228Y-88579429D01*
X148657225Y-88552382D01*
X148604785Y-88506210D01*
X148585633Y-88439017D01*
X148605848Y-88372135D01*
X148657225Y-88327618D01*
X148715234Y-88300568D01*
X148901639Y-88170047D01*
X148901641Y-88170045D01*
X148902706Y-88168981D01*
X148903292Y-88168660D01*
X148905789Y-88166566D01*
X148906209Y-88167067D01*
X148964029Y-88135496D01*
X148990387Y-88132662D01*
X152997547Y-88132662D01*
X153064586Y-88152347D01*
G37*
%TD.AperFunction*%
%TA.AperFunction,NonConductor*%
G36*
X152821223Y-90330185D02*
G01*
X152866978Y-90382989D01*
X152868744Y-90387045D01*
X152874532Y-90401019D01*
X152874533Y-90401020D01*
X153006160Y-90615815D01*
X153006161Y-90615818D01*
X153018746Y-90630553D01*
X153169776Y-90807386D01*
X153217179Y-90847872D01*
X153255372Y-90906379D01*
X153255870Y-90976247D01*
X153218516Y-91035293D01*
X153217179Y-91036452D01*
X153169776Y-91076938D01*
X153059519Y-91206032D01*
X153001012Y-91244225D01*
X152965229Y-91249500D01*
X148940088Y-91249500D01*
X148873049Y-91229815D01*
X148868965Y-91227075D01*
X148838912Y-91206032D01*
X148715234Y-91119432D01*
X148657224Y-91092381D01*
X148604785Y-91046210D01*
X148585633Y-90979017D01*
X148605848Y-90912135D01*
X148657225Y-90867618D01*
X148715234Y-90840568D01*
X148901639Y-90710047D01*
X149062547Y-90549139D01*
X149192618Y-90363375D01*
X149247193Y-90319752D01*
X149294192Y-90310500D01*
X152754184Y-90310500D01*
X152821223Y-90330185D01*
G37*
%TD.AperFunction*%
%TA.AperFunction,NonConductor*%
G36*
X126574883Y-90325953D02*
G01*
X126609419Y-90359145D01*
X126742454Y-90549141D01*
X126903358Y-90710045D01*
X126903361Y-90710047D01*
X127089766Y-90840568D01*
X127147775Y-90867618D01*
X127200214Y-90913791D01*
X127219366Y-90980984D01*
X127199150Y-91047865D01*
X127147775Y-91092382D01*
X127089767Y-91119431D01*
X127089765Y-91119432D01*
X126903358Y-91249954D01*
X126742454Y-91410858D01*
X126665950Y-91520118D01*
X126612381Y-91596624D01*
X126557807Y-91640248D01*
X126510808Y-91649500D01*
X122742972Y-91649500D01*
X122675933Y-91629815D01*
X122630178Y-91577011D01*
X122629416Y-91575310D01*
X122609173Y-91529161D01*
X122473166Y-91320985D01*
X122389238Y-91229815D01*
X122304744Y-91138030D01*
X122221991Y-91073620D01*
X122181179Y-91016911D01*
X122177504Y-90947138D01*
X122212136Y-90886455D01*
X122221985Y-90877919D01*
X122304744Y-90813506D01*
X122473164Y-90630553D01*
X122609173Y-90422375D01*
X122627560Y-90380457D01*
X122672517Y-90326972D01*
X122739253Y-90306282D01*
X122741116Y-90306268D01*
X126507844Y-90306268D01*
X126574883Y-90325953D01*
G37*
%TD.AperFunction*%
%TA.AperFunction,NonConductor*%
G36*
X153096902Y-93270185D02*
G01*
X153124152Y-93293967D01*
X153169776Y-93347386D01*
X153217179Y-93387872D01*
X153255372Y-93446379D01*
X153255870Y-93516247D01*
X153218516Y-93575293D01*
X153217179Y-93576452D01*
X153169776Y-93616938D01*
X153006161Y-93808505D01*
X153006160Y-93808508D01*
X152874533Y-94023303D01*
X152874532Y-94023305D01*
X152853073Y-94075114D01*
X152809233Y-94129518D01*
X152742939Y-94151583D01*
X152738512Y-94151662D01*
X149267698Y-94151662D01*
X149200659Y-94131977D01*
X149166124Y-94098786D01*
X149062547Y-93950861D01*
X149062545Y-93950858D01*
X148901641Y-93789954D01*
X148715234Y-93659432D01*
X148715228Y-93659429D01*
X148657225Y-93632382D01*
X148604785Y-93586210D01*
X148585633Y-93519017D01*
X148605848Y-93452135D01*
X148657225Y-93407618D01*
X148715234Y-93380568D01*
X148868965Y-93272924D01*
X148935171Y-93250598D01*
X148940088Y-93250500D01*
X153029863Y-93250500D01*
X153096902Y-93270185D01*
G37*
%TD.AperFunction*%
%TA.AperFunction,NonConductor*%
G36*
X126577847Y-92870185D02*
G01*
X126612380Y-92903374D01*
X126653692Y-92962374D01*
X126742454Y-93089141D01*
X126903358Y-93250045D01*
X126903361Y-93250047D01*
X127089766Y-93380568D01*
X127147775Y-93407618D01*
X127200214Y-93453791D01*
X127219366Y-93520984D01*
X127199150Y-93587865D01*
X127147775Y-93632382D01*
X127089767Y-93659431D01*
X127089765Y-93659432D01*
X126903358Y-93789954D01*
X126742454Y-93950858D01*
X126677363Y-94043820D01*
X126615344Y-94132391D01*
X126560770Y-94176016D01*
X126513771Y-94185268D01*
X122741116Y-94185268D01*
X122674077Y-94165583D01*
X122628322Y-94112779D01*
X122627560Y-94111079D01*
X122609172Y-94069159D01*
X122473166Y-93860985D01*
X122424857Y-93808508D01*
X122304744Y-93678030D01*
X122221991Y-93613620D01*
X122181179Y-93556911D01*
X122177504Y-93487138D01*
X122212136Y-93426455D01*
X122221985Y-93417919D01*
X122304744Y-93353506D01*
X122473164Y-93170553D01*
X122609173Y-92962375D01*
X122625703Y-92924691D01*
X122670658Y-92871205D01*
X122737394Y-92850514D01*
X122739259Y-92850500D01*
X126510808Y-92850500D01*
X126577847Y-92870185D01*
G37*
%TD.AperFunction*%
%TA.AperFunction,NonConductor*%
G36*
X152805551Y-95372347D02*
G01*
X152851306Y-95425151D01*
X152853073Y-95429210D01*
X152874532Y-95481018D01*
X152874533Y-95481020D01*
X153006160Y-95695815D01*
X153006161Y-95695818D01*
X153018746Y-95710553D01*
X153169776Y-95887386D01*
X153217179Y-95927872D01*
X153255372Y-95986379D01*
X153255870Y-96056247D01*
X153218516Y-96115293D01*
X153217179Y-96116452D01*
X153169776Y-96156938D01*
X153006161Y-96348505D01*
X153006160Y-96348508D01*
X152874533Y-96563303D01*
X152874531Y-96563306D01*
X152837400Y-96652952D01*
X152793560Y-96707356D01*
X152727266Y-96729421D01*
X152722839Y-96729500D01*
X149294192Y-96729500D01*
X149227153Y-96709815D01*
X149192619Y-96676625D01*
X149062547Y-96490861D01*
X149062545Y-96490858D01*
X148901641Y-96329954D01*
X148715234Y-96199432D01*
X148715228Y-96199429D01*
X148657225Y-96172382D01*
X148604785Y-96126210D01*
X148585633Y-96059017D01*
X148605848Y-95992135D01*
X148657225Y-95947618D01*
X148715234Y-95920568D01*
X148901639Y-95790047D01*
X149062547Y-95629139D01*
X149193068Y-95442734D01*
X149199131Y-95429733D01*
X149201684Y-95424258D01*
X149247856Y-95371818D01*
X149314066Y-95352662D01*
X152738512Y-95352662D01*
X152805551Y-95372347D01*
G37*
%TD.AperFunction*%
%TA.AperFunction,NonConductor*%
G36*
X126574883Y-95405953D02*
G01*
X126609419Y-95439145D01*
X126742454Y-95629141D01*
X126903358Y-95790045D01*
X126903361Y-95790047D01*
X127089766Y-95920568D01*
X127147775Y-95947618D01*
X127200214Y-95993791D01*
X127219366Y-96060984D01*
X127199150Y-96127865D01*
X127147775Y-96172382D01*
X127089767Y-96199431D01*
X127089765Y-96199432D01*
X126903358Y-96329954D01*
X126742454Y-96490858D01*
X126665950Y-96600118D01*
X126612381Y-96676624D01*
X126557807Y-96720248D01*
X126510808Y-96729500D01*
X122742972Y-96729500D01*
X122675933Y-96709815D01*
X122630178Y-96657011D01*
X122629416Y-96655310D01*
X122609173Y-96609161D01*
X122473166Y-96400985D01*
X122424857Y-96348508D01*
X122304744Y-96218030D01*
X122221991Y-96153620D01*
X122181179Y-96096911D01*
X122177504Y-96027138D01*
X122212136Y-95966455D01*
X122221985Y-95957919D01*
X122304744Y-95893506D01*
X122473164Y-95710553D01*
X122609173Y-95502375D01*
X122627560Y-95460457D01*
X122672517Y-95406972D01*
X122739253Y-95386282D01*
X122741116Y-95386268D01*
X126507844Y-95386268D01*
X126574883Y-95405953D01*
G37*
%TD.AperFunction*%
%TA.AperFunction,NonConductor*%
G36*
X126577847Y-97950185D02*
G01*
X126612380Y-97983374D01*
X126653692Y-98042374D01*
X126742454Y-98169141D01*
X126903358Y-98330045D01*
X126903361Y-98330047D01*
X127089766Y-98460568D01*
X127147775Y-98487618D01*
X127200214Y-98533791D01*
X127219366Y-98600984D01*
X127199150Y-98667865D01*
X127147775Y-98712381D01*
X127130772Y-98720310D01*
X127089767Y-98739431D01*
X127089765Y-98739432D01*
X126903358Y-98869954D01*
X126742454Y-99030858D01*
X126659621Y-99149159D01*
X126615344Y-99212391D01*
X126560770Y-99256016D01*
X126513771Y-99265268D01*
X122741116Y-99265268D01*
X122674077Y-99245583D01*
X122628322Y-99192779D01*
X122627560Y-99191079D01*
X122609172Y-99149159D01*
X122473166Y-98940985D01*
X122424857Y-98888508D01*
X122304744Y-98758030D01*
X122221991Y-98693620D01*
X122181179Y-98636911D01*
X122177504Y-98567138D01*
X122212136Y-98506455D01*
X122221985Y-98497919D01*
X122304744Y-98433506D01*
X122473164Y-98250553D01*
X122609173Y-98042375D01*
X122625703Y-98004691D01*
X122670658Y-97951205D01*
X122737394Y-97930514D01*
X122739259Y-97930500D01*
X126510808Y-97930500D01*
X126577847Y-97950185D01*
G37*
%TD.AperFunction*%
%TA.AperFunction,NonConductor*%
G36*
X152821223Y-97950185D02*
G01*
X152866978Y-98002989D01*
X152868744Y-98007045D01*
X152874532Y-98021019D01*
X152874533Y-98021020D01*
X153006160Y-98235815D01*
X153006161Y-98235818D01*
X153018746Y-98250553D01*
X153169776Y-98427386D01*
X153217179Y-98467872D01*
X153255372Y-98526379D01*
X153255870Y-98596247D01*
X153218516Y-98655293D01*
X153217179Y-98656452D01*
X153169776Y-98696938D01*
X153006161Y-98888505D01*
X153006160Y-98888508D01*
X152874533Y-99103303D01*
X152874531Y-99103306D01*
X152837400Y-99192952D01*
X152793560Y-99247356D01*
X152727266Y-99269421D01*
X152722839Y-99269500D01*
X149294192Y-99269500D01*
X149227153Y-99249815D01*
X149192619Y-99216625D01*
X149062547Y-99030861D01*
X149062545Y-99030858D01*
X148901641Y-98869954D01*
X148715234Y-98739432D01*
X148715228Y-98739429D01*
X148687538Y-98726517D01*
X148657224Y-98712381D01*
X148604785Y-98666210D01*
X148585633Y-98599017D01*
X148605848Y-98532135D01*
X148657225Y-98487618D01*
X148715234Y-98460568D01*
X148901639Y-98330047D01*
X149062547Y-98169139D01*
X149192618Y-97983375D01*
X149247193Y-97939752D01*
X149294192Y-97930500D01*
X152754184Y-97930500D01*
X152821223Y-97950185D01*
G37*
%TD.AperFunction*%
%TA.AperFunction,NonConductor*%
G36*
X126574883Y-100485953D02*
G01*
X126609419Y-100519145D01*
X126742454Y-100709141D01*
X126903358Y-100870045D01*
X126903361Y-100870047D01*
X127089766Y-101000568D01*
X127147775Y-101027618D01*
X127200214Y-101073791D01*
X127219366Y-101140984D01*
X127199150Y-101207865D01*
X127147775Y-101252382D01*
X127089767Y-101279431D01*
X127089765Y-101279432D01*
X126903358Y-101409954D01*
X126742454Y-101570858D01*
X126659621Y-101689159D01*
X126615344Y-101752391D01*
X126560770Y-101796016D01*
X126513771Y-101805268D01*
X122741116Y-101805268D01*
X122674077Y-101785583D01*
X122628322Y-101732779D01*
X122627560Y-101731079D01*
X122609172Y-101689159D01*
X122473166Y-101480985D01*
X122424857Y-101428508D01*
X122304744Y-101298030D01*
X122221991Y-101233620D01*
X122181179Y-101176911D01*
X122177504Y-101107138D01*
X122212136Y-101046455D01*
X122221985Y-101037919D01*
X122304744Y-100973506D01*
X122473164Y-100790553D01*
X122609173Y-100582375D01*
X122627560Y-100540457D01*
X122672517Y-100486972D01*
X122739253Y-100466282D01*
X122741116Y-100466268D01*
X126507844Y-100466268D01*
X126574883Y-100485953D01*
G37*
%TD.AperFunction*%
%TA.AperFunction,NonConductor*%
G36*
X152821223Y-100490185D02*
G01*
X152866978Y-100542989D01*
X152868744Y-100547045D01*
X152874532Y-100561019D01*
X152874533Y-100561020D01*
X153006160Y-100775815D01*
X153006161Y-100775818D01*
X153018746Y-100790553D01*
X153169776Y-100967386D01*
X153217179Y-101007872D01*
X153255372Y-101066379D01*
X153255870Y-101136247D01*
X153218516Y-101195293D01*
X153217179Y-101196452D01*
X153169776Y-101236938D01*
X153006161Y-101428505D01*
X153006160Y-101428508D01*
X152874533Y-101643303D01*
X152874531Y-101643306D01*
X152837400Y-101732952D01*
X152793560Y-101787356D01*
X152727266Y-101809421D01*
X152722839Y-101809500D01*
X149294192Y-101809500D01*
X149227153Y-101789815D01*
X149192619Y-101756625D01*
X149062547Y-101570861D01*
X149062545Y-101570858D01*
X148901641Y-101409954D01*
X148715234Y-101279432D01*
X148715228Y-101279429D01*
X148657225Y-101252382D01*
X148604785Y-101206210D01*
X148585633Y-101139017D01*
X148605848Y-101072135D01*
X148657225Y-101027618D01*
X148715234Y-101000568D01*
X148901639Y-100870047D01*
X149062547Y-100709139D01*
X149192618Y-100523375D01*
X149247193Y-100479752D01*
X149294192Y-100470500D01*
X152754184Y-100470500D01*
X152821223Y-100490185D01*
G37*
%TD.AperFunction*%
%TA.AperFunction,NonConductor*%
G36*
X152821223Y-103030185D02*
G01*
X152866978Y-103082989D01*
X152868744Y-103087045D01*
X152874532Y-103101019D01*
X152874533Y-103101020D01*
X153006160Y-103315815D01*
X153006161Y-103315818D01*
X153018746Y-103330553D01*
X153169776Y-103507386D01*
X153217179Y-103547872D01*
X153255372Y-103606379D01*
X153255870Y-103676247D01*
X153218516Y-103735293D01*
X153217179Y-103736452D01*
X153169776Y-103776938D01*
X153006161Y-103968505D01*
X153006160Y-103968508D01*
X152874533Y-104183303D01*
X152874531Y-104183306D01*
X152837400Y-104272952D01*
X152793560Y-104327356D01*
X152727266Y-104349421D01*
X152722839Y-104349500D01*
X149294192Y-104349500D01*
X149227153Y-104329815D01*
X149192619Y-104296625D01*
X149062547Y-104110861D01*
X149062545Y-104110858D01*
X148901641Y-103949954D01*
X148715234Y-103819432D01*
X148715228Y-103819429D01*
X148657225Y-103792382D01*
X148604785Y-103746210D01*
X148585633Y-103679017D01*
X148605848Y-103612135D01*
X148657225Y-103567618D01*
X148715234Y-103540568D01*
X148901639Y-103410047D01*
X149062547Y-103249139D01*
X149192618Y-103063375D01*
X149247193Y-103019752D01*
X149294192Y-103010500D01*
X152754184Y-103010500D01*
X152821223Y-103030185D01*
G37*
%TD.AperFunction*%
%TA.AperFunction,NonConductor*%
G36*
X126574883Y-103025953D02*
G01*
X126609419Y-103059145D01*
X126742454Y-103249141D01*
X126903358Y-103410045D01*
X126903361Y-103410047D01*
X127089766Y-103540568D01*
X127147775Y-103567618D01*
X127200214Y-103613791D01*
X127219366Y-103680984D01*
X127199150Y-103747865D01*
X127147775Y-103792382D01*
X127089767Y-103819431D01*
X127089765Y-103819432D01*
X126903358Y-103949954D01*
X126742454Y-104110858D01*
X126691729Y-104183303D01*
X126612381Y-104296624D01*
X126557807Y-104340248D01*
X126510808Y-104349500D01*
X122742972Y-104349500D01*
X122675933Y-104329815D01*
X122630178Y-104277011D01*
X122629416Y-104275310D01*
X122609173Y-104229161D01*
X122473166Y-104020985D01*
X122424857Y-103968508D01*
X122304744Y-103838030D01*
X122221991Y-103773620D01*
X122181179Y-103716911D01*
X122177504Y-103647138D01*
X122212136Y-103586455D01*
X122221985Y-103577919D01*
X122304744Y-103513506D01*
X122473164Y-103330553D01*
X122609173Y-103122375D01*
X122627560Y-103080457D01*
X122672517Y-103026972D01*
X122739253Y-103006282D01*
X122741116Y-103006268D01*
X126507844Y-103006268D01*
X126574883Y-103025953D01*
G37*
%TD.AperFunction*%
%TA.AperFunction,NonConductor*%
G36*
X126577847Y-105570185D02*
G01*
X126612380Y-105603374D01*
X126653692Y-105662374D01*
X126742454Y-105789141D01*
X126903358Y-105950045D01*
X126903361Y-105950047D01*
X127089766Y-106080568D01*
X127147775Y-106107618D01*
X127200214Y-106153791D01*
X127219366Y-106220984D01*
X127199150Y-106287865D01*
X127147775Y-106332381D01*
X127130772Y-106340310D01*
X127089767Y-106359431D01*
X127089765Y-106359432D01*
X126903358Y-106489954D01*
X126742454Y-106650858D01*
X126659621Y-106769159D01*
X126615344Y-106832391D01*
X126560770Y-106876016D01*
X126513771Y-106885268D01*
X122741116Y-106885268D01*
X122674077Y-106865583D01*
X122628322Y-106812779D01*
X122627560Y-106811079D01*
X122609172Y-106769159D01*
X122473166Y-106560985D01*
X122424857Y-106508508D01*
X122304744Y-106378030D01*
X122221991Y-106313620D01*
X122181179Y-106256911D01*
X122177504Y-106187138D01*
X122212136Y-106126455D01*
X122221985Y-106117919D01*
X122304744Y-106053506D01*
X122473164Y-105870553D01*
X122609173Y-105662375D01*
X122625703Y-105624691D01*
X122670658Y-105571205D01*
X122737394Y-105550514D01*
X122739259Y-105550500D01*
X126510808Y-105550500D01*
X126577847Y-105570185D01*
G37*
%TD.AperFunction*%
%TA.AperFunction,NonConductor*%
G36*
X152821223Y-105570185D02*
G01*
X152866978Y-105622989D01*
X152868744Y-105627045D01*
X152874532Y-105641019D01*
X152874533Y-105641020D01*
X153006160Y-105855815D01*
X153006161Y-105855818D01*
X153018746Y-105870553D01*
X153169776Y-106047386D01*
X153217179Y-106087872D01*
X153255372Y-106146379D01*
X153255870Y-106216247D01*
X153218516Y-106275293D01*
X153217179Y-106276452D01*
X153169776Y-106316938D01*
X153006161Y-106508505D01*
X153006160Y-106508508D01*
X152874533Y-106723303D01*
X152874531Y-106723306D01*
X152837400Y-106812952D01*
X152793560Y-106867356D01*
X152727266Y-106889421D01*
X152722839Y-106889500D01*
X149294192Y-106889500D01*
X149227153Y-106869815D01*
X149192619Y-106836625D01*
X149062547Y-106650861D01*
X149062545Y-106650858D01*
X148901641Y-106489954D01*
X148715234Y-106359432D01*
X148715228Y-106359429D01*
X148687538Y-106346517D01*
X148657224Y-106332381D01*
X148604785Y-106286210D01*
X148585633Y-106219017D01*
X148605848Y-106152135D01*
X148657225Y-106107618D01*
X148715234Y-106080568D01*
X148901639Y-105950047D01*
X149062547Y-105789139D01*
X149192618Y-105603375D01*
X149247193Y-105559752D01*
X149294192Y-105550500D01*
X152754184Y-105550500D01*
X152821223Y-105570185D01*
G37*
%TD.AperFunction*%
%TA.AperFunction,NonConductor*%
G36*
X126574883Y-108105953D02*
G01*
X126609419Y-108139145D01*
X126742454Y-108329141D01*
X126903358Y-108490045D01*
X126903361Y-108490047D01*
X127089766Y-108620568D01*
X127147775Y-108647618D01*
X127200214Y-108693791D01*
X127219366Y-108760984D01*
X127199150Y-108827865D01*
X127147775Y-108872382D01*
X127089767Y-108899431D01*
X127089765Y-108899432D01*
X126903358Y-109029954D01*
X126742454Y-109190858D01*
X126659621Y-109309159D01*
X126615344Y-109372391D01*
X126560770Y-109416016D01*
X126513771Y-109425268D01*
X122741116Y-109425268D01*
X122674077Y-109405583D01*
X122628322Y-109352779D01*
X122627560Y-109351079D01*
X122609172Y-109309159D01*
X122473166Y-109100985D01*
X122424857Y-109048508D01*
X122304744Y-108918030D01*
X122221991Y-108853620D01*
X122181179Y-108796911D01*
X122177504Y-108727138D01*
X122212136Y-108666455D01*
X122221985Y-108657919D01*
X122304744Y-108593506D01*
X122473164Y-108410553D01*
X122609173Y-108202375D01*
X122627560Y-108160457D01*
X122672517Y-108106972D01*
X122739253Y-108086282D01*
X122741116Y-108086268D01*
X126507844Y-108086268D01*
X126574883Y-108105953D01*
G37*
%TD.AperFunction*%
%TA.AperFunction,NonConductor*%
G36*
X152821223Y-108110185D02*
G01*
X152866978Y-108162989D01*
X152868744Y-108167045D01*
X152874532Y-108181019D01*
X152874533Y-108181020D01*
X153006160Y-108395815D01*
X153006161Y-108395818D01*
X153018746Y-108410553D01*
X153169776Y-108587386D01*
X153217179Y-108627872D01*
X153255372Y-108686379D01*
X153255870Y-108756247D01*
X153218516Y-108815293D01*
X153217179Y-108816452D01*
X153169776Y-108856938D01*
X153006161Y-109048505D01*
X153006160Y-109048508D01*
X152874533Y-109263303D01*
X152874531Y-109263306D01*
X152837400Y-109352952D01*
X152793560Y-109407356D01*
X152727266Y-109429421D01*
X152722839Y-109429500D01*
X149294192Y-109429500D01*
X149227153Y-109409815D01*
X149192619Y-109376625D01*
X149062547Y-109190861D01*
X149062545Y-109190858D01*
X148901641Y-109029954D01*
X148715234Y-108899432D01*
X148715228Y-108899429D01*
X148657225Y-108872382D01*
X148604785Y-108826210D01*
X148585633Y-108759017D01*
X148605848Y-108692135D01*
X148657225Y-108647618D01*
X148715234Y-108620568D01*
X148901639Y-108490047D01*
X149062547Y-108329139D01*
X149192618Y-108143375D01*
X149247193Y-108099752D01*
X149294192Y-108090500D01*
X152754184Y-108090500D01*
X152821223Y-108110185D01*
G37*
%TD.AperFunction*%
%TA.AperFunction,NonConductor*%
G36*
X126574883Y-110645953D02*
G01*
X126609419Y-110679145D01*
X126742454Y-110869141D01*
X126903358Y-111030045D01*
X126903361Y-111030047D01*
X127089766Y-111160568D01*
X127147775Y-111187618D01*
X127200214Y-111233791D01*
X127219366Y-111300984D01*
X127199150Y-111367865D01*
X127147775Y-111412382D01*
X127089767Y-111439431D01*
X127089765Y-111439432D01*
X126903358Y-111569954D01*
X126742454Y-111730858D01*
X126661807Y-111846036D01*
X126615344Y-111912391D01*
X126560770Y-111956016D01*
X126513771Y-111965268D01*
X122741116Y-111965268D01*
X122674077Y-111945583D01*
X122628322Y-111892779D01*
X122627560Y-111891079D01*
X122609172Y-111849159D01*
X122473166Y-111640985D01*
X122424857Y-111588508D01*
X122304744Y-111458030D01*
X122221991Y-111393620D01*
X122181179Y-111336911D01*
X122177504Y-111267138D01*
X122212136Y-111206455D01*
X122221985Y-111197919D01*
X122304744Y-111133506D01*
X122473164Y-110950553D01*
X122609173Y-110742375D01*
X122627560Y-110700457D01*
X122672517Y-110646972D01*
X122739253Y-110626282D01*
X122741116Y-110626268D01*
X126507844Y-110626268D01*
X126574883Y-110645953D01*
G37*
%TD.AperFunction*%
%TA.AperFunction,NonConductor*%
G36*
X152821223Y-110650185D02*
G01*
X152866978Y-110702989D01*
X152868744Y-110707045D01*
X152874532Y-110721019D01*
X152874533Y-110721020D01*
X153006160Y-110935815D01*
X153006161Y-110935818D01*
X153018746Y-110950553D01*
X153169776Y-111127386D01*
X153217179Y-111167872D01*
X153255372Y-111226379D01*
X153255870Y-111296247D01*
X153218516Y-111355293D01*
X153217179Y-111356452D01*
X153169776Y-111396938D01*
X153006161Y-111588505D01*
X153006160Y-111588508D01*
X152874533Y-111803303D01*
X152874531Y-111803306D01*
X152837400Y-111892952D01*
X152793560Y-111947356D01*
X152727266Y-111969421D01*
X152722839Y-111969500D01*
X149294192Y-111969500D01*
X149227153Y-111949815D01*
X149192619Y-111916625D01*
X149062547Y-111730861D01*
X149062545Y-111730858D01*
X148901641Y-111569954D01*
X148715234Y-111439432D01*
X148715228Y-111439429D01*
X148657225Y-111412382D01*
X148604785Y-111366210D01*
X148585633Y-111299017D01*
X148605848Y-111232135D01*
X148657225Y-111187618D01*
X148715234Y-111160568D01*
X148901639Y-111030047D01*
X149062547Y-110869139D01*
X149192618Y-110683375D01*
X149247193Y-110639752D01*
X149294192Y-110630500D01*
X152754184Y-110630500D01*
X152821223Y-110650185D01*
G37*
%TD.AperFunction*%
%TA.AperFunction,NonConductor*%
G36*
X156163834Y-111625076D02*
G01*
X156219767Y-111666948D01*
X156244184Y-111732412D01*
X156244500Y-111741258D01*
X156244500Y-112232064D01*
X156224815Y-112299103D01*
X156208181Y-112319745D01*
X156106868Y-112421058D01*
X156045545Y-112454543D01*
X155975853Y-112449559D01*
X155919920Y-112407687D01*
X155895570Y-112343108D01*
X155890683Y-112281014D01*
X155831873Y-112036051D01*
X155810410Y-111984235D01*
X155802942Y-111914769D01*
X155834216Y-111852290D01*
X155837259Y-111849136D01*
X156032820Y-111653576D01*
X156094142Y-111620092D01*
X156163834Y-111625076D01*
G37*
%TD.AperFunction*%
%TA.AperFunction,NonConductor*%
G36*
X126574883Y-113185953D02*
G01*
X126609419Y-113219145D01*
X126742454Y-113409141D01*
X126903358Y-113570045D01*
X126903361Y-113570047D01*
X127089766Y-113700568D01*
X127147775Y-113727618D01*
X127200214Y-113773791D01*
X127219366Y-113840984D01*
X127199150Y-113907865D01*
X127147775Y-113952382D01*
X127089767Y-113979431D01*
X127089765Y-113979432D01*
X126903358Y-114109954D01*
X126742454Y-114270858D01*
X126671455Y-114372258D01*
X126615344Y-114452391D01*
X126560770Y-114496016D01*
X126513771Y-114505268D01*
X122741116Y-114505268D01*
X122674077Y-114485583D01*
X122628322Y-114432779D01*
X122627560Y-114431079D01*
X122609172Y-114389159D01*
X122473166Y-114180985D01*
X122407776Y-114109953D01*
X122304744Y-113998030D01*
X122221991Y-113933620D01*
X122181179Y-113876911D01*
X122177504Y-113807138D01*
X122212136Y-113746455D01*
X122221985Y-113737919D01*
X122304744Y-113673506D01*
X122473164Y-113490553D01*
X122609173Y-113282375D01*
X122627560Y-113240457D01*
X122672517Y-113186972D01*
X122739253Y-113166282D01*
X122741116Y-113166268D01*
X126507844Y-113166268D01*
X126574883Y-113185953D01*
G37*
%TD.AperFunction*%
%TA.AperFunction,NonConductor*%
G36*
X152821223Y-113190185D02*
G01*
X152866978Y-113242989D01*
X152868744Y-113247045D01*
X152874532Y-113261019D01*
X152874533Y-113261020D01*
X152955520Y-113393178D01*
X152973765Y-113460624D01*
X152952649Y-113527226D01*
X152924105Y-113557234D01*
X152847452Y-113614617D01*
X152761206Y-113729826D01*
X152761202Y-113729833D01*
X152710908Y-113864679D01*
X152704501Y-113924278D01*
X152704500Y-113924297D01*
X152704500Y-114385500D01*
X152684815Y-114452539D01*
X152632011Y-114498294D01*
X152580500Y-114509500D01*
X149294192Y-114509500D01*
X149227153Y-114489815D01*
X149192619Y-114456625D01*
X149062547Y-114270861D01*
X149062545Y-114270858D01*
X148901641Y-114109954D01*
X148715234Y-113979432D01*
X148715228Y-113979429D01*
X148657225Y-113952382D01*
X148604785Y-113906210D01*
X148585633Y-113839017D01*
X148605848Y-113772135D01*
X148657225Y-113727618D01*
X148715234Y-113700568D01*
X148901639Y-113570047D01*
X149062547Y-113409139D01*
X149192618Y-113223375D01*
X149247193Y-113179752D01*
X149294192Y-113170500D01*
X152754184Y-113170500D01*
X152821223Y-113190185D01*
G37*
%TD.AperFunction*%
M02*
