%TF.GenerationSoftware,KiCad,Pcbnew,8.0.2*%
%TF.CreationDate,2024-07-30T13:24:05-06:00*%
%TF.ProjectId,PhotonBreakout,50686f74-6f6e-4427-9265-616b6f75742e,rev?*%
%TF.SameCoordinates,Original*%
%TF.FileFunction,Profile,NP*%
%FSLAX46Y46*%
G04 Gerber Fmt 4.6, Leading zero omitted, Abs format (unit mm)*
G04 Created by KiCad (PCBNEW 8.0.2) date 2024-07-30 13:24:05*
%MOMM*%
%LPD*%
G01*
G04 APERTURE LIST*
%TA.AperFunction,Profile*%
%ADD10C,0.100000*%
%TD*%
G04 APERTURE END LIST*
D10*
X116768317Y-57354035D02*
X118114863Y-57541069D01*
X119635698Y-57831020D01*
X121311150Y-58206071D01*
X129165656Y-60200994D01*
X133509109Y-61245878D01*
X135716031Y-61717824D01*
X137920184Y-62132353D01*
X140101898Y-62471650D01*
X142241498Y-62717899D01*
X144319312Y-62853288D01*
X146315667Y-62860000D01*
X147192989Y-62796976D01*
X148078089Y-62670985D01*
X148968432Y-62491275D01*
X149861484Y-62267097D01*
X150754711Y-62007700D01*
X151645577Y-61722332D01*
X153410088Y-61110686D01*
X155134742Y-60506154D01*
X155975785Y-60229679D01*
X156799259Y-59982731D01*
X157602630Y-59774559D01*
X158383363Y-59614412D01*
X159138923Y-59511541D01*
X159866776Y-59475193D01*
X160209516Y-59483862D01*
X160547764Y-59509591D01*
X160881101Y-59551961D01*
X161209108Y-59610554D01*
X161531366Y-59684952D01*
X161847457Y-59774734D01*
X162156961Y-59879484D01*
X162459459Y-59998782D01*
X162754532Y-60132209D01*
X163041762Y-60279347D01*
X163320729Y-60439777D01*
X163591015Y-60613081D01*
X163852200Y-60798839D01*
X164103866Y-60996634D01*
X164345593Y-61206046D01*
X164576963Y-61426657D01*
X164797556Y-61658048D01*
X165006954Y-61899800D01*
X165204737Y-62151496D01*
X165390488Y-62412715D01*
X165563785Y-62683040D01*
X165724212Y-62962052D01*
X165871348Y-63249332D01*
X166004775Y-63544461D01*
X166124074Y-63847021D01*
X166228826Y-64156593D01*
X166318611Y-64472759D01*
X166393011Y-64795099D01*
X166451608Y-65123196D01*
X166493981Y-65456630D01*
X166519712Y-65794983D01*
X166528382Y-66137836D01*
X166494370Y-66845730D01*
X166398472Y-67637317D01*
X166249899Y-68504120D01*
X166057862Y-69437662D01*
X165039266Y-73669675D01*
X164508643Y-75965706D01*
X164270235Y-77129056D01*
X164062043Y-78291328D01*
X163893277Y-79444042D01*
X163773148Y-80578723D01*
X163710865Y-81686893D01*
X163715638Y-82760074D01*
X163816049Y-84034668D01*
X164007594Y-85296802D01*
X164276807Y-86548267D01*
X164610216Y-87790849D01*
X164994355Y-89026339D01*
X165415752Y-90256524D01*
X166316451Y-92708136D01*
X167204562Y-95159996D01*
X167610225Y-96390490D01*
X167972333Y-97626412D01*
X168277419Y-98869551D01*
X168512014Y-100121695D01*
X168662647Y-101384633D01*
X168702270Y-102020709D01*
X168715852Y-102660154D01*
X168700301Y-103299621D01*
X168655025Y-103935761D01*
X168483558Y-105198938D01*
X168217967Y-106451437D01*
X167874771Y-107695012D01*
X167470487Y-108931417D01*
X167021633Y-110162406D01*
X166056286Y-112615151D01*
X165110871Y-115067275D01*
X164686932Y-116297490D01*
X164317530Y-117532811D01*
X164019182Y-118774991D01*
X163808405Y-120025786D01*
X163741018Y-120654961D01*
X163701718Y-121286948D01*
X163692570Y-121921965D01*
X163715638Y-122560231D01*
X163755582Y-122993463D01*
X163819743Y-123417833D01*
X163906450Y-123834100D01*
X164014031Y-124243026D01*
X164140815Y-124645370D01*
X164285132Y-125041891D01*
X164619674Y-125820508D01*
X165004289Y-126584957D01*
X165425604Y-127341317D01*
X166324859Y-128854094D01*
X166776056Y-129622670D01*
X167210473Y-130407477D01*
X167614740Y-131214596D01*
X167975486Y-132050107D01*
X168135360Y-132480409D01*
X168279340Y-132920089D01*
X168405755Y-133369907D01*
X168512933Y-133830623D01*
X168599203Y-134302997D01*
X168662894Y-134787789D01*
X168702334Y-135285758D01*
X168715852Y-135797666D01*
X168704335Y-136253086D01*
X168670158Y-136702528D01*
X168613875Y-137145436D01*
X168536044Y-137581254D01*
X168437221Y-138009425D01*
X168317960Y-138429394D01*
X168178820Y-138840605D01*
X168020355Y-139242501D01*
X167843122Y-139634526D01*
X167647676Y-140016125D01*
X167434575Y-140386741D01*
X167204373Y-140745818D01*
X166957628Y-141092799D01*
X166694895Y-141427130D01*
X166416730Y-141748253D01*
X166123690Y-142055613D01*
X165816330Y-142348653D01*
X165495207Y-142626818D01*
X165160877Y-142889551D01*
X164813895Y-143136296D01*
X164454818Y-143366498D01*
X164084203Y-143579599D01*
X163702604Y-143775044D01*
X163310579Y-143952278D01*
X162908683Y-144110742D01*
X162497472Y-144249883D01*
X162077503Y-144369143D01*
X161649331Y-144467966D01*
X161213513Y-144545797D01*
X160770605Y-144602078D01*
X160321163Y-144636255D01*
X159865743Y-144647771D01*
X158713160Y-144581462D01*
X157366616Y-144394411D01*
X155845783Y-144104435D01*
X154170333Y-143729350D01*
X146315829Y-141734248D01*
X141972376Y-140689269D01*
X139765454Y-140217279D01*
X137561299Y-139802710D01*
X135379585Y-139463380D01*
X133239983Y-139217104D01*
X131162167Y-139081698D01*
X129165811Y-139074979D01*
X128288489Y-139138009D01*
X127403389Y-139264018D01*
X126513045Y-139443753D01*
X125619993Y-139667966D01*
X124726767Y-139927403D01*
X123835901Y-140212815D01*
X122071389Y-140824558D01*
X120346736Y-141429188D01*
X119505693Y-141705707D01*
X118682218Y-141952694D01*
X117878847Y-142160899D01*
X117098114Y-142321071D01*
X116342553Y-142423958D01*
X115614700Y-142460309D01*
X115284546Y-142452116D01*
X114956608Y-142427689D01*
X114631433Y-142387255D01*
X114309571Y-142331042D01*
X113991568Y-142259277D01*
X113677972Y-142172188D01*
X113369331Y-142070002D01*
X113066193Y-141952946D01*
X112769105Y-141821248D01*
X112478615Y-141675135D01*
X112195271Y-141514836D01*
X111919620Y-141340576D01*
X111652211Y-141152584D01*
X111393592Y-140951087D01*
X111144308Y-140736313D01*
X110904910Y-140508489D01*
X110677084Y-140269091D01*
X110462308Y-140019812D01*
X110260811Y-139761197D01*
X110072818Y-139493790D01*
X109898559Y-139218137D01*
X109738259Y-138934783D01*
X109592147Y-138644274D01*
X109460450Y-138347155D01*
X109343394Y-138043971D01*
X109241209Y-137735267D01*
X109154121Y-137421589D01*
X109082356Y-137103481D01*
X109026144Y-136781490D01*
X108985711Y-136456160D01*
X108961284Y-136128037D01*
X108953091Y-135797666D01*
X108987104Y-135089767D01*
X109083002Y-134298163D01*
X109231575Y-133431334D01*
X109423612Y-132497759D01*
X110442210Y-128265567D01*
X110972834Y-125969441D01*
X111211242Y-124806046D01*
X111419435Y-123643736D01*
X111588201Y-122490988D01*
X111708330Y-121356281D01*
X111770613Y-120248095D01*
X111765839Y-119174909D01*
X111665429Y-117900320D01*
X111473883Y-116638201D01*
X111204671Y-115386761D01*
X110871262Y-114144211D01*
X110487124Y-112908761D01*
X110065726Y-111678619D01*
X109165028Y-109227102D01*
X108276917Y-106775337D01*
X107871255Y-105544887D01*
X107509146Y-104309005D01*
X107204061Y-103065899D01*
X106969466Y-101813781D01*
X106818833Y-100550860D01*
X106779210Y-99914789D01*
X106765628Y-99275346D01*
X106781179Y-98635878D01*
X106826455Y-97999738D01*
X106997922Y-96736561D01*
X107263512Y-95484061D01*
X107606708Y-94240486D01*
X108010991Y-93004080D01*
X108459845Y-91773091D01*
X109425192Y-89320346D01*
X110370606Y-86868222D01*
X110794544Y-85638008D01*
X111163946Y-84402688D01*
X111462295Y-83160508D01*
X111673071Y-81909714D01*
X111740459Y-81280539D01*
X111779759Y-80648553D01*
X111788907Y-80013536D01*
X111765839Y-79375270D01*
X111725895Y-78942038D01*
X111661734Y-78517668D01*
X111575027Y-78101400D01*
X111467446Y-77692474D01*
X111340662Y-77290130D01*
X111196346Y-76893608D01*
X110861803Y-76114990D01*
X110477189Y-75350540D01*
X110055873Y-74594179D01*
X109156620Y-73081401D01*
X108705423Y-72312825D01*
X108271006Y-71528018D01*
X107866739Y-70720899D01*
X107505993Y-69885389D01*
X107346119Y-69455087D01*
X107202139Y-69015408D01*
X107075725Y-68565590D01*
X106968547Y-68104875D01*
X106882277Y-67632502D01*
X106818586Y-67147711D01*
X106779146Y-66649743D01*
X106765628Y-66137837D01*
X106777145Y-65682417D01*
X106811323Y-65232975D01*
X106867605Y-64790067D01*
X106945436Y-64354249D01*
X107044260Y-63926077D01*
X107163520Y-63506108D01*
X107302661Y-63094897D01*
X107461126Y-62693001D01*
X107638359Y-62300976D01*
X107833804Y-61919377D01*
X108046906Y-61548761D01*
X108277107Y-61189684D01*
X108523852Y-60842703D01*
X108786585Y-60508372D01*
X109064749Y-60187249D01*
X109357789Y-59879889D01*
X109665149Y-59586849D01*
X109986272Y-59308684D01*
X110320602Y-59045951D01*
X110667583Y-58799206D01*
X111026660Y-58569004D01*
X111397275Y-58355903D01*
X111778874Y-58160458D01*
X112170899Y-57983224D01*
X112572794Y-57824760D01*
X112984005Y-57685619D01*
X113403974Y-57566359D01*
X113832145Y-57467536D01*
X114267963Y-57389705D01*
X114710871Y-57333424D01*
X115160313Y-57299247D01*
X115615733Y-57287731D01*
X116768317Y-57354035D01*
M02*
